<?xml version="1.0" standalone="no"?>
<!DOCTYPE svg PUBLIC "-//W3C//DTD SVG 1.1//EN" "http://www.w3.org/Graphics/SVG/1.1/DTD/svg11.dtd" >
<svg xmlns="http://www.w3.org/2000/svg" xmlns:xlink="http://www.w3.org/1999/xlink" version="1.1">
<metadata>
Created by FontForge 20161013 at Fri Oct 11 14:22:11 2013
 By ,,,
Copyright (c) Olivier Gourvat - Mostardesign Studio, 2013. All rights reserved.
</metadata>
<defs>
<font id="MetronicSlabProBold" horiz-adv-x="630" >
  <font-face 
    font-family="Metronic Slab Pro Bold"
    font-weight="400"
    font-stretch="normal"
    units-per-em="1000"
    panose-1="2 0 0 0 0 0 0 0 0 0"
    ascent="750"
    descent="-250"
    x-height="512"
    cap-height="711"
    bbox="-147 -250 1950 989"
    underline-thickness="50"
    underline-position="-200"
    unicode-range="U+0020-FB06"
  />
<missing-glyph horiz-adv-x="575" 
d="M50 0v665h475v-665h-475zM297 131v6q0 23 -9 29.5t-30 6.5t-29.5 -7t-8.5 -29v-6q0 -23 9 -30.5t29 -7.5q21 0 30 7.5t9 30.5zM283 229v8q0 15 9 24l2 3l83 83q20 24 27.5 35t14 28.5t6.5 39.5q0 54 -39.5 84t-113.5 30q-41 0 -101 -15v-57q63 19 101 19q43 0 67 -16.5
t24 -44.5q0 -19 -7 -31t-26 -34l-77 -84q-19 -19 -22 -35q-3 -11 -3 -29v-8h55z" />
    <glyph glyph-name="ff" unicode="ff" horiz-adv-x="803" 
d="M256 108h76v-108h-292v108h67v270h-73v109h73v66q0 24 2.5 40.5t12.5 41t35.5 42.5t65.5 27q70 16 203 16v-118q-87 0 -138 -11q-14 -3 -21.5 -11.5t-9 -17t-1.5 -22.5v-53h257v66q0 24 2.5 40.5t12.5 41t35.5 42.5t65.5 27q70 16 176 16v-118q-60 0 -111 -11
q-14 -3 -21.5 -11.5t-9 -17t-1.5 -22.5v-53h119v-109h-119v-270h76v-108h-292v108h67v270h-257v-270z" />
    <glyph glyph-name="fi" unicode="fi" horiz-adv-x="750" 
d="M654 108h77v-108h-292v108h67v270h-250v-270h76v-108h-292v108h67v270h-73v109h73v66q0 24 2.5 40.5t12.5 41t35.5 42.5t65.5 27q70 16 176 16v-118q-60 0 -111 -11q-14 -3 -21.5 -11.5t-9 -17t-1.5 -22.5v-53h398v-379zM661 640q0 -44 -18.5 -58.5t-62.5 -14.5
t-62.5 14.5t-18.5 58.5v8q0 43 18.5 57.5t62.5 14.5t62.5 -14.5t18.5 -57.5v-8z" />
    <glyph glyph-name="fl" unicode="fl" horiz-adv-x="708" 
d="M499 108v483q-39 11 -111 11q-49 0 -100 -11q-14 -3 -21.5 -11.5t-9 -17t-1.5 -22.5v-53h119v-109h-119v-270h76v-108h-292v108h67v270h-73v109h73v66q0 24 2.5 40.5t12.5 41t35.5 42.5t65.5 27q70 16 176 16q42 0 120.5 -7t128.5 -19v-586h67v-108h-66h-149h-67v108h66z
" />
    <glyph glyph-name="ffi" unicode="ffi" horiz-adv-x="1160" 
d="M256 108h76v-108h-292v108h67v270h-73v109h73v66q0 24 2.5 40.5t12.5 41t35.5 42.5t65.5 27q70 16 192 16v-118q-76 0 -127 -11q-14 -3 -21.5 -11.5t-9 -17t-1.5 -22.5v-53h261v66q0 24 2.5 40.5t12.5 41t35.5 42.5t65.5 27q70 16 176 16v-118q-60 0 -111 -11
q-14 -3 -21.5 -11.5t-9 -17t-1.5 -22.5v-53h398v-379h77v-108h-292v108h67v270h-250v-270h76v-108h-292v108h67v270h-261v-270zM1071 640q0 -44 -18.5 -58.5t-62.5 -14.5t-62.5 14.5t-18.5 58.5v8q0 43 18.5 57.5t62.5 14.5t62.5 -14.5t18.5 -57.5v-8z" />
    <glyph glyph-name="ffl" unicode="ffl" horiz-adv-x="1115" 
d="M906 108v483q-39 11 -111 11q-49 0 -100 -11q-14 -3 -21.5 -11.5t-9 -17t-1.5 -22.5v-53h119v-109h-119v-270h76v-108h-292v108h67v270h-258v-270h76v-108h-292v108h67v270h-73v109h73v66q0 24 2.5 40.5t12.5 41t35.5 42.5t65.5 27q70 16 189 16v-118q-73 0 -124 -11
q-14 -3 -21.5 -11.5t-9 -17t-1.5 -22.5v-53h258v66q0 24 2.5 40.5t12.5 41t35.5 42.5t65.5 27q70 16 176 16q42 0 120.5 -7t128.5 -19v-586h66v-108h-66h-149h-67v108h67z" />
    <glyph glyph-name="f_f_j" unicode="ffj" horiz-adv-x="1117" 
d="M1056 487v-531q0 -24 -2.5 -40.5t-12.5 -41t-35.5 -42.5t-65.5 -27q-64 -14 -148 -16v119q44 2 83 10q14 3 21.5 11.5t9 17t1.5 22.5v409h-245v-270h76v-108h-292v108h67v270h-257v-270h76v-108h-292v108h67v270h-73v109h73v66q0 24 2.5 40.5t12.5 41t35.5 42.5t65.5 27
q70 16 203 16v-118q-87 0 -138 -11q-14 -3 -21.5 -11.5t-9 -17t-1.5 -22.5v-53h257v66q0 24 2.5 40.5t12.5 41t35.5 42.5t65.5 27q70 16 176 16v-118q-60 0 -111 -11q-14 -3 -21.5 -11.5t-9 -17t-1.5 -22.5v-53h394zM1062 640q0 -44 -18.5 -58.5t-62.5 -14.5t-62.5 14.5
t-18.5 58.5v8q0 43 18.5 57.5t62.5 14.5t62.5 -14.5t18.5 -57.5v-8z" />
    <glyph glyph-name="f_j" unicode="fj" horiz-adv-x="699" 
d="M111 378h-81v109h81v66q0 24 2.5 40.5t12.5 41t35.5 42.5t65.5 27q70 16 176 16v-118q-60 0 -111 -11q-14 -3 -21.5 -11.5t-9 -17t-1.5 -22.5v-53h378v-531q0 -24 -2.5 -40.5t-12.5 -41t-35.5 -42.5t-65.5 -27q-64 -14 -148 -16v119q44 2 83 10q14 3 21.5 11.5t9 17
t1.5 22.5v409h-229v-270h76v-108h-292v108h67v270zM644 640q0 -44 -18.5 -58.5t-62.5 -14.5t-62.5 14.5t-18.5 58.5v8q0 43 18.5 57.5t62.5 14.5t62.5 -14.5t18.5 -57.5v-8z" />
    <glyph glyph-name=".notdef" horiz-adv-x="575" 
d="M50 0v665h475v-665h-475zM297 131v6q0 23 -9 29.5t-30 6.5t-29.5 -7t-8.5 -29v-6q0 -23 9 -30.5t29 -7.5q21 0 30 7.5t9 30.5zM283 229v8q0 15 9 24l2 3l83 83q20 24 27.5 35t14 28.5t6.5 39.5q0 54 -39.5 84t-113.5 30q-41 0 -101 -15v-57q63 19 101 19q43 0 67 -16.5
t24 -44.5q0 -19 -7 -31t-26 -34l-77 -84q-19 -19 -22 -35q-3 -11 -3 -29v-8h55z" />
    <glyph glyph-name=".null" horiz-adv-x="0" 
 />
    <glyph glyph-name="nonmarkingreturn" horiz-adv-x="333" 
 />
    <glyph glyph-name="space" unicode=" " horiz-adv-x="205" 
 />
    <glyph glyph-name="exclam" unicode="!" horiz-adv-x="288" 
d="M99 214l-29 274v223h148v-223l-27 -274h-92zM228 67q0 -46 -19.5 -61t-65.5 -15q-44 0 -63.5 15.5t-19.5 60.5v9q0 45 19.5 60t63.5 15q46 0 65.5 -15t19.5 -60v-9z" />
    <glyph glyph-name="quotedbl" unicode="&#x22;" horiz-adv-x="412" 
d="M64 415l-18 257v39h128v-39l-18 -257h-92zM256 415l-18 257v39h128v-39l-18 -257h-92z" />
    <glyph glyph-name="numbersign" unicode="#" horiz-adv-x="686" 
d="M120 0l33 185h-127l15 88h126l27 145h-126l14 88h126l35 198h96l-34 -198h131l35 198h97l-34 -198h125l-14 -88h-128l-25 -145h126l-15 -88h-125l-32 -185h-98l33 185h-131l-33 -185h-97zM264 273h131l26 145h-132z" />
    <glyph glyph-name="dollar" unicode="$" horiz-adv-x="573" 
d="M346 -5v-116h-94v112q-102 5 -214 33v187h135v-90q49 -11 90 -11q125 0 125 68q0 32 -12 48.5t-41 31.5l-130 66q-84 44 -119 85.5t-35 115.5q0 96 49 139.5t152 52.5v102h94v-100q92 -4 173 -28v-179h-135v80q-26 5 -61 5q-59 0 -88.5 -16t-29.5 -59q0 -26 18 -42
t62 -38l123 -62q68 -35 100.5 -81t32.5 -121q0 -92 -48.5 -133t-146.5 -50z" />
    <glyph glyph-name="percent" unicode="%" horiz-adv-x="852" 
d="M345 582v-79q0 -21 -2 -35.5t-10 -36t-28 -37t-52 -22.5q-36 -7 -67 -7t-65 7q-32 7 -52.5 22.5t-28.5 37t-10 36t-2 35.5v79q0 21 2 35.5t10 36.5t28.5 37.5t52.5 22.5q29 6 65 6t67 -6q32 -7 52 -22.5t28 -37.5t10 -36.5t2 -35.5zM241 495v95q-1 28 -14.5 36.5
t-40.5 8.5q-28 0 -41 -10t-13 -35v-95q0 -27 14 -36t40 -9q29 0 42 10t13 35zM176 -9l398 729h92l-398 -729h-92zM824 208v-79q0 -21 -2 -35.5t-10 -36t-28 -37t-52 -22.5q-36 -7 -67 -7t-65 7q-32 7 -52.5 22.5t-28.5 37t-10 36t-2 35.5v79q0 21 2 35.5t10 36.5t28.5 37.5
t52.5 22.5q29 6 65 6t67 -6q32 -7 52 -22.5t28 -37.5t10 -36.5t2 -35.5zM720 121v95q-1 28 -14.5 36.5t-40.5 8.5q-28 0 -41 -10t-13 -35v-95q0 -27 14 -36t40 -9q29 0 42 10t13 35z" />
    <glyph glyph-name="ampersand" unicode="&#x26;" horiz-adv-x="650" 
d="M353 536v72h-24q-25 0 -39 -0.5t-33 -5t-28.5 -12t-17 -22.5t-7.5 -36q0 -53 21 -72.5t71 -20.5h330v-113h-90v-326q-129 -9 -220 -9q-53 0 -89.5 3.5t-74.5 16t-60 35t-36 62t-14 95.5q0 62 24 115.5t75 70.5q-85 39 -85 137q0 53 13.5 89.5t33.5 56.5t56.5 31t69.5 14
t85 3h170v-184h-131zM398 113v214h-95q-53 0 -82.5 -32t-29.5 -92q0 -54 34 -73.5t95 -19.5q48 0 78 3z" />
    <glyph glyph-name="quotesingle" unicode="'" horiz-adv-x="220" 
d="M64 415l-18 257v39h128v-39l-18 -257h-92z" />
    <glyph glyph-name="parenleft" unicode="(" horiz-adv-x="311" 
d="M305 -199h-130q-143 230 -143 455t143 455h130q-142 -228 -142 -455t142 -455z" />
    <glyph glyph-name="parenright" unicode=")" horiz-adv-x="311" 
d="M6 -199q142 228 142 455t-142 455h130q143 -230 143 -455t-143 -455h-130z" />
    <glyph glyph-name="asterisk" unicode="*" horiz-adv-x="440" 
d="M147 347l-74 53l82 103l-127 35l29 86l122 -47l-6 133h92l-6 -133l123 47l30 -85l-128 -35l83 -103l-75 -55l-72 109z" />
    <glyph glyph-name="plus" unicode="+" horiz-adv-x="569" 
d="M224 0v192h-192v120h192v193h120v-193h193v-120h-193v-192h-120z" />
    <glyph glyph-name="comma" unicode="," horiz-adv-x="280" 
d="M91 -110h-110l102 245h157z" />
    <glyph glyph-name="hyphen" unicode="-" horiz-adv-x="465" 
d="M413 195h-361v120h361v-120z" />
    <glyph glyph-name="period" unicode="." horiz-adv-x="250" 
d="M209 67q0 -46 -19.5 -61t-65.5 -15q-44 0 -63.5 15.5t-19.5 60.5v9q0 45 19.5 60t63.5 15q46 0 65.5 -15t19.5 -60v-9z" />
    <glyph glyph-name="slash" unicode="/" horiz-adv-x="514" 
d="M20 -42l356 785h118l-356 -785h-118z" />
    <glyph glyph-name="zero" unicode="0" horiz-adv-x="652" 
d="M604 439v-167q0 -33 -1.5 -55t-10.5 -59.5t-25 -63t-49 -51t-79 -38.5q-53 -14 -112 -14q-62 0 -115 14q-46 13 -79 38.5t-49 51t-25 62.5t-10.5 59.5t-1.5 54.5v169q0 32 1.5 54.5t10.5 59.5t25 62.5t49 51t79 38.5q53 14 115 14q59 0 112 -14q46 -13 79 -38.5t49 -51
t25 -63t10.5 -59.5t1.5 -55zM455 272v167q-1 88 -26.5 124.5t-101.5 36.5q-80 0 -105.5 -38t-25.5 -122v-169q1 -89 27 -124.5t104 -35.5t103 39t25 122z" />
    <glyph glyph-name="one" unicode="1" horiz-adv-x="530" 
d="M361 126h150v-126h-449v126h150v435l-176 -75v134l196 91h129v-585z" />
    <glyph glyph-name="two" unicode="2" horiz-adv-x="569" 
d="M221 126h173v88h133v-214h-494v105l290 334q24 27 31.5 45t7.5 41q0 45 -31 60t-92 15q-98 0 -186 -29v118q46 17 102.5 24t83.5 7q65 0 109.5 -7t83 -26t57 -56t18.5 -94q0 -60 -16 -97.5t-59 -82.5z" />
    <glyph glyph-name="three" unicode="3" horiz-adv-x="552" 
d="M361 203q0 57 -32.5 78t-94.5 22h-108v119h108q63 0 88 16.5t25 75.5q0 54 -33 70.5t-96 16.5q-84 0 -162 -18v115q111 22 166 22t90 -3t73.5 -14.5t60.5 -33t36 -60.5t14 -95q0 -104 -90 -146q104 -35 104 -165q0 -56 -14 -95.5t-36 -62t-60 -35t-74.5 -16t-89.5 -3.5
q-80 0 -201 27v116q104 -24 197 -24q61 0 95 19.5t34 73.5z" />
    <glyph glyph-name="four" unicode="4" horiz-adv-x="632" 
d="M23 255l213 456h145l-204 -438h175v219h148v-219h109v-123h-109v-150h-147v150h-330v105z" />
    <glyph glyph-name="five" unicode="5" horiz-adv-x="574" 
d="M266 -9q-96 0 -222 28v124q134 -31 218 -31q129 0 129 98q0 61 -31 86t-96 25q-107 0 -213 -18l29 408h424v-125h-294l-9 -150q53 8 91 8q58 0 99.5 -9.5t77 -33.5t53.5 -72t18 -119q0 -56 -14 -96t-36.5 -63.5t-59.5 -37t-74.5 -18t-89.5 -4.5z" />
    <glyph glyph-name="six" unicode="6" horiz-adv-x="588" 
d="M311 319q-55 0 -114 -17v-40q1 -51 8 -82t24 -45t33 -17.5t46 -3.5q55 0 80 22t25 84q0 61 -25.5 80t-76.5 19zM272 572q-44 -11 -58.5 -51t-14.5 -103q72 24 135 24q49 0 84.5 -8t70 -29.5t52.5 -68t18 -116.5q0 -71 -15 -116.5t-49 -70t-77 -33.5t-110 -9
q-45 0 -72.5 2t-61 10.5t-53 26t-37.5 47t-25.5 75.5t-7.5 110v153q0 24 0.5 39.5t4.5 43t11 47.5t20.5 45t33 42.5t50 33.5t68.5 25q126 29 260 29v-122q-151 -5 -227 -26z" />
    <glyph glyph-name="seven" unicode="7" horiz-adv-x="551" 
d="M171 586v-93h-134v218h502v-104l-322 -607h-169l327 586h-204z" />
    <glyph glyph-name="eight" unicode="8" horiz-adv-x="626" 
d="M313 -9q-275 0 -275 221q0 39 26 91.5t72 72.5q-77 50 -77 143q0 201 254 201t254 -201q0 -93 -77 -143q46 -20 72 -72.5t26 -91.5q0 -221 -275 -221zM313 318q-126 0 -126 -106q0 -61 34.5 -81t91.5 -20q27 0 46 3.5t39 13t30.5 31t10.5 53.5q0 106 -126 106zM313 600
q-52 0 -78.5 -18t-26.5 -67q0 -50 27 -70.5t78 -20.5t78 20.5t27 70.5q0 49 -26.5 67t-78.5 18z" />
    <glyph glyph-name="nine" unicode="9" horiz-adv-x="586" 
d="M277 392q55 0 114 17v40q-1 51 -8 82t-24 45t-33 17.5t-46 3.5q-54 0 -79 -22t-25 -84q0 -61 25.5 -80t75.5 -19zM316 139q44 11 58.5 51t14.5 103q-72 -24 -135 -24q-49 0 -84.5 8t-70 29.5t-52.5 68t-18 116.5q0 71 15 116.5t49 70t77 33.5t110 9q45 0 72.5 -2
t61 -10.5t53 -26t37.5 -47t25.5 -75.5t7.5 -110v-153q0 -24 -0.5 -39.5t-4.5 -43t-11 -47.5t-20.5 -45t-33 -42.5t-50 -33.5t-68.5 -25q-126 -29 -260 -29v122q151 5 227 26z" />
    <glyph glyph-name="colon" unicode=":" horiz-adv-x="272" 
d="M220 67q0 -46 -19.5 -61t-65.5 -15q-44 0 -63.5 15.5t-19.5 60.5v9q0 45 19.5 60t63.5 15q46 0 65.5 -15t19.5 -60v-9zM220 437q0 -46 -19.5 -61t-65.5 -15q-44 0 -63.5 15.5t-19.5 60.5v9q0 45 19.5 60t63.5 15q46 0 65.5 -15t19.5 -60v-9z" />
    <glyph glyph-name="semicolon" unicode=";" horiz-adv-x="294" 
d="M237 437q0 -46 -19.5 -61t-65.5 -15q-44 0 -63.5 15.5t-19.5 60.5v9q0 45 19.5 60t63.5 15q46 0 65.5 -15t19.5 -60v-9zM96 -110h-110l102 245h157z" />
    <glyph glyph-name="less" unicode="&#x3c;" horiz-adv-x="544" 
d="M26 265v88l469 209v-126l-302 -127l302 -125v-127z" />
    <glyph glyph-name="equal" unicode="=" horiz-adv-x="564" 
d="M54 243h456v-120h-456v120zM54 478h456v-120h-456v120z" />
    <glyph glyph-name="greater" unicode="&#x3e;" horiz-adv-x="544" 
d="M518 353v-88l-469 -208v127l302 125l-302 127v126z" />
    <glyph glyph-name="question" unicode="?" horiz-adv-x="477" 
d="M270 68q0 -46 -19.5 -61t-65.5 -15q-45 0 -64.5 15.5t-19.5 60.5v9q0 45 19.5 60t64.5 15q46 0 65.5 -15t19.5 -60v-9zM251 214h-138v45q0 43 9 62t31 40q16 15 54.5 47t58.5 52q22 24 30 39.5t8 38.5q0 29 -25.5 45.5t-72.5 16.5q-69 0 -174 -31v122q95 29 174 29
q119 0 182 -44.5t63 -130.5q0 -100 -76 -167l-110 -91q-14 -17 -14 -39v-34z" />
    <glyph glyph-name="at" unicode="@" horiz-adv-x="974" 
d="M246 200l17 114q5 32 10.5 53t21.5 53.5t47.5 55.5t77.5 34q49 11 100 11q109 0 209 -28l-54 -384q85 17 111 29t30 37l27 193q6 38 6 68q0 31 -6 56t-22 52.5t-51 48.5t-87 31q-80 16 -147 16q-60 0 -151 -16q-56 -11 -98 -35t-65 -49.5t-39 -61.5t-21 -58.5t-9 -52.5
l-27 -194q-4 -29 -6 -69q-4 -148 164 -185q36 -7 74 -7q24 0 84 5l-11 -73q-1 0 -7 -0.5t-8 -0.5q-42 -5 -79 -5t-78 6q-226 48 -226 246q0 37 8 85l27 194q4 28 7.5 47.5t13 52.5t22.5 57.5t36.5 54t53.5 51t75 41t100 30.5q91 17 169 17t163 -17q227 -48 227 -254
q0 -27 -7 -83l-29 -197q-11 -73 -52.5 -95.5t-206.5 -55.5q-7 -1 -10 -2q-108 -17 -182 -17h-17q-55 0 -79 6q-109 27 -109 141q0 32 3 54zM373 312l-16 -114q-3 -20 -3 -35q0 -39 22.5 -53t80.5 -14q80 0 107 7l45 314q-45 7 -104 7q-68 0 -95.5 -24.5t-36.5 -87.5z" />
    <glyph glyph-name="A" unicode="A" horiz-adv-x="734" 
d="M294 324h146l-72 234h-2zM728 0h-287v115h70l-29 85h-230l-29 -85h70v-115h-287v115h64l214 596h166l214 -596h64v-115z" />
    <glyph glyph-name="B" unicode="B" horiz-adv-x="687" 
d="M118 0h-80v115h80v481h-80v115h80h285q40 0 67.5 -3t58.5 -14t49.5 -31t31 -56t12.5 -87v-18q0 -45 -21.5 -78.5t-59.5 -47.5v-2q51 -15 80.5 -54t29.5 -93v-31q-1 -52 -16.5 -89t-37 -57.5t-54.5 -32t-61 -14.5t-65 -3h-299zM271 126h146q76 0 80 81v19q0 26 -7.5 43.5
t-21.5 24.5t-26 9.5t-29 2.5h-142v-180zM271 586v-163h132q65 0 65 75v15q0 73 -65 73h-132z" />
    <glyph glyph-name="C" unicode="C" horiz-adv-x="600" 
d="M424 500v93q-33 4 -72 4q-79 0 -116 -38.5t-38 -127.5v-162q-1 -84 37 -118.5t123 -34.5q131 0 207 14v-122q-93 -17 -207 -17q-65 0 -120 11q-53 13 -91 38.5t-57.5 51.5t-30 62t-12.5 59.5t-2 55.5v173q0 32 2 55.5t12.5 59.5t30 62t57.5 51.5t91 38.5q55 11 114 11
q107 0 207 -18v-35v-167h-135z" />
    <glyph glyph-name="D" unicode="D" horiz-adv-x="732" 
d="M118 0h-80v115h80v481h-80v115h80h250q166 -2 243 -68.5t77 -219.5v-135q0 -155 -80.5 -221.5t-239.5 -66.5h-250zM271 125h97q92 0 129.5 37.5t37.5 125.5v135q0 91 -40 127t-127 36h-97v-461z" />
    <glyph glyph-name="E" unicode="E" horiz-adv-x="635" 
d="M595 0h-557v115h80v481h-80v115h549v-199h-135v74h-181v-172h218v-124h-218v-164h189v74h135v-200z" />
    <glyph glyph-name="F" unicode="F" horiz-adv-x="613" 
d="M271 115h90v-115h-323v115h80v481h-80v115h555v-199h-135v74h-187v-172h227v-124h-227v-175z" />
    <glyph glyph-name="G" unicode="G" horiz-adv-x="670" 
d="M446 512v82q-20 1 -51 1q-23 0 -33.5 -0.5t-32.5 -1.5t-33.5 -5t-29.5 -11t-27.5 -18t-20 -26.5t-15 -37.5t-5.5 -50v-173q0 -125 80 -146q44 -10 75 -10q68 0 131 24v128h-139v113h284v-312l-16 -10q-121 -68 -262 -68q-49 1 -109 14q-53 13 -91.5 38.5t-58 51.5
t-31 61.5t-14 60t-2.5 55.5v168q0 34 2 57t12.5 59.5t30 62t58.5 50.5t94 38t126 13q112 0 213 -21v-187h-135z" />
    <glyph glyph-name="H" unicode="H" horiz-adv-x="796" 
d="M525 302h-254v-187h80v-115h-233h-80v115h80v481h-80v115h80h153h80v-115h-80v-169h254v169h-80v115h80h153h80v-115h-80v-481h80v-115h-233h-80v115h80v187z" />
    <glyph glyph-name="I" unicode="I" horiz-adv-x="389" 
d="M271 115h80v-115h-233h-80v115h80v481h-80v115h80h153h80v-115h-80v-481z" />
    <glyph glyph-name="J" unicode="J" horiz-adv-x="457" 
d="M357 596v-410q0 -38 -11 -67.5t-27.5 -49.5t-45 -34.5t-54 -22t-65 -12.5t-67.5 -6.5t-71 -2.5v127q36 1 53 2t44 3.5t39.5 7.5t26.5 13t19.5 21t5.5 31v400h-103v115h336v-115h-80z" />
    <glyph glyph-name="K" unicode="K" horiz-adv-x="709" 
d="M691 115v-115h-157l-198 278l-65 -77v-86h80v-115h-313v115h80v481h-80v115h303v-115h-70v-230l101 134l74 96h-49v115h291v-115h-68l-173 -222l186 -259h58z" />
    <glyph glyph-name="L" unicode="L" horiz-adv-x="578" 
d="M271 596v-470h151v105h135v-231h-519v115h80v481h-80v115h233h80v-115h-80z" />
    <glyph glyph-name="M" unicode="M" horiz-adv-x="992" 
d="M936 596h-80l38 -481h65v-115h-290v115h70l-23 372h-4l-156 -407h-121l-151 374h-5l-24 -339h70v-115h-292v115h65l38 481h-80v115h277l163 -430l172 430h268v-115z" />
    <glyph glyph-name="N" unicode="N" horiz-adv-x="777" 
d="M433 711h316v-115h-80v-596h-157l-237 436h-4v-321h83v-115h-316v115h80v481h-80v115h246l228 -431h4v316h-83v115z" />
    <glyph glyph-name="O" unicode="O" horiz-adv-x="716" 
d="M670 436v-161q0 -27 -1.5 -46t-6 -50t-16.5 -54t-30 -47.5t-49.5 -43t-73.5 -28.5q-68 -15 -135 -15t-135 15q-36 9 -64.5 24.5t-46.5 32.5t-31 41t-19.5 43.5t-10.5 45.5t-4.5 42t-0.5 39v163q0 23 0.5 39t4.5 42t10.5 45.5t19.5 43.5t31 41t46.5 32.5t64.5 24.5
q68 15 135 15t135 -15q42 -10 73.5 -28.5t49.5 -43t30 -47.5t16.5 -54t6 -50t1.5 -46zM199 437v-163q0 -96 38.5 -127t120.5 -31q86 0 122.5 34.5t36.5 124.5v161q0 90 -36.5 124.5t-122.5 34.5q-82 0 -120.5 -31t-38.5 -127z" />
    <glyph glyph-name="P" unicode="P" horiz-adv-x="666" 
d="M271 379h128q47 0 68 20t21 83q0 64 -21 84t-68 20h-128v-207zM271 115h80v-115h-233h-80v115h80v481h-80v115h80h281q49 0 82.5 -4.5t66.5 -18t52 -38.5t30.5 -67t11.5 -101q0 -74 -16 -120.5t-51 -69.5t-74.5 -30.5t-101.5 -7.5h-128v-139z" />
    <glyph glyph-name="Q" unicode="Q" horiz-adv-x="716" 
d="M670 436v-161q0 -27 -1.5 -46t-6 -50t-16.5 -54t-30 -47.5t-49.5 -43t-73.5 -28.5q-31 -7 -61 -10l54 -153h-146l-38 151q-37 3 -79 12q-36 9 -64.5 24.5t-46.5 32.5t-31 41t-19.5 43.5t-10.5 45.5t-4.5 42t-0.5 39v163q0 23 0.5 39t4.5 42t10.5 45.5t19.5 43.5t31 41
t46.5 32.5t64.5 24.5q68 15 135 15t135 -15q42 -10 73.5 -28.5t49.5 -43t30 -47.5t16.5 -54t6 -50t1.5 -46zM199 437v-163q0 -96 38.5 -127t120.5 -31q86 0 122.5 34.5t36.5 124.5v161q0 90 -36.5 124.5t-122.5 34.5q-82 0 -120.5 -31t-38.5 -127z" />
    <glyph glyph-name="R" unicode="R" horiz-adv-x="681" 
d="M272 115h75v-115h-309v115h80v481h-80v115h351q49 0 83 -4.5t66.5 -18t51.5 -38.5t30.5 -67t11.5 -101q0 -110 -38.5 -157t-121.5 -60l-7 -1v-3l114 -146h76v-115h-172l-173 259h-38v-144zM272 381h117q47 0 68 19t21 82q0 64 -21.5 84t-67.5 20h-117v-205z" />
    <glyph glyph-name="S" unicode="S" horiz-adv-x="578" 
d="M386 512v80q-26 5 -61 5q-59 0 -88.5 -16t-29.5 -59q0 -26 18 -42t62 -38l123 -62q68 -35 100.5 -81t32.5 -121q0 -109 -68 -148t-210 -39q-95 0 -225 33v187h135v-90q49 -11 90 -11q125 0 125 68q0 32 -12 48.5t-41 31.5l-130 66q-84 44 -119 85.5t-35 115.5
q0 111 65.5 153t206.5 42q96 0 196 -29v-179h-135z" />
    <glyph glyph-name="T" unicode="T" horiz-adv-x="674" 
d="M413 115h80v-115h-313v115h80v471h-102v-110h-135v235h628v-235h-135v110h-103v-471z" />
    <glyph glyph-name="U" unicode="U" horiz-adv-x="763" 
d="M507 596h-80v115h80h153h80v-115h-80v-329q0 -151 -60.5 -213.5t-214.5 -62.5h-8q-157 0 -216 64.5t-59 211.5v329h-80v115h313v-115h-80v-329q0 -80 26.5 -115.5t95.5 -35.5h8q68 0 95 34t27 117v329z" />
    <glyph glyph-name="V" unicode="V" horiz-adv-x="715" 
d="M288 0l-212 596h-65v115h294v-115h-70l122 -382l122 382h-70v115h295v-115h-65l-212 -596h-139z" />
    <glyph glyph-name="W" unicode="W" horiz-adv-x="986" 
d="M308 596h-70l76 -337h5l101 425h148l101 -425h4l76 337h-70v115h293v-115h-65l-157 -596h-152l-101 443h-5l-102 -443h-153l-158 596h-65v115h294v-115z" />
    <glyph glyph-name="X" unicode="X" horiz-adv-x="704" 
d="M317 0h-306v115h60l193 248l-174 233h-60v115h298v-115h-65l90 -129l88 129h-65v115h298v-115h-60l-174 -233l193 -248h60v-115h-308v115h70l-104 137l-104 -137h70v-115z" />
    <glyph glyph-name="Y" unicode="Y" horiz-adv-x="711" 
d="M432 115h80v-115h-313v115h80v114l-203 367h-65v115h301v-115h-70l112 -228h4l110 228h-70v115h300v-115h-65l-201 -369v-112z" />
    <glyph glyph-name="Z" unicode="Z" horiz-adv-x="620" 
d="M583 225v-225h-552v105l344 481h-188v-74h-135v199h512v-107l-346 -479h230v100h135z" />
    <glyph glyph-name="bracketleft" unicode="[" horiz-adv-x="370" 
d="M345 -199h-273v910h273v-104h-142v-703h142v-103z" />
    <glyph glyph-name="backslash" unicode="\" horiz-adv-x="514" 
d="M138 743l356 -785h-118l-356 785h118z" />
    <glyph glyph-name="bracketright" unicode="]" horiz-adv-x="370" 
d="M298 -199h-273v103h142v703h-142v104h273v-910z" />
    <glyph glyph-name="asciicircum" unicode="^" horiz-adv-x="518" 
d="M157 320h-128l185 391h90l185 -391h-128l-102 232z" />
    <glyph glyph-name="underscore" unicode="_" horiz-adv-x="747" 
d="M48 -34h651v-115h-651v115z" />
    <glyph glyph-name="grave" unicode="`" horiz-adv-x="567" 
d="M378 574h-112l-134 153h160z" />
    <glyph glyph-name="a" unicode="a" horiz-adv-x="590" 
d="M37 206v104q0 24 1.5 41.5t9 45t21.5 46.5t42.5 38t67.5 28q53 12 97 12q108 0 224 -33v-380h66v-108h-186l-9 29q-73 -38 -141 -38q-107 0 -150 56t-43 159zM186 306v-107q1 -51 18.5 -71t69.5 -20q33 0 77 14v277q-41 6 -77 6q-54 0 -71 -22.5t-17 -76.5z" />
    <glyph glyph-name="b" unicode="b" horiz-adv-x="565" 
d="M61 603h-75v108h224v-207q55 17 117 17q201 -5 201 -211v-97q0 -51 -9.5 -88t-34 -69t-72.5 -48.5t-119 -16.5q-117 0 -232 17v595zM210 395v-284q29 -4 83 -4q51 0 69.5 20t18.5 71v116q0 54 -19.5 72.5t-68.5 18.5q-43 0 -83 -10z" />
    <glyph glyph-name="c" unicode="c" horiz-adv-x="488" 
d="M321 333v66q-18 2 -28 2q-59 0 -82.5 -28t-23.5 -81v-72q0 -53 23.5 -81t82.5 -28q79 0 158 15v-116q-102 -19 -176 -19q-41 0 -89 10q-41 10 -70.5 28.5t-44 37.5t-22.5 45.5t-9.5 43.5t-1.5 41v118q0 24 1.5 41t9.5 43.5t22.5 45.5t44 37.5t70.5 28.5q48 10 89 10
q74 0 176 -19v-169h-130z" />
    <glyph glyph-name="d" unicode="d" horiz-adv-x="596" 
d="M385 0l-9 29q-73 -38 -145 -38q-106 0 -149.5 59t-43.5 163v97q0 206 201 211q62 0 117 -17v99h-75v108h224v-603h69v-108h-189zM356 118v277q-40 10 -83 10q-49 0 -68.5 -18.5t-19.5 -72.5v-116q0 -51 18.5 -71t69.5 -20q33 0 83 11z" />
    <glyph glyph-name="e" unicode="e" horiz-adv-x="524" 
d="M184 310h169q9 97 -73 97h-4q-41 0 -63.5 -20.5t-28.5 -76.5zM490 214h-308q0 -53 16.5 -75.5t47.5 -28.5q90 -19 214 12v-111q-105 -20 -163 -20q-144 0 -203.5 55.5t-59.5 207.5q0 82 16 135.5t49.5 82t74.5 39t102 10.5q109 0 164.5 -47.5t55.5 -168.5q0 -37 -6 -91z
" />
    <glyph glyph-name="f" unicode="f" horiz-adv-x="397" 
d="M256 108h76v-108h-292v108h67v270h-73v109h73v66q0 24 2.5 40.5t12.5 41t35.5 42.5t65.5 27q70 16 176 16v-118q-60 0 -111 -11q-14 -3 -21.5 -11.5t-9 -17t-1.5 -22.5v-53h119v-109h-119v-270z" />
    <glyph glyph-name="g" unicode="g" horiz-adv-x="597" 
d="M352 7q-58 -16 -113 -16q-201 5 -201 211v97q0 104 43.5 163t149.5 59q72 0 145 -38l9 29h195v-108h-75v-337q0 -28 -0.5 -44t-3.5 -43t-9.5 -44t-18.5 -39.5t-30 -37t-45 -29t-62 -23.5q-80 -18 -231 -18h-43v117q192 0 241 18q47 16 49 83zM356 117v277q-50 11 -83 11
q-51 0 -69.5 -20t-18.5 -71v-116q0 -54 19.5 -72.5t68.5 -18.5q43 0 83 10z" />
    <glyph glyph-name="h" unicode="h" horiz-adv-x="647" 
d="M564 0h-149v314q0 54 -19.5 72.5t-67.5 18.5q-47 0 -87 -10v-287h66v-108h-66h-149h-67v108h67v495h-75v108h224v-207q54 17 130 17q109 0 151 -47.5t42 -147.5v-218h66v-108h-66z" />
    <glyph glyph-name="i" unicode="i" horiz-adv-x="349" 
d="M32 512h224v-404h66v-108h-67h-148h-67v108h67v296h-75v108zM262 640q0 -44 -18.5 -58.5t-62.5 -14.5t-62.5 14.5t-18.5 58.5v8q0 43 18.5 57.5t62.5 14.5t62.5 -14.5t18.5 -57.5v-8z" />
    <glyph glyph-name="j" unicode="j" horiz-adv-x="308" 
d="M253 640q0 -44 -18.5 -58.5t-62.5 -14.5t-62.5 14.5t-18.5 58.5v8q0 43 18.5 57.5t62.5 14.5t62.5 -14.5t18.5 -57.5v-8zM247 512v-556q0 -24 -2.5 -40.5t-12.5 -41t-35.5 -42.5t-65.5 -27q-64 -14 -148 -16v119q44 2 83 10q14 3 21.5 11.5t9 17t1.5 22.5v435h-81v108
h230z" />
    <glyph glyph-name="k" unicode="k" horiz-adv-x="600" 
d="M581 108v-108h-167l-127 206l-46 -48v-50h66v-108h-282v108h67v495h-75v108h224v-422l78 83l30 32h-56v108h268v-108h-65l-96 -101l121 -195h60z" />
    <glyph glyph-name="l" unicode="l" horiz-adv-x="336" 
d="M19 711h224v-603h66v-108h-66h-149h-67v108h67v495h-75v108z" />
    <glyph glyph-name="m" unicode="m" horiz-adv-x="955" 
d="M872 108h67v-108h-52h-164v289q0 40 -3 61t-20 38t-51 17q-45 0 -88 -17q3 -27 3 -58v-222h67v-108h-52h-164v289q0 40 -3 61t-20 38t-51 17q-43 0 -85 -15v-282h66v-108h-66h-149h-67v108h67v296h-75v108h195l9 -28q75 37 136 37q107 0 150 -46q94 46 158 46
q109 0 151 -47.5t41 -147.5v-218z" />
    <glyph glyph-name="n" unicode="n" horiz-adv-x="652" 
d="M569 108h67v-108h-57h-159v288q0 40 -3 61t-20 38t-51 17q-48 0 -90 -15v-281h67v-108h-67h-149h-67v108h67v296h-75v108h195l9 -28q75 37 141 37q109 0 150.5 -47.5t41.5 -147.5v-218z" />
    <glyph glyph-name="o" unicode="o" horiz-adv-x="563" 
d="M525 311v-110q0 -20 -1 -34t-5 -36.5t-13.5 -39.5t-25 -35.5t-41.5 -32t-61 -21.5q-54 -11 -97 -11t-95 11q-41 9 -71 28t-44.5 38t-22.5 46.5t-9.5 45t-1.5 41.5v110q0 24 1.5 41.5t9.5 45t22.5 46.5t44.5 38t71 28q52 11 95 11t97 -11q35 -8 61 -21.5t41.5 -32
t25 -35.5t13.5 -39.5t5 -36.5t1 -34zM376 201v110q0 54 -18.5 72t-76.5 18q-54 0 -74 -16.5t-21 -73.5v-110q0 -54 19.5 -72t75.5 -18q53 0 73.5 18t21.5 72z" />
    <glyph glyph-name="p" unicode="p" horiz-adv-x="596" 
d="M92 404h-75v108h195l9 -29q73 38 145 38q106 0 149.5 -59t43.5 -163v-97q0 -206 -201 -211q-62 0 -117 17v-99h67v-108h-67h-148h-67v108h66v495zM241 394v-277q40 -10 83 -10q49 0 68.5 18.5t19.5 72.5v116q0 51 -18.5 71t-69.5 20q-34 0 -83 -11z" />
    <glyph glyph-name="q" unicode="q" horiz-adv-x="558" 
d="M500 -91h68v-108h-67h-148h-67v108h65v109q-66 -27 -120 -27q-107 0 -150 56t-43 159v104q0 24 1.5 41.5t9 45t21.5 46.5t42.5 38t67.5 28q52 12 97 12q107 0 223 -33v-579zM187 306v-107q1 -51 18.5 -71t69.5 -20q33 0 77 14v277q-40 6 -77 6q-54 0 -71 -22.5t-17 -76.5
z" />
    <glyph glyph-name="r" unicode="r" horiz-adv-x="446" 
d="M107 404h-75v108h198l13 -44q12 4 45 16.5t50.5 18.5t44.5 12t50 6v-131q-123 -3 -177 -20v-262h66v-108h-67h-148h-67v108h67v296z" />
    <glyph glyph-name="s" unicode="s" horiz-adv-x="466" 
d="M165 170v-57q25 -6 45 -6q77 0 77 39q0 10 -6 17.5t-12 11t-19 10.5l-93 44q-63 30 -88 62t-25 88q0 72 54 107t168 35q76 0 148 -31v-139h-130v53q-16 3 -39 3q-24 0 -38 -9t-14 -24q0 -18 26 -31l97 -45q59 -28 89.5 -64.5t30.5 -89.5q0 -81 -57 -117t-169 -36
q-71 0 -175 34v145h130z" />
    <glyph glyph-name="t" unicode="t" horiz-adv-x="388" 
d="M365 117v-116q-65 -10 -104 -10q-79 0 -128 40.5t-51 120.5v251h-72v109h77l22 127h121v-127h134v-109h-134v-232q0 -59 51 -59q48 0 84 5z" />
    <glyph glyph-name="u" unicode="u" horiz-adv-x="639" 
d="M546 108h67v-108h-187l-9 28q-75 -37 -141 -37q-109 0 -150.5 47.5t-41.5 147.5v218h-75v108h224v-289q0 -40 3 -61t20 -38t51 -17q48 0 90 15v390h149v-404z" />
    <glyph glyph-name="v" unicode="v" horiz-adv-x="604" 
d="M71 404h-60v108h261v-108h-55l84 -225h2l83 225h-55v108h262v-108h-60l-163 -404h-137z" />
    <glyph glyph-name="w" unicode="w" horiz-adv-x="824" 
d="M751 404l-117 -404h-145l-76 286h-2l-76 -286h-145l-118 404h-60v108h263v-108h-55l50 -209h2l85 302h110l84 -302h2l51 209h-55v108h262v-108h-60z" />
    <glyph glyph-name="x" unicode="x" horiz-adv-x="564" 
d="M381 0l-99 167h-2l-97 -167h-163v108h70l108 157l-95 139h-67v108h161l84 -149h2l83 149h162v-108h-67l-94 -139l107 -157h70v-108h-163z" />
    <glyph glyph-name="y" unicode="y" horiz-adv-x="612" 
d="M11 404v108h267v-108h-52l80 -233h2l78 233h-52v108h267v-108h-60l-149 -371q-33 -96 -76.5 -150.5t-117.5 -80.5q-15 -5 -36.5 -8t-33 -3.5t-45.5 -1t-39 -0.5v117q31 1 41.5 1.5t33 2.5t30.5 6l23 11.5t23 18.5t18 27t19 38l-161 393h-60z" />
    <glyph glyph-name="z" unicode="z" horiz-adv-x="521" 
d="M46 332v180h425v-105l-245 -286h127v79h130v-200h-447v105l245 286h-105v-59h-130z" />
    <glyph glyph-name="braceleft" unicode="{" horiz-adv-x="335" 
d="M24 227v58q2 2 10 9t12.5 11t12 11.5t11.5 13.5t7 14t3 15v186q0 69 37 117.5t115 48.5h76v-104h-37q-36 0 -48.5 -14.5t-12.5 -44.5v-193q0 -13 -6.5 -28t-13 -24.5t-20 -25.5t-16.5 -21q3 -5 16.5 -21t20 -25.5t13 -24.5t6.5 -28v-193q0 -30 12.5 -44.5t48.5 -14.5h37
v-104h-76q-78 0 -115 48.5t-37 117.5v186q0 7 -3 15t-7 14t-11.5 13.5t-12 11.5t-12.5 11t-10 9z" />
    <glyph glyph-name="bar" unicode="|" horiz-adv-x="238" 
d="M166 819v-939h-94v939h94z" />
    <glyph glyph-name="braceright" unicode="}" horiz-adv-x="335" 
d="M311 285v-58q-2 -2 -10 -9t-12.5 -11t-12 -11.5t-11.5 -13.5t-7 -14t-3 -15v-186q0 -69 -37 -117.5t-115 -48.5h-76v104h37q36 0 48.5 14.5t12.5 44.5v193q0 13 6.5 28t13 24.5t20 25.5t16.5 21q-3 5 -16.5 21t-20 25.5t-13 24.5t-6.5 28v193q0 30 -12.5 44.5t-48.5 14.5
h-37v104h76q78 0 115 -48.5t37 -117.5v-186q0 -7 3 -15t7 -14t11.5 -13.5t12 -11.5t12.5 -11t10 -9z" />
    <glyph glyph-name="exclamdown" unicode="&#xa1;" horiz-adv-x="272" 
d="M62 24l29 274h92l27 -274v-223h-148v223zM220 445v-9q0 -45 -19.5 -60t-65.5 -15q-44 0 -63.5 15t-19.5 60v9q0 45 19.5 60.5t63.5 15.5q46 0 65.5 -15t19.5 -61z" />
    <glyph glyph-name="cent" unicode="&#xa2;" horiz-adv-x="505" 
d="M226 603h94v-83q50 -3 135 -18v-116q-79 15 -158 15q-59 0 -82.5 -28t-23.5 -81v-72q0 -53 23.5 -81t82.5 -28q79 0 158 15v-116q-68 -14 -135 -18v-100h-94v103l-36 6q-41 10 -70.5 28.5t-44 37.5t-22.5 45.5t-9.5 43.5t-1.5 41v118q0 24 1.5 41t9.5 43.5t22.5 45.5
t44 37.5t70.5 28.5q4 1 11.5 2.5t13.5 2.5t11 1v86z" />
    <glyph glyph-name="sterling" unicode="&#xa3;" horiz-adv-x="668" 
d="M276 276v-150h215v105h135v-231h-579v115h80v161h-97v92h97v88q0 31 2.5 54.5t13.5 57.5t30.5 58.5t56.5 48t88 35.5q50 10 117 10q87 0 164 -23v-197h-135v98h-8q-54 0 -84 -5t-54 -21t-33 -47.5t-9 -83.5v-73h195v-92h-195z" />
    <glyph glyph-name="currency" unicode="&#xa4;" horiz-adv-x="613" 
d="M399 338v18q0 46 -22 64.5t-70 18.5q-49 0 -70.5 -16.5t-22.5 -66.5v-18q0 -50 19.5 -66t73.5 -16q49 0 70 15t22 67zM42 152l83 82q-19 36 -19 103v20q0 68 18 102l-82 82l70 69l86 -86q41 18 109 18q63 0 107 -18l86 86l70 -69l-82 -80q20 -36 20 -104v-20
q0 -69 -20 -105l82 -80l-69 -68l-87 85q-51 -17 -107 -17q-64 0 -108 17l-87 -86z" />
    <glyph glyph-name="yen" unicode="&#xa5;" horiz-adv-x="739" 
d="M447 111h80v-111h-313v111h80v51h-141v57h141v10l-20 35h-121v57h90l-152 275h-65v115h301v-115h-70l112 -228h4l110 228h-70v115h300v-115h-65l-150 -275h89v-57h-120l-20 -37v-8h140v-57h-140v-51z" />
    <glyph glyph-name="brokenbar" unicode="&#xa6;" horiz-adv-x="206" 
d="M150 245v-365h-94v365h94zM56 448v371h94v-371h-94z" />
    <glyph glyph-name="section" unicode="&#xa7;" horiz-adv-x="569" 
d="M169 348q9 -105 74 -125q26 -6 158 -6q-8 105 -68 123q-35 8 -164 8zM458 601h-130q-76 0 -118 -29t-42 -103h65q56 0 128 -15q50 -14 85.5 -40.5t53.5 -54t27.5 -66t11.5 -62.5t2 -58v-28q0 -47 -5 -83t-24 -78t-51 -70t-90 -46.5t-138 -18.5h-120v115h120
q167 0 167 131h-62q-54 0 -129 16q-48 14 -82.5 40.5t-52.5 54.5t-28.5 65t-13 62.5t-2.5 57.5v29q-1 149 66 222t242 73h120v-114z" />
    <glyph glyph-name="dieresis" unicode="&#xa8;" horiz-adv-x="562" 
d="M269 641q0 -38 -15 -50.5t-50 -12.5t-50.5 12.5t-15.5 50.5v7q0 37 15.5 50t50.5 13t50 -13t15 -50v-7zM444 641q0 -38 -15 -50.5t-50 -12.5t-50.5 12.5t-15.5 50.5v7q0 37 15.5 50t50.5 13t50 -13t15 -50v-7z" />
    <glyph glyph-name="copyright" unicode="&#xa9;" horiz-adv-x="708" 
d="M663 392v-67q-1 -154 -77.5 -219t-231.5 -65q-156 0 -232.5 79t-76.5 204v69q0 153 77.5 218t231.5 65q159 0 234 -66.5t75 -217.5zM213 321v74q0 20 2 33.5t10 33t28 34t52 22.5q36 6 56 6q48 0 110 -12v-73q-52 10 -110 10q-55 0 -55 -69v-44q0 -69 55 -69q58 0 110 10
v-73q-62 -12 -110 -12q-20 0 -56 6q-32 8 -52 22.5t-28 34t-10 33t-2 33.5zM603 325v67q0 121 -60.5 175t-188.5 54q-124 0 -186.5 -52.5t-62.5 -175.5v-69q0 -100 61.5 -164t187.5 -64t187 52.5t62 177.5v-1z" />
    <glyph glyph-name="ordfeminine" unicode="&#xaa;" horiz-adv-x="394" 
d="M140 529v-64q1 -33 12.5 -46t44.5 -13q21 0 50 9v175q-34 4 -50 4q-35 0 -46 -15t-11 -50zM43 467v67q0 20 2 35t10 36t28.5 36t51.5 23q37 8 64 8q68 0 144 -22v-317h-77l-6 19q-47 -25 -91 -25q-70 0 -98 36.5t-28 103.5zM44 276h296v-68h-296v68z" />
    <glyph glyph-name="guillemotleft" unicode="&#xab;" horiz-adv-x="568" 
d="M194 58l-168 209l168 211h128l-167 -211l167 -209h-128zM407 58l-168 209l168 211h128l-167 -211l167 -209h-128z" />
    <glyph glyph-name="logicalnot" unicode="&#xac;" horiz-adv-x="602" 
d="M425 126v180h-380v120h500v-300h-120z" />
    <glyph glyph-name="registered" unicode="&#xae;" horiz-adv-x="478" 
d="M438 557v-41q0 -143 -114 -173q-39 -10 -84 -10q-46 0 -85 10q-38 10 -63 30.5t-35 48t-13 47.5t-3 46v43q0 142 114 173q40 9 85 9q44 0 84 -9q114 -31 114 -174zM224 551h23q9 0 13 4.5t4 17.5q0 14 -4 18t-13 4h-23v-44zM274 511l50 -67h-60l-40 65v-65h-50v193h73
q34 0 50.5 -12.5t16.5 -51.5q0 -52 -40 -62zM386 515v43q-2 75 -37.5 105t-108.5 30q-77 0 -112 -31t-35 -103v-45q2 -75 37.5 -104.5t109.5 -29.5q75 0 110.5 32t35.5 103z" />
    <glyph glyph-name="macron" unicode="&#xaf;" horiz-adv-x="486" 
d="M367 578h-246v93h246v-93z" />
    <glyph glyph-name="degree" unicode="&#xb0;" horiz-adv-x="356" 
d="M316 605v-65q0 -25 -2.5 -41t-21.5 -38t-55 -30q-28 -6 -60 -6q-30 0 -58 6q-36 8 -55 30t-21.5 38t-2.5 41v65q0 17 1.5 29t8.5 30t24.5 31t44.5 19q28 6 58 6q32 0 60 -6q27 -6 44.5 -19t24.5 -31t8.5 -30t1.5 -29zM244 545v55q-1 32 -17.5 41.5t-49.5 9.5
q-34 0 -49.5 -11t-15.5 -40v-55q1 -31 17 -41t48 -10q36 0 51.5 10.5t15.5 40.5z" />
    <glyph glyph-name="plusminus" unicode="&#xb1;" horiz-adv-x="607" 
d="M243 171v154h-192v120h192v155h120v-155h193v-120h-193v-154h-120zM51 110h505v-110h-505v110z" />
    <glyph glyph-name="twosuperior" unicode="&#xb2;" horiz-adv-x="362" 
d="M152 522h96v49h82v-131h-301v67l166 191q21 24 21 46q0 23 -16.5 30t-48.5 7q-50 0 -111 -17v77q51 19 111 19q78 0 118 -22.5t40 -86.5q0 -34 -10 -57t-35 -49z" />
    <glyph glyph-name="threesuperior" unicode="&#xb3;" horiz-adv-x="349" 
d="M216 557q0 30 -17 40.5t-50 11.5h-51v77h51q33 0 46.5 9t13.5 38q0 28 -18 36.5t-51 8.5q-47 0 -97 -11v75q57 14 99 14q41 0 65.5 -3.5t49 -15t35.5 -37.5t11 -67q0 -59 -53 -82q29 -11 45 -37t16 -57q0 -78 -39.5 -102t-121.5 -24q-47 0 -119 17v75q62 -14 117 -14
q32 0 50 10t18 38z" />
    <glyph glyph-name="acute" unicode="&#xb4;" horiz-adv-x="567" 
d="M244 574h-112l86 153h160z" />
    <glyph glyph-name="mu" unicode="&#xb5;" horiz-adv-x="663" 
d="M563 108h67v-108h-187l-9 28q-75 -37 -141 -37q-37 0 -72 7v-138h-119l-1 544h-75v108h225v-285l-1 -8q0 -23 1 -37t5 -30t11.5 -24.5t22 -14.5t34.5 -6q48 0 90 15v390h149v-404z" />
    <glyph glyph-name="paragraph" unicode="&#xb6;" horiz-adv-x="629" 
d="M506 619v-694h-92v694h-71v-694h-92v352q-48 0 -96 11q-44 11 -72.5 33.5t-39.5 54.5t-14 54t-3 53v22q0 21 1 33.5t4.5 36t12 39.5t22 34.5t36.5 31.5t53 20q48 11 96 11h236h116v-92h-97z" />
    <glyph glyph-name="periodcentered" unicode="&#xb7;" horiz-adv-x="262" 
d="M215 255q0 -46 -19.5 -61t-65.5 -15q-44 0 -63.5 15.5t-19.5 60.5v9q0 45 19.5 60t63.5 15q46 0 65.5 -15t19.5 -60v-9z" />
    <glyph glyph-name="cedilla" unicode="&#xb8;" horiz-adv-x="516" 
d="M272 22l17 -12q67 -51 67 -114q0 -45 -28 -70t-79 -25h-89v86h64q44 0 44 26q0 16 -20.5 41.5t-50.5 45.5v22h75z" />
    <glyph glyph-name="onesuperior" unicode="&#xb9;" horiz-adv-x="344" 
d="M229 522h97v-82h-283v82h91v235l-100 -43v88l114 53h81v-333z" />
    <glyph glyph-name="ordmasculine" unicode="&#xba;" horiz-adv-x="391" 
d="M354 535v-71q0 -16 -1 -27t-6 -29t-14.5 -30.5t-28.5 -25t-46 -18.5q-35 -7 -63 -7q-27 0 -62 7q-33 8 -54.5 23t-29.5 36t-10.5 36t-2.5 35v71q0 16 1 27t6.5 29t15 30.5t28.5 24.5t46 18q33 8 62 8q30 0 63 -8q33 -7 54.5 -22.5t29.5 -36.5t10 -35.5t2 -34.5zM257 464
v71q0 36 -12 47.5t-50 11.5q-34 0 -47.5 -11t-14.5 -48v-71q0 -35 13 -47t49 -12q34 0 47.5 11.5t14.5 47.5zM47 276h296v-68h-296v68z" />
    <glyph glyph-name="guillemotright" unicode="&#xbb;" horiz-adv-x="568" 
d="M542 267l-168 -209h-128l167 209l-167 211h128zM329 267l-168 -209h-128l167 209l-167 211h128z" />
    <glyph glyph-name="onequarter" unicode="&#xbc;" horiz-adv-x="924" 
d="M251 -30l356 785h87l-356 -785h-87zM555 152l123 263h94l-121 -249h98v113h88v-113h62v-81h-62v-85h-94v85h-188v67zM233 378h97v-82h-283v82h91v235l-100 -43v88l114 53h81v-333z" />
    <glyph glyph-name="onehalf" unicode="&#xbd;" horiz-adv-x="918" 
d="M244 -30l356 785h87l-356 -785h-87zM712 82h96v49h82v-131h-301v67l166 191q21 24 21 46q0 23 -16.5 30t-48.5 7q-50 0 -111 -17v77q51 19 111 19q78 0 118 -22.5t40 -86.5q0 -34 -10 -57t-35 -49zM229 378h97v-82h-283v82h91v235l-100 -43v88l114 53h81v-333z" />
    <glyph glyph-name="threequarters" unicode="&#xbe;" horiz-adv-x="902" 
d="M229 -30l356 785h87l-356 -785h-87zM533 152l123 263h94l-121 -249h98v113h88v-113h62v-81h-62v-85h-94v85h-188v67zM222 413q0 30 -17 40.5t-50 11.5h-51v77h51q33 0 46.5 9t13.5 38q0 28 -18 36.5t-51 8.5q-47 0 -97 -11v75q57 14 99 14q41 0 65.5 -3.5t49 -15
t35.5 -37.5t11 -67q0 -59 -53 -82q29 -11 45 -37t16 -57q0 -78 -39.5 -102t-121.5 -24q-47 0 -119 17v75q62 -14 117 -14q32 0 50 10t18 38z" />
    <glyph glyph-name="questiondown" unicode="&#xbf;" horiz-adv-x="473" 
d="M205 445q0 46 19.5 61t65.5 15q45 0 64.5 -15.5t19.5 -60.5v-9q0 -45 -19.5 -60t-64.5 -15q-46 0 -65.5 15t-19.5 60v9zM224 295h138v-45q0 -43 -9 -62t-31 -40q-16 -15 -54.5 -47t-58.5 -52q-22 -24 -30 -39.5t-8 -38.5q0 -29 25.5 -45.5t72.5 -16.5q69 0 174 31v-122
q-95 -29 -174 -29q-119 0 -182 44.5t-63 130.5q0 100 76 167l110 91q14 17 14 39v34z" />
    <glyph glyph-name="Agrave" unicode="&#xc0;" horiz-adv-x="734" 
d="M445 765h-112l-148 159h160zM294 324h146l-72 234h-2zM728 0h-287v115h70l-29 85h-230l-29 -85h70v-115h-287v115h64l214 596h166l214 -596h64v-115z" />
    <glyph glyph-name="Aacute" unicode="&#xc1;" horiz-adv-x="734" 
d="M408 765h-112l100 159h160zM294 324h146l-72 234h-2zM728 0h-287v115h70l-29 85h-230l-29 -85h70v-115h-287v115h64l214 596h166l214 -596h64v-115z" />
    <glyph glyph-name="Acircumflex" unicode="&#xc2;" horiz-adv-x="734" 
d="M527 765h-99l-60 68l-61 -68h-99l94 134h133zM294 324h146l-72 234h-2zM728 0h-287v115h70l-29 85h-230l-29 -85h70v-115h-287v115h64l214 596h166l214 -596h64v-115z" />
    <glyph glyph-name="Atilde" unicode="&#xc3;" horiz-adv-x="734" 
d="M324 812q-22 19 -29 19q-12 0 -21 -33l-9 -36h-82l13 49q8 31 13 44.5t16 30t28.5 22.5t44.5 6q24 0 40.5 -9.5t56.5 -44.5q19 -19 28 -19t14.5 11t12.5 41l3 16h84l-13 -48q-9 -31 -13.5 -44.5t-16 -30.5t-28.5 -23t-44 -6q-28 0 -43.5 9.5t-54.5 45.5zM294 324h146
l-72 234h-2zM728 0h-287v115h70l-29 85h-230l-29 -85h70v-115h-287v115h64l214 596h166l214 -596h64v-115z" />
    <glyph glyph-name="Adieresis" unicode="&#xc4;" horiz-adv-x="734" 
d="M338 826q0 -38 -15 -50.5t-50 -12.5t-50.5 12.5t-15.5 50.5v7q0 37 15.5 50t50.5 13t50 -13t15 -50v-7zM529 826q0 -38 -15 -50.5t-50 -12.5t-50.5 12.5t-15.5 50.5v7q0 37 15.5 50t50.5 13t50 -13t15 -50v-7zM294 324h146l-72 234h-2zM728 0h-287v115h70l-29 85h-230
l-29 -85h70v-115h-287v115h64l214 596h166l214 -596h64v-115z" />
    <glyph glyph-name="Aring" unicode="&#xc5;" horiz-adv-x="734" 
d="M379 946q54 0 72 -22.5t18 -71.5t-18.5 -72t-71.5 -23h-24q-52 0 -70.5 23t-18.5 72t18.5 71.5t70.5 22.5h24zM378 895h-22q-34 0 -34 -43q0 -23 7 -33.5t27 -10.5h22q21 0 28 10.5t7 33.5q0 22 -7.5 32.5t-27.5 10.5zM294 324h146l-72 234h-2zM728 0h-287v115h70l-29 85
h-230l-29 -85h70v-115h-287v115h64l214 596h166l214 -596h64v-115z" />
    <glyph glyph-name="AE" unicode="&#xc6;" horiz-adv-x="1038" 
d="M520 593l-146 -259h146v259zM998 0h-475v206h-222l-53 -91h67v-115h-309v115h70l354 596h560v-199h-135v74h-181v-172h218v-124h-218v-164h189v74h135v-200z" />
    <glyph glyph-name="Ccedilla" unicode="&#xc7;" horiz-adv-x="600" 
d="M424 500v93q-33 4 -72 4q-79 0 -116 -38.5t-38 -127.5v-162q-1 -84 37 -118.5t123 -34.5q131 0 207 14v-122q-93 -17 -207 -17h-12q27 -15 46 -43t19 -52q0 -45 -28 -70t-79 -25h-89v86h64q44 0 44 26q0 18 -13 43t-39 41q-11 1 -33 5q-53 13 -91 38.5t-57.5 51.5t-30 62
t-12.5 59.5t-2 55.5v173q0 32 2 55.5t12.5 59.5t30 62t57.5 51.5t91 38.5q55 11 114 11q107 0 207 -18v-202h-135z" />
    <glyph glyph-name="Egrave" unicode="&#xc8;" horiz-adv-x="635" 
d="M415 765h-112l-148 159h160zM595 0h-557v115h80v481h-80v115h549v-199h-135v74h-181v-172h218v-124h-218v-164h189v74h135v-200z" />
    <glyph glyph-name="Eacute" unicode="&#xc9;" horiz-adv-x="635" 
d="M347 765h-112l100 159h160zM595 0h-557v115h80v481h-80v115h549v-199h-135v74h-181v-172h218v-124h-218v-164h189v74h135v-200z" />
    <glyph glyph-name="Ecircumflex" unicode="&#xca;" horiz-adv-x="635" 
d="M488 765h-99l-60 68l-61 -68h-99l94 134h133zM595 0h-557v115h80v481h-80v115h549v-199h-135v74h-181v-172h218v-124h-218v-164h189v74h135v-200z" />
    <glyph glyph-name="Edieresis" unicode="&#xcb;" horiz-adv-x="635" 
d="M293 826q0 -38 -15 -50.5t-50 -12.5t-50.5 12.5t-15.5 50.5v7q0 37 15.5 50t50.5 13t50 -13t15 -50v-7zM484 826q0 -38 -15 -50.5t-50 -12.5t-50.5 12.5t-15.5 50.5v7q0 37 15.5 50t50.5 13t50 -13t15 -50v-7zM595 0h-557v115h80v481h-80v115h549v-199h-135v74h-181v-172
h218v-124h-218v-164h189v74h135v-200z" />
    <glyph glyph-name="Igrave" unicode="&#xcc;" horiz-adv-x="389" 
d="M270 765h-112l-148 159h160zM271 115h80v-115h-233h-80v115h80v481h-80v115h80h153h80v-115h-80v-481z" />
    <glyph glyph-name="Iacute" unicode="&#xcd;" horiz-adv-x="389" 
d="M232 765h-112l100 159h160zM271 115h80v-115h-233h-80v115h80v481h-80v115h80h153h80v-115h-80v-481z" />
    <glyph glyph-name="Icircumflex" unicode="&#xce;" horiz-adv-x="389" 
d="M354 765h-99l-60 68l-61 -68h-99l94 134h133zM271 115h80v-115h-233h-80v115h80v481h-80v115h80h153h80v-115h-80v-481z" />
    <glyph glyph-name="Idieresis" unicode="&#xcf;" horiz-adv-x="389" 
d="M164 826q0 -38 -15 -50.5t-50 -12.5t-50.5 12.5t-15.5 50.5v7q0 37 15.5 50t50.5 13t50 -13t15 -50v-7zM355 826q0 -38 -15 -50.5t-50 -12.5t-50.5 12.5t-15.5 50.5v7q0 37 15.5 50t50.5 13t50 -13t15 -50v-7zM271 115h80v-115h-233h-80v115h80v481h-80v115h80h153h80
v-115h-80v-481z" />
    <glyph glyph-name="Eth" unicode="&#xd0;" horiz-adv-x="733" 
d="M39 0v115h80v183h-73v113h73v185h-80v115h330q166 -2 243 -68.5t77 -219.5v-135q0 -155 -80.5 -221.5t-239.5 -66.5h-330zM272 125h97q92 0 129.5 37.5t37.5 125.5v135q0 91 -40 127t-127 36h-97v-175h150v-113h-150v-173z" />
    <glyph glyph-name="Ntilde" unicode="&#xd1;" horiz-adv-x="777" 
d="M353 812q-22 19 -29 19q-12 0 -21 -33l-9 -36h-82l13 49q8 31 13 44.5t16 30t28.5 22.5t44.5 6q24 0 40.5 -9.5t56.5 -44.5q19 -19 28 -19t14.5 11t12.5 41l3 16h84l-13 -48q-9 -31 -13.5 -44.5t-16 -30.5t-28.5 -23t-44 -6q-28 0 -43.5 9.5t-54.5 45.5zM433 711h316
v-115h-80v-596h-157l-237 436h-4v-321h83v-115h-316v115h80v481h-80v115h246l228 -431h4v316h-83v115z" />
    <glyph glyph-name="Ograve" unicode="&#xd2;" horiz-adv-x="716" 
d="M670 275v161q0 27 -1.5 46t-6 50t-16.5 54t-30 47.5t-49.5 43t-73.5 28.5q-68 15 -135 15t-135 -15q-36 -9 -64.5 -24.5t-46.5 -32.5t-31 -41t-19.5 -43.5t-10.5 -45.5t-4.5 -42t-0.5 -39v-163q0 -23 0.5 -39t4.5 -42t10.5 -45.5t19.5 -43.5t31 -41t46.5 -32.5
t64.5 -24.5q68 -15 135 -15t135 15q42 10 73.5 28.5t49.5 43t30 47.5t16.5 54t6 50t1.5 46zM199 274v163q0 96 38.5 127t120.5 31q86 0 122.5 -34.5t36.5 -124.5v-161q0 -90 -36.5 -124.5t-122.5 -34.5q-82 0 -120.5 31t-38.5 127zM414 765h-112l-148 159h160z" />
    <glyph glyph-name="Oacute" unicode="&#xd3;" horiz-adv-x="716" 
d="M670 436v-161q0 -27 -1.5 -46t-6 -50t-16.5 -54t-30 -47.5t-49.5 -43t-73.5 -28.5q-68 -15 -135 -15t-135 15q-36 9 -64.5 24.5t-46.5 32.5t-31 41t-19.5 43.5t-10.5 45.5t-4.5 42t-0.5 39v163q0 23 0.5 39t4.5 42t10.5 45.5t19.5 43.5t31 41t46.5 32.5t64.5 24.5
q68 15 135 15t135 -15q42 -10 73.5 -28.5t49.5 -43t30 -47.5t16.5 -54t6 -50t1.5 -46zM199 437v-163q0 -96 38.5 -127t120.5 -31q86 0 122.5 34.5t36.5 124.5v161q0 90 -36.5 124.5t-122.5 34.5q-82 0 -120.5 -31t-38.5 -127zM392 765h-112l100 159h160z" />
    <glyph glyph-name="Ocircumflex" unicode="&#xd4;" horiz-adv-x="716" 
d="M670 275v161q0 27 -1.5 46t-6 50t-16.5 54t-30 47.5t-49.5 43t-73.5 28.5q-68 15 -135 15t-135 -15q-36 -9 -64.5 -24.5t-46.5 -32.5t-31 -41t-19.5 -43.5t-10.5 -45.5t-4.5 -42t-0.5 -39v-163q0 -23 0.5 -39t4.5 -42t10.5 -45.5t19.5 -43.5t31 -41t46.5 -32.5
t64.5 -24.5q68 -15 135 -15t135 15q42 10 73.5 28.5t49.5 43t30 47.5t16.5 54t6 50t1.5 46zM199 274v163q0 96 38.5 127t120.5 31q86 0 122.5 -34.5t36.5 -124.5v-161q0 -90 -36.5 -124.5t-122.5 -34.5q-82 0 -120.5 31t-38.5 127zM516 765h-99l-60 68l-61 -68h-99l94 134
h133z" />
    <glyph glyph-name="Otilde" unicode="&#xd5;" horiz-adv-x="716" 
d="M670 275v161q0 27 -1.5 46t-6 50t-16.5 54t-30 47.5t-49.5 43t-73.5 28.5q-68 15 -135 15t-135 -15q-36 -9 -64.5 -24.5t-46.5 -32.5t-31 -41t-19.5 -43.5t-10.5 -45.5t-4.5 -42t-0.5 -39v-163q0 -23 0.5 -39t4.5 -42t10.5 -45.5t19.5 -43.5t31 -41t46.5 -32.5
t64.5 -24.5q68 -15 135 -15t135 15q42 10 73.5 28.5t49.5 43t30 47.5t16.5 54t6 50t1.5 46zM199 274v163q0 96 38.5 127t120.5 31q86 0 122.5 -34.5t36.5 -124.5v-161q0 -90 -36.5 -124.5t-122.5 -34.5q-82 0 -120.5 31t-38.5 127zM305 812q-22 19 -29 19q-12 0 -21 -33
l-9 -36h-82l13 49q8 31 13 44.5t16 30t28.5 22.5t44.5 6q24 0 40.5 -9.5t56.5 -44.5q19 -19 28 -19t14.5 11t12.5 41l3 16h84l-13 -48q-9 -31 -13.5 -44.5t-16 -30.5t-28.5 -23t-44 -6q-28 0 -43.5 9.5t-54.5 45.5z" />
    <glyph glyph-name="Odieresis" unicode="&#xd6;" horiz-adv-x="716" 
d="M670 275v161q0 27 -1.5 46t-6 50t-16.5 54t-30 47.5t-49.5 43t-73.5 28.5q-68 15 -135 15t-135 -15q-36 -9 -64.5 -24.5t-46.5 -32.5t-31 -41t-19.5 -43.5t-10.5 -45.5t-4.5 -42t-0.5 -39v-163q0 -23 0.5 -39t4.5 -42t10.5 -45.5t19.5 -43.5t31 -41t46.5 -32.5
t64.5 -24.5q68 -15 135 -15t135 15q42 10 73.5 28.5t49.5 43t30 47.5t16.5 54t6 50t1.5 46zM199 274v163q0 96 38.5 127t120.5 31q86 0 122.5 -34.5t36.5 -124.5v-161q0 -90 -36.5 -124.5t-122.5 -34.5q-82 0 -120.5 31t-38.5 127zM327 826q0 -38 -15 -50.5t-50 -12.5
t-50.5 12.5t-15.5 50.5v7q0 37 15.5 50t50.5 13t50 -13t15 -50v-7zM518 826q0 -38 -15 -50.5t-50 -12.5t-50.5 12.5t-15.5 50.5v7q0 37 15.5 50t50.5 13t50 -13t15 -50v-7z" />
    <glyph glyph-name="multiply" unicode="&#xd7;" horiz-adv-x="573" 
d="M371 253l168 -167l-85 -85l-168 168l-167 -168l-85 85l168 166l-168 170l84 84l168 -169l169 169l84 -84z" />
    <glyph glyph-name="Oslash" unicode="&#xd8;" horiz-adv-x="722" 
d="M518 486l-279 -337q33 -33 123 -33q86 0 122.5 34.5t36.5 124.5v161q0 28 -3 50zM205 235l273 331q-36 29 -116 29q-82 0 -120.5 -31t-38.5 -127v-163q0 -27 2 -39zM685 689l-56 -68q45 -62 45 -185v-161q0 -27 -1.5 -46t-6 -50t-16.5 -54t-30 -47.5t-49.5 -43
t-73.5 -28.5q-68 -15 -135 -15t-135 15q-46 12 -80 33l-52 -63l-62 51l57 68q-40 61 -40 179v163q0 23 0.5 39t4.5 42t10.5 45.5t19.5 43.5t31 41t46.5 32.5t64.5 24.5q68 15 135 15t135 -15q41 -10 72 -29l52 62z" />
    <glyph glyph-name="Ugrave" unicode="&#xd9;" horiz-adv-x="763" 
d="M462 765h-112l-148 159h160zM507 596h-80v115h80h153h80v-115h-80v-329q0 -151 -60.5 -213.5t-214.5 -62.5h-8q-157 0 -216 64.5t-59 211.5v329h-80v115h313v-115h-80v-329q0 -80 26.5 -115.5t95.5 -35.5h8q68 0 95 34t27 117v329z" />
    <glyph glyph-name="Uacute" unicode="&#xda;" horiz-adv-x="763" 
d="M398 765h-112l100 159h160zM507 596h-80v115h80h153h80v-115h-80v-329q0 -151 -60.5 -213.5t-214.5 -62.5h-8q-157 0 -216 64.5t-59 211.5v329h-80v115h313v-115h-80v-329q0 -80 26.5 -115.5t95.5 -35.5h8q68 0 95 34t27 117v329z" />
    <glyph glyph-name="Ucircumflex" unicode="&#xdb;" horiz-adv-x="763" 
d="M539 765h-99l-60 68l-61 -68h-99l94 134h133zM507 596h-80v115h80h153h80v-115h-80v-329q0 -151 -60.5 -213.5t-214.5 -62.5h-8q-157 0 -216 64.5t-59 211.5v329h-80v115h313v-115h-80v-329q0 -80 26.5 -115.5t95.5 -35.5h8q68 0 95 34t27 117v329z" />
    <glyph glyph-name="Udieresis" unicode="&#xdc;" horiz-adv-x="763" 
d="M353 826q0 -38 -15 -50.5t-50 -12.5t-50.5 12.5t-15.5 50.5v7q0 37 15.5 50t50.5 13t50 -13t15 -50v-7zM544 826q0 -38 -15 -50.5t-50 -12.5t-50.5 12.5t-15.5 50.5v7q0 37 15.5 50t50.5 13t50 -13t15 -50v-7zM507 596h-80v115h80h153h80v-115h-80v-329
q0 -151 -60.5 -213.5t-214.5 -62.5h-8q-157 0 -216 64.5t-59 211.5v329h-80v115h313v-115h-80v-329q0 -80 26.5 -115.5t95.5 -35.5h8q68 0 95 34t27 117v329z" />
    <glyph glyph-name="Yacute" unicode="&#xdd;" horiz-adv-x="711" 
d="M385 765h-112l100 159h160zM432 115h80v-115h-313v115h80v114l-203 367h-65v115h301v-115h-70l112 -228h4l110 228h-70v115h300v-115h-65l-201 -369v-112z" />
    <glyph glyph-name="Thorn" unicode="&#xde;" horiz-adv-x="671" 
d="M271 174v-59h80v-115h-233h-80v115h80v481h-80v115h80h153h80v-115h-80v-62q129 6 137 6q52 0 88 -6q42 -8 72 -23t44.5 -30.5t22.5 -37t9.5 -35t1.5 -33.5v-38q0 -20 -1.5 -33.5t-9.5 -35t-22.5 -37t-44.5 -30.5t-72 -23q-41 -7 -88 -7q-95 0 -137 3zM394 437
q-60 0 -123 -5v-155q78 -3 123 -3q50 0 74 14t25 53v30q0 37 -23.5 51.5t-75.5 14.5z" />
    <glyph glyph-name="germandbls" unicode="&#xdf;" horiz-adv-x="607" 
d="M241 0h-216v108h67v417q0 195 223 195q112 0 173 -43.5t61 -146.5q0 -53 -24.5 -96t-80.5 -53q60 -12 96.5 -64t36.5 -110q0 -216 -215 -216q-61 0 -82 6v114l47 -2q103 0 103 101q0 59 -35 84.5t-103 25.5h-5v111h5q63 0 86.5 19.5t23.5 69.5q0 41 -20.5 60.5
t-64.5 19.5q-40 0 -58 -17t-18 -58v-525z" />
    <glyph glyph-name="agrave" unicode="&#xe0;" horiz-adv-x="590" 
d="M348 574h-112l-134 153h160zM37 206v104q0 24 1.5 41.5t9 45t21.5 46.5t42.5 38t67.5 28q53 12 97 12q108 0 224 -33v-380h66v-108h-186l-9 29q-73 -38 -141 -38q-107 0 -150 56t-43 159zM186 306v-107q1 -51 18.5 -71t69.5 -20q33 0 77 14v277q-41 6 -77 6
q-54 0 -71 -22.5t-17 -76.5z" />
    <glyph glyph-name="aacute" unicode="&#xe1;" horiz-adv-x="590" 
d="M313 574h-112l86 153h160zM37 206v104q0 24 1.5 41.5t9 45t21.5 46.5t42.5 38t67.5 28q53 12 97 12q108 0 224 -33v-380h66v-108h-186l-9 29q-73 -38 -141 -38q-107 0 -150 56t-43 159zM186 306v-107q1 -51 18.5 -71t69.5 -20q33 0 77 14v277q-41 6 -77 6
q-54 0 -71 -22.5t-17 -76.5z" />
    <glyph glyph-name="acircumflex" unicode="&#xe2;" horiz-adv-x="590" 
d="M432 571h-99l-55 78l-56 -78h-99l89 159h133zM37 206v104q0 24 1.5 41.5t9 45t21.5 46.5t42.5 38t67.5 28q53 12 97 12q108 0 224 -33v-380h66v-108h-186l-9 29q-73 -38 -141 -38q-107 0 -150 56t-43 159zM186 306v-107q1 -51 18.5 -71t69.5 -20q33 0 77 14v277
q-41 6 -77 6q-54 0 -71 -22.5t-17 -76.5z" />
    <glyph glyph-name="atilde" unicode="&#xe3;" horiz-adv-x="590" 
d="M242 625q-22 19 -29 19q-12 0 -21 -33l-9 -36h-82l13 49q8 31 13 44.5t16 30t28.5 22.5t44.5 6q24 0 40.5 -9.5t56.5 -44.5q19 -19 28 -19t14.5 11t12.5 41l3 16h84l-13 -48q-9 -31 -13.5 -44.5t-16 -30.5t-28.5 -23t-44 -6q-28 0 -43.5 9.5t-54.5 45.5zM37 206v104
q0 24 1.5 41.5t9 45t21.5 46.5t42.5 38t67.5 28q53 12 97 12q108 0 224 -33v-380h66v-108h-186l-9 29q-73 -38 -141 -38q-107 0 -150 56t-43 159zM186 306v-107q1 -51 18.5 -71t69.5 -20q33 0 77 14v277q-41 6 -77 6q-54 0 -71 -22.5t-17 -76.5z" />
    <glyph glyph-name="adieresis" unicode="&#xe4;" horiz-adv-x="590" 
d="M256 641q0 -38 -15 -50.5t-50 -12.5t-50.5 12.5t-15.5 50.5v7q0 37 15.5 50t50.5 13t50 -13t15 -50v-7zM431 641q0 -38 -15 -50.5t-50 -12.5t-50.5 12.5t-15.5 50.5v7q0 37 15.5 50t50.5 13t50 -13t15 -50v-7zM37 206v104q0 24 1.5 41.5t9 45t21.5 46.5t42.5 38t67.5 28
q53 12 97 12q108 0 224 -33v-380h66v-108h-186l-9 29q-73 -38 -141 -38q-107 0 -150 56t-43 159zM186 306v-107q1 -51 18.5 -71t69.5 -20q33 0 77 14v277q-41 6 -77 6q-54 0 -71 -22.5t-17 -76.5z" />
    <glyph glyph-name="aring" unicode="&#xe5;" horiz-adv-x="590" 
d="M289 755q54 0 72 -22.5t18 -71.5t-18.5 -72t-71.5 -23h-24q-52 0 -70.5 23t-18.5 72t18.5 71.5t70.5 22.5h24zM288 704h-22q-34 0 -34 -43q0 -23 7 -33.5t27 -10.5h22q21 0 28 10.5t7 33.5q0 22 -7.5 32.5t-27.5 10.5zM37 206v104q0 24 1.5 41.5t9 45t21.5 46.5t42.5 38
t67.5 28q53 12 97 12q108 0 224 -33v-380h66v-108h-186l-9 29q-73 -38 -141 -38q-107 0 -150 56t-43 159zM186 306v-107q1 -51 18.5 -71t69.5 -20q33 0 77 14v277q-41 6 -77 6q-54 0 -71 -22.5t-17 -76.5z" />
    <glyph glyph-name="ae" unicode="&#xe6;" horiz-adv-x="806" 
d="M212 -9q-99 0 -144.5 43t-45.5 114v12q0 74 53 111t145 39q55 0 104 -7v21q0 22 -9 37.5t-20 23t-31.5 11.5t-32 4.5t-33.5 0.5h-7q-56 0 -121 -13v114q102 19 163 19q46 0 94 -10q52 -13 83 -39q48 49 148 49q109 0 164.5 -47.5t55.5 -168.5q0 -37 -6 -91h-308
q0 -53 16.5 -75.5t47.5 -28.5q90 -19 214 12v-111q-105 -20 -163 -20q-132 0 -178 47q-86 -47 -189 -47zM329 210q-29 3 -72 3q-37 0 -61.5 -13t-24.5 -41v-6q0 -27 19 -40.5t51 -13.5q21 0 53.5 7.5t45.5 15.5q-9 31 -11 88zM466 310h169q9 97 -73 97h-4q-41 0 -63.5 -20.5
t-28.5 -76.5z" />
    <glyph glyph-name="ccedilla" unicode="&#xe7;" horiz-adv-x="488" 
d="M304 -8q21 -20 35 -47.5t14 -48.5q0 -45 -28 -70t-79 -25h-89v86h64q44 0 44 26q0 49 -41 82q-4 0 -38 6q-41 10 -70.5 28.5t-44 37.5t-22.5 45.5t-9.5 43.5t-1.5 41v118q0 24 1.5 41t9.5 43.5t22.5 45.5t44 37.5t70.5 28.5q48 10 89 10q74 0 176 -19v-169h-130v66
q-18 2 -28 2q-59 0 -82.5 -28t-23.5 -81v-72q0 -53 23.5 -81t82.5 -28q79 0 158 15v-116q-83 -16 -147 -18z" />
    <glyph glyph-name="egrave" unicode="&#xe8;" horiz-adv-x="524" 
d="M353 310h-169q6 56 28.5 76.5t63.5 20.5h4q82 0 73 -97zM182 214h308q6 54 6 91q0 121 -55.5 168.5t-164.5 47.5q-61 0 -102 -10.5t-74.5 -39t-49.5 -82t-16 -135.5q0 -152 59.5 -207.5t203.5 -55.5q58 0 163 20v111q-124 -31 -214 -12q-31 6 -47.5 28.5t-16.5 75.5z
M334 574h-112l-134 153h160z" />
    <glyph glyph-name="eacute" unicode="&#xe9;" horiz-adv-x="524" 
d="M184 310h169q9 97 -73 97h-4q-41 0 -63.5 -20.5t-28.5 -76.5zM490 214h-308q0 -53 16.5 -75.5t47.5 -28.5q90 -19 214 12v-111q-105 -20 -163 -20q-144 0 -203.5 55.5t-59.5 207.5q0 82 16 135.5t49.5 82t74.5 39t102 10.5q109 0 164.5 -47.5t55.5 -168.5q0 -37 -6 -91z
M305 574h-112l86 153h160z" />
    <glyph glyph-name="ecircumflex" unicode="&#xea;" horiz-adv-x="524" 
d="M353 310h-169q6 56 28.5 76.5t63.5 20.5h4q82 0 73 -97zM182 214h308q6 54 6 91q0 121 -55.5 168.5t-164.5 47.5q-61 0 -102 -10.5t-74.5 -39t-49.5 -82t-16 -135.5q0 -152 59.5 -207.5t203.5 -55.5q58 0 163 20v111q-124 -31 -214 -12q-31 6 -47.5 28.5t-16.5 75.5z
M420 571h-99l-55 78l-56 -78h-99l89 159h133z" />
    <glyph glyph-name="edieresis" unicode="&#xeb;" horiz-adv-x="524" 
d="M353 310h-169q6 56 28.5 76.5t63.5 20.5h4q82 0 73 -97zM182 214h308q6 54 6 91q0 121 -55.5 168.5t-164.5 47.5q-61 0 -102 -10.5t-74.5 -39t-49.5 -82t-16 -135.5q0 -152 59.5 -207.5t203.5 -55.5q58 0 163 20v111q-124 -31 -214 -12q-31 6 -47.5 28.5t-16.5 75.5z
M244 641q0 -38 -15 -50.5t-50 -12.5t-50.5 12.5t-15.5 50.5v7q0 37 15.5 50t50.5 13t50 -13t15 -50v-7zM419 641q0 -38 -15 -50.5t-50 -12.5t-50.5 12.5t-15.5 50.5v7q0 37 15.5 50t50.5 13t50 -13t15 -50v-7z" />
    <glyph glyph-name="igrave" unicode="&#xec;" horiz-adv-x="349" 
d="M257 574h-112l-134 153h160zM32 512h224v-404h66v-108h-67h-148h-67v108h67v296h-75v108z" />
    <glyph glyph-name="iacute" unicode="&#xed;" horiz-adv-x="349" 
d="M220 574h-112l86 153h160zM32 512h224v-404h66v-108h-67h-148h-67v108h67v296h-75v108z" />
    <glyph glyph-name="icircumflex" unicode="&#xee;" horiz-adv-x="349" 
d="M338 571h-99l-55 78l-56 -78h-99l89 159h133zM32 512h224v-404h66v-108h-67h-148h-67v108h67v296h-75v108z" />
    <glyph glyph-name="idieresis" unicode="&#xef;" horiz-adv-x="349" 
d="M161 641q0 -38 -15 -50.5t-50 -12.5t-50.5 12.5t-15.5 50.5v7q0 37 15.5 50t50.5 13t50 -13t15 -50v-7zM336 641q0 -38 -15 -50.5t-50 -12.5t-50.5 12.5t-15.5 50.5v7q0 37 15.5 50t50.5 13t50 -13t15 -50v-7zM32 512h224v-404h66v-108h-67h-148h-67v108h67v296h-75v108z
" />
    <glyph glyph-name="eth" unicode="&#xf0;" horiz-adv-x="566" 
d="M450 673l-47 -31l18 -20q61 -77 82.5 -180.5t21.5 -240.5q0 -20 -1 -34t-5 -36.5t-13.5 -39.5t-25 -35.5t-41.5 -32t-61 -21.5q-54 -11 -98 -11t-96 11q-41 9 -71 28t-44.5 38t-22.5 46.5t-9.5 45t-1.5 41.5v63q0 24 1.5 41.5t9.5 45t22.5 46.5t44.5 38t71 28
q52 11 96 11q52 0 79 -12q-11 74 -60 111l-119 -79v71l58 38q-47 15 -126 15v113q63 0 93.5 -1.5t74.5 -13t78 -35.5l92 61v-69zM378 201v63q0 54 -21.5 72t-76.5 18q-52 0 -74 -16.5t-23 -73.5v-63q0 -53 21.5 -71.5t75.5 -18.5q53 0 75 17t23 73z" />
    <glyph glyph-name="ntilde" unicode="&#xf1;" horiz-adv-x="652" 
d="M291 625q-22 19 -29 19q-12 0 -21 -33l-9 -36h-82l13 49q8 31 13 44.5t16 30t28.5 22.5t44.5 6q24 0 40.5 -9.5t56.5 -44.5q19 -19 28 -19t14.5 11t12.5 41l3 16h84l-13 -48q-9 -31 -13.5 -44.5t-16 -30.5t-28.5 -23t-44 -6q-28 0 -43.5 9.5t-54.5 45.5zM569 108h67v-108
h-57h-159v288q0 40 -3 61t-20 38t-51 17q-48 0 -90 -15v-281h67v-108h-67h-149h-67v108h67v296h-75v108h195l9 -28q75 37 141 37q109 0 150.5 -47.5t41.5 -147.5v-218z" />
    <glyph glyph-name="ograve" unicode="&#xf2;" horiz-adv-x="563" 
d="M525 311v-110q0 -20 -1 -34t-5 -36.5t-13.5 -39.5t-25 -35.5t-41.5 -32t-61 -21.5q-54 -11 -97 -11t-95 11q-41 9 -71 28t-44.5 38t-22.5 46.5t-9.5 45t-1.5 41.5v110q0 24 1.5 41.5t9.5 45t22.5 46.5t44.5 38t71 28q52 11 95 11t97 -11q35 -8 61 -21.5t41.5 -32
t25 -35.5t13.5 -39.5t5 -36.5t1 -34zM376 201v110q0 54 -18.5 72t-76.5 18q-54 0 -74 -16.5t-21 -73.5v-110q0 -54 19.5 -72t75.5 -18q53 0 73.5 18t21.5 72zM342 574h-112l-134 153h160z" />
    <glyph glyph-name="oacute" unicode="&#xf3;" horiz-adv-x="563" 
d="M525 311v-110q0 -20 -1 -34t-5 -36.5t-13.5 -39.5t-25 -35.5t-41.5 -32t-61 -21.5q-54 -11 -97 -11t-95 11q-41 9 -71 28t-44.5 38t-22.5 46.5t-9.5 45t-1.5 41.5v110q0 24 1.5 41.5t9.5 45t22.5 46.5t44.5 38t71 28q52 11 95 11t97 -11q35 -8 61 -21.5t41.5 -32
t25 -35.5t13.5 -39.5t5 -36.5t1 -34zM376 201v110q0 54 -18.5 72t-76.5 18q-54 0 -74 -16.5t-21 -73.5v-110q0 -54 19.5 -72t75.5 -18q53 0 73.5 18t21.5 72zM319 574h-112l86 153h160z" />
    <glyph glyph-name="ocircumflex" unicode="&#xf4;" horiz-adv-x="563" 
d="M525 311v-110q0 -20 -1 -34t-5 -36.5t-13.5 -39.5t-25 -35.5t-41.5 -32t-61 -21.5q-54 -11 -97 -11t-95 11q-41 9 -71 28t-44.5 38t-22.5 46.5t-9.5 45t-1.5 41.5v110q0 24 1.5 41.5t9.5 45t22.5 46.5t44.5 38t71 28q52 11 95 11t97 -11q35 -8 61 -21.5t41.5 -32
t25 -35.5t13.5 -39.5t5 -36.5t1 -34zM376 201v110q0 54 -18.5 72t-76.5 18q-54 0 -74 -16.5t-21 -73.5v-110q0 -54 19.5 -72t75.5 -18q53 0 73.5 18t21.5 72zM435 571h-99l-55 78l-56 -78h-99l89 159h133z" />
    <glyph glyph-name="otilde" unicode="&#xf5;" horiz-adv-x="563" 
d="M525 311v-110q0 -20 -1 -34t-5 -36.5t-13.5 -39.5t-25 -35.5t-41.5 -32t-61 -21.5q-54 -11 -97 -11t-95 11q-41 9 -71 28t-44.5 38t-22.5 46.5t-9.5 45t-1.5 41.5v110q0 24 1.5 41.5t9.5 45t22.5 46.5t44.5 38t71 28q52 11 95 11t97 -11q35 -8 61 -21.5t41.5 -32
t25 -35.5t13.5 -39.5t5 -36.5t1 -34zM376 201v110q0 54 -18.5 72t-76.5 18q-54 0 -74 -16.5t-21 -73.5v-110q0 -54 19.5 -72t75.5 -18q53 0 73.5 18t21.5 72zM245 625q-22 19 -29 19q-12 0 -21 -33l-9 -36h-82l13 49q8 31 13 44.5t16 30t28.5 22.5t44.5 6q24 0 40.5 -9.5
t56.5 -44.5q19 -19 28 -19t14.5 11t12.5 41l3 16h84l-13 -48q-9 -31 -13.5 -44.5t-16 -30.5t-28.5 -23t-44 -6q-28 0 -43.5 9.5t-54.5 45.5z" />
    <glyph glyph-name="odieresis" unicode="&#xf6;" horiz-adv-x="563" 
d="M525 311v-110q0 -20 -1 -34t-5 -36.5t-13.5 -39.5t-25 -35.5t-41.5 -32t-61 -21.5q-54 -11 -97 -11t-95 11q-41 9 -71 28t-44.5 38t-22.5 46.5t-9.5 45t-1.5 41.5v110q0 24 1.5 41.5t9.5 45t22.5 46.5t44.5 38t71 28q52 11 95 11t97 -11q35 -8 61 -21.5t41.5 -32
t25 -35.5t13.5 -39.5t5 -36.5t1 -34zM376 201v110q0 54 -18.5 72t-76.5 18q-54 0 -74 -16.5t-21 -73.5v-110q0 -54 19.5 -72t75.5 -18q53 0 73.5 18t21.5 72zM259 641q0 -38 -15 -50.5t-50 -12.5t-50.5 12.5t-15.5 50.5v7q0 37 15.5 50t50.5 13t50 -13t15 -50v-7zM434 641
q0 -38 -15 -50.5t-50 -12.5t-50.5 12.5t-15.5 50.5v7q0 37 15.5 50t50.5 13t50 -13t15 -50v-7z" />
    <glyph glyph-name="divide" unicode="&#xf7;" horiz-adv-x="575" 
d="M35 320h505v-108h-505v108zM371 66q0 -46 -19.5 -61t-65.5 -15q-44 0 -63.5 15.5t-19.5 60.5v9q0 45 19.5 60t63.5 15q46 0 65.5 -15t19.5 -60v-9zM371 456q0 -46 -19.5 -61t-65.5 -15q-44 0 -63.5 15.5t-19.5 60.5v9q0 45 19.5 60t63.5 15q46 0 65.5 -15t19.5 -60v-9z
" />
    <glyph glyph-name="oslash" unicode="&#xf8;" horiz-adv-x="565" 
d="M527 311v-110q0 -20 -1 -34t-5 -36.5t-13.5 -39.5t-25 -35.5t-41.5 -32t-61 -21.5q-54 -11 -97 -11t-95 11q-39 9 -66 24l-43 -49l-46 42l41 47q-35 45 -35 135v110q0 24 1.5 41.5t9.5 45t22.5 46.5t44.5 38t71 28q52 11 95 11t97 -11q38 -9 63 -24l45 52l48 -40l-45 -51
q36 -45 36 -136zM378 201v110v6l-168 -191q19 -15 73 -15q53 0 73.5 18t21.5 72zM188 201v-5l167 191q-20 14 -72 14q-54 0 -74 -16.5t-21 -73.5v-110z" />
    <glyph glyph-name="ugrave" unicode="&#xf9;" horiz-adv-x="639" 
d="M377 574h-112l-134 153h160zM546 108h67v-108h-187l-9 28q-75 -37 -141 -37q-109 0 -150.5 47.5t-41.5 147.5v218h-75v108h224v-289q0 -40 3 -61t20 -38t51 -17q48 0 90 15v390h149v-404z" />
    <glyph glyph-name="uacute" unicode="&#xfa;" horiz-adv-x="639" 
d="M343 574h-112l86 153h160zM546 108h67v-108h-187l-9 28q-75 -37 -141 -37q-109 0 -150.5 47.5t-41.5 147.5v218h-75v108h224v-289q0 -40 3 -61t20 -38t51 -17q48 0 90 15v390h149v-404z" />
    <glyph glyph-name="ucircumflex" unicode="&#xfb;" horiz-adv-x="639" 
d="M449 571h-99l-55 78l-56 -78h-99l89 159h133zM546 108h67v-108h-187l-9 28q-75 -37 -141 -37q-109 0 -150.5 47.5t-41.5 147.5v218h-75v108h224v-289q0 -40 3 -61t20 -38t51 -17q48 0 90 15v390h149v-404z" />
    <glyph glyph-name="udieresis" unicode="&#xfc;" horiz-adv-x="639" 
d="M292 641q0 -38 -15 -50.5t-50 -12.5t-50.5 12.5t-15.5 50.5v7q0 37 15.5 50t50.5 13t50 -13t15 -50v-7zM467 641q0 -38 -15 -50.5t-50 -12.5t-50.5 12.5t-15.5 50.5v7q0 37 15.5 50t50.5 13t50 -13t15 -50v-7zM546 108h67v-108h-187l-9 28q-75 -37 -141 -37
q-109 0 -150.5 47.5t-41.5 147.5v218h-75v108h224v-289q0 -40 3 -61t20 -38t51 -17q48 0 90 15v390h149v-404z" />
    <glyph glyph-name="yacute" unicode="&#xfd;" horiz-adv-x="612" 
d="M342 574h-112l86 153h160zM11 404v108h267v-108h-52l80 -233h2l78 233h-52v108h267v-108h-60l-149 -371q-33 -96 -76.5 -150.5t-117.5 -80.5q-15 -5 -36.5 -8t-33 -3.5t-45.5 -1t-39 -0.5v117q31 1 41.5 1.5t33 2.5t30.5 6l23 11.5t23 18.5t18 27t19 38l-161 393h-60z
" />
    <glyph glyph-name="thorn" unicode="&#xfe;" horiz-adv-x="570" 
d="M214 9v-93h80v-115h-313v115h80v680h-80v115h233v-207q55 17 117 17q201 -5 201 -211v-107q0 -206 -201 -211q-62 0 -117 17zM214 391v-276q29 -4 83 -4q51 0 69.5 20t18.5 71v108q0 54 -19.5 72.5t-68.5 18.5q-43 0 -83 -10z" />
    <glyph glyph-name="ydieresis" unicode="&#xff;" horiz-adv-x="612" 
d="M284 641q0 -38 -15 -50.5t-50 -12.5t-50.5 12.5t-15.5 50.5v7q0 37 15.5 50t50.5 13t50 -13t15 -50v-7zM459 641q0 -38 -15 -50.5t-50 -12.5t-50.5 12.5t-15.5 50.5v7q0 37 15.5 50t50.5 13t50 -13t15 -50v-7zM11 404v108h267v-108h-52l80 -233h2l78 233h-52v108h267
v-108h-60l-149 -371q-33 -96 -76.5 -150.5t-117.5 -80.5q-15 -5 -36.5 -8t-33 -3.5t-45.5 -1t-39 -0.5v117q31 1 41.5 1.5t33 2.5t30.5 6l23 11.5t23 18.5t18 27t19 38l-161 393h-60z" />
    <glyph glyph-name="Amacron" unicode="&#x100;" horiz-adv-x="734" 
d="M491 769h-246v93h246v-93zM294 324h146l-72 234h-2zM728 0h-287v115h70l-29 85h-230l-29 -85h70v-115h-287v115h64l214 596h166l214 -596h64v-115z" />
    <glyph glyph-name="amacron" unicode="&#x101;" horiz-adv-x="590" 
d="M401 578h-246v93h246v-93zM37 206v104q0 24 1.5 41.5t9 45t21.5 46.5t42.5 38t67.5 28q53 12 97 12q108 0 224 -33v-380h66v-108h-186l-9 29q-73 -38 -141 -38q-107 0 -150 56t-43 159zM186 306v-107q1 -51 18.5 -71t69.5 -20q33 0 77 14v277q-41 6 -77 6
q-54 0 -71 -22.5t-17 -76.5z" />
    <glyph glyph-name="Abreve" unicode="&#x102;" horiz-adv-x="734" 
d="M368 761q-135 0 -143 144l84 4q2 -28 17.5 -44t41.5 -16t41.5 16t17.5 44l84 -4q-8 -144 -143 -144zM294 324h146l-72 234h-2zM728 0h-287v115h70l-29 85h-230l-29 -85h70v-115h-287v115h64l214 596h166l214 -596h64v-115z" />
    <glyph glyph-name="abreve" unicode="&#x103;" horiz-adv-x="590" 
d="M290 565q-135 0 -143 144l84 4q2 -28 17.5 -44t41.5 -16t41.5 16t17.5 44l84 -4q-8 -144 -143 -144zM37 206v104q0 24 1.5 41.5t9 45t21.5 46.5t42.5 38t67.5 28q53 12 97 12q108 0 224 -33v-380h66v-108h-186l-9 29q-73 -38 -141 -38q-107 0 -150 56t-43 159zM186 306
v-107q1 -51 18.5 -71t69.5 -20q33 0 77 14v277q-41 6 -77 6q-54 0 -71 -22.5t-17 -76.5z" />
    <glyph glyph-name="Aogonek" unicode="&#x104;" horiz-adv-x="734" 
d="M728 0q-66 -22 -66 -78q0 -35 44 -35h64v-86h-89q-51 0 -79 25t-28 70q0 27 19 56.5t50 47.5h-202v115h70l-29 85h-230l-29 -85h70v-115h-287v115h64l214 596h166l214 -596h64v-115zM294 324h146l-72 234h-2z" />
    <glyph glyph-name="aogonek" unicode="&#x105;" horiz-adv-x="590" 
d="M38 206v104q0 24 1.5 41.5t9 45t21.5 46.5t42.5 38t67.5 28q52 12 97 12q108 0 224 -33v-380h66v-108q-50 -2 -72.5 -26.5t-22.5 -46.5q0 -40 44 -40h64v-86h-89q-51 0 -79 25t-28 70q0 28 18.5 56.5t52.5 47.5h-74l-9 29q-73 -38 -141 -38q-107 0 -150 56t-43 159z
M187 306v-107q1 -51 18.5 -71t69.5 -20q33 0 77 14v277q-40 6 -77 6q-54 0 -71 -22.5t-17 -76.5z" />
    <glyph glyph-name="Cacute" unicode="&#x106;" horiz-adv-x="600" 
d="M381 765h-112l100 159h160zM424 500v93q-33 4 -72 4q-79 0 -116 -38.5t-38 -127.5v-162q-1 -84 37 -118.5t123 -34.5q131 0 207 14v-122q-93 -17 -207 -17q-65 0 -120 11q-53 13 -91 38.5t-57.5 51.5t-30 62t-12.5 59.5t-2 55.5v173q0 32 2 55.5t12.5 59.5t30 62
t57.5 51.5t91 38.5q55 11 114 11q107 0 207 -18v-35v-167h-135z" />
    <glyph glyph-name="cacute" unicode="&#x107;" horiz-adv-x="488" 
d="M291 574h-112l86 153h160zM321 333v66q-18 2 -28 2q-59 0 -82.5 -28t-23.5 -81v-72q0 -53 23.5 -81t82.5 -28q79 0 158 15v-116q-102 -19 -176 -19q-41 0 -89 10q-41 10 -70.5 28.5t-44 37.5t-22.5 45.5t-9.5 43.5t-1.5 41v118q0 24 1.5 41t9.5 43.5t22.5 45.5t44 37.5
t70.5 28.5q48 10 89 10q74 0 176 -19v-169h-130z" />
    <glyph glyph-name="Ccircumflex" unicode="&#x108;" horiz-adv-x="600" 
d="M478 765h-99l-60 68l-61 -68h-99l94 134h133zM424 593v-93h135v167v35q-100 18 -207 18q-59 0 -114 -11q-53 -13 -91 -38.5t-57.5 -51.5t-30 -62t-12.5 -59.5t-2 -55.5v-173q0 -32 2 -55.5t12.5 -59.5t30 -62t57.5 -51.5t91 -38.5q55 -11 120 -11q114 0 207 17v122
q-76 -14 -207 -14q-85 0 -123 34.5t-37 118.5v162q1 89 38 127.5t116 38.5q39 0 72 -4z" />
    <glyph glyph-name="ccircumflex" unicode="&#x109;" horiz-adv-x="488" 
d="M411 571h-99l-55 78l-56 -78h-99l89 159h133zM321 333v66q-18 2 -28 2q-59 0 -82.5 -28t-23.5 -81v-72q0 -53 23.5 -81t82.5 -28q79 0 158 15v-116q-102 -19 -176 -19q-41 0 -89 10q-41 10 -70.5 28.5t-44 37.5t-22.5 45.5t-9.5 43.5t-1.5 41v118q0 24 1.5 41t9.5 43.5
t22.5 45.5t44 37.5t70.5 28.5q48 10 89 10q74 0 176 -19v-169h-130z" />
    <glyph glyph-name="Cdotaccent" unicode="&#x10a;" horiz-adv-x="600" 
d="M390 829q0 -38 -15 -50.5t-50 -12.5t-50.5 12.5t-15.5 50.5v7q0 37 15.5 50t50.5 13t50 -13t15 -50v-7zM424 593v-93h135v167v35q-100 18 -207 18q-59 0 -114 -11q-53 -13 -91 -38.5t-57.5 -51.5t-30 -62t-12.5 -59.5t-2 -55.5v-173q0 -32 2 -55.5t12.5 -59.5t30 -62
t57.5 -51.5t91 -38.5q55 -11 120 -11q114 0 207 17v122q-76 -14 -207 -14q-85 0 -123 34.5t-37 118.5v162q1 89 38 127.5t116 38.5q39 0 72 -4z" />
    <glyph glyph-name="cdotaccent" unicode="&#x10b;" horiz-adv-x="488" 
d="M327 639q0 -38 -15 -50.5t-50 -12.5t-50.5 12.5t-15.5 50.5v7q0 37 15.5 50t50.5 13t50 -13t15 -50v-7zM321 333v66q-18 2 -28 2q-59 0 -82.5 -28t-23.5 -81v-72q0 -53 23.5 -81t82.5 -28q79 0 158 15v-116q-102 -19 -176 -19q-41 0 -89 10q-41 10 -70.5 28.5t-44 37.5
t-22.5 45.5t-9.5 43.5t-1.5 41v118q0 24 1.5 41t9.5 43.5t22.5 45.5t44 37.5t70.5 28.5q48 10 89 10q74 0 176 -19v-169h-130z" />
    <glyph glyph-name="Ccaron" unicode="&#x10c;" horiz-adv-x="600" 
d="M399 899h99l-92 -134h-133l-94 134h99l61 -68zM424 500v93q-33 4 -72 4q-79 0 -116 -38.5t-38 -127.5v-162q-1 -84 37 -118.5t123 -34.5q131 0 207 14v-122q-93 -17 -207 -17q-65 0 -120 11q-53 13 -91 38.5t-57.5 51.5t-30 62t-12.5 59.5t-2 55.5v173q0 32 2 55.5
t12.5 59.5t30 62t57.5 51.5t91 38.5q55 11 114 11q107 0 207 -18v-35v-167h-135z" />
    <glyph glyph-name="ccaron" unicode="&#x10d;" horiz-adv-x="488" 
d="M305 730h99l-87 -159h-133l-89 159h99l56 -78zM321 333v66q-18 2 -28 2q-59 0 -82.5 -28t-23.5 -81v-72q0 -53 23.5 -81t82.5 -28q79 0 158 15v-116q-102 -19 -176 -19q-41 0 -89 10q-41 10 -70.5 28.5t-44 37.5t-22.5 45.5t-9.5 43.5t-1.5 41v118q0 24 1.5 41t9.5 43.5
t22.5 45.5t44 37.5t70.5 28.5q48 10 89 10q74 0 176 -19v-169h-130z" />
    <glyph glyph-name="Dcaron" unicode="&#x10e;" horiz-adv-x="732" 
d="M430 899h99l-92 -134h-133l-94 134h99l61 -68zM118 0h-80v115h80v481h-80v115h80h250q166 -2 243 -68.5t77 -219.5v-135q0 -155 -80.5 -221.5t-239.5 -66.5h-250zM271 125h97q92 0 129.5 37.5t37.5 125.5v135q0 91 -40 127t-127 36h-97v-461z" />
    <glyph glyph-name="dcaron" unicode="&#x10f;" horiz-adv-x="648" 
d="M661 508h-106l64 212h133zM385 0l-9 29q-73 -38 -145 -38q-106 0 -149.5 59t-43.5 163v97q0 206 201 211q62 0 117 -17v99h-75v108h224v-603h69v-108h-189zM356 118v277q-40 10 -83 10q-49 0 -68.5 -18.5t-19.5 -72.5v-116q0 -51 18.5 -71t69.5 -20q33 0 83 11z" />
    <glyph glyph-name="Dcroat" unicode="&#x110;" horiz-adv-x="733" 
d="M39 0v115h80v183h-73v113h73v185h-80v115h330q166 -2 243 -68.5t77 -219.5v-135q0 -155 -80.5 -221.5t-239.5 -66.5h-330zM272 125h97q92 0 129.5 37.5t37.5 125.5v135q0 91 -40 127t-127 36h-97v-175h150v-113h-150v-173z" />
    <glyph glyph-name="dcroat" unicode="&#x111;" horiz-adv-x="596" 
d="M385 0l-9 29q-73 -38 -145 -38q-106 0 -149.5 59t-43.5 163v97q0 206 201 211q62 0 117 -17v76h-128v62h128v69h149v-69h60v-62h-60v-472h69v-108h-189zM356 118v277q-40 10 -83 10q-49 0 -68.5 -18.5t-19.5 -72.5v-116q0 -51 18.5 -71t69.5 -20q33 0 83 11z" />
    <glyph glyph-name="Emacron" unicode="&#x112;" horiz-adv-x="635" 
d="M444 769h-246v93h246v-93zM595 0h-557v115h80v481h-80v115h549v-199h-135v74h-181v-172h218v-124h-218v-164h189v74h135v-200z" />
    <glyph glyph-name="emacron" unicode="&#x113;" horiz-adv-x="524" 
d="M353 310h-169q6 56 28.5 76.5t63.5 20.5h4q82 0 73 -97zM182 214h308q6 54 6 91q0 121 -55.5 168.5t-164.5 47.5q-61 0 -102 -10.5t-74.5 -39t-49.5 -82t-16 -135.5q0 -152 59.5 -207.5t203.5 -55.5q58 0 163 20v111q-124 -31 -214 -12q-31 6 -47.5 28.5t-16.5 75.5z
M389 578h-246v93h246v-93z" />
    <glyph glyph-name="Ebreve" unicode="&#x114;" horiz-adv-x="635" 
d="M322 761q-135 0 -143 144l84 4q2 -28 17.5 -44t41.5 -16t41.5 16t17.5 44l84 -4q-8 -144 -143 -144zM595 0h-557v115h80v481h-80v115h549v-199h-135v74h-181v-172h218v-124h-218v-164h189v74h135v-200z" />
    <glyph glyph-name="ebreve" unicode="&#x115;" horiz-adv-x="524" 
d="M353 310h-169q6 56 28.5 76.5t63.5 20.5h4q82 0 73 -97zM182 214h308q6 54 6 91q0 121 -55.5 168.5t-164.5 47.5q-61 0 -102 -10.5t-74.5 -39t-49.5 -82t-16 -135.5q0 -152 59.5 -207.5t203.5 -55.5q58 0 163 20v111q-124 -31 -214 -12q-31 6 -47.5 28.5t-16.5 75.5z
M266 565q-135 0 -143 144l84 4q2 -28 17.5 -44t41.5 -16t41.5 16t17.5 44l84 -4q-8 -144 -143 -144z" />
    <glyph glyph-name="Edotaccent" unicode="&#x116;" horiz-adv-x="635" 
d="M388 829q0 -38 -15 -50.5t-50 -12.5t-50.5 12.5t-15.5 50.5v7q0 37 15.5 50t50.5 13t50 -13t15 -50v-7zM595 0h-557v115h80v481h-80v115h549v-199h-135v74h-181v-172h218v-124h-218v-164h189v74h135v-200z" />
    <glyph glyph-name="edotaccent" unicode="&#x117;" horiz-adv-x="524" 
d="M353 310h-169q6 56 28.5 76.5t63.5 20.5h4q82 0 73 -97zM182 214h308q6 54 6 91q0 121 -55.5 168.5t-164.5 47.5q-61 0 -102 -10.5t-74.5 -39t-49.5 -82t-16 -135.5q0 -152 59.5 -207.5t203.5 -55.5q58 0 163 20v111q-124 -31 -214 -12q-31 6 -47.5 28.5t-16.5 75.5z
M331 639q0 -38 -15 -50.5t-50 -12.5t-50.5 12.5t-15.5 50.5v7q0 37 15.5 50t50.5 13t50 -13t15 -50v-7z" />
    <glyph glyph-name="Eogonek" unicode="&#x118;" horiz-adv-x="635" 
d="M595 0q-71 -33 -71 -81q0 -32 44 -32h64v-86h-89q-51 0 -79 25t-28 70q0 33 22 61.5t57 42.5h-477v115h80v481h-80v115h549v-199h-135v74h-181v-172h218v-124h-218v-164h189v74h135v-200z" />
    <glyph glyph-name="eogonek" unicode="&#x119;" horiz-adv-x="524" 
d="M459 122v-122q-30 -20 -50.5 -45.5t-20.5 -41.5q0 -26 44 -26h64v-86h-89q-51 0 -79 25t-28 70q0 52 47 98q-25 -3 -50 -3q-144 0 -203.5 55.5t-59.5 207.5q0 82 16 135.5t49.5 82t74.5 39t102 10.5q109 0 164.5 -47.5t55.5 -168.5q0 -37 -6 -91h-308q0 -53 16.5 -75.5
t47.5 -28.5q90 -18 213 12zM185 310h169q9 97 -73 97h-4q-41 0 -63.5 -20.5t-28.5 -76.5z" />
    <glyph glyph-name="Ecaron" unicode="&#x11a;" horiz-adv-x="635" 
d="M382 899h99l-92 -134h-133l-94 134h99l61 -68zM595 0h-557v115h80v481h-80v115h549v-199h-135v74h-181v-172h218v-124h-218v-164h189v74h135v-200z" />
    <glyph glyph-name="ecaron" unicode="&#x11b;" horiz-adv-x="524" 
d="M184 310h169q9 97 -73 97h-4q-41 0 -63.5 -20.5t-28.5 -76.5zM490 214h-308q0 -53 16.5 -75.5t47.5 -28.5q90 -19 214 12v-111q-105 -20 -163 -20q-144 0 -203.5 55.5t-59.5 207.5q0 82 16 135.5t49.5 82t74.5 39t102 10.5q109 0 164.5 -47.5t55.5 -168.5q0 -37 -6 -91z
M321 730h99l-87 -159h-133l-89 159h99l56 -78z" />
    <glyph glyph-name="Gcircumflex" unicode="&#x11c;" horiz-adv-x="670" 
d="M504 765h-99l-60 68l-61 -68h-99l94 134h133zM446 512v82q-20 1 -51 1q-23 0 -33.5 -0.5t-32.5 -1.5t-33.5 -5t-29.5 -11t-27.5 -18t-20 -26.5t-15 -37.5t-5.5 -50v-173q0 -125 80 -146q44 -10 75 -10q68 0 131 24v128h-139v113h284v-312l-16 -10q-121 -68 -262 -68
q-49 1 -109 14q-53 13 -91.5 38.5t-58 51.5t-31 61.5t-14 60t-2.5 55.5v168q0 34 2 57t12.5 59.5t30 62t58.5 50.5t94 38t126 13q112 0 213 -21v-187h-135z" />
    <glyph glyph-name="gcircumflex" unicode="&#x11d;" horiz-adv-x="597" 
d="M448 571h-99l-55 78l-56 -78h-99l89 159h133zM352 7q-58 -16 -113 -16q-201 5 -201 211v97q0 104 43.5 163t149.5 59q72 0 145 -38l9 29h195v-108h-75v-337q0 -28 -0.5 -44t-3.5 -43t-9.5 -44t-18.5 -39.5t-30 -37t-45 -29t-62 -23.5q-80 -18 -231 -18h-43v117
q192 0 241 18q47 16 49 83zM356 117v277q-50 11 -83 11q-51 0 -69.5 -20t-18.5 -71v-116q0 -54 19.5 -72.5t68.5 -18.5q43 0 83 10z" />
    <glyph glyph-name="Gbreve" unicode="&#x11e;" horiz-adv-x="670" 
d="M352 761q-135 0 -143 144l84 4q2 -28 17.5 -44t41.5 -16t41.5 16t17.5 44l84 -4q-8 -144 -143 -144zM446 512v82q-20 1 -51 1q-23 0 -33.5 -0.5t-32.5 -1.5t-33.5 -5t-29.5 -11t-27.5 -18t-20 -26.5t-15 -37.5t-5.5 -50v-173q0 -125 80 -146q44 -10 75 -10q68 0 131 24
v128h-139v113h284v-312l-16 -10q-121 -68 -262 -68q-49 1 -109 14q-53 13 -91.5 38.5t-58 51.5t-31 61.5t-14 60t-2.5 55.5v168q0 34 2 57t12.5 59.5t30 62t58.5 50.5t94 38t126 13q112 0 213 -21v-187h-135z" />
    <glyph glyph-name="gbreve" unicode="&#x11f;" horiz-adv-x="596" 
d="M288 565q-135 0 -143 144l84 4q2 -28 17.5 -44t41.5 -16t41.5 16t17.5 44l84 -4q-8 -144 -143 -144zM351 7q-58 -16 -113 -16q-201 5 -201 211v97q0 104 43.5 163t149.5 59q72 0 145 -38l9 29h195v-108h-75v-337q0 -28 -0.5 -44t-3.5 -43t-9.5 -44t-18.5 -39.5t-30 -37
t-45 -29t-62 -23.5q-80 -18 -231 -18h-43v117q192 0 241 18q47 16 49 83zM355 117v277q-49 11 -83 11q-51 0 -69.5 -20t-18.5 -71v-116q0 -54 19.5 -72.5t68.5 -18.5q43 0 83 10z" />
    <glyph glyph-name="Gdotaccent" unicode="&#x120;" horiz-adv-x="670" 
d="M415 829q0 -38 -15 -50.5t-50 -12.5t-50.5 12.5t-15.5 50.5v7q0 37 15.5 50t50.5 13t50 -13t15 -50v-7zM446 512v82q-20 1 -51 1q-23 0 -33.5 -0.5t-32.5 -1.5t-33.5 -5t-29.5 -11t-27.5 -18t-20 -26.5t-15 -37.5t-5.5 -50v-173q0 -125 80 -146q44 -10 75 -10
q68 0 131 24v128h-139v113h284v-312l-16 -10q-121 -68 -262 -68q-49 1 -109 14q-53 13 -91.5 38.5t-58 51.5t-31 61.5t-14 60t-2.5 55.5v168q0 34 2 57t12.5 59.5t30 62t58.5 50.5t94 38t126 13q112 0 213 -21v-187h-135z" />
    <glyph glyph-name="gdotaccent" unicode="&#x121;" horiz-adv-x="597" 
d="M365 639q0 -38 -15 -50.5t-50 -12.5t-50.5 12.5t-15.5 50.5v7q0 37 15.5 50t50.5 13t50 -13t15 -50v-7zM352 7q-58 -16 -113 -16q-201 5 -201 211v97q0 104 43.5 163t149.5 59q72 0 145 -38l9 29h195v-108h-75v-337q0 -28 -0.5 -44t-3.5 -43t-9.5 -44t-18.5 -39.5
t-30 -37t-45 -29t-62 -23.5q-80 -18 -231 -18h-43v117q192 0 241 18q47 16 49 83zM356 117v277q-50 11 -83 11q-51 0 -69.5 -20t-18.5 -71v-116q0 -54 19.5 -72.5t68.5 -18.5q43 0 83 10z" />
    <glyph glyph-name="Gcommaaccent" unicode="&#x122;" horiz-adv-x="670" 
d="M247 -228v67l17 5q35 9 52.5 18t17.5 24q0 26 -31 79h110q18 -40 18 -81q0 -36 -26 -59t-62.5 -33.5t-95.5 -19.5zM446 512v82q-20 1 -51 1q-23 0 -33.5 -0.5t-32.5 -1.5t-33.5 -5t-29.5 -11t-27.5 -18t-20 -26.5t-15 -37.5t-5.5 -50v-173q0 -125 80 -146q44 -10 75 -10
q68 0 131 24v128h-139v113h284v-312l-16 -10q-121 -68 -262 -68q-49 1 -109 14q-53 13 -91.5 38.5t-58 51.5t-31 61.5t-14 60t-2.5 55.5v168q0 34 2 57t12.5 59.5t30 62t58.5 50.5t94 38t126 13q112 0 213 -21v-187h-135z" />
    <glyph glyph-name="uni0123" unicode="&#x123;" horiz-adv-x="597" 
d="M396 757v-67l-17 -5q-70 -17 -70 -42q0 -26 31 -79h-110q-18 40 -18 81q0 36 26 59t62.5 33.5t95.5 19.5zM352 7q-58 -16 -113 -16q-201 5 -201 211v97q0 104 43.5 163t149.5 59q72 0 145 -38l9 29h195v-108h-75v-337q0 -28 -0.5 -44t-3.5 -43t-9.5 -44t-18.5 -39.5
t-30 -37t-45 -29t-62 -23.5q-80 -18 -231 -18h-43v117q192 0 241 18q47 16 49 83zM356 117v277q-50 11 -83 11q-51 0 -69.5 -20t-18.5 -71v-116q0 -54 19.5 -72.5t68.5 -18.5q43 0 83 10z" />
    <glyph glyph-name="Hcircumflex" unicode="&#x124;" horiz-adv-x="796" 
d="M558 765h-99l-60 68l-61 -68h-99l94 134h133zM525 302h-254v-187h80v-115h-233h-80v115h80v481h-80v115h80h153h80v-115h-80v-169h254v169h-80v115h80h153h80v-115h-80v-481h80v-115h-233h-80v115h80v187z" />
    <glyph glyph-name="hcircumflex" unicode="&#x125;" horiz-adv-x="648" 
d="M325 774h-99l-60 68l-61 -68h-99l94 134h133zM564 0h-149v314q0 54 -19.5 72.5t-67.5 18.5q-47 0 -87 -10v-287h66v-108h-66h-149h-67v108h67v495h-75v108h224v-207q54 17 130 17q109 0 151 -47.5t42 -147.5v-218h66v-108h-66z" />
    <glyph glyph-name="Hbar" unicode="&#x126;" horiz-adv-x="796" 
d="M525 294h-254v-179h80v-115h-313v115h80v353h-65v63h65v65h-80v115h313v-115h-80v-65h254v65h-80v115h313v-115h-80v-65h67v-63h-67v-353h80v-115h-313v115h80v179zM271 419h254v49h-254v-49z" />
    <glyph glyph-name="hbar" unicode="&#x127;" horiz-adv-x="648" 
d="M415 0v314q0 54 -19.5 72.5t-67.5 18.5q-47 0 -87 -10v-287h66v-108h-282v108h67v472h-66v62h66v69h149v-69h122v-62h-122v-76q54 17 130 17q109 0 151 -47.5t42 -147.5v-218h66v-108h-215z" />
    <glyph glyph-name="Itilde" unicode="&#x128;" horiz-adv-x="389" 
d="M159 812q-22 19 -29 19q-12 0 -21 -33l-9 -36h-82l13 49q8 31 13 44.5t16 30t28.5 22.5t44.5 6q24 0 40.5 -9.5t56.5 -44.5q19 -19 28 -19t14.5 11t12.5 41l3 16h84l-13 -48q-9 -31 -13.5 -44.5t-16 -30.5t-28.5 -23t-44 -6q-28 0 -43.5 9.5t-54.5 45.5zM271 115h80v-115
h-233h-80v115h80v481h-80v115h80h153h80v-115h-80v-481z" />
    <glyph glyph-name="itilde" unicode="&#x129;" horiz-adv-x="349" 
d="M147 625q-22 19 -29 19q-12 0 -21 -33l-9 -36h-82l13 49q8 31 13 44.5t16 30t28.5 22.5t44.5 6q24 0 40.5 -9.5t56.5 -44.5q19 -19 28 -19t14.5 11t12.5 41l3 16h84l-13 -48q-9 -31 -13.5 -44.5t-16 -30.5t-28.5 -23t-44 -6q-28 0 -43.5 9.5t-54.5 45.5zM32 512h224v-404
h66v-108h-67h-148h-67v108h67v296h-75v108z" />
    <glyph glyph-name="Imacron" unicode="&#x12a;" horiz-adv-x="389" 
d="M317 769h-246v93h246v-93zM271 115h80v-115h-233h-80v115h80v481h-80v115h80h153h80v-115h-80v-481z" />
    <glyph glyph-name="imacron" unicode="&#x12b;" horiz-adv-x="349" 
d="M306 578h-246v93h246v-93zM32 512h224v-404h66v-108h-67h-148h-67v108h67v296h-75v108z" />
    <glyph glyph-name="Ibreve" unicode="&#x12c;" horiz-adv-x="389" 
d="M194 761q-135 0 -143 144l84 4q2 -28 17.5 -44t41.5 -16t41.5 16t17.5 44l84 -4q-8 -144 -143 -144zM271 115h80v-115h-233h-80v115h80v481h-80v115h80h153h80v-115h-80v-481z" />
    <glyph glyph-name="ibreve" unicode="&#x12d;" horiz-adv-x="349" 
d="M183 565q-135 0 -143 144l84 4q2 -28 17.5 -44t41.5 -16t41.5 16t17.5 44l84 -4q-8 -144 -143 -144zM32 512h224v-404h66v-108h-67h-148h-67v108h67v296h-75v108z" />
    <glyph glyph-name="Iogonek" unicode="&#x12e;" horiz-adv-x="389" 
d="M271 115h80v-115q-36 -12 -51 -34.5t-15 -42.5q0 -36 44 -36h64v-86h-89q-51 0 -79 25t-28 70q0 27 18.5 57t48.5 47h-226v115h80v481h-80v115h313v-115h-80v-481z" />
    <glyph glyph-name="iogonek" unicode="&#x12f;" horiz-adv-x="349" 
d="M32 512h224v-404h66v-108q-37 -10 -55.5 -33t-18.5 -43q0 -37 44 -37h64v-86h-89q-51 0 -79 25t-28 70q0 28 18.5 57t52.5 47h-191v108h67v296h-75v108zM262 640q0 -44 -18.5 -58.5t-62.5 -14.5t-62.5 14.5t-18.5 58.5v8q0 43 18.5 57.5t62.5 14.5t62.5 -14.5t18.5 -57.5
v-8z" />
    <glyph glyph-name="Idotaccent" unicode="&#x130;" horiz-adv-x="389" 
d="M259 829q0 -38 -15 -50.5t-50 -12.5t-50.5 12.5t-15.5 50.5v7q0 37 15.5 50t50.5 13t50 -13t15 -50v-7zM271 115h80v-115h-233h-80v115h80v481h-80v115h80h153h80v-115h-80v-481z" />
    <glyph glyph-name="dotlessi" unicode="&#x131;" horiz-adv-x="349" 
d="M32 512h224v-404h66v-108h-67h-148h-67v108h67v296h-75v108z" />
    <glyph glyph-name="IJ" unicode="&#x132;" horiz-adv-x="847" 
d="M271 115h80v-115h-233h-80v115h80v481h-80v115h80h153h80v-115h-80v-481zM747 596v-410q0 -38 -11 -67.5t-27.5 -49.5t-45 -34.5t-54 -22t-65 -12.5t-67.5 -6.5t-71 -2.5v127q36 1 53 2t44 3.5t39.5 7.5t26.5 13t19.5 21t5.5 31v400h-103v115h336v-115h-80z" />
    <glyph glyph-name="ij" unicode="&#x133;" horiz-adv-x="652" 
d="M32 512h224v-404h66v-108h-67h-148h-67v108h67v296h-75v108zM262 640q0 -44 -18.5 -58.5t-62.5 -14.5t-62.5 14.5t-18.5 58.5v8q0 43 18.5 57.5t62.5 14.5t62.5 -14.5t18.5 -57.5v-8zM597 640q0 -44 -18.5 -58.5t-62.5 -14.5t-62.5 14.5t-18.5 58.5v8q0 43 18.5 57.5
t62.5 14.5t62.5 -14.5t18.5 -57.5v-8zM591 512v-556q0 -24 -2.5 -40.5t-12.5 -41t-35.5 -42.5t-65.5 -27q-64 -14 -148 -16v119q44 2 83 10q14 3 21.5 11.5t9 17t1.5 22.5v435h-81v108h230z" />
    <glyph glyph-name="Jcircumflex" unicode="&#x134;" horiz-adv-x="457" 
d="M439 765h-99l-60 68l-61 -68h-99l94 134h133zM357 596v-410q0 -38 -11 -67.5t-27.5 -49.5t-45 -34.5t-54 -22t-65 -12.5t-67.5 -6.5t-71 -2.5v127q36 1 53 2t44 3.5t39.5 7.5t26.5 13t19.5 21t5.5 31v400h-103v115h336v-115h-80z" />
    <glyph glyph-name="jcircumflex" unicode="&#x135;" horiz-adv-x="308" 
d="M329 577h-99l-60 68l-61 -68h-99l94 134h133zM247 512v-556q0 -24 -2.5 -40.5t-12.5 -41t-35.5 -42.5t-65.5 -27q-64 -14 -148 -16v119q44 2 83 10q14 3 21.5 11.5t9 17t1.5 22.5v435h-81v108h230z" />
    <glyph glyph-name="Kcommaaccent" unicode="&#x136;" horiz-adv-x="709" 
d="M265 -228v67l17 5q35 9 52.5 18t17.5 24q0 26 -31 79h110q18 -40 18 -81q0 -36 -26 -59t-62.5 -33.5t-95.5 -19.5zM691 115v-115h-157l-198 278l-65 -77v-86h80v-115h-313v115h80v481h-80v115h303v-115h-70v-230l101 134l74 96h-49v115h291v-115h-68l-173 -222l186 -259
h58z" />
    <glyph glyph-name="uni0137" unicode="&#x137;" horiz-adv-x="600" 
d="M183 -228v67l17 5q35 9 52.5 18t17.5 24q0 26 -31 79h110q18 -40 18 -81q0 -36 -26 -59t-62.5 -33.5t-95.5 -19.5zM581 108v-108h-167l-127 206l-46 -48v-50h66v-108h-282v108h67v495h-75v108h224v-422l78 83l30 32h-56v108h268v-108h-65l-96 -101l121 -195h60z" />
    <glyph glyph-name="kgreenlandic" unicode="&#x138;" horiz-adv-x="615" 
d="M596 108v-108h-167l-127 189l-46 -49v-32h66v-108h-282v108h67v295h-75v108h224v-245l108 138h-56v108h268v-108h-65l-96 -118l121 -178h60z" />
    <glyph glyph-name="Lacute" unicode="&#x139;" horiz-adv-x="578" 
d="M229 765h-112l100 159h160zM271 596v-470h151v105h135v-231h-519v115h80v481h-80v115h233h80v-115h-80z" />
    <glyph glyph-name="lacute" unicode="&#x13a;" horiz-adv-x="336" 
d="M206 751h-112l72 130h160zM19 711h224v-603h66v-108h-66h-149h-67v108h67v495h-75v108z" />
    <glyph glyph-name="Lcommaaccent" unicode="&#x13b;" horiz-adv-x="578" 
d="M222 -228v67l17 5q35 9 52.5 18t17.5 24q0 26 -31 79h110q18 -40 18 -81q0 -36 -26 -59t-62.5 -33.5t-95.5 -19.5zM271 596v-470h151v105h135v-231h-519v115h80v481h-80v115h233h80v-115h-80z" />
    <glyph glyph-name="lcommaaccent" unicode="&#x13c;" horiz-adv-x="336" 
d="M58 -228v67l17 5q35 9 52.5 18t17.5 24q0 26 -31 79h110q18 -40 18 -81q0 -36 -26 -59t-62.5 -33.5t-95.5 -19.5zM19 711h224v-603h66v-108h-66h-149h-67v108h67v495h-75v108z" />
    <glyph glyph-name="Lcaron" unicode="&#x13d;" horiz-adv-x="584" 
d="M488 508h-106l64 212h133zM271 596v-470h151v105h135v-231h-519v115h80v481h-80v115h233h80v-115h-80z" />
    <glyph glyph-name="lcaron" unicode="&#x13e;" horiz-adv-x="392" 
d="M405 508h-106l64 212h133zM19 711h224v-603h66v-108h-66h-149h-67v108h67v495h-75v108z" />
    <glyph glyph-name="Ldot" unicode="&#x13f;" horiz-adv-x="578" 
d="M470 348q0 -41 -15.5 -54.5t-53.5 -13.5q-36 0 -52 13.5t-16 54.5v11q0 40 16 53.5t52 13.5q38 0 53.5 -13.5t15.5 -53.5v-11zM271 596v-470h151v105h135v-231h-519v115h80v481h-80v115h233h80v-115h-80z" />
    <glyph glyph-name="ldot" unicode="&#x140;" horiz-adv-x="399" 
d="M436 301q0 -41 -15.5 -54.5t-53.5 -13.5q-36 0 -52 13.5t-16 54.5v11q0 40 16 53.5t52 13.5q38 0 53.5 -13.5t15.5 -53.5v-11zM19 711h224v-603h66v-108h-66h-149h-67v108h67v495h-75v108z" />
    <glyph glyph-name="Lslash" unicode="&#x141;" horiz-adv-x="579" 
d="M272 596v-172l99 65v-89l-99 -65v-209h151v105h135v-231h-519v115h80v120l-70 -46v89l70 46v272h-80v115h313v-115h-80z" />
    <glyph glyph-name="lslash" unicode="&#x142;" horiz-adv-x="346" 
d="M23 711h224v-281l89 59v-89l-89 -59v-233h66v-108h-282v108h67v136l-84 -55v89l84 55v270h-75v108z" />
    <glyph glyph-name="Nacute" unicode="&#x143;" horiz-adv-x="777" 
d="M421 765h-112l100 159h160zM433 711h316v-115h-80v-596h-157l-237 436h-4v-321h83v-115h-316v115h80v481h-80v115h246l228 -431h4v316h-83v115z" />
    <glyph glyph-name="nacute" unicode="&#x144;" horiz-adv-x="652" 
d="M326 574h-112l86 153h160zM569 108h67v-108h-57h-159v288q0 40 -3 61t-20 38t-51 17q-48 0 -90 -15v-281h67v-108h-67h-149h-67v108h67v296h-75v108h195l9 -28q75 37 141 37q109 0 150.5 -47.5t41.5 -147.5v-218z" />
    <glyph glyph-name="Ncommaaccent" unicode="&#x145;" horiz-adv-x="777" 
d="M298 -228v67l17 5q35 9 52.5 18t17.5 24q0 26 -31 79h110q18 -40 18 -81q0 -36 -26 -59t-62.5 -33.5t-95.5 -19.5zM433 711h316v-115h-80v-596h-157l-237 436h-4v-321h83v-115h-316v115h80v481h-80v115h246l228 -431h4v316h-83v115z" />
    <glyph glyph-name="uni0146" unicode="&#x146;" horiz-adv-x="652" 
d="M225 -228v67l17 5q35 9 52.5 18t17.5 24q0 26 -31 79h110q18 -40 18 -81q0 -36 -26 -59t-62.5 -33.5t-95.5 -19.5zM569 108h67v-108h-57h-159v288q0 40 -3 61t-20 38t-51 17q-48 0 -90 -15v-281h67v-108h-67h-149h-67v108h67v296h-75v108h195l9 -28q75 37 141 37
q109 0 150.5 -47.5t41.5 -147.5v-218z" />
    <glyph glyph-name="Ncaron" unicode="&#x147;" horiz-adv-x="777" 
d="M455 899h99l-92 -134h-133l-94 134h99l61 -68zM433 711h316v-115h-80v-596h-157l-237 436h-4v-321h83v-115h-316v115h80v481h-80v115h246l228 -431h4v316h-83v115z" />
    <glyph glyph-name="ncaron" unicode="&#x148;" horiz-adv-x="652" 
d="M392 730h99l-87 -159h-133l-89 159h99l56 -78zM569 108h67v-108h-57h-159v288q0 40 -3 61t-20 38t-51 17q-48 0 -90 -15v-281h67v-108h-67h-149h-67v108h67v296h-75v108h195l9 -28q75 37 141 37q109 0 150.5 -47.5t41.5 -147.5v-218z" />
    <glyph glyph-name="napostrophe" unicode="&#x149;" horiz-adv-x="776" 
d="M129 546h-106l65 175h146zM693 108h67v-108h-57h-159v288q0 40 -3 61t-20 38t-51 17q-48 0 -90 -15v-281h67v-108h-67h-149h-67v108h67v296h-75v108h195l9 -28q75 37 141 37q109 0 150.5 -47.5t41.5 -147.5v-218z" />
    <glyph glyph-name="Eng" unicode="&#x14a;" horiz-adv-x="777" 
d="M483 75l-208 361h-4v-321h83v-115h-316v115h80v481h-80v115h246l228 -406h4v291h-83v115h316v-115h-80v-612q0 -38 -11 -67.5t-27.5 -49.5t-45 -34.5t-54 -22t-65 -12.5t-67.5 -6.5t-71 -2.5v127q111 3 147 18q75 32 8 141z" />
    <glyph glyph-name="eng" unicode="&#x14b;" horiz-adv-x="624" 
d="M419 -31l1 319q0 40 -3 61t-20 38t-51 17q-48 0 -90 -15v-281h67v-108h-67h-149h-67v108h67v296h-75v108h195l9 -28q75 37 141 37q109 0 150.5 -47.5t41.5 -147.5l-1 -370q0 -24 -2.5 -40.5t-12.5 -41t-35.5 -42.5t-65.5 -27q-64 -14 -148 -16v119q44 2 83 10
q14 3 21.5 11.5t9 17t1.5 22.5z" />
    <glyph glyph-name="Omacron" unicode="&#x14c;" horiz-adv-x="716" 
d="M670 275v161q0 27 -1.5 46t-6 50t-16.5 54t-30 47.5t-49.5 43t-73.5 28.5q-68 15 -135 15t-135 -15q-36 -9 -64.5 -24.5t-46.5 -32.5t-31 -41t-19.5 -43.5t-10.5 -45.5t-4.5 -42t-0.5 -39v-163q0 -23 0.5 -39t4.5 -42t10.5 -45.5t19.5 -43.5t31 -41t46.5 -32.5
t64.5 -24.5q68 -15 135 -15t135 15q42 10 73.5 28.5t49.5 43t30 47.5t16.5 54t6 50t1.5 46zM199 274v163q0 96 38.5 127t120.5 31q86 0 122.5 -34.5t36.5 -124.5v-161q0 -90 -36.5 -124.5t-122.5 -34.5q-82 0 -120.5 31t-38.5 127zM477 769h-246v93h246v-93z" />
    <glyph glyph-name="omacron" unicode="&#x14d;" horiz-adv-x="563" 
d="M525 311v-110q0 -20 -1 -34t-5 -36.5t-13.5 -39.5t-25 -35.5t-41.5 -32t-61 -21.5q-54 -11 -97 -11t-95 11q-41 9 -71 28t-44.5 38t-22.5 46.5t-9.5 45t-1.5 41.5v110q0 24 1.5 41.5t9.5 45t22.5 46.5t44.5 38t71 28q52 11 95 11t97 -11q35 -8 61 -21.5t41.5 -32
t25 -35.5t13.5 -39.5t5 -36.5t1 -34zM376 201v110q0 54 -18.5 72t-76.5 18q-54 0 -74 -16.5t-21 -73.5v-110q0 -54 19.5 -72t75.5 -18q53 0 73.5 18t21.5 72zM404 578h-246v93h246v-93z" />
    <glyph glyph-name="Obreve" unicode="&#x14e;" horiz-adv-x="716" 
d="M670 275v161q0 27 -1.5 46t-6 50t-16.5 54t-30 47.5t-49.5 43t-73.5 28.5q-68 15 -135 15t-135 -15q-36 -9 -64.5 -24.5t-46.5 -32.5t-31 -41t-19.5 -43.5t-10.5 -45.5t-4.5 -42t-0.5 -39v-163q0 -23 0.5 -39t4.5 -42t10.5 -45.5t19.5 -43.5t31 -41t46.5 -32.5
t64.5 -24.5q68 -15 135 -15t135 15q42 10 73.5 28.5t49.5 43t30 47.5t16.5 54t6 50t1.5 46zM199 274v163q0 96 38.5 127t120.5 31q86 0 122.5 -34.5t36.5 -124.5v-161q0 -90 -36.5 -124.5t-122.5 -34.5q-82 0 -120.5 31t-38.5 127zM357 761q-135 0 -143 144l84 4
q2 -28 17.5 -44t41.5 -16t41.5 16t17.5 44l84 -4q-8 -144 -143 -144z" />
    <glyph glyph-name="obreve" unicode="&#x14f;" horiz-adv-x="563" 
d="M525 311v-110q0 -20 -1 -34t-5 -36.5t-13.5 -39.5t-25 -35.5t-41.5 -32t-61 -21.5q-54 -11 -97 -11t-95 11q-41 9 -71 28t-44.5 38t-22.5 46.5t-9.5 45t-1.5 41.5v110q0 24 1.5 41.5t9.5 45t22.5 46.5t44.5 38t71 28q52 11 95 11t97 -11q35 -8 61 -21.5t41.5 -32
t25 -35.5t13.5 -39.5t5 -36.5t1 -34zM376 201v110q0 54 -18.5 72t-76.5 18q-54 0 -74 -16.5t-21 -73.5v-110q0 -54 19.5 -72t75.5 -18q53 0 73.5 18t21.5 72zM281 565q-135 0 -143 144l84 4q2 -28 17.5 -44t41.5 -16t41.5 16t17.5 44l84 -4q-8 -144 -143 -144z" />
    <glyph glyph-name="Ohungarumlaut" unicode="&#x150;" horiz-adv-x="716" 
d="M670 275v161q0 27 -1.5 46t-6 50t-16.5 54t-30 47.5t-49.5 43t-73.5 28.5q-68 15 -135 15t-135 -15q-36 -9 -64.5 -24.5t-46.5 -32.5t-31 -41t-19.5 -43.5t-10.5 -45.5t-4.5 -42t-0.5 -39v-163q0 -23 0.5 -39t4.5 -42t10.5 -45.5t19.5 -43.5t31 -41t46.5 -32.5
t64.5 -24.5q68 -15 135 -15t135 15q42 10 73.5 28.5t49.5 43t30 47.5t16.5 54t6 50t1.5 46zM199 274v163q0 96 38.5 127t120.5 31q86 0 122.5 -34.5t36.5 -124.5v-161q0 -90 -36.5 -124.5t-122.5 -34.5q-82 0 -120.5 31t-38.5 127zM296 764h-99l86 160h131zM464 764h-102
l101 160h139z" />
    <glyph glyph-name="ohungarumlaut" unicode="&#x151;" horiz-adv-x="563" 
d="M525 311v-110q0 -20 -1 -34t-5 -36.5t-13.5 -39.5t-25 -35.5t-41.5 -32t-61 -21.5q-54 -11 -97 -11t-95 11q-41 9 -71 28t-44.5 38t-22.5 46.5t-9.5 45t-1.5 41.5v110q0 24 1.5 41.5t9.5 45t22.5 46.5t44.5 38t71 28q52 11 95 11t97 -11q35 -8 61 -21.5t41.5 -32
t25 -35.5t13.5 -39.5t5 -36.5t1 -34zM376 201v110q0 54 -18.5 72t-76.5 18q-54 0 -74 -16.5t-21 -73.5v-110q0 -54 19.5 -72t75.5 -18q53 0 73.5 18t21.5 72zM240 570h-87l67 160h113zM386 570h-91l90 160h120z" />
    <glyph glyph-name="OE" unicode="&#x152;" horiz-adv-x="1005" 
d="M199 437v-163q0 -95 38 -126t121 -31l129 9v460q-17 9 -129 9q-82 0 -120.5 -31t-38.5 -127zM956 711v-199h-135v74h-181v-172h218v-124h-218v-164h189v74h135v-200h-410l-196 -9q-67 0 -135 15q-36 9 -64.5 24.5t-46.5 32.5t-31 41t-19.5 43.5t-10.5 45.5t-4.5 42
t-0.5 39v163q0 23 0.5 39t4.5 42t10.5 45.5t19.5 43.5t31 41t46.5 32.5t64.5 24.5q68 15 135 15l196 -9h402z" />
    <glyph glyph-name="oe" unicode="&#x153;" horiz-adv-x="868" 
d="M453 45q-64 -54 -172 -54q-43 0 -95 11q-41 9 -71 28t-44.5 38t-22.5 46.5t-9.5 45t-1.5 41.5v110q0 24 1.5 41.5t9.5 45t22.5 46.5t44.5 38t71 28q52 11 95 11q113 0 172 -53q57 53 167 53q109 0 164.5 -47.5t55.5 -168.5q0 -37 -6 -91h-308q0 -53 16.5 -75.5
t47.5 -28.5q90 -19 214 12v-111q-105 -20 -163 -20q-68 0 -112 11.5t-76 42.5zM376 201v110q0 54 -18.5 72t-76.5 18q-54 0 -74 -16.5t-21 -73.5v-110q0 -54 19.5 -72t75.5 -18q53 0 73.5 18t21.5 72zM528 310h169q9 97 -73 97h-4q-41 0 -63.5 -20.5t-28.5 -76.5z" />
    <glyph glyph-name="Racute" unicode="&#x154;" horiz-adv-x="681" 
d="M390 765h-112l100 159h160zM272 115h75v-115h-309v115h80v481h-80v115h351q49 0 83 -4.5t66.5 -18t51.5 -38.5t30.5 -67t11.5 -101q0 -110 -38.5 -157t-121.5 -60l-7 -1v-3l114 -146h76v-115h-172l-173 259h-38v-144zM272 381h117q47 0 68 19t21 82q0 64 -21.5 84
t-67.5 20h-117v-205z" />
    <glyph glyph-name="racute" unicode="&#x155;" horiz-adv-x="446" 
d="M238 574h-112l86 153h160zM107 404h-75v108h198l13 -44q12 4 45 16.5t50.5 18.5t44.5 12t50 6v-131q-123 -3 -177 -20v-262h66v-108h-67h-148h-67v108h67v296z" />
    <glyph glyph-name="Rcommaaccent" unicode="&#x156;" horiz-adv-x="681" 
d="M261 -228v67l17 5q35 9 52.5 18t17.5 24q0 26 -31 79h110q18 -40 18 -81q0 -36 -26 -59t-62.5 -33.5t-95.5 -19.5zM272 115h75v-115h-309v115h80v481h-80v115h351q49 0 83 -4.5t66.5 -18t51.5 -38.5t30.5 -67t11.5 -101q0 -110 -38.5 -157t-121.5 -60l-7 -1v-3l114 -146
h76v-115h-172l-173 259h-38v-144zM272 381h117q47 0 68 19t21 82q0 64 -21.5 84t-67.5 20h-117v-205z" />
    <glyph glyph-name="uni0157" unicode="&#x157;" horiz-adv-x="446" 
d="M66 -228v67l17 5q35 9 52.5 18t17.5 24q0 26 -31 79h110q18 -40 18 -81q0 -36 -26 -59t-62.5 -33.5t-95.5 -19.5zM107 404h-75v108h198l13 -44q12 4 45 16.5t50.5 18.5t44.5 12t50 6v-131q-123 -3 -177 -20v-262h66v-108h-67h-148h-67v108h67v296z" />
    <glyph glyph-name="Rcaron" unicode="&#x158;" horiz-adv-x="681" 
d="M412 899h99l-92 -134h-133l-94 134h99l61 -68zM272 115h75v-115h-309v115h80v481h-80v115h351q49 0 83 -4.5t66.5 -18t51.5 -38.5t30.5 -67t11.5 -101q0 -110 -38.5 -157t-121.5 -60l-7 -1v-3l114 -146h76v-115h-172l-173 259h-38v-144zM272 381h117q47 0 68 19t21 82
q0 64 -21.5 84t-67.5 20h-117v-205z" />
    <glyph glyph-name="rcaron" unicode="&#x159;" horiz-adv-x="446" 
d="M304 730h99l-87 -159h-133l-89 159h99l56 -78zM107 404h-75v108h198l13 -44q12 4 45 16.5t50.5 18.5t44.5 12t50 6v-131q-123 -3 -177 -20v-262h66v-108h-67h-148h-67v108h67v296z" />
    <glyph glyph-name="Sacute" unicode="&#x15a;" horiz-adv-x="578" 
d="M342 765h-112l100 159h160zM386 512v80q-26 5 -61 5q-59 0 -88.5 -16t-29.5 -59q0 -26 18 -42t62 -38l123 -62q68 -35 100.5 -81t32.5 -121q0 -109 -68 -148t-210 -39q-95 0 -225 33v187h135v-90q49 -11 90 -11q125 0 125 68q0 32 -12 48.5t-41 31.5l-130 66
q-84 44 -119 85.5t-35 115.5q0 111 65.5 153t206.5 42q96 0 196 -29v-179h-135z" />
    <glyph glyph-name="sacute" unicode="&#x15b;" horiz-adv-x="466" 
d="M280 574h-112l86 153h160zM165 170v-57q25 -6 45 -6q77 0 77 39q0 10 -6 17.5t-12 11t-19 10.5l-93 44q-63 30 -88 62t-25 88q0 72 54 107t168 35q76 0 148 -31v-139h-130v53q-16 3 -39 3q-24 0 -38 -9t-14 -24q0 -18 26 -31l97 -45q59 -28 89.5 -64.5t30.5 -89.5
q0 -81 -57 -117t-169 -36q-71 0 -175 34v145h130z" />
    <glyph glyph-name="Scircumflex" unicode="&#x15c;" horiz-adv-x="578" 
d="M470 765h-99l-60 68l-61 -68h-99l94 134h133zM386 592v-80h135v179q-100 29 -196 29q-141 0 -206.5 -42t-65.5 -153q0 -74 35 -115.5t119 -85.5l130 -66q29 -15 41 -31.5t12 -48.5q0 -68 -125 -68q-41 0 -90 11v90h-135v-187q130 -33 225 -33q142 0 210 39t68 148
q0 75 -32.5 121t-100.5 81l-123 62q-44 22 -62 38t-18 42q0 43 29.5 59t88.5 16q35 0 61 -5z" />
    <glyph glyph-name="scircumflex" unicode="&#x15d;" horiz-adv-x="466" 
d="M392 571h-99l-55 78l-56 -78h-99l89 159h133zM165 113v57h-130v-145q104 -34 175 -34q112 0 169 36t57 117q0 53 -30.5 89.5t-89.5 64.5l-97 45q-26 13 -26 31q0 15 14 24t38 9q23 0 39 -3v-53h130v139q-72 31 -148 31q-114 0 -168 -35t-54 -107q0 -56 25 -88t88 -62
l93 -44q13 -7 19 -10.5t12 -11t6 -17.5q0 -39 -77 -39q-20 0 -45 6z" />
    <glyph glyph-name="Scedilla" unicode="&#x15e;" horiz-adv-x="578" 
d="M386 512v80q-26 5 -61 5q-59 0 -88.5 -16t-29.5 -59q0 -26 18 -42t62 -38l123 -62q68 -35 100.5 -81t32.5 -121q0 -95 -51.5 -136t-155.5 -48q48 -46 48 -98q0 -45 -28 -70t-79 -25h-89v86h64q44 0 44 26q0 41 -42 78q-102 5 -214 33v187h135v-90q49 -11 90 -11
q125 0 125 68q0 32 -12 48.5t-41 31.5l-130 66q-84 44 -119 85.5t-35 115.5q0 111 65.5 153t206.5 42q96 0 196 -29v-179h-135z" />
    <glyph glyph-name="scedilla" unicode="&#x15f;" horiz-adv-x="466" 
d="M165 170v-57q25 -6 45 -6q77 0 77 39q0 10 -6 17.5t-12 11t-19 10.5l-93 44q-63 30 -88 62t-25 88q0 72 54 107t168 35q76 0 148 -31v-139h-130v53q-16 3 -39 3q-24 0 -38 -9t-14 -24q0 -18 26 -31l97 -45q59 -28 89.5 -64.5t30.5 -89.5q0 -125 -145 -147q51 -47 51 -101
q0 -45 -28 -70t-79 -25h-89v86h64q44 0 44 26q0 45 -48 78q-75 2 -171 34v145h130z" />
    <glyph glyph-name="Scaron" unicode="&#x160;" horiz-adv-x="578" 
d="M364 899h99l-92 -134h-133l-94 134h99l61 -68zM386 512v80q-26 5 -61 5q-59 0 -88.5 -16t-29.5 -59q0 -26 18 -42t62 -38l123 -62q68 -35 100.5 -81t32.5 -121q0 -109 -68 -148t-210 -39q-95 0 -225 33v187h135v-90q49 -11 90 -11q125 0 125 68q0 32 -12 48.5t-41 31.5
l-130 66q-84 44 -119 85.5t-35 115.5q0 111 65.5 153t206.5 42q96 0 196 -29v-179h-135z" />
    <glyph glyph-name="scaron" unicode="&#x161;" horiz-adv-x="466" 
d="M299 730h99l-87 -159h-133l-89 159h99l56 -78zM165 170v-57q25 -6 45 -6q77 0 77 39q0 10 -6 17.5t-12 11t-19 10.5l-93 44q-63 30 -88 62t-25 88q0 72 54 107t168 35q76 0 148 -31v-139h-130v53q-16 3 -39 3q-24 0 -38 -9t-14 -24q0 -18 26 -31l97 -45
q59 -28 89.5 -64.5t30.5 -89.5q0 -81 -57 -117t-169 -36q-71 0 -175 34v145h130z" />
    <glyph glyph-name="Tcommaaccent" unicode="&#x162;" horiz-adv-x="674" 
d="M222 -228v67l17 5q35 9 52.5 18t17.5 24q0 26 -31 79h110q18 -40 18 -81q0 -36 -26 -59t-62.5 -33.5t-95.5 -19.5zM413 115h80v-115h-313v115h80v471h-102v-110h-135v235h628v-235h-135v110h-103v-471z" />
    <glyph glyph-name="tcommaaccent" unicode="&#x163;" horiz-adv-x="388" 
d="M365 117v-116q-65 -10 -104 -10q-79 0 -128 40.5t-51 120.5v251h-72v109h77l22 127h121v-127h134v-109h-134v-232q0 -59 51 -59q48 0 84 5zM108 -228v67l17 5q35 9 52.5 18t17.5 24q0 26 -31 79h110q18 -40 18 -81q0 -36 -26 -59t-62.5 -33.5t-95.5 -19.5z" />
    <glyph glyph-name="Tcaron" unicode="&#x164;" horiz-adv-x="674" 
d="M402 899h99l-92 -134h-133l-94 134h99l61 -68zM413 115h80v-115h-313v115h80v471h-102v-110h-135v235h628v-235h-135v110h-103v-471z" />
    <glyph glyph-name="tcaron" unicode="&#x165;" horiz-adv-x="387" 
d="M365 117v-116q-65 -10 -104 -10q-79 0 -128 40.5t-51 120.5v251h-72v109h77l22 127h121v-127h134v-109h-134v-232q0 -59 51 -59q48 0 84 5zM394 586h-106l60 190h146z" />
    <glyph glyph-name="Tbar" unicode="&#x166;" horiz-adv-x="672" 
d="M412 115h80v-115h-313v115h80v199h-107v83h107v189h-102v-110h-135v235h628v-235h-135v110h-103v-189h110v-83h-110v-199z" />
    <glyph glyph-name="tbar" unicode="&#x167;" horiz-adv-x="391" 
d="M368 117v-116q-65 -10 -104 -10q-79 0 -128 40.5t-51 120.5v81h-52v75h52v95h-72v109h77l22 127h121v-127h134v-109h-134v-95h88v-75h-88v-62q0 -59 51 -59q48 0 84 5z" />
    <glyph glyph-name="Utilde" unicode="&#x168;" horiz-adv-x="763" 
d="M342 812q-22 19 -29 19q-12 0 -21 -33l-9 -36h-82l13 49q8 31 13 44.5t16 30t28.5 22.5t44.5 6q24 0 40.5 -9.5t56.5 -44.5q19 -19 28 -19t14.5 11t12.5 41l3 16h84l-13 -48q-9 -31 -13.5 -44.5t-16 -30.5t-28.5 -23t-44 -6q-28 0 -43.5 9.5t-54.5 45.5zM507 596h-80v115
h80h153h80v-115h-80v-329q0 -151 -60.5 -213.5t-214.5 -62.5h-8q-157 0 -216 64.5t-59 211.5v329h-80v115h313v-115h-80v-329q0 -80 26.5 -115.5t95.5 -35.5h8q68 0 95 34t27 117v329z" />
    <glyph glyph-name="utilde" unicode="&#x169;" horiz-adv-x="639" 
d="M263 625q-22 19 -29 19q-12 0 -21 -33l-9 -36h-82l13 49q8 31 13 44.5t16 30t28.5 22.5t44.5 6q24 0 40.5 -9.5t56.5 -44.5q19 -19 28 -19t14.5 11t12.5 41l3 16h84l-13 -48q-9 -31 -13.5 -44.5t-16 -30.5t-28.5 -23t-44 -6q-28 0 -43.5 9.5t-54.5 45.5zM546 108h67v-108
h-187l-9 28q-75 -37 -141 -37q-109 0 -150.5 47.5t-41.5 147.5v218h-75v108h224v-289q0 -40 3 -61t20 -38t51 -17q48 0 90 15v390h149v-404z" />
    <glyph glyph-name="Umacron" unicode="&#x16a;" horiz-adv-x="763" 
d="M503 769h-246v93h246v-93zM507 596h-80v115h80h153h80v-115h-80v-329q0 -151 -60.5 -213.5t-214.5 -62.5h-8q-157 0 -216 64.5t-59 211.5v329h-80v115h313v-115h-80v-329q0 -80 26.5 -115.5t95.5 -35.5h8q68 0 95 34t27 117v329z" />
    <glyph glyph-name="umacron" unicode="&#x16b;" horiz-adv-x="639" 
d="M422 578h-246v93h246v-93zM546 108h67v-108h-187l-9 28q-75 -37 -141 -37q-109 0 -150.5 47.5t-41.5 147.5v218h-75v108h224v-289q0 -40 3 -61t20 -38t51 -17q48 0 90 15v390h149v-404z" />
    <glyph glyph-name="Ubreve" unicode="&#x16c;" horiz-adv-x="763" 
d="M385 761q-135 0 -143 144l84 4q2 -28 17.5 -44t41.5 -16t41.5 16t17.5 44l84 -4q-8 -144 -143 -144zM507 596h-80v115h80h153h80v-115h-80v-329q0 -151 -60.5 -213.5t-214.5 -62.5h-8q-157 0 -216 64.5t-59 211.5v329h-80v115h313v-115h-80v-329q0 -80 26.5 -115.5
t95.5 -35.5h8q68 0 95 34t27 117v329z" />
    <glyph glyph-name="ubreve" unicode="&#x16d;" horiz-adv-x="639" 
d="M299 565q-135 0 -143 144l84 4q2 -28 17.5 -44t41.5 -16t41.5 16t17.5 44l84 -4q-8 -144 -143 -144zM546 108h67v-108h-187l-9 28q-75 -37 -141 -37q-109 0 -150.5 47.5t-41.5 147.5v218h-75v108h224v-289q0 -40 3 -61t20 -38t51 -17q48 0 90 15v390h149v-404z" />
    <glyph glyph-name="Uring" unicode="&#x16e;" horiz-adv-x="763" 
d="M392 946q54 0 72 -22.5t18 -71.5t-18 -72t-72 -23h-24q-52 0 -70.5 23t-18.5 72t18.5 71.5t70.5 22.5h24zM391 895h-22q-34 0 -34 -43q0 -23 7 -33.5t27 -10.5h22q21 0 28 10.5t7 33.5q0 22 -7.5 32.5t-27.5 10.5zM507 596h-80v115h80h153h80v-115h-80v-329
q0 -151 -60.5 -213.5t-214.5 -62.5h-8q-157 0 -216 64.5t-59 211.5v329h-80v115h313v-115h-80v-329q0 -80 26.5 -115.5t95.5 -35.5h8q68 0 95 34t27 117v329z" />
    <glyph glyph-name="uring" unicode="&#x16f;" horiz-adv-x="639" 
d="M310 755q54 0 72 -22.5t18 -71.5t-18 -72t-72 -23h-24q-52 0 -70.5 23t-18.5 72t18.5 71.5t70.5 22.5h24zM309 704h-22q-34 0 -34 -43q0 -23 7 -33.5t27 -10.5h22q21 0 28 10.5t7 33.5q0 22 -7.5 32.5t-27.5 10.5zM546 108h67v-108h-187l-9 28q-75 -37 -141 -37
q-109 0 -150.5 47.5t-41.5 147.5v218h-75v108h224v-289q0 -40 3 -61t20 -38t51 -17q48 0 90 15v390h149v-404z" />
    <glyph glyph-name="Uhungarumlaut" unicode="&#x170;" horiz-adv-x="763" 
d="M309 764h-99l86 160h131zM477 764h-102l101 160h139zM507 596h-80v115h80h153h80v-115h-80v-329q0 -151 -60.5 -213.5t-214.5 -62.5h-8q-157 0 -216 64.5t-59 211.5v329h-80v115h313v-115h-80v-329q0 -80 26.5 -115.5t95.5 -35.5h8q68 0 95 34t27 117v329z" />
    <glyph glyph-name="uhungarumlaut" unicode="&#x171;" horiz-adv-x="639" 
d="M247 570h-87l67 160h113zM393 570h-91l90 160h120zM546 108h67v-108h-187l-9 28q-75 -37 -141 -37q-109 0 -150.5 47.5t-41.5 147.5v218h-75v108h224v-289q0 -40 3 -61t20 -38t51 -17q48 0 90 15v390h149v-404z" />
    <glyph glyph-name="Uogonek" unicode="&#x172;" horiz-adv-x="763" 
d="M507 596h-80v115h313v-115h-80v-329q0 -144 -54 -207t-191 -68q-48 -37 -48 -79q0 -26 44 -26h64v-86h-89q-51 0 -79 25t-28 70q0 56 48 97q-127 9 -176 73.5t-49 200.5v329h-80v115h313v-115h-80v-329q0 -80 26.5 -115.5t95.5 -35.5h8q68 0 95 34t27 117v329z" />
    <glyph glyph-name="uogonek" unicode="&#x173;" horiz-adv-x="639" 
d="M546 108h67v-108q-37 -14 -55 -37.5t-18 -42.5q0 -33 44 -33h64v-86h-89q-51 0 -79 25t-28 70q0 28 19.5 56.5t54.5 47.5h-100l-9 28q-75 -37 -141 -37q-109 0 -150.5 47.5t-41.5 147.5v218h-75v108h224v-289q0 -40 3 -61t20 -38t51 -17q48 0 90 15v390h149v-404z" />
    <glyph glyph-name="Wcircumflex" unicode="&#x174;" horiz-adv-x="986" 
d="M655 765h-99l-60 68l-61 -68h-99l94 134h133zM308 596h-70l76 -337h5l101 425h148l101 -425h4l76 337h-70v115h293v-115h-65l-157 -596h-152l-101 443h-5l-102 -443h-153l-158 596h-65v115h294v-115z" />
    <glyph glyph-name="wcircumflex" unicode="&#x175;" horiz-adv-x="824" 
d="M569 571h-99l-55 78l-56 -78h-99l89 159h133zM751 404l-117 -404h-145l-76 286h-2l-76 -286h-145l-118 404h-60v108h263v-108h-55l50 -209h2l85 302h110l84 -302h2l51 209h-55v108h262v-108h-60z" />
    <glyph glyph-name="Ycircumflex" unicode="&#x176;" horiz-adv-x="711" 
d="M511 765h-99l-60 68l-61 -68h-99l94 134h133zM432 115h80v-115h-313v115h80v114l-203 367h-65v115h301v-115h-70l112 -228h4l110 228h-70v115h300v-115h-65l-201 -369v-112z" />
    <glyph glyph-name="ycircumflex" unicode="&#x177;" horiz-adv-x="612" 
d="M461 571h-99l-55 78l-56 -78h-99l89 159h133zM11 404v108h267v-108h-52l80 -233h2l78 233h-52v108h267v-108h-60l-149 -371q-33 -96 -76.5 -150.5t-117.5 -80.5q-15 -5 -36.5 -8t-33 -3.5t-45.5 -1t-39 -0.5v117q31 1 41.5 1.5t33 2.5t30.5 6l23 11.5t23 18.5t18 27
t19 38l-161 393h-60z" />
    <glyph glyph-name="Ydieresis" unicode="&#x178;" horiz-adv-x="711" 
d="M325 826q0 -38 -15 -50.5t-50 -12.5t-50.5 12.5t-15.5 50.5v7q0 37 15.5 50t50.5 13t50 -13t15 -50v-7zM516 826q0 -38 -15 -50.5t-50 -12.5t-50.5 12.5t-15.5 50.5v7q0 37 15.5 50t50.5 13t50 -13t15 -50v-7zM432 115h80v-115h-313v115h80v114l-203 367h-65v115h301
v-115h-70l112 -228h4l110 228h-70v115h300v-115h-65l-201 -369v-112z" />
    <glyph glyph-name="Zacute" unicode="&#x179;" horiz-adv-x="620" 
d="M341 765h-112l100 159h160zM583 225v-225h-552v105l344 481h-188v-74h-135v199h512v-107l-346 -479h230v100h135z" />
    <glyph glyph-name="zacute" unicode="&#x17a;" horiz-adv-x="521" 
d="M301 574h-112l86 153h160zM46 332v180h425v-105l-245 -286h127v79h130v-200h-447v105l245 286h-105v-59h-130z" />
    <glyph glyph-name="Zdotaccent" unicode="&#x17b;" horiz-adv-x="620" 
d="M385 829q0 -38 -15 -50.5t-50 -12.5t-50.5 12.5t-15.5 50.5v7q0 37 15.5 50t50.5 13t50 -13t15 -50v-7zM583 225v-225h-552v105l344 481h-188v-74h-135v199h512v-107l-346 -479h230v100h135z" />
    <glyph glyph-name="zdotaccent" unicode="&#x17c;" horiz-adv-x="521" 
d="M325 639q0 -38 -15 -50.5t-50 -12.5t-50.5 12.5t-15.5 50.5v7q0 37 15.5 50t50.5 13t50 -13t15 -50v-7zM46 332v180h425v-105l-245 -286h127v79h130v-200h-447v105l245 286h-105v-59h-130z" />
    <glyph glyph-name="Zcaron" unicode="&#x17d;" horiz-adv-x="620" 
d="M367 899h99l-92 -134h-133l-94 134h99l61 -68zM583 225v-225h-552v105l344 481h-188v-74h-135v199h512v-107l-346 -479h230v100h135z" />
    <glyph glyph-name="zcaron" unicode="&#x17e;" horiz-adv-x="521" 
d="M315 730h99l-87 -159h-133l-89 159h99l56 -78zM46 332v180h425v-105l-245 -286h127v79h130v-200h-447v105l245 286h-105v-59h-130z" />
    <glyph glyph-name="longs" unicode="&#x17f;" horiz-adv-x="372" 
d="M256 108h76v-108h-292v108h67v270h-73v109h73v66q0 24 2.5 40.5t12.5 41t35.5 42.5t65.5 27q70 16 176 16v-118q-60 0 -111 -11q-14 -3 -21.5 -11.5t-9 -17t-1.5 -22.5v-432z" />
    <glyph glyph-name="florin" unicode="&#x192;" horiz-adv-x="393" 
d="M254 378l-66 -390q-3 -19 -6 -31.5t-13 -33.5t-23.5 -35.5t-39 -29t-59.5 -21.5q-73 -16 -179 -16l20 118q60 0 113 11q15 3 23.5 11t11.5 16.5t5 22.5l64 378h-73l18 109h73l11 66q3 19 6 31.5t13 33.5t23.5 35.5t39 29t59.5 21.5q73 16 179 16l-20 -118q-60 0 -113 -11
q-15 -3 -23.5 -11.5t-11.5 -16.5t-5 -23l-9 -53h119l-18 -109h-119z" />
    <glyph glyph-name="Aringacute" unicode="&#x1fa;" horiz-adv-x="734" 
d="M451 707l213 -592h64v-115h-287v115h70l-29 85h-230l-29 -85h70v-115h-287v115h64l212 592q-16 21 -16 71q0 39 11.5 61t41.5 29l76 121h160l-119 -128q33 -19 33 -83q0 -47 -18 -71zM294 324h146l-72 234h-2zM378 821h-22q-34 0 -34 -43q0 -23 7 -33.5t27 -10.5h22
q21 0 28 10.5t7 33.5q0 22 -7.5 32.5t-27.5 10.5z" />
    <glyph glyph-name="aringacute" unicode="&#x1fb;" horiz-adv-x="590" 
d="M457 835l-96 -95q33 -19 33 -83q0 -49 -18 -72t-72 -23h-24q-52 0 -70.5 23t-18.5 72q0 39 11.5 61t41.5 29l53 88h160zM303 700h-22q-34 0 -34 -43q0 -23 7 -33.5t27 -10.5h22q21 0 28 10.5t7 33.5q0 22 -7.5 32.5t-27.5 10.5zM37 206v104q0 24 1.5 41.5t9 45t21.5 46.5
t42.5 38t67.5 28q53 12 97 12q108 0 224 -33v-380h66v-108h-186l-9 29q-73 -38 -141 -38q-107 0 -150 56t-43 159zM186 306v-107q1 -51 18.5 -71t69.5 -20q33 0 77 14v277q-41 6 -77 6q-54 0 -71 -22.5t-17 -76.5z" />
    <glyph glyph-name="AEacute" unicode="&#x1fc;" horiz-adv-x="1038" 
d="M602 765h-112l100 159h160zM520 593l-146 -259h146v259zM998 0h-475v206h-222l-53 -91h67v-115h-309v115h70l354 596h560v-199h-135v74h-181v-172h218v-124h-218v-164h189v74h135v-200z" />
    <glyph glyph-name="aeacute" unicode="&#x1fd;" horiz-adv-x="806" 
d="M449 574h-112l86 153h160zM212 -9q-99 0 -144.5 43t-45.5 114v12q0 74 53 111t145 39q55 0 104 -7v21q0 22 -9 37.5t-20 23t-31.5 11.5t-32 4.5t-33.5 0.5h-7q-56 0 -121 -13v114q102 19 163 19q46 0 94 -10q52 -13 83 -39q48 49 148 49q109 0 164.5 -47.5t55.5 -168.5
q0 -37 -6 -91h-308q0 -53 16.5 -75.5t47.5 -28.5q90 -19 214 12v-111q-105 -20 -163 -20q-132 0 -178 47q-86 -47 -189 -47zM329 210q-29 3 -72 3q-37 0 -61.5 -13t-24.5 -41v-6q0 -27 19 -40.5t51 -13.5q21 0 53.5 7.5t45.5 15.5q-9 31 -11 88zM466 310h169q9 97 -73 97h-4
q-41 0 -63.5 -20.5t-28.5 -76.5z" />
    <glyph glyph-name="Oslashacute" unicode="&#x1fe;" horiz-adv-x="721" 
d="M518 486l-279 -337q33 -33 123 -33q86 0 122.5 34.5t36.5 124.5v161q0 28 -3 50zM205 235l273 331q-36 29 -116 29q-82 0 -120.5 -31t-38.5 -127v-163q0 -27 2 -39zM685 689l-56 -68q45 -62 45 -185v-161q0 -27 -1.5 -46t-6 -50t-16.5 -54t-30 -47.5t-49.5 -43
t-73.5 -28.5q-68 -15 -135 -15t-135 15q-46 12 -80 33l-52 -63l-62 51l57 68q-40 61 -40 179v163q0 23 0.5 39t4.5 42t10.5 45.5t19.5 43.5t31 41t46.5 32.5t64.5 24.5q68 15 135 15t135 -15q41 -10 72 -29l52 62zM399 765h-112l100 159h160z" />
    <glyph glyph-name="oslashacute" unicode="&#x1ff;" horiz-adv-x="564" 
d="M527 311v-110q0 -20 -1 -34t-5 -36.5t-13.5 -39.5t-25 -35.5t-41.5 -32t-61 -21.5q-54 -11 -97 -11t-95 11q-39 9 -66 24l-43 -49l-46 42l41 47q-35 45 -35 135v110q0 24 1.5 41.5t9.5 45t22.5 46.5t44.5 38t71 28q52 11 95 11t97 -11q38 -9 63 -24l45 52l48 -40l-45 -51
q36 -45 36 -136zM378 201v110v6l-168 -191q19 -15 73 -15q53 0 73.5 18t21.5 72zM188 201v-5l167 191q-20 14 -72 14q-54 0 -74 -16.5t-21 -73.5v-110zM339 574h-112l86 153h160z" />
    <glyph glyph-name="Scommaaccent" unicode="&#x218;" horiz-adv-x="578" 
d="M169 -228v67l17 5q35 9 52.5 18t17.5 24q0 26 -31 79h110q18 -40 18 -81q0 -36 -26 -59t-62.5 -33.5t-95.5 -19.5zM386 512v80q-26 5 -61 5q-59 0 -88.5 -16t-29.5 -59q0 -26 18 -42t62 -38l123 -62q68 -35 100.5 -81t32.5 -121q0 -109 -68 -148t-210 -39q-95 0 -225 33
v187h135v-90q49 -11 90 -11q125 0 125 68q0 32 -12 48.5t-41 31.5l-130 66q-84 44 -119 85.5t-35 115.5q0 111 65.5 153t206.5 42q96 0 196 -29v-179h-135z" />
    <glyph glyph-name="scommaaccent" unicode="&#x219;" horiz-adv-x="466" 
d="M120 -228v67l17 5q35 9 52.5 18t17.5 24q0 26 -31 79h110q18 -40 18 -81q0 -36 -26 -59t-62.5 -33.5t-95.5 -19.5zM165 170v-57q25 -6 45 -6q77 0 77 39q0 10 -6 17.5t-12 11t-19 10.5l-93 44q-63 30 -88 62t-25 88q0 72 54 107t168 35q76 0 148 -31v-139h-130v53
q-16 3 -39 3q-24 0 -38 -9t-14 -24q0 -18 26 -31l97 -45q59 -28 89.5 -64.5t30.5 -89.5q0 -81 -57 -117t-169 -36q-71 0 -175 34v145h130z" />
    <glyph glyph-name="circumflex" unicode="&#x2c6;" horiz-adv-x="519" 
d="M415 571h-99l-55 78l-56 -78h-99l89 159h133z" />
    <glyph glyph-name="caron" unicode="&#x2c7;" horiz-adv-x="519" 
d="M316 730h99l-87 -159h-133l-89 159h99l56 -78z" />
    <glyph glyph-name="breve" unicode="&#x2d8;" horiz-adv-x="526" 
d="M263 565q-135 0 -143 144l84 4q2 -28 17.5 -44t41.5 -16t41.5 16t17.5 44l84 -4q-8 -144 -143 -144z" />
    <glyph glyph-name="dotaccent" unicode="&#x2d9;" horiz-adv-x="371" 
d="M251 639q0 -38 -15 -50.5t-50 -12.5t-50.5 12.5t-15.5 50.5v7q0 37 15.5 50t50.5 13t50 -13t15 -50v-7z" />
    <glyph glyph-name="ring" unicode="&#x2da;" horiz-adv-x="413" 
d="M218 755q54 0 72 -22.5t18 -71.5t-18 -72t-72 -23h-24q-52 0 -70.5 23t-18.5 72t18.5 71.5t70.5 22.5h24zM217 704h-22q-34 0 -34 -43q0 -23 7 -33.5t27 -10.5h22q21 0 28 10.5t7 33.5q0 22 -7.5 32.5t-27.5 10.5z" />
    <glyph glyph-name="ogonek" unicode="&#x2db;" horiz-adv-x="516" 
d="M227 10l17 12h75v-22q-30 -20 -50.5 -45.5t-20.5 -41.5q0 -26 44 -26h64v-86h-89q-51 0 -79 25t-28 70q0 63 67 114z" />
    <glyph glyph-name="tilde" unicode="&#x2dc;" horiz-adv-x="514" 
d="M221 625q-22 19 -29 19q-12 0 -21 -33l-9 -36h-82l13 49q8 31 13 44.5t16 30t28.5 22.5t44.5 6q24 0 40.5 -9.5t56.5 -44.5q19 -19 28 -19t14.5 11t12.5 41l3 16h84l-13 -48q-9 -31 -13.5 -44.5t-16 -30.5t-28.5 -23t-44 -6q-28 0 -43.5 9.5t-54.5 45.5z" />
    <glyph glyph-name="hungarumlaut" unicode="&#x2dd;" horiz-adv-x="565" 
d="M222 570h-87l67 160h113zM368 570h-91l90 160h120z" />
    <glyph glyph-name="Wgrave" unicode="&#x1e80;" horiz-adv-x="986" 
d="M548 765h-112l-148 159h160zM308 596h-70l76 -337h5l101 425h148l101 -425h4l76 337h-70v115h293v-115h-65l-157 -596h-152l-101 443h-5l-102 -443h-153l-158 596h-65v115h294v-115z" />
    <glyph glyph-name="wgrave" unicode="&#x1e81;" horiz-adv-x="824" 
d="M461 574h-112l-134 153h160zM751 404l-117 -404h-145l-76 286h-2l-76 -286h-145l-118 404h-60v108h263v-108h-55l50 -209h2l85 302h110l84 -302h2l51 209h-55v108h262v-108h-60z" />
    <glyph glyph-name="Wacute" unicode="&#x1e82;" horiz-adv-x="986" 
d="M541 765h-112l100 159h160zM308 596h-70l76 -337h5l101 425h148l101 -425h4l76 337h-70v115h293v-115h-65l-157 -596h-152l-101 443h-5l-102 -443h-153l-158 596h-65v115h294v-115z" />
    <glyph glyph-name="wacute" unicode="&#x1e83;" horiz-adv-x="824" 
d="M483 574h-112l86 153h160zM751 404l-117 -404h-145l-76 286h-2l-76 -286h-145l-118 404h-60v108h263v-108h-55l50 -209h2l85 302h110l84 -302h2l51 209h-55v108h262v-108h-60z" />
    <glyph glyph-name="Wdieresis" unicode="&#x1e84;" horiz-adv-x="986" 
d="M459 826q0 -38 -15 -50.5t-50 -12.5t-50.5 12.5t-15.5 50.5v7q0 37 15.5 50t50.5 13t50 -13t15 -50v-7zM650 826q0 -38 -15 -50.5t-50 -12.5t-50.5 12.5t-15.5 50.5v7q0 37 15.5 50t50.5 13t50 -13t15 -50v-7zM308 596h-70l76 -337h5l101 425h148l101 -425h4l76 337h-70
v115h293v-115h-65l-157 -596h-152l-101 443h-5l-102 -443h-153l-158 596h-65v115h294v-115z" />
    <glyph glyph-name="wdieresis" unicode="&#x1e85;" horiz-adv-x="824" 
d="M393 641q0 -38 -15 -50.5t-50 -12.5t-50.5 12.5t-15.5 50.5v7q0 37 15.5 50t50.5 13t50 -13t15 -50v-7zM568 641q0 -38 -15 -50.5t-50 -12.5t-50.5 12.5t-15.5 50.5v7q0 37 15.5 50t50.5 13t50 -13t15 -50v-7zM751 404l-117 -404h-145l-76 286h-2l-76 -286h-145l-118 404
h-60v108h263v-108h-55l50 -209h2l85 302h110l84 -302h2l51 209h-55v108h262v-108h-60z" />
    <glyph glyph-name="Ygrave" unicode="&#x1ef2;" horiz-adv-x="711" 
d="M417 765h-112l-148 159h160zM432 115h80v-115h-313v115h80v114l-203 367h-65v115h301v-115h-70l112 -228h4l110 228h-70v115h300v-115h-65l-201 -369v-112z" />
    <glyph glyph-name="ygrave" unicode="&#x1ef3;" horiz-adv-x="612" 
d="M382 574h-112l-134 153h160zM11 404v108h267v-108h-52l80 -233h2l78 233h-52v108h267v-108h-60l-149 -371q-33 -96 -76.5 -150.5t-117.5 -80.5q-15 -5 -36.5 -8t-33 -3.5t-45.5 -1t-39 -0.5v117q31 1 41.5 1.5t33 2.5t30.5 6l23 11.5t23 18.5t18 27t19 38l-161 393h-60z
" />
    <glyph glyph-name="thinspace" unicode="&#x2009;" horiz-adv-x="15" 
 />
    <glyph glyph-name="endash" unicode="&#x2013;" horiz-adv-x="549" 
d="M52 317h445v-120h-445v120z" />
    <glyph glyph-name="emdash" unicode="&#x2014;" horiz-adv-x="800" 
d="M52 317h696v-120h-696v120z" />
    <glyph glyph-name="quoteleft" unicode="&#x2018;" horiz-adv-x="283" 
d="M153 720h112l-82 -245h-157z" />
    <glyph glyph-name="quoteright" unicode="&#x2019;" horiz-adv-x="277" 
d="M142 476h-112l82 245h157z" />
    <glyph glyph-name="quotesinglbase" unicode="&#x201a;" horiz-adv-x="273" 
d="M106 -110h-112l82 245h157z" />
    <glyph glyph-name="quotedblleft" unicode="&#x201c;" horiz-adv-x="506" 
d="M376 720h112l-82 -245h-157zM173 720h112l-103 -245h-157z" />
    <glyph glyph-name="quotedblright" unicode="&#x201d;" horiz-adv-x="499" 
d="M142 475h-112l82 245h157zM345 475h-112l103 245h157z" />
    <glyph glyph-name="quotedblbase" unicode="&#x201e;" horiz-adv-x="497" 
d="M106 -110h-112l82 245h157zM309 -110h-112l103 245h157z" />
    <glyph glyph-name="dagger" unicode="&#x2020;" horiz-adv-x="512" 
d="M316 387v-565h-119v565h-172v109h172v215h119v-215h171v-109h-171z" />
    <glyph glyph-name="daggerdbl" unicode="&#x2021;" horiz-adv-x="554" 
d="M508 42h-171v-220h-119v220h-172v109h172v236h-172v109h172v215h119v-215h171v-109h-171v-236h171v-109z" />
    <glyph glyph-name="bullet" unicode="&#x2022;" horiz-adv-x="445" 
d="M381 294v-41q0 -20 -2.5 -35t-10.5 -36t-29.5 -36.5t-54.5 -23.5q-35 -5 -63 -5q-25 0 -58 5q-28 6 -47.5 18.5t-29.5 25t-15 31t-6 29.5t-1 27v41q0 21 2 35t10.5 35t30.5 36t56 22q31 8 58 8q32 0 63 -8q33 -8 54.5 -23t29.5 -35.5t10.5 -35t2.5 -34.5z" />
    <glyph glyph-name="ellipsis" unicode="&#x2026;" horiz-adv-x="738" 
d="M209 67q0 -46 -19.5 -61t-65.5 -15q-44 0 -63.5 15.5t-19.5 60.5v9q0 45 19.5 60t63.5 15q46 0 65.5 -15t19.5 -60v-9zM453 67q0 -46 -19.5 -61t-65.5 -15q-44 0 -63.5 15.5t-19.5 60.5v9q0 45 19.5 60t63.5 15q46 0 65.5 -15t19.5 -60v-9zM697 67q0 -46 -19.5 -61
t-65.5 -15q-44 0 -63.5 15.5t-19.5 60.5v9q0 45 19.5 60t63.5 15q46 0 65.5 -15t19.5 -60v-9z" />
    <glyph glyph-name="perthousand" unicode="&#x2030;" horiz-adv-x="1237" 
d="M345 582v-79q0 -21 -2 -35.5t-10 -36t-28 -37t-52 -22.5q-36 -7 -67 -7t-65 7q-32 7 -52.5 22.5t-28.5 37t-10 36t-2 35.5v79q0 21 2 35.5t10 36.5t28.5 37.5t52.5 22.5q29 6 65 6t67 -6q32 -7 52 -22.5t28 -37.5t10 -36.5t2 -35.5zM241 495v95q-1 28 -14.5 36.5
t-40.5 8.5q-28 0 -41 -10t-13 -35v-95q0 -27 14 -36t40 -9q29 0 42 10t13 35zM176 -9l398 729h92l-398 -729h-92zM824 208v-79q0 -21 -2 -35.5t-10 -36t-28 -37t-52 -22.5q-36 -7 -67 -7t-65 7q-32 7 -52.5 22.5t-28.5 37t-10 36t-2 35.5v79q0 21 2 35.5t10 36.5t28.5 37.5
t52.5 22.5q29 6 65 6t67 -6q32 -7 52 -22.5t28 -37.5t10 -36.5t2 -35.5zM720 121v95q-1 28 -14.5 36.5t-40.5 8.5q-28 0 -41 -10t-13 -35v-95q0 -27 14 -36t40 -9q29 0 42 10t13 35zM1209 208v-79q0 -21 -2 -35.5t-10 -36t-28 -37t-52 -22.5q-36 -7 -67 -7t-65 7
q-32 7 -52.5 22.5t-28.5 37t-10 36t-2 35.5v79q0 21 2 35.5t10 36.5t28.5 37.5t52.5 22.5q29 6 65 6t67 -6q32 -7 52 -22.5t28 -37.5t10 -36.5t2 -35.5zM1105 121v95q-1 28 -14.5 36.5t-40.5 8.5q-28 0 -41 -10t-13 -35v-95q0 -27 14 -36t40 -9q29 0 42 10t13 35z" />
    <glyph glyph-name="guilsinglleft" unicode="&#x2039;" horiz-adv-x="355" 
d="M194 58l-168 209l168 211h128l-167 -211l167 -209h-128z" />
    <glyph glyph-name="guilsinglright" unicode="&#x203a;" horiz-adv-x="355" 
d="M329 267l-168 -209h-128l167 209l-167 211h128z" />
    <glyph glyph-name="fraction" unicode="&#x2044;" horiz-adv-x="149" 
d="M-147 -30l356 785h87l-356 -785h-87z" />
    <glyph glyph-name="zerosuperior" unicode="&#x2070;" horiz-adv-x="403" 
d="M365 691v-95q0 -24 -2 -41t-10.5 -43t-30 -44.5t-55.5 -28.5q-32 -8 -65 -8q-34 0 -66 8q-34 10 -55.5 28.5t-30 44t-10.5 42.5t-2 41v97q0 24 2 41t10.5 42.5t30 44.5t55.5 28q32 8 66 8q33 0 65 -8q34 -9 55.5 -28t30 -44.5t10.5 -43t2 -41.5zM271 596v95
q-1 48 -14.5 67t-54.5 19q-43 0 -56.5 -20t-13.5 -65v-97q1 -47 15 -66t55 -19q42 0 55.5 20.5t13.5 65.5z" />
    <glyph glyph-name="foursuperior" unicode="&#x2074;" horiz-adv-x="386" 
d="M21 592l123 263h94l-121 -249h98v113h88v-113h62v-81h-62v-85h-94v85h-188v67z" />
    <glyph glyph-name="fivesuperior" unicode="&#x2075;" horiz-adv-x="357" 
d="M167 431q-55 0 -132 17v80q80 -18 130 -18q67 0 67 51q0 32 -16 45.5t-50 13.5q-59 0 -127 -12l17 243h251v-81h-171l-5 -78q30 7 56 7q67 0 103.5 -29t36.5 -109q0 -78 -40 -104t-120 -26z" />
    <glyph glyph-name="sixsuperior" unicode="&#x2076;" horiz-adv-x="365" 
d="M192 618q-36 0 -60 -7v-21q1 -51 14.5 -65t44.5 -14q29 0 42 11.5t13 44.5q0 32 -13.5 41.5t-40.5 9.5zM172 762q-23 -6 -30.5 -25t-7.5 -55q37 16 79 16q57 0 91 -27t34 -104q0 -80 -34.5 -108t-112.5 -28q-32 0 -51 2t-40.5 10.5t-33 25t-19 47t-7.5 74.5v87
q0 133 111 162q74 17 154 17v-80q-93 -2 -133 -14z" />
    <glyph glyph-name="sevensuperior" unicode="&#x2077;" horiz-adv-x="341" 
d="M142 440h-106l185 334h-107v-51h-82v132h296v-65z" />
    <glyph glyph-name="eightsuperior" unicode="&#x2078;" horiz-adv-x="390" 
d="M195 510q31 0 49 10t18 42q0 58 -67 58t-67 -58q0 -32 18 -42t49 -10zM195 685q55 0 55 49q0 25 -13.5 34t-41.5 9t-41.5 -9t-13.5 -34q0 -49 55 -49zM195 431q-162 0 -162 131q0 29 15.5 54.5t43.5 39.5q-46 25 -46 80q0 120 149 120t149 -120q0 -55 -46 -80
q28 -14 43.5 -39.5t15.5 -54.5q0 -131 -162 -131z" />
    <glyph glyph-name="ninesuperior" unicode="&#x2079;" horiz-adv-x="364" 
d="M173 670q36 0 60 6v21q-1 36 -9 54t-18.5 21.5t-31.5 3.5q-28 0 -41 -11t-13 -44q0 -32 13 -41.5t40 -9.5zM194 525q22 6 29.5 25t7.5 54q-34 -15 -80 -15q-26 0 -45.5 5t-38.5 18t-29.5 40.5t-10.5 68.5q0 80 34.5 107.5t112.5 27.5q32 0 51 -2t40.5 -10.5t33 -25
t19 -47t7.5 -74.5v-87q0 -133 -111 -162q-73 -17 -154 -17v80q96 3 134 14z" />
    <glyph glyph-name="parenleftsuperior" unicode="&#x207d;" horiz-adv-x="214" 
d="M30 640q0 135 83 264h85q-84 -135 -84 -264t84 -264h-85q-83 129 -83 264z" />
    <glyph glyph-name="parenrightsuperior" unicode="&#x207e;" horiz-adv-x="215" 
d="M185 640q0 -135 -83 -264h-85q84 135 84 264t-84 264h85q83 -129 83 -264z" />
    <glyph glyph-name="zeroinferior" unicode="&#x2080;" horiz-adv-x="404" 
d="M366 81v-95q0 -24 -2 -41t-10.5 -43t-30 -44.5t-55.5 -28.5q-32 -8 -65 -8q-34 0 -66 8q-34 10 -55.5 28.5t-30 44t-10.5 42.5t-2 41v97q0 24 2 41t10.5 42.5t30 44.5t55.5 28q32 8 66 8q33 0 65 -8q34 -9 55.5 -28t30 -44.5t10.5 -43t2 -41.5zM272 -14v95
q-1 48 -14.5 67t-54.5 19q-43 0 -56.5 -20t-13.5 -65v-97q1 -47 15 -66t55 -19q42 0 55.5 20.5t13.5 65.5z" />
    <glyph glyph-name="oneinferior" unicode="&#x2081;" horiz-adv-x="343" 
d="M229 -88h97v-82h-283v82h91v235l-100 -43v88l114 53h81v-333z" />
    <glyph glyph-name="twoinferior" unicode="&#x2082;" horiz-adv-x="363" 
d="M152 -88h96v49h82v-131h-301v67l166 191q21 25 21 46q0 23 -16.5 30t-48.5 7q-50 0 -111 -17v77q51 19 111 19q78 0 118 -22.5t40 -86.5q0 -34 -10 -57t-35 -49z" />
    <glyph glyph-name="threeinferior" unicode="&#x2083;" horiz-adv-x="348" 
d="M215 -53q0 30 -17 40.5t-50 11.5h-51v77h51q33 0 46.5 8.5t13.5 38.5q0 28 -18 36.5t-51 8.5q-47 0 -97 -11v75q57 14 99 14q41 0 65.5 -3.5t49 -15t35.5 -37.5t11 -67q0 -59 -53 -82q29 -11 45 -37t16 -57q0 -78 -39.5 -102t-121.5 -24q-47 0 -119 17v75q62 -14 117 -14
q32 0 50 10t18 38z" />
    <glyph glyph-name="fourinferior" unicode="&#x2084;" horiz-adv-x="384" 
d="M21 -18l123 263h94l-121 -249h98v113h88v-113h62v-81h-62v-85h-94v85h-188v67z" />
    <glyph glyph-name="fiveinferior" unicode="&#x2085;" horiz-adv-x="357" 
d="M167 -179q-55 0 -132 17v80q80 -18 130 -18q67 0 67 51q0 32 -16 45.5t-50 13.5q-59 0 -127 -12l17 243h251v-81h-171l-5 -78q30 7 56 7q67 0 103.5 -29t36.5 -109q0 -78 -40 -104t-120 -26z" />
    <glyph glyph-name="sixinferior" unicode="&#x2086;" horiz-adv-x="365" 
d="M192 8q-36 0 -60 -7v-21q1 -51 14.5 -65t44.5 -14q29 0 42 11.5t13 44.5q0 32 -13.5 41.5t-40.5 9.5zM172 152q-23 -6 -30.5 -25t-7.5 -55q37 16 79 16q57 0 91 -27t34 -104q0 -80 -34.5 -108t-112.5 -28q-32 0 -51 2t-40.5 10.5t-33 25t-19 47t-7.5 74.5v87
q0 133 111 162q74 17 154 17v-80q-93 -2 -133 -14z" />
    <glyph glyph-name="seveninferior" unicode="&#x2087;" horiz-adv-x="340" 
d="M142 -170h-106l185 334h-107v-51h-82v132h296v-65z" />
    <glyph glyph-name="eightinferior" unicode="&#x2088;" horiz-adv-x="388" 
d="M194 -100q31 0 49 10t18 42q0 58 -67 58t-67 -58q0 -32 18 -42t49 -10zM194 75q55 0 55 49q0 25 -13.5 34t-41.5 9t-41.5 -9t-13.5 -34q0 -49 55 -49zM194 -179q-162 0 -162 131q0 29 15.5 54.5t43.5 39.5q-46 25 -46 80q0 120 149 120t149 -120q0 -55 -46 -80
q28 -14 43.5 -39.5t15.5 -54.5q0 -131 -162 -131z" />
    <glyph glyph-name="nineinferior" unicode="&#x2089;" horiz-adv-x="363" 
d="M173 60q36 0 60 6v21q-1 36 -9 54t-18.5 21.5t-31.5 3.5q-28 0 -41 -11t-13 -44q0 -32 13 -41.5t40 -9.5zM194 -85q22 6 29.5 25t7.5 54q-34 -15 -80 -15q-26 0 -45.5 5t-38.5 18t-29.5 40.5t-10.5 68.5q0 80 34.5 107.5t112.5 27.5q32 0 51 -2t40.5 -10.5t33 -25t19 -47
t7.5 -74.5v-87q0 -133 -111 -162q-73 -17 -154 -17v80q96 3 134 14z" />
    <glyph glyph-name="parenleftinferior" unicode="&#x208d;" horiz-adv-x="215" 
d="M30 30q0 135 83 264h85q-84 -135 -84 -264t84 -264h-85q-83 129 -83 264z" />
    <glyph glyph-name="parenrightinferior" unicode="&#x208e;" horiz-adv-x="215" 
d="M185 30q0 -135 -83 -264h-85q84 135 84 264t-84 264h85q83 -129 83 -264z" />
    <glyph glyph-name="lira" unicode="&#x20a4;" horiz-adv-x="673" 
d="M282 238v-112h215v94h135v-220h-579v115h80v123h-97v71h97v39h-97v71h97v37q0 31 2.5 54.5t13.5 57.5t30.5 58.5t56.5 48t88 35.5q50 10 117 10q87 0 164 -23v-197h-135v98h-8q-54 0 -84 -5t-54 -21t-33 -47.5t-9 -83.5v-22h195v-71h-195v-39h195v-71h-195z" />
    <glyph glyph-name="Euro" unicode="&#x20ac;" horiz-adv-x="747" 
d="M44 378l29 75h105q0 39 6 70t23.5 70.5t59 69.5t104.5 46q55 11 120 11q124 0 223 -24l-51 -118q-71 17 -172 17q-75 0 -114 -33t-45 -109h270l-32 -75h-239v-56h229l-32 -75h-197q4 -71 42.5 -101t117.5 -30q131 0 207 14v-122q-93 -17 -207 -17q-65 0 -120 11
q-61 15 -101.5 43.5t-59 65.5t-25 67.5t-7.5 68.5h-153l29 75h124v56h-134z" />
    <glyph glyph-name="uni2113" unicode="&#x2113;" horiz-adv-x="433" 
d="M401 565v-171q0 -59 -15.5 -99.5t-45 -61t-61.5 -28.5t-75 -9v-29q0 -41 48 -41h111v-126h-141q-71 0 -118.5 39.5t-47.5 125.5v397q0 158 174 158q83 0 127 -34t44 -121zM204 551v-256q31 0 42.5 13.5t11.5 52.5v192q0 16 -1 25t-7 18t-18 9q-28 0 -28 -54z" />
    <glyph glyph-name="afii61352" unicode="&#x2116;" horiz-adv-x="1110" 
d="M1073 618v-57q0 -22 -2.5 -36.5t-19 -34t-48.5 -26.5q-25 -5 -53 -5q-26 0 -51 5q-32 7 -48.5 26.5t-19 34t-2.5 36.5v57q0 15 1.5 25.5t7.5 27t21.5 27.5t39.5 17q25 5 51 5q28 0 53 -5q32 -7 48.5 -27t19 -34.5t2.5 -35.5zM1003 567v45q0 32 -21 37q-18 3 -32 3
q-12 0 -30 -3q-21 -5 -21 -37v-45q0 -33 21 -37q18 -3 30 -3q14 0 32 3q21 4 21 37zM830 345v63h243v-63h-243zM437 711h316v-115h-80v-596h-157l-237 436h-4v-321h83v-115h-316v115h80v481h-80v115h246l228 -431h4v316h-83v115z" />
    <glyph glyph-name="trademark" unicode="&#x2122;" horiz-adv-x="936" 
d="M168 291v347h-120v73h330v-73h-120v-347h-90zM795 291l-19 295h-2l-93 -244h-71l-89 229h-3l-19 -280h-93l33 420h105l102 -261l103 261h104l33 -420h-91z" />
    <glyph glyph-name="estimated" unicode="&#x212e;" horiz-adv-x="608" 
d="M582 282h-429v-193q66 -63 152 -63q76 0 123 33t87 94l31 -19q-44 -68 -99 -104.5t-142 -36.5q-119 0 -195 84.5t-76 205.5q0 123 75 206.5t200 83.5q124 0 198.5 -84.5t74.5 -206.5zM462 315v163q-68 62 -153 62q-96 0 -156 -62v-163h309z" />
    <glyph glyph-name="arrowleft" unicode="&#x2190;" horiz-adv-x="697" 
d="M354 518l-121 -117h399v-104h-398l120 -117l-77 -69l-232 238l232 239z" />
    <glyph glyph-name="arrowup" unicode="&#x2191;" horiz-adv-x="563" 
d="M450 333l-117 121v-399h-104v398l-117 -120l-69 77l238 232l239 -232z" />
    <glyph glyph-name="arrowright" unicode="&#x2192;" horiz-adv-x="697" 
d="M464 401l-121 117l77 70l232 -239l-232 -238l-77 69l120 117h-398v104h399z" />
    <glyph glyph-name="arrowdown" unicode="&#x2193;" horiz-adv-x="563" 
d="M333 243l117 121l70 -77l-239 -232l-238 232l69 77l117 -120v398h104v-399z" />
    <glyph glyph-name="uni2196" unicode="&#x2196;" horiz-adv-x="583" 
d="M162 239l168 -3l-282 282l74 74l281 -281l-2 167l103 -6l-4 -332l-333 -5z" />
    <glyph glyph-name="uni2197" unicode="&#x2197;" horiz-adv-x="583" 
d="M253 236l168 3l-5 -104l-333 5l-4 332l103 6l-2 -167l281 281l74 -74z" />
    <glyph glyph-name="uni2198" unicode="&#x2198;" horiz-adv-x="585" 
d="M422 488l-168 3l282 -282l-74 -74l-281 281l2 -167l-103 6l4 332l333 5z" />
    <glyph glyph-name="uni2199" unicode="&#x2199;" horiz-adv-x="585" 
d="M331 491l-168 -3l5 104l333 -5l4 -332l-103 -6l2 167l-281 -281l-74 74z" />
    <glyph glyph-name="uni2200" unicode="&#x2200;" horiz-adv-x="447" 
d="M379 528l-183 -179l183 -179l-76 -75l-259 255l259 253z" />
    <glyph glyph-name="uni2201" unicode="&#x2201;" horiz-adv-x="447" 
d="M251 349l-183 179l76 75l259 -254l-259 -254l-76 75z" />
    <glyph glyph-name="uni2202" unicode="&#x2202;" horiz-adv-x="604" 
d="M481 180l-180 184l-178 -184l-75 77l254 259l254 -259z" />
    <glyph glyph-name="uni2203" unicode="&#x2203;" horiz-adv-x="598" 
d="M298 332l180 184l75 -77l-255 -259l-253 259l75 77z" />
    <glyph glyph-name="uni2204" unicode="&#x2204;" horiz-adv-x="506" 
d="M454 79h-98q0 111 -80.5 191.5t-191.5 80.5v98q148 0 259 -110.5t111 -259.5zM306 79h-74q0 55 -46 101.5t-102 46.5v74q92 0 157 -65t65 -157zM180 79h-96v96q40 0 68 -28t28 -68z" />
    <glyph glyph-name="uni2205" unicode="&#x2205;" horiz-adv-x="452" 
d="M283 405l18 -25q14 -20 21.5 -35t6.5 -42.5t-23 -52.5q-24 -26 -40 -37q-18 -12 -48 -25q-19 -7 -36.5 -7t-28.5 4t-23.5 15t-17.5 17t-14 18l-19 27q-14 21 -21 35.5t-6 42t23 52.5q22 23 40 35q16 12 47 26q19 7 36.5 7t29 -4.5t24 -15t17.5 -17t14 -18.5zM254 349
l-16 22q-25 40 -58 28q-21 -8 -33 -18q-13 -9 -28 -26q-20 -23 6 -61l18 -25q25 -39 57 -27q9 3 33 18q13 8 28 25q20 23 -7 64zM343 44l-95 134l62 43l95 -135z" />
    <glyph glyph-name="uni2206" unicode="&#x2206;" horiz-adv-x="596" 
d="M227 223v-174h-106v212h-70v21l247 190l247 -190v-21h-70v-212h-107v174h-141z" />
    <glyph glyph-name="uni2207" unicode="&#x2207;" horiz-adv-x="555" 
d="M331 215v-28q13 -1 43 -7q46 -12 73.5 -25t39.5 -31t14.5 -32.5t2.5 -42.5h-454q0 28 2.5 42.5t14.5 32.5t39.5 31t73.5 25q31 6 43 7v30q-24 6 -39 18t-21 28.5t-7.5 28.5t-1.5 28v41q0 23 2.5 38.5t20 36t50.5 28.5q30 6 51 6q25 0 55 -6q71 -17 71 -103v-41
q0 -88 -71 -104z" />
    <glyph glyph-name="uni2208" unicode="&#x2208;" horiz-adv-x="562" 
d="M488 308v-84q-1 -94 -51.5 -131t-156.5 -37t-157.5 46t-51.5 122v83q0 94 51.5 131t157.5 37q108 0 158 -38t50 -129zM446 219v94q0 64 -41.5 92t-124.5 28q-81 0 -124 -27.5t-43 -93.5v-93q0 -53 43 -87t124 -34t123 27.5t43 93.5zM257 262v119h42v-110h100v-42h-111
q-18 0 -24.5 4t-6.5 15v8v6z" />
    <glyph glyph-name="uni2209" unicode="&#x2209;" horiz-adv-x="528" 
d="M437 466v-418h-346v418h346zM395 90v334h-262v-334h262zM163 343v31h194v-31h-194zM163 279v31h194v-31h-194zM163 215v31h194v-31h-194zM163 151v31h138v-31h-138z" />
    <glyph glyph-name="uni2210" unicode="&#x2210;" horiz-adv-x="489" 
d="M187 110l-123 -46q-7 -3 -12 2t-3 13l46 123q2 6 7.5 7t10.5 -3l78 -78q5 -4 4 -10t-8 -8zM392 310l-165 -166q-8 -8 -16 0l-82 82q-8 8 0 15l166 166q7 7 15 0l82 -82q8 -8 0 -15zM439 357l-20 -21q-7 -6 -15 0l-82 83q-8 7 0 15l20 20q7 8 15 0l82 -82q8 -8 0 -15z" />
    <glyph glyph-name="uni2211" unicode="&#x2211;" horiz-adv-x="558" 
d="M413 426v-209h77v-152h-422v152h78v209h267zM183 389v-172h193v172h-193zM205 288v23h143v-23h-143zM205 335v23h143v-23h-143zM205 241v23h143v-23h-143zM446 115v12q0 13 -12 13h-44q-13 0 -13 -13v-12q0 -13 13 -13h44q12 0 12 13z" />
    <glyph glyph-name="minus" unicode="&#x2212;" horiz-adv-x="613" 
d="M54 307h505v-120h-505v120z" />
    <glyph glyph-name="uni2213" unicode="&#x2213;" horiz-adv-x="724" 
d="M636 66h-548v438h548v-438zM601 101v368h-478v-368h478zM573 163v278h-422v-278h422zM180 41h363v-41h-363v41z" />
    <glyph glyph-name="uni2214" unicode="&#x2214;" horiz-adv-x="448" 
d="M356 441v-407h-264v407h264zM293 378v-242h-138v242h138zM321 69v337h-194v-337h194zM198 102q0 22 26 22q25 0 25 -22q0 -10 -7 -16.5t-18 -6.5t-18.5 6.5t-7.5 16.5z" />
    <glyph glyph-name="uni2216" unicode="&#x2216;" horiz-adv-x="545" 
d="M453 511v-474h-361v474h361zM390 448v-346h-235v346h235zM418 72v404h-291v-404h291z" />
    <glyph glyph-name="uni2217" unicode="&#x2217;" horiz-adv-x="671" 
d="M568 452v-329h-465v329h465zM505 389v-201h-339v201h339zM533 158v259h-395v-259h395zM69 98h533v-41h-533v41z" />
    <glyph glyph-name="uni2218" unicode="&#x2218;" horiz-adv-x="602" 
d="M92 430h418v-346h-418v346zM301 213l-40 40l-97 -127h274l-97 127zM164 388l137 -115l137 115h-274zM134 358v-202l105 119zM468 358l-105 -83l105 -119v202z" />
    <glyph glyph-name="uni2219" unicode="&#x2219;" horiz-adv-x="589" 
d="M294 396h215v-312h-418v370h170zM467 354h-334v-228h334v228z" />
    <glyph glyph-name="uni2220" unicode="&#x2220;" horiz-adv-x="601" 
d="M513 466v-402h-425v402h73v69h62v-69h155v69h62v-69h73zM471 106v248h-341v-248h341zM336 323h-52l-47 -29v-47l51 30v-130h48v176z" />
    <glyph glyph-name="uni2221" unicode="&#x2221;" horiz-adv-x="529" 
d="M299 463v-396l-253 197v1zM366 67v396h68v-396h-68z" />
    <glyph glyph-name="uni2222" unicode="&#x2222;" horiz-adv-x="529" 
d="M230 67v396l253 -198v-1zM163 463v-396h-68v396h68z" />
    <glyph glyph-name="uni2223" unicode="&#x2223;" horiz-adv-x="396" 
d="M96 66v396l253 -197v-1z" />
    <glyph glyph-name="uni2224" unicode="&#x2224;" horiz-adv-x="396" 
d="M300 462v-396l-253 198v1z" />
    <glyph glyph-name="uni2225" unicode="&#x2225;" horiz-adv-x="376" 
d="M159 463v-396h-68v396h68zM285 463v-396h-68v396h68z" />
    <glyph glyph-name="uni2227" unicode="&#x2227;" horiz-adv-x="524" 
d="M460 206h-396l198 253h1zM64 139h396v-68h-396v68z" />
    <glyph glyph-name="uni2228" unicode="&#x2228;" horiz-adv-x="623" 
d="M95 66v396l229 -179v179l253 -197v-1l-253 -198v179z" />
    <glyph glyph-name="uni2229" unicode="&#x2229;" horiz-adv-x="623" 
d="M528 462v-396l-229 179v-179l-253 198v1l253 197v-179z" />
    <glyph glyph-name="uni2230" unicode="&#x2230;" horiz-adv-x="567" 
d="M495 309v-81q-1 -98 -52.5 -136t-159.5 -38t-160.5 47t-52.5 127v80q0 97 53 135t160 38q110 0 161 -39t51 -133zM431 346l-253 -208q38 -23 105 -23q74 0 112.5 24.5t38.5 83.5v91q0 18 -3 32zM138 180l261 215q-41 26 -116 26q-74 0 -113.5 -24.5t-39.5 -83.5v-90
q0 -26 8 -43z" />
    <glyph glyph-name="uni2231" unicode="&#x2231;" horiz-adv-x="677" 
d="M397 319v64h-123q-74 0 -113.5 -24.5t-39.5 -83.5v-90h-60v85q0 97 53 135t160 38h123v64l220 -94zM281 66v-64l-220 94l220 94v-64h123q74 0 113.5 24.5t39.5 83.5v90h60v-85q0 -97 -53 -135t-160 -38h-123z" />
    <glyph glyph-name="uni2232" unicode="&#x2232;" horiz-adv-x="697" 
d="M415 56h-135q-106 0 -157.5 46t-51.5 122v83q0 94 51.5 131t157.5 37h135q108 0 158 -38t50 -129v-84q-1 -94 -51.5 -131t-156.5 -37zM415 98h-135q-81 0 -124 34t-43 87v93q0 66 43 93.5t124 27.5h135q83 0 124.5 -28t41.5 -92v-94q-1 -66 -43 -93.5t-123 -27.5z" />
    <glyph glyph-name="uni2233" unicode="&#x2233;" horiz-adv-x="493" 
d="M329 273v63q0 60 -18 77t-65 17q-46 0 -64.5 -16t-18.5 -79v-62h166zM121 273v62q0 48 7.5 76.5t26.5 41.5t37.5 16t53.5 3q36 0 56 -4t37.5 -17.5t24.5 -41t7 -73.5v-63h39v-227h-327v227h38zM192 157q0 -27 12 -41.5t44 -14.5q33 0 45 14.5t12 41.5t-12 42t-45 15
t-44.5 -15t-11.5 -42z" />
    <glyph glyph-name="uni2234" unicode="&#x2234;" horiz-adv-x="591" 
d="M536 336v-63h-42v63q0 60 -18 77t-65 17q-46 0 -64.5 -16t-18.5 -79v-62h61v-227h-327v227h224v62q0 48 7.5 76.5t26.5 41.5t37.5 16t53.5 3q36 0 56 -4t37.5 -17.5t24.5 -41t7 -73.5zM171 157q0 -27 12 -41.5t44 -14.5q33 0 45 14.5t12 41.5t-12 42t-45 15t-44.5 -15
t-11.5 -42z" />
    <glyph glyph-name="uni2235" unicode="&#x2235;" horiz-adv-x="432" 
d="M133 255v-209h-42v420h42v-40h243l-62 -86l62 -85h-243z" />
    <glyph glyph-name="uni2236" unicode="&#x2236;" horiz-adv-x="469" 
d="M128 390l37 -38q20 15 44 19v52h51v-52q24 -5 44 -19l38 38l36 -36l-38 -38q14 -22 18 -44h53v-50h-53q-3 -18 -18 -45l38 -37l-36 -36l-38 37q-22 -15 -44 -18v-52h-51v53q-19 4 -43 18l-38 -38l-36 36l37 37q-15 23 -19 45h-51v50h51q6 26 19 44l-37 38zM164 247
q0 -29 21 -50t50 -21t50 21t21 50t-21 50t-50 21t-50 -21t-21 -50z" />
    <glyph glyph-name="uni2237" unicode="&#x2237;" horiz-adv-x="553" 
d="M277 78q-18 15 -64.5 48t-72.5 55t-49.5 64t-23.5 92q0 53 27.5 83t69.5 30q49 0 76 -20.5t37 -75.5q11 55 37.5 75.5t74.5 20.5q42 0 69.5 -29.5t27.5 -83.5q0 -50 -23.5 -92t-49.5 -64t-72 -55t-64 -48z" />
    <glyph glyph-name="uni2238" unicode="&#x2238;" horiz-adv-x="525" 
d="M262 472l50 -157h169l-136 -102l53 -161l-136 100l-135 -100l53 161l-136 102h167z" />
    <glyph glyph-name="uni2239" unicode="&#x2239;" horiz-adv-x="584" 
d="M166 152l243 218l110 38q2 2 5.5 0t4.5 -5l5 -9q2 -5 -1 -8l-348 -345q-1 -3 -7 -3h-70q-5 0 -7 6l-50 159q-1 5 5 8l65 30q7 3 10 -2z" />
    <glyph glyph-name="uni2240" unicode="&#x2240;" horiz-adv-x="596" 
d="M364 434l33 -58h110v-312h-418v312h102l33 58h140zM371 334l-33 58h-88l-33 -58h-86v-228h334v228h-94zM214 223q0 40 17.5 61.5t65.5 21.5t65.5 -21.5t17.5 -61.5t-17.5 -61.5t-65.5 -21.5t-65.5 21.5t-17.5 61.5z" />
    <glyph glyph-name="uni2241" unicode="&#x2241;" horiz-adv-x="549" 
d="M293 426v59l187 -84l-187 -83v52h-17q-74 0 -114 -25t-40 -85v-56q0 -48 39.5 -78.5t114.5 -30.5t114 25t40 84v50h56v-45q-1 -96 -52 -133.5t-158 -37.5t-158.5 46.5t-51.5 124.5v46q0 96 52 133.5t158 37.5h17z" />
    <glyph glyph-name="uni2242" unicode="&#x2242;" horiz-adv-x="661" 
d="M379 150l-77 -96h-39v96h-25q-87 0 -129.5 30.5t-42.5 109.5v42q0 79 42.5 109.5t129.5 30.5h192q87 0 130 -30.5t43 -109.5v-42q0 -79 -43 -109.5t-130 -30.5h-51zM296 192v-83l60 83h74q66 0 98.5 21.5t32.5 76.5v42q0 55 -32.5 76.5t-98.5 21.5h-192q-66 0 -98 -21.5
t-32 -76.5v-42q0 -55 32 -76.5t98 -21.5h58z" />
    <glyph glyph-name="uni2243" unicode="&#x2243;" horiz-adv-x="545" 
d="M154 205h275l-14 -42h-297l-49 287h43l11 -62h366l-14 -42h-345l5 -33h329l-7 -23h-318l5 -30h303l-8 -23h-291zM328 88q0 20 14 34t33 14t33.5 -14t14.5 -34q0 -19 -14 -33t-34 -14q-19 0 -33 13.5t-14 33.5zM121 88q0 20 14 34t33 14q20 0 34 -14t14 -34q0 -19 -14 -33
t-34 -14t-33.5 13.5t-13.5 33.5z" />
    <glyph glyph-name="uni2245" unicode="&#x2245;" horiz-adv-x="605" 
d="M428 412l-37 -51q90 -18 90 -104v-64q0 -60 -39.5 -85t-114.5 -25h-49q-74 0 -114 25t-40 85v64q0 86 88 104l-36 51q-108 -29 -108 -160v-54q0 -96 52 -133.5t158 -37.5h49q106 0 158 37.5t52 133.5v54q0 69 -27.5 107t-81.5 53zM273 246v214h56v-214h-56z" />
    <glyph glyph-name="uni2246" unicode="&#x2246;" horiz-adv-x="619" 
d="M556 306v-201h-493v201h50v-154h393v154h50zM340 323h4l71 71l40 -45l-146 -139l-142 139l40 45l68 -71h3v220h62v-220z" />
    <glyph glyph-name="uni2247" unicode="&#x2247;" horiz-adv-x="652" 
d="M455 353l-26 -7q-14 -4 -21 -6.5t-16 -12.5t-9 -25q2 -29 5 -38q8 -26 14 -35q18 -31 61 -15l30 8q44 9 44 42q0 18 -5 38q-4 18 -15 35q-17 31 -62 16zM345 216l-273 -73l-19 74l273 73v13q-1 25 7 43.5t24 29t27 15t28 9.5l30 8q17 4 23 5t24 1.5t28.5 -3.5t24.5 -15
t24 -29q11 -20 20 -50q7 -21 7 -52q1 -25 -7 -44t-23 -29t-27 -15t-28 -9l-32 -9q-17 -4 -29 -5.5t-31 -0.5t-35 12.5t-28 33.5q-7 14 -8 17zM88 85l-11 42l133 35l-11 -47z" />
    <glyph glyph-name="uni2248" unicode="&#x2248;" horiz-adv-x="526" 
d="M300 318l155 52q2 2 6 3t5 -4l-8 -8l-124 -107l121 -107q0 -1 4 -3t4 -4q0 -4 -4 -4q-2 0 -10 4l-149 50l-32 -159q-1 -1 -1.5 -4.5t-1.5 -5t-4 -1.5q-2 0 -3.5 2.5t-1.5 5.5l-1 3l-32 159l-152 -50q-2 -2 -6 -3t-5 3q0 2 4 6l5 3l121 105l-125 109q-1 1 -3 2q-4 2 -4 4
q0 4 3 4l8 -3l154 -52l34 161q3 11 6 11q2 0 3 -6l2 -6z" />
    <glyph glyph-name="uni2249" unicode="&#x2249;" horiz-adv-x="533" 
d="M437 275v-143h-356v257h186l-55 -42h-89v-173h272v75zM303 200q-82 4 -105 50q-20 38 18 70q39 34 117 34h10v59l134 -84l-134 -83v52h-7q-21 0 -43.5 -7.5t-37 -20t-4 -31.5t51.5 -39z" />
    <glyph glyph-name="uni2250" unicode="&#x2250;" horiz-adv-x="724" 
d="M566 455h-474v-361h474v361zM127 420h404v-291h-404v291zM635 525v-361h-35v326h-439v35h474z" />
    <glyph glyph-name="uni2251" unicode="&#x2251;" horiz-adv-x="612" 
d="M330 56h-50q-106 0 -157.5 46t-51.5 122v83q0 94 51.5 131t157.5 37h50q108 0 158 -38t50 -129v-84q-1 -94 -51.5 -131t-156.5 -37zM336 289v90h-58v-90h-89v-58h89v-89h58v89h90v58h-90z" />
    <glyph glyph-name="uni2252" unicode="&#x2252;" horiz-adv-x="471" 
d="M109 315v-315h-42v315h42zM175 264v-264h-42v264h42zM242 375v-375h-42v375h42zM308 192v-192h-42v192h42zM379 438v-438h-42v438h42z" />
    <glyph glyph-name="uni2253" unicode="&#x2253;" horiz-adv-x="778" 
d="M52 264q0 15 27 39.5t71 48.5t109 41.5t130 17.5t130 -17.5t109 -41.5t71 -48.5t27 -39.5t-27 -39.5t-71 -48.5t-109 -41t-130 -17t-130 17t-109 41t-71 48.5t-27 39.5zM305 265q0 -40 17.5 -61.5t65.5 -21.5t65.5 21.5t17.5 61.5t-17.5 61.5t-65.5 21.5t-65.5 -21.5
t-17.5 -61.5zM348 265q0 -40 40 -40t40 40t-40 40t-40 -40z" />
    <glyph glyph-name="uni2254" unicode="&#x2254;" horiz-adv-x="452" 
d="M347 336l-82 -144l-148 86l82 143zM75 284l215 -123l-22 -37l-75 43l-122 -139l58 175l-75 44zM387 330l-214 123l20 37q140 -31 215 -124z" />
    <glyph glyph-name="uni2255" unicode="&#x2255;" horiz-adv-x="699" 
d="M189 307v31h327v-31h-327zM189 238v31h327v-31h-327zM189 171v31h327v-31h-327zM81 190v92v42q0 79 42.5 109.5t129.5 30.5h192q87 0 130 -30.5t43 -109.5v-42v-92q0 -79 -43 -109.5t-130 -30.5h-192q-87 0 -129.5 30.5t-42.5 109.5zM123 324v-42v-92q0 -55 32 -76.5
t98 -21.5h192q66 0 98.5 21.5t32.5 76.5v92v42q0 55 -32.5 76.5t-98.5 21.5h-192q-66 0 -98 -21.5t-32 -76.5z" />
    <glyph glyph-name="uni2256" unicode="&#x2256;" horiz-adv-x="625" 
d="M522 324q33 -14 39 -45t-4 -60q-1 -5 -1 -8q-3 -21 -8 -44t-7 -36q-10 -56 -76 -73t-138 -3.5t-121 39.5q-2 1 -6.5 1.5t-7.5 1t-6 2t-5 4.5v166q9 14 37 16q3 0 9 0.5t8 0.5t7 0.5t7 1.5t6 2t7 2t7 3t9 5l49 23q38 36 23 102q-6 27 5 37t29 9q12 -1 16.5 -2t11 -5.5
t8.5 -12.5q20 -67 11 -110q43 -1 91 -17zM151 300v-248h-85v247z" />
    <glyph glyph-name="uni2257" unicode="&#x2257;" horiz-adv-x="628" 
d="M525 157q-48 -16 -91 -17q9 -43 -11 -110q-2 -8 -8.5 -12.5t-11 -5.5t-16.5 -2q-18 -1 -29 9t-5 37q15 66 -23 102l-49 23q-5 3 -9.5 5t-9 3.5t-6.5 2.5t-8 1.5t-7.5 1t-9.5 1t-10 0.5q-28 2 -37 16v166q2 4 6 5.5t10.5 2.5t8.5 1q49 26 121 39.5t138 -3.5t76 -73
q2 -13 7 -36t8 -44q9 -57 2 -77q-8 -24 -36 -36zM154 181v248h-85v-247z" />
    <glyph glyph-name="uni2258" unicode="&#x2258;" horiz-adv-x="590" 
d="M509 326l-68 -53v-219h-346v418h346v-94l18 14q5 2 9 -1l42 -56q4 -4 -1 -9zM399 96v144q-6 -4 -9 1l-43 55q-5 5 1 9l51 40v85h-262v-334h262zM372 223l-76 -19q-4 -1 -6.5 2.5t-0.5 7.5l36 70q3 9 11 1l41 -51q4 -10 -5 -11zM540 351l-13 -11q-4 -2 -9 1l-43 56
q-4 4 2 9l13 10q3 5 9 -1l42 -55q6 -6 -1 -9z" />
    <glyph glyph-name="notequal" unicode="&#x2260;" horiz-adv-x="592" 
d="M68 478h248l61 142h98l-61 -142h110v-120h-162l-50 -115h212v-120h-263l-53 -123h-98l53 123h-95v120h146l50 115h-196v120z" />
    <glyph glyph-name="lessequal" unicode="&#x2264;" horiz-adv-x="565" 
d="M46 100h469v-100h-469v100zM218 358l26 -8l271 -80v-126l-469 162v104l469 162v-126l-271 -80z" />
    <glyph glyph-name="greaterequal" unicode="&#x2265;" horiz-adv-x="565" 
d="M50 100h469v-100h-469v100zM321 350l26 8l-26 8l-271 80v126l469 -162v-104l-469 -162v126z" />
    <glyph glyph-name="centinferior" unicode="&#xf6df;" horiz-adv-x="318" 
d="M201 245v-52q32 -3 79 -12v-71q-41 6 -88 6q-36 0 -49.5 -13t-13.5 -40v-50q0 -27 13.5 -39.5t49.5 -12.5q61 0 88 5v-72q-38 -9 -79 -11v-53h-63v54l-15 4q-30 7 -49.5 20.5t-27 32.5t-9.5 32t-2 32v66q0 19 2 32t9.5 31.5t27 32.5t49.5 21l15 2v55h63z" />
    <glyph glyph-name="centsuperior" unicode="&#xf6e0;" horiz-adv-x="318" 
d="M201 856v-52q32 -3 79 -12v-71q-40 6 -88 6q-36 0 -49.5 -13t-13.5 -40v-50q0 -27 13.5 -39.5t49.5 -12.5q61 0 88 5v-72q-38 -9 -79 -11v-53h-63v54l-15 4q-30 7 -49.5 20.5t-27 32.5t-9.5 32t-2 32v66q0 19 2 32t9.5 31.5t27 32.5t49.5 21l15 2v55h63z" />
    <glyph glyph-name="commainferior" unicode="&#xf6e1;" horiz-adv-x="198" 
d="M72 -250h-81l70 165h101z" />
    <glyph glyph-name="commasuperior" unicode="&#xf6e2;" horiz-adv-x="198" 
d="M71 360h-81l70 165h101z" />
    <glyph glyph-name="dollarinferior" unicode="&#xf6e3;" horiz-adv-x="346" 
d="M226 127v43q-30 2 -33 2q-33 0 -46.5 -6.5t-13.5 -22.5q0 -15 37 -40l75 -52q39 -27 56 -53t17 -62q0 -54 -28 -79t-84 -30v-66h-63v64q-62 4 -112 21v120h82v-59q31 -4 51 -4q58 0 58 29q0 19 -33 43l-72 50q-42 29 -60 52.5t-18 63.5q0 53 24 77t80 30v58h63v-56
q55 -2 102 -16v-107h-82z" />
    <glyph glyph-name="dollarsuperior" unicode="&#xf6e4;" horiz-adv-x="346" 
d="M226 737v43q-30 2 -33 2q-33 0 -46.5 -6.5t-13.5 -22.5q0 -15 37 -40l75 -52q39 -27 56 -53t17 -62q0 -54 -28 -79t-84 -30v-66h-63v64q-62 4 -112 21v120h82v-59q31 -4 51 -4q58 0 58 29q0 19 -33 43l-72 50q-42 29 -60 52.5t-18 63.5q0 53 24 77t80 30v58h63v-56
q55 -2 102 -16v-107h-82z" />
    <glyph glyph-name="hypheninferior" unicode="&#xf6e5;" horiz-adv-x="307" 
d="M261 -24h-215v78h215v-78z" />
    <glyph glyph-name="hyphensuperior" unicode="&#xf6e6;" horiz-adv-x="307" 
d="M261 586h-215v78h215v-78z" />
    <glyph glyph-name="periodinferior" unicode="&#xf6e7;" horiz-adv-x="177" 
d="M141 -131q0 -29 -12.5 -38.5t-41.5 -9.5q-27 0 -39.5 10t-12.5 38v5q0 28 12.5 38t39.5 10q29 0 41.5 -9.5t12.5 -38.5v-5z" />
    <glyph glyph-name="periodsuperior" unicode="&#xf6e8;" horiz-adv-x="178" 
d="M142 479q0 -29 -12.5 -38.5t-41.5 -9.5q-27 0 -39.5 10t-12.5 38v5q0 28 12.5 38t39.5 10q29 0 41.5 -9.5t12.5 -38.5v-5z" />
    <glyph glyph-name="apple" unicode="&#xf8ff;" horiz-adv-x="602" 
d="M468 152q0 75 -40.5 118t-98.5 51q34 90 74 165l15 -195h75l-26 334h-73q-65 -121 -94 -203q-25 71 -94 203h-73l-26 -334h75l15 195q28 -51 74 -163q-62 -8 -105.5 -50.5t-43.5 -120.5h76q0 51 30 78.5t68 27.5t67.5 -27.5t29.5 -78.5h75zM50 0v690h502v-690h-502z
M95 82v-39h8v27l9 -27h7l10 28v-28h8v39h-12l-9 -27l-9 27h-12zM159 83q-19 0 -19 -21q0 -20 19 -20q9 0 14.5 6t5.5 14q0 21 -20 21zM159 49q-10 0 -10 13q0 14 10 14q11 0 11 -14q0 -13 -11 -13zM187 56h-8q0 -14 17 -14q16 0 16 13q0 8 -11 11q-12 3 -12 6q0 4 6 4
q7 0 7 -6h9q0 13 -16 13q-15 0 -15 -12q0 -9 13 -11q11 -3 11 -6q0 -5 -8 -5q-9 0 -9 7zM223 75v-32h9v32h12v7h-33v-7h12zM252 82l-15 -39h9l3 9h14l3 -9h9l-14 39h-9zM261 58h-10l5 14zM276 82v-39h9v15h8q7 0 7 -7q0 -6 1 -8h9q-2 4 -2 9q0 8 -6 9v1q7 1 7 9q0 11 -12 11
h-21zM285 64v11h9q6 0 6 -5q0 -6 -6 -6h-9zM313 82v-39h17q18 0 18 20q0 19 -18 19h-17zM322 50v25h6q11 0 11 -13q0 -12 -10 -12h-7zM351 82v-39h30v7h-22v10h19v7h-19v8h21v7h-29zM390 56h-9q0 -14 17 -14q16 0 16 13q0 8 -11 11q-12 3 -12 6q0 4 6 4q7 0 8 -6h8
q0 13 -16 13q-15 0 -15 -12q0 -9 13 -11q11 -3 11 -6q0 -5 -8 -5t-8 7zM417 82v-39h8v39h-8zM458 47l1 -4h6v21h-17v-6h9q-1 -9 -9 -9q-11 0 -11 13q0 14 11 14q7 0 8 -7h8q-2 14 -16 14q-20 0 -20 -21q0 -20 20 -20q5 0 10 5zM469 82v-39h8v26l16 -26h9v39h-8v-26l-17 26
h-8z" />
    <glyph glyph-name="s_t" unicode="&#xfb06;" horiz-adv-x="1974" 
d="M343 513q-29 8 -103 8q-192 0 -192 -142q0 -56 25 -88t88 -62l93 -44q13 -7 19 -10.5t12 -11t6 -17.5q0 -39 -77 -39q-20 0 -45 6v57h-130v-145q104 -34 175 -34q112 0 169 36t57 117q0 53 -30.5 89.5t-89.5 64.5l-97 45q-26 13 -26 31q0 15 14 24t38 9q38 0 54 -3v-53
h138q-1 10 -7.5 50t-9 74t-0.5 73t19 65.5t49 33.5q38 9 57 -31t8 -104h-73v-109h72v-251q2 -80 51 -120.5t128 -40.5q39 0 104 10v116q-36 -5 -84 -5q-51 0 -51 59v232h134v109h-134q0 105 -47 156.5t-130 51.5q-47 0 -82 -13.5t-54 -33.5t-30.5 -49.5t-14.5 -54.5t-3 -56z
M1457 510q-6 28 0 63t18 66.5t45 54.5t81 26q61 4 112 -11t72 -30t30 -27v-140h134v-109h-134v-232q0 -59 51 -59q48 0 84 5v-116q-65 -10 -104 -10q-79 0 -128 40.5t-51 120.5v251h-72v109h77l24 109q-13 15 -41.5 21.5t-65.5 -6.5q-33 -14 -45.5 -38.5t-14 -83.5t9.5 -163
h-142v53q-16 3 -39 3q-24 0 -38 -9t-14 -24q0 -18 26 -31l97 -45q59 -28 89.5 -64.5t30.5 -89.5q0 -81 -57 -117t-169 -36q-71 0 -175 34v145h130v-57q26 -6 45 -6q77 0 77 39q0 10 -6 17.5t-12 11t-19 10.5l-93 44q-63 30 -88 62t-25 88q0 72 54 107t168 35q54 0 78 -11z
" />
    <glyph glyph-name="y.alt" horiz-adv-x="606" 
d="M545 512v-445q0 -29 -0.5 -44.5t-3.5 -43t-9 -44t-18.5 -39t-30 -37t-44.5 -29t-62 -23.5q-80 -18 -231 -18h-43v117q192 0 241 18q47 16 49 83v11q-61 -27 -118 -27q-109 0 -150.5 47.5t-41.5 147.5v218h-75v108h224v-285q0 -40 3 -61t20 -38t51 -17q48 0 90 15v278h-83
v108h232z" />
    <glyph glyph-name="A.alt" horiz-adv-x="750" 
d="M284 327h181l-62 230q-5 16 -10 24.5t-8.5 9.5t-10.5 1t-10 -1t-8.5 -9t-9.5 -24zM737 0h-289v115h70l-26 91h-235l-25 -91h70v-115h-289v115h65l130 484q8 32 22 55.5t28.5 36t35.5 19.5t38.5 8.5t42.5 1.5q35 0 53.5 -2.5t43.5 -13t41.5 -36.5t27.5 -69l131 -484h65
v-115z" />
    <glyph glyph-name="a.alt" horiz-adv-x="548" 
d="M320 119v91q-32 5 -62 5q-86 0 -86 -52v-13q0 -50 70 -50q46 0 78 19zM537 0h-188l-9 29q-58 -38 -136 -38q-181 0 -181 157v12q0 147 189 150q59 0 108 -7v21q0 22 -8.5 37.5t-19 23t-30 11.5t-31 4.5t-32.5 0.5h-7q-56 0 -121 -13v114q102 19 163 19q41 0 89 -10
q41 -10 70.5 -28.5t44 -37.5t22.5 -45.5t9.5 -43.5t1.5 -41v-207h66v-108z" />
    <glyph glyph-name="uni0136" horiz-adv-x="709" 
d="M267 -228v67l17 5q35 9 52.5 18t17.5 24q0 26 -31 79h110q18 -40 18 -81q0 -36 -26 -59t-62.5 -33.5t-95.5 -19.5zM691 115v-115h-157l-198 278l-65 -77v-86h80v-115h-313v115h80v481h-80v115h303v-115h-70v-230l101 134l74 96h-49v115h291v-115h-68l-173 -222l186 -259
h58z" />
    <glyph glyph-name="zero.taboldstyle" 
d="M560 311v-110q0 -24 -1.5 -41t-9.5 -44.5t-22.5 -47t-44 -38.5t-70.5 -28q-54 -11 -97 -11q-45 0 -97 11q-51 12 -83.5 35t-45 55.5t-16 54.5t-3.5 54v110q0 32 3.5 54t16 54.5t45 55.5t83.5 35q52 11 97 11t97 -11q41 -9 70.5 -28t44 -38.5t22.5 -47t9.5 -44.5t1.5 -41z
M411 201v110q-1 56 -23 73t-73 17q-54 0 -75 -18t-21 -72v-110q1 -56 23 -73t73 -17q52 0 74 19t22 71z" />
    <glyph glyph-name="one.taboldstyle" 
d="M409 117h160v-117h-484v117h175v254l-176 -75v125l196 91h129v-395z" />
    <glyph glyph-name="two.taboldstyle" 
d="M549 0h-470v72l263 220q22 19 28.5 31t6.5 28q0 30 -29 41t-83 11q-65 0 -168 -27v118q83 27 168 27q62 0 104.5 -6.5t80.5 -23.5t57 -52t19 -88q0 -42 -16 -72t-71 -78l-102 -84h212v-117z" />
    <glyph glyph-name="six.taboldstyle" 
d="M332 319q-55 0 -114 -17v-40q1 -51 8 -82t24 -45t33 -17.5t46 -3.5q55 0 80 22t25 84q0 61 -25.5 80t-76.5 19zM293 572q-44 -11 -58.5 -51t-14.5 -103q72 24 135 24q49 0 84.5 -8t70 -29.5t52.5 -68t18 -116.5q0 -71 -15 -116.5t-49 -70t-77 -33.5t-110 -9
q-45 0 -72.5 2t-61 10.5t-53 26t-37.5 47t-25.5 75.5t-7.5 110v153q0 24 0.5 39.5t4.5 43t11 47.5t20.5 45t33 42.5t50 33.5t68.5 25q126 29 260 29v-122q-151 -5 -227 -26z" />
    <glyph glyph-name="eight.taboldstyle" 
d="M315 -9q-275 0 -275 221q0 39 26 91.5t72 72.5q-77 50 -77 143q0 201 254 201t254 -201q0 -93 -77 -143q46 -20 72 -72.5t26 -91.5q0 -221 -275 -221zM315 318q-126 0 -126 -106q0 -61 34.5 -81t91.5 -20q27 0 46 3.5t39 13t30.5 31t10.5 53.5q0 106 -126 106zM315 600
q-52 0 -78.5 -18t-26.5 -67q0 -50 27 -70.5t78 -20.5t78 20.5t27 70.5q0 49 -26.5 67t-78.5 18z" />
    <glyph glyph-name="three.taboldstyle" 
d="M402 4q0 57 -32.5 78t-94.5 22h-108v119h108q63 0 88 16.5t25 75.5q0 54 -33 70.5t-96 16.5q-84 0 -162 -18v115q111 22 166 22t90 -3t73.5 -14.5t60.5 -33t36 -60.5t14 -95q0 -104 -90 -146q104 -35 104 -165q0 -56 -14 -95.5t-36 -62t-60 -35t-74.5 -16t-89.5 -3.5
q-79 0 -201 27v116q104 -24 197 -24q61 0 95 19.5t34 73.5z" />
    <glyph glyph-name="four.taboldstyle" 
d="M20 56l213 456h145l-204 -438h175v219h148v-219h109v-123h-109v-150h-147v150h-330v105z" />
    <glyph glyph-name="five.taboldstyle" 
d="M294 -208q-96 0 -222 28v124q134 -31 218 -31q129 0 129 98q0 61 -31 86t-96 25q-107 0 -213 -18l29 408h424v-125h-294l-9 -150q53 8 91 8q58 0 99.5 -9.5t77 -33.5t53.5 -72t18 -119q0 -56 -14 -96t-36.5 -63.5t-59.5 -37t-74.5 -18t-89.5 -4.5z" />
    <glyph glyph-name="seven.taboldstyle" 
d="M209 387v-93h-134v218h502v-104l-322 -607h-169l327 586h-204z" />
    <glyph glyph-name="nine.taboldstyle" 
d="M302 193q55 0 114 17v40q-1 51 -8 82t-24 45t-33 17.5t-46 3.5q-54 0 -79 -22t-25 -84q0 -61 25.5 -80t75.5 -19zM341 -60q44 11 58.5 51t14.5 103q-72 -24 -135 -24q-49 0 -84.5 8t-70 29.5t-52.5 68t-18 116.5q0 71 15 116.5t49 70t77 33.5t110 9q45 0 72.5 -2
t61 -10.5t53 -26t37.5 -47t25.5 -75.5t7.5 -110v-153q0 -24 -0.5 -39.5t-4.5 -43t-11 -47.5t-20.5 -45t-33 -42.5t-50 -33.5t-68.5 -25q-126 -29 -260 -29v122q151 5 227 26z" />
    <glyph glyph-name="zero.tnum" 
d="M593 439v-167q0 -33 -1.5 -55t-10.5 -59.5t-25 -63t-49 -51t-79 -38.5q-53 -14 -112 -14q-62 0 -115 14q-46 13 -79 38.5t-49 51t-25 62.5t-10.5 59.5t-1.5 54.5v169q0 32 1.5 54.5t10.5 59.5t25 62.5t49 51t79 38.5q53 14 115 14q59 0 112 -14q46 -13 79 -38.5t49 -51
t25 -63t10.5 -59.5t1.5 -55zM444 272v167q-1 88 -26.5 124.5t-101.5 36.5q-80 0 -105.5 -38t-25.5 -122v-169q1 -89 27 -124.5t104 -35.5t103 39t25 122z" />
    <glyph glyph-name="one.tnum" 
d="M411 126h150v-126h-449v126h150v435l-176 -75v134l196 91h129v-585z" />
    <glyph glyph-name="two.tnum" 
d="M251 126h173v88h133v-214h-494v105l290 334q24 27 31.5 45t7.5 41q0 45 -31 60t-92 15q-98 0 -186 -29v118q46 17 102.5 24t83.5 7q65 0 109.5 -7t83 -26t57 -56t18.5 -94q0 -60 -16 -97.5t-59 -82.5z" />
    <glyph glyph-name="three.tnum" 
d="M400 203q0 57 -32.5 78t-94.5 22h-108v119h108q63 0 88 16.5t25 75.5q0 54 -33 70.5t-96 16.5q-84 0 -162 -18v115q111 22 166 22t90 -3t73.5 -14.5t60.5 -33t36 -60.5t14 -95q0 -104 -90 -146q104 -35 104 -165q0 -56 -14 -95.5t-36 -62t-60 -35t-74.5 -16t-89.5 -3.5
q-79 0 -201 27v116q104 -24 197 -24q61 0 95 19.5t34 73.5z" />
    <glyph glyph-name="four.tnum" 
d="M22 255l213 456h145l-204 -438h175v219h148v-219h109v-123h-109v-150h-147v150h-330v105z" />
    <glyph glyph-name="five.tnum" 
d="M294 -9q-96 0 -222 28v124q134 -31 218 -31q129 0 129 98q0 61 -31 86t-96 25q-107 0 -213 -18l29 408h424v-125h-294l-9 -150q53 8 91 8q58 0 99.5 -9.5t77 -33.5t53.5 -72t18 -119q0 -56 -14 -96t-36.5 -63.5t-59.5 -37t-74.5 -18t-89.5 -4.5z" />
    <glyph glyph-name="six.tnum" 
d="M332 319q-55 0 -114 -17v-40q1 -51 8 -82t24 -45t33 -17.5t46 -3.5q55 0 80 22t25 84q0 61 -25.5 80t-76.5 19zM293 572q-44 -11 -58.5 -51t-14.5 -103q72 24 135 24q49 0 84.5 -8t70 -29.5t52.5 -68t18 -116.5q0 -71 -15 -116.5t-49 -70t-77 -33.5t-110 -9
q-45 0 -72.5 2t-61 10.5t-53 26t-37.5 47t-25.5 75.5t-7.5 110v153q0 24 0.5 39.5t4.5 43t11 47.5t20.5 45t33 42.5t50 33.5t68.5 25q126 29 260 29v-122q-151 -5 -227 -26z" />
    <glyph glyph-name="seven.tnum" 
d="M210 586v-93h-134v218h502v-104l-322 -607h-169l327 586h-204z" />
    <glyph glyph-name="eight.tnum" 
d="M315 -9q-275 0 -275 221q0 39 26 91.5t72 72.5q-77 50 -77 143q0 201 254 201t254 -201q0 -93 -77 -143q46 -20 72 -72.5t26 -91.5q0 -221 -275 -221zM315 318q-126 0 -126 -106q0 -61 34.5 -81t91.5 -20q27 0 46 3.5t39 13t30.5 31t10.5 53.5q0 106 -126 106zM315 600
q-52 0 -78.5 -18t-26.5 -67q0 -50 27 -70.5t78 -20.5t78 20.5t27 70.5q0 49 -26.5 67t-78.5 18z" />
    <glyph glyph-name="nine.tnum" 
d="M299 392q55 0 114 17v40q-1 51 -8 82t-24 45t-33 17.5t-46 3.5q-54 0 -79 -22t-25 -84q0 -61 25.5 -80t75.5 -19zM338 139q44 11 58.5 51t14.5 103q-72 -24 -135 -24q-49 0 -84.5 8t-70 29.5t-52.5 68t-18 116.5q0 71 15 116.5t49 70t77 33.5t110 9q45 0 72.5 -2
t61 -10.5t53 -26t37.5 -47t25.5 -75.5t7.5 -110v-153q0 -24 -0.5 -39.5t-4.5 -43t-11 -47.5t-20.5 -45t-33 -42.5t-50 -33.5t-68.5 -25q-126 -29 -260 -29v122q151 5 227 26z" />
    <glyph glyph-name="zero.oldstyle" horiz-adv-x="579" 
d="M535 311v-110q0 -24 -1.5 -41t-9.5 -44.5t-22.5 -47t-44 -38.5t-70.5 -28q-54 -11 -97 -11q-45 0 -97 11q-51 12 -83.5 35t-45 55.5t-16 54.5t-3.5 54v110q0 32 3.5 54t16 54.5t45 55.5t83.5 35q52 11 97 11t97 -11q41 -9 70.5 -28t44 -38.5t22.5 -47t9.5 -44.5t1.5 -41z
M386 201v110q-1 56 -23 73t-73 17q-54 0 -75 -18t-21 -72v-110q1 -56 23 -73t73 -17q52 0 74 19t22 71z" />
    <glyph glyph-name="one.oldstyle" horiz-adv-x="555" 
d="M372 117h160v-117h-484v117h175v254l-176 -75v125l196 91h129v-395z" />
    <glyph glyph-name="two.oldstyle" horiz-adv-x="542" 
d="M506 0h-470v72l263 220q22 19 28.5 31t6.5 28q0 30 -29 41t-83 11q-65 0 -168 -27v118q83 27 168 27q62 0 104.5 -6.5t80.5 -23.5t57 -52t19 -88q0 -42 -16 -72t-71 -78l-102 -84h212v-117z" />
    <glyph glyph-name="three.oldstyle" horiz-adv-x="541" 
d="M358 4q0 57 -32.5 78t-94.5 22h-108v119h108q63 0 88 16.5t25 75.5q0 54 -33 70.5t-96 16.5q-84 0 -162 -18v115q111 22 166 22t90 -3t73.5 -14.5t60.5 -33t36 -60.5t14 -95q0 -104 -90 -146q104 -35 104 -165q0 -56 -14 -95.5t-36 -62t-60 -35t-74.5 -16t-89.5 -3.5
q-79 0 -201 27v116q104 -24 197 -24q61 0 95 19.5t34 73.5z" />
    <glyph glyph-name="four.oldstyle" horiz-adv-x="624" 
d="M17 56l213 456h145l-204 -438h175v219h148v-219h109v-123h-109v-150h-147v150h-330v105z" />
    <glyph glyph-name="five.oldstyle" horiz-adv-x="566" 
d="M262 -208q-96 0 -222 28v124q134 -31 218 -31q129 0 129 98q0 61 -31 86t-96 25q-107 0 -213 -18l29 408h424v-125h-294l-9 -150q53 8 91 8q58 0 99.5 -9.5t77 -33.5t53.5 -72t18 -119q0 -56 -14 -96t-36.5 -63.5t-59.5 -37t-74.5 -18t-89.5 -4.5z" />
    <glyph glyph-name="six.oldstyle" horiz-adv-x="588" 
d="M311 319q-55 0 -114 -17v-40q1 -51 8 -82t24 -45t33 -17.5t46 -3.5q55 0 80 22t25 84q0 61 -25.5 80t-76.5 19zM272 572q-44 -11 -58.5 -51t-14.5 -103q72 24 135 24q49 0 84.5 -8t70 -29.5t52.5 -68t18 -116.5q0 -71 -15 -116.5t-49 -70t-77 -33.5t-110 -9
q-45 0 -72.5 2t-61 10.5t-53 26t-37.5 47t-25.5 75.5t-7.5 110v153q0 24 0.5 39.5t4.5 43t11 47.5t20.5 45t33 42.5t50 33.5t68.5 25q126 29 260 29v-122q-151 -5 -227 -26z" />
    <glyph glyph-name="seven.oldstyle" horiz-adv-x="546" 
d="M167 387v-93h-134v218h502v-104l-322 -607h-169l327 586h-204z" />
    <glyph glyph-name="eight.oldstyle" horiz-adv-x="626" 
d="M313 -9q-275 0 -275 221q0 39 26 91.5t72 72.5q-77 50 -77 143q0 201 254 201t254 -201q0 -93 -77 -143q46 -20 72 -72.5t26 -91.5q0 -221 -275 -221zM313 318q-126 0 -126 -106q0 -61 34.5 -81t91.5 -20q27 0 46 3.5t39 13t30.5 31t10.5 53.5q0 106 -126 106zM313 600
q-52 0 -78.5 -18t-26.5 -67q0 -50 27 -70.5t78 -20.5t78 20.5t27 70.5q0 49 -26.5 67t-78.5 18z" />
    <glyph glyph-name="nine.oldstyle" horiz-adv-x="573" 
d="M274 193q55 0 114 17v40q-1 51 -8 82t-24 45t-33 17.5t-46 3.5q-54 0 -79 -22t-25 -84q0 -61 25.5 -80t75.5 -19zM313 -60q44 11 58.5 51t14.5 103q-72 -24 -135 -24q-49 0 -84.5 8t-70 29.5t-52.5 68t-18 116.5q0 71 15 116.5t49 70t77 33.5t110 9q45 0 72.5 -2
t61 -10.5t53 -26t37.5 -47t25.5 -75.5t7.5 -110v-153q0 -24 -0.5 -39.5t-4.5 -43t-11 -47.5t-20.5 -45t-33 -42.5t-50 -33.5t-68.5 -25q-126 -29 -260 -29v122q151 5 227 26z" />
    <glyph glyph-name="parenleft.case" horiz-adv-x="321" 
d="M307 -100h-130q-143 230 -143 455t143 455h130q-142 -228 -142 -455t142 -455z" />
    <glyph glyph-name="parenright.case" horiz-adv-x="321" 
d="M14 -100q142 228 142 455t-142 455h130q143 -230 143 -455t-143 -455h-130z" />
    <glyph glyph-name="hyphen.case" horiz-adv-x="469" 
d="M415 294h-361v120h361v-120z" />
    <glyph glyph-name="at.case" horiz-adv-x="975" 
d="M247 280l17 114q5 32 10.5 53t21.5 53.5t47.5 55.5t77.5 34q49 11 100 11q109 0 209 -28l-54 -384q85 17 111 29t30 37l27 193q6 38 6 68q0 31 -6 56t-22 52.5t-51 48.5t-87 31q-80 16 -147 16q-60 0 -151 -16q-56 -11 -98 -35t-65 -49.5t-39 -61.5t-21 -58.5t-9 -52.5
l-27 -194q-4 -29 -6 -69q-4 -148 164 -185q36 -7 74 -7q24 0 84 5l-11 -73q-2 0 -8 -0.5t-7 -0.5q-42 -5 -79 -5q-38 0 -78 6q-226 48 -226 246q0 37 8 85l27 194q4 28 7.5 47.5t13 52.5t22.5 57.5t36.5 54t53.5 51t75 41t100 30.5q91 17 169 17t163 -17q227 -48 227 -254
q0 -27 -7 -83l-29 -197q-11 -73 -52.5 -95.5t-206.5 -55.5q-7 -1 -10 -2q-108 -17 -182 -17h-17q-55 0 -79 6q-109 27 -109 141q0 32 3 54zM374 392l-16 -114q-3 -20 -3 -35q0 -39 22.5 -53t80.5 -14q80 0 107 7l45 314q-45 7 -104 7q-68 0 -95.5 -24.5t-36.5 -87.5z" />
    <glyph glyph-name="bracketleft.case" horiz-adv-x="375" 
d="M343 -100h-273v910h273v-104h-142v-703h142v-103z" />
    <glyph glyph-name="bracketright.case" horiz-adv-x="375" 
d="M305 -100h-273v103h142v703h-142v104h273v-910z" />
    <glyph glyph-name="braceleft.case" horiz-adv-x="345" 
d="M28 326v58q2 2 10 9t12.5 11t12 11.5t11.5 13.5t7 14t3 15v186q0 69 37 117.5t115 48.5h76v-104h-37q-36 0 -48.5 -14.5t-12.5 -44.5v-193q0 -13 -6.5 -28t-13 -24.5t-20 -25.5t-16.5 -21q3 -5 16.5 -21t20 -25.5t13 -24.5t6.5 -28v-193q0 -30 12.5 -44.5t48.5 -14.5h37
v-104h-76q-78 0 -115 48.5t-37 117.5v186q0 7 -3 15t-7 14t-11.5 13.5t-12 11.5t-12.5 11t-10 9z" />
    <glyph glyph-name="braceright.case" horiz-adv-x="345" 
d="M317 384v-58q-2 -2 -10 -9t-12.5 -11t-12 -11.5t-11.5 -13.5t-7 -14t-3 -15v-186q0 -69 -37 -117.5t-115 -48.5h-76v104h37q36 0 48.5 14.5t12.5 44.5v193q0 13 6.5 28t13 24.5t20 25.5t16.5 21q-3 5 -16.5 21t-20 25.5t-13 24.5t-6.5 28v193q0 30 -12.5 44.5t-48.5 14.5
h-37v104h76q78 0 115 -48.5t37 -117.5v-186q0 -7 3 -15t7 -14t11.5 -13.5t12 -11.5t12.5 -11t10 -9z" />
    <glyph glyph-name="exclamdown.case" horiz-adv-x="286" 
d="M69 223l29 274h92l27 -274v-223h-148v223zM227 644v-9q0 -45 -19.5 -60t-65.5 -15q-44 0 -63.5 15t-19.5 60v9q0 45 19.5 60.5t63.5 15.5q46 0 65.5 -15t19.5 -61z" />
    <glyph glyph-name="guillemotleft.case" horiz-adv-x="574" 
d="M193 146l-168 209l168 211h128l-167 -211l167 -209h-128zM406 146l-168 209l168 211h128l-167 -211l167 -209h-128z" />
    <glyph glyph-name="periodcentered.case" horiz-adv-x="270" 
d="M219 354q0 -46 -19.5 -61t-65.5 -15q-44 0 -63.5 15.5t-19.5 60.5v9q0 45 19.5 60t63.5 15q46 0 65.5 -15t19.5 -60v-9z" />
    <glyph glyph-name="guillemotright.case" horiz-adv-x="574" 
d="M549 355l-168 -209h-128l167 209l-167 211h128zM336 355l-168 -209h-128l167 209l-167 211h128z" />
    <glyph glyph-name="questiondown.case" horiz-adv-x="477" 
d="M207 644q0 46 19.5 61t65.5 15q45 0 64.5 -15.5t19.5 -60.5v-9q0 -45 -19.5 -60t-64.5 -15q-46 0 -65.5 15t-19.5 60v9zM226 494h138v-45q0 -43 -9 -62t-31 -40q-16 -15 -54.5 -47t-58.5 -52q-22 -24 -30 -39.5t-8 -38.5q0 -29 25.5 -45.5t72.5 -16.5q69 0 174 31v-122
q-95 -29 -174 -29q-119 0 -182 44.5t-63 130.5q0 100 76 167l110 91q14 17 14 39v34z" />
    <glyph glyph-name="endash.case" horiz-adv-x="555" 
d="M55 416h445v-120h-445v120z" />
    <glyph glyph-name="emdash.case" horiz-adv-x="806" 
d="M55 416h696v-120h-696v120z" />
    <glyph glyph-name="bullet.case" horiz-adv-x="442" 
d="M380 393v-41q0 -20 -2.5 -35t-10.5 -36t-29.5 -36.5t-54.5 -23.5q-35 -5 -63 -5q-25 0 -58 5q-28 6 -47.5 18.5t-29.5 25t-15 31t-6 29.5t-1 27v41q0 21 2 35t10.5 35t30.5 36t56 22q31 8 58 8q32 0 63 -8q33 -8 54.5 -23t29.5 -35.5t10.5 -35t2.5 -34.5z" />
    <glyph glyph-name="guilsinglleft.case" horiz-adv-x="361" 
d="M193 146l-168 209l168 211h128l-167 -211l167 -209h-128z" />
    <glyph glyph-name="guilsinglright.case" horiz-adv-x="361" 
d="M336 355l-168 -209h-128l167 209l-167 211h128z" />
    <glyph glyph-name="cent.case" horiz-adv-x="503" 
d="M226 711h94v-83q50 -3 135 -18v-116q-79 15 -158 15q-59 0 -82.5 -28t-23.5 -81v-72q0 -53 23.5 -81t82.5 -28q79 0 158 15v-116q-68 -14 -135 -18v-100h-94v103q-5 0 -11 1t-13.5 2.5t-11.5 2.5q-41 10 -70.5 28.5t-44 37.5t-22.5 45.5t-9.5 43.5t-1.5 41v118
q0 24 1.5 41t9.5 43.5t22.5 45.5t44 37.5t70.5 28.5l36 6v86z" />
    <glyph glyph-name="zero.numr" horiz-adv-x="403" 
d="M365 547v-95q0 -24 -2 -41t-10.5 -43t-30 -44.5t-55.5 -28.5q-32 -8 -65 -8q-34 0 -66 8q-34 10 -55.5 28.5t-30 44t-10.5 42.5t-2 41v97q0 24 2 41t10.5 42.5t30 44.5t55.5 28q32 8 66 8q33 0 65 -8q34 -9 55.5 -28t30 -44.5t10.5 -43t2 -41.5zM271 452v95
q-1 48 -14.5 67t-54.5 19q-43 0 -56.5 -20t-13.5 -65v-97q1 -47 15 -66t55 -19q42 0 55.5 20.5t13.5 65.5z" />
    <glyph glyph-name="one.numr" horiz-adv-x="344" 
d="M229 378h97v-82h-283v82h91v235l-100 -43v88l114 53h81v-333z" />
    <glyph glyph-name="two.numr" horiz-adv-x="362" 
d="M152 378h96v49h82v-131h-301v67l166 191q21 24 21 46q0 23 -16.5 30t-48.5 7q-50 0 -111 -17v77q51 19 111 19q78 0 118 -22.5t40 -86.5q0 -34 -10 -57t-35 -49z" />
    <glyph glyph-name="three.numr" horiz-adv-x="348" 
d="M215 413q0 30 -17 40.5t-50 11.5h-51v77h51q33 0 46.5 9t13.5 38q0 28 -18 36.5t-51 8.5q-47 0 -97 -11v75q57 14 99 14q41 0 65.5 -3.5t49 -15t35.5 -37.5t11 -67q0 -59 -53 -82q29 -11 45 -37t16 -57q0 -78 -39.5 -102t-121.5 -24q-47 0 -119 17v75q62 -14 117 -14
q32 0 50 10t18 38z" />
    <glyph glyph-name="four.numr" horiz-adv-x="387" 
d="M22 448l123 263h94l-121 -249h98v113h88v-113h62v-81h-62v-85h-94v85h-188v67z" />
    <glyph glyph-name="five.numr" horiz-adv-x="357" 
d="M167 287q-55 0 -132 17v80q80 -18 130 -18q67 0 67 51q0 32 -16 45.5t-50 13.5q-59 0 -127 -12l17 243h251v-81h-171l-5 -78q30 7 56 7q67 0 103.5 -29t36.5 -109q0 -78 -40 -104t-120 -26z" />
    <glyph glyph-name="six.numr" horiz-adv-x="365" 
d="M192 474q-36 0 -60 -7v-21q1 -51 14.5 -65t44.5 -14q29 0 42 11.5t13 44.5q0 32 -13.5 41.5t-40.5 9.5zM172 618q-23 -6 -30.5 -25t-7.5 -55q37 16 79 16q57 0 91 -27t34 -104q0 -80 -34.5 -108t-112.5 -28q-32 0 -51 2t-40.5 10.5t-33 25t-19 47t-7.5 74.5v87
q0 133 111 162q74 17 154 17v-80q-93 -2 -133 -14z" />
    <glyph glyph-name="seven.numr" horiz-adv-x="341" 
d="M142 296h-106l185 334h-107v-51h-82v132h296v-65z" />
    <glyph glyph-name="eight.numr" horiz-adv-x="390" 
d="M195 366q31 0 49 10t18 42q0 58 -67 58t-67 -58q0 -32 18 -42t49 -10zM195 541q55 0 55 49q0 25 -13.5 34t-41.5 9t-41.5 -9t-13.5 -34q0 -49 55 -49zM195 287q-162 0 -162 131q0 29 15.5 54.5t43.5 39.5q-46 25 -46 80q0 120 149 120t149 -120q0 -55 -46 -80
q28 -14 43.5 -39.5t15.5 -54.5q0 -131 -162 -131z" />
    <glyph glyph-name="nine.numr" horiz-adv-x="364" 
d="M173 526q36 0 60 6v21q-1 36 -9 54t-18.5 21.5t-31.5 3.5q-28 0 -41 -11t-13 -44q0 -32 13 -41.5t40 -9.5zM194 381q22 6 29.5 25t7.5 54q-34 -15 -80 -15q-26 0 -45.5 5t-38.5 18t-29.5 40.5t-10.5 68.5q0 80 34.5 107.5t112.5 27.5q32 0 51 -2t40.5 -10.5t33 -25
t19 -47t7.5 -74.5v-87q0 -133 -111 -162q-73 -17 -154 -17v80q96 3 134 14z" />
    <glyph glyph-name="zero.dnom" horiz-adv-x="403" 
d="M365 251v-95q0 -24 -2 -41t-10.5 -43t-30 -44.5t-55.5 -28.5q-32 -8 -65 -8q-34 0 -66 8q-34 10 -55.5 28.5t-30 44t-10.5 42.5t-2 41v97q0 24 2 41t10.5 42.5t30 44.5t55.5 28q32 8 66 8q33 0 65 -8q34 -9 55.5 -28t30 -44.5t10.5 -43t2 -41.5zM271 156v95
q-1 48 -14.5 67t-54.5 19q-43 0 -56.5 -20t-13.5 -65v-97q1 -47 15 -66t55 -19q42 0 55.5 20.5t13.5 65.5z" />
    <glyph glyph-name="one.dnom" horiz-adv-x="344" 
d="M229 82h97v-82h-283v82h91v235l-100 -43v88l114 53h81v-333z" />
    <glyph glyph-name="two.dnom" horiz-adv-x="362" 
d="M152 82h96v49h82v-131h-301v67l166 191q21 24 21 46q0 23 -16.5 30t-48.5 7q-50 0 -111 -17v77q51 19 111 19q78 0 118 -22.5t40 -86.5q0 -34 -10 -57t-35 -49z" />
    <glyph glyph-name="three.dnom" horiz-adv-x="348" 
d="M215 117q0 30 -17 40.5t-50 11.5h-51v77h51q33 0 46.5 9t13.5 38q0 28 -18 36.5t-51 8.5q-47 0 -97 -11v75q57 14 99 14q41 0 65.5 -3.5t49 -15t35.5 -37.5t11 -67q0 -59 -53 -82q29 -11 45 -37t16 -57q0 -78 -39.5 -102t-121.5 -24q-47 0 -119 17v75q62 -14 117 -14
q32 0 50 10t18 38z" />
    <glyph glyph-name="four.dnom" horiz-adv-x="387" 
d="M22 152l123 263h94l-121 -249h98v113h88v-113h62v-81h-62v-85h-94v85h-188v67z" />
    <glyph glyph-name="five.dnom" horiz-adv-x="357" 
d="M167 -9q-55 0 -132 17v80q80 -18 130 -18q67 0 67 51q0 32 -16 45.5t-50 13.5q-59 0 -127 -12l17 243h251v-81h-171l-5 -78q30 7 56 7q67 0 103.5 -29t36.5 -109q0 -78 -40 -104t-120 -26z" />
    <glyph glyph-name="six.dnom" horiz-adv-x="365" 
d="M192 178q-36 0 -60 -7v-21q1 -51 14.5 -65t44.5 -14q29 0 42 11.5t13 44.5q0 32 -13.5 41.5t-40.5 9.5zM172 322q-23 -6 -30.5 -25t-7.5 -55q37 16 79 16q57 0 91 -27t34 -104q0 -80 -34.5 -108t-112.5 -28q-32 0 -51 2t-40.5 10.5t-33 25t-19 47t-7.5 74.5v87
q0 133 111 162q74 17 154 17v-80q-93 -2 -133 -14z" />
    <glyph glyph-name="seven.dnom" horiz-adv-x="341" 
d="M142 0h-106l185 334h-107v-51h-82v132h296v-65z" />
    <glyph glyph-name="eight.dnom" horiz-adv-x="390" 
d="M195 70q31 0 49 10t18 42q0 58 -67 58t-67 -58q0 -32 18 -42t49 -10zM195 245q55 0 55 49q0 25 -13.5 34t-41.5 9t-41.5 -9t-13.5 -34q0 -49 55 -49zM195 -9q-162 0 -162 131q0 29 15.5 54.5t43.5 39.5q-46 25 -46 80q0 120 149 120t149 -120q0 -55 -46 -80
q28 -14 43.5 -39.5t15.5 -54.5q0 -131 -162 -131z" />
    <glyph glyph-name="nine.dnom" horiz-adv-x="364" 
d="M173 230q36 0 60 6v21q-1 36 -9 54t-18.5 21.5t-31.5 3.5q-28 0 -41 -11t-13 -44q0 -32 13 -41.5t40 -9.5zM194 85q22 6 29.5 25t7.5 54q-34 -15 -80 -15q-26 0 -45.5 5t-38.5 18t-29.5 40.5t-10.5 68.5q0 80 34.5 107.5t112.5 27.5q32 0 51 -2t40.5 -10.5t33 -25t19 -47
t7.5 -74.5v-87q0 -133 -111 -162q-73 -17 -154 -17v80q96 3 134 14z" />
    <glyph glyph-name="aacute.alt" horiz-adv-x="548" 
d="M290 574h-112l86 153h160zM320 119v91q-32 5 -62 5q-86 0 -86 -52v-13q0 -50 70 -50q46 0 78 19zM537 0h-188l-9 29q-58 -38 -136 -38q-181 0 -181 157v12q0 147 189 150q59 0 108 -7v21q0 22 -8.5 37.5t-19 23t-30 11.5t-31 4.5t-32.5 0.5h-7q-56 0 -121 -13v114
q102 19 163 19q41 0 89 -10q41 -10 70.5 -28.5t44 -37.5t22.5 -45.5t9.5 -43.5t1.5 -41v-207h66v-108z" />
    <glyph glyph-name="agrave.alt" horiz-adv-x="548" 
d="M322 574h-112l-134 153h160zM320 119v91q-32 5 -62 5q-86 0 -86 -52v-13q0 -50 70 -50q46 0 78 19zM537 0h-188l-9 29q-58 -38 -136 -38q-181 0 -181 157v12q0 147 189 150q59 0 108 -7v21q0 22 -8.5 37.5t-19 23t-30 11.5t-31 4.5t-32.5 0.5h-7q-56 0 -121 -13v114
q102 19 163 19q41 0 89 -10q41 -10 70.5 -28.5t44 -37.5t22.5 -45.5t9.5 -43.5t1.5 -41v-207h66v-108z" />
    <glyph glyph-name="acircumflex.alt" horiz-adv-x="548" 
d="M408 571h-99l-55 78l-56 -78h-99l89 159h133zM320 119v91q-32 5 -62 5q-86 0 -86 -52v-13q0 -50 70 -50q46 0 78 19zM537 0h-188l-9 29q-58 -38 -136 -38q-181 0 -181 157v12q0 147 189 150q59 0 108 -7v21q0 22 -8.5 37.5t-19 23t-30 11.5t-31 4.5t-32.5 0.5h-7
q-56 0 -121 -13v114q102 19 163 19q41 0 89 -10q41 -10 70.5 -28.5t44 -37.5t22.5 -45.5t9.5 -43.5t1.5 -41v-207h66v-108z" />
    <glyph glyph-name="adieresis.alt" horiz-adv-x="548" 
d="M239 641q0 -38 -15 -50.5t-50 -12.5t-50.5 12.5t-15.5 50.5v7q0 37 15.5 50t50.5 13t50 -13t15 -50v-7zM414 641q0 -38 -15 -50.5t-50 -12.5t-50.5 12.5t-15.5 50.5v7q0 37 15.5 50t50.5 13t50 -13t15 -50v-7zM320 119v91q-32 5 -62 5q-86 0 -86 -52v-13q0 -50 70 -50
q46 0 78 19zM537 0h-188l-9 29q-58 -38 -136 -38q-181 0 -181 157v12q0 147 189 150q59 0 108 -7v21q0 22 -8.5 37.5t-19 23t-30 11.5t-31 4.5t-32.5 0.5h-7q-56 0 -121 -13v114q102 19 163 19q41 0 89 -10q41 -10 70.5 -28.5t44 -37.5t22.5 -45.5t9.5 -43.5t1.5 -41v-207
h66v-108z" />
    <glyph glyph-name="atilde.alt" horiz-adv-x="548" 
d="M229 625q-22 19 -29 19q-12 0 -21 -33l-9 -36h-82l13 49q8 31 13 44.5t16 30t28.5 22.5t44.5 6q24 0 40.5 -9.5t56.5 -44.5q19 -19 28 -19t14.5 11t12.5 41l3 16h84l-13 -48q-9 -31 -13.5 -44.5t-16 -30.5t-28.5 -23t-44 -6q-28 0 -43.5 9.5t-54.5 45.5zM320 119v91
q-32 5 -62 5q-86 0 -86 -52v-13q0 -50 70 -50q46 0 78 19zM537 0h-188l-9 29q-58 -38 -136 -38q-181 0 -181 157v12q0 147 189 150q59 0 108 -7v21q0 22 -8.5 37.5t-19 23t-30 11.5t-31 4.5t-32.5 0.5h-7q-56 0 -121 -13v114q102 19 163 19q41 0 89 -10q41 -10 70.5 -28.5
t44 -37.5t22.5 -45.5t9.5 -43.5t1.5 -41v-207h66v-108z" />
    <glyph glyph-name="aring.alt" horiz-adv-x="548" 
d="M263 755q54 0 72 -22.5t18 -71.5t-18.5 -72t-71.5 -23h-24q-52 0 -70.5 23t-18.5 72t18.5 71.5t70.5 22.5h24zM262 704h-22q-34 0 -34 -43q0 -23 7 -33.5t27 -10.5h22q21 0 28 10.5t7 33.5q0 22 -7.5 32.5t-27.5 10.5zM320 119v91q-32 5 -62 5q-86 0 -86 -52v-13
q0 -50 70 -50q46 0 78 19zM537 0h-188l-9 29q-58 -38 -136 -38q-181 0 -181 157v12q0 147 189 150q59 0 108 -7v21q0 22 -8.5 37.5t-19 23t-30 11.5t-31 4.5t-32.5 0.5h-7q-56 0 -121 -13v114q102 19 163 19q41 0 89 -10q41 -10 70.5 -28.5t44 -37.5t22.5 -45.5t9.5 -43.5
t1.5 -41v-207h66v-108z" />
    <glyph glyph-name="amacron.alt" horiz-adv-x="548" 
d="M374 578h-246v93h246v-93zM320 119v91q-32 5 -62 5q-86 0 -86 -52v-13q0 -50 70 -50q46 0 78 19zM537 0h-188l-9 29q-58 -38 -136 -38q-181 0 -181 157v12q0 147 189 150q59 0 108 -7v21q0 22 -8.5 37.5t-19 23t-30 11.5t-31 4.5t-32.5 0.5h-7q-56 0 -121 -13v114
q102 19 163 19q41 0 89 -10q41 -10 70.5 -28.5t44 -37.5t22.5 -45.5t9.5 -43.5t1.5 -41v-207h66v-108z" />
    <glyph glyph-name="abreve.alt" horiz-adv-x="548" 
d="M260 565q-135 0 -143 144l84 4q2 -28 17.5 -44t41.5 -16t41.5 16t17.5 44l84 -4q-8 -144 -143 -144zM320 119v91q-32 5 -62 5q-86 0 -86 -52v-13q0 -50 70 -50q46 0 78 19zM537 0h-188l-9 29q-58 -38 -136 -38q-181 0 -181 157v12q0 147 189 150q59 0 108 -7v21
q0 22 -8.5 37.5t-19 23t-30 11.5t-31 4.5t-32.5 0.5h-7q-56 0 -121 -13v114q102 19 163 19q41 0 89 -10q41 -10 70.5 -28.5t44 -37.5t22.5 -45.5t9.5 -43.5t1.5 -41v-207h66v-108z" />
    <glyph glyph-name="aogonek.alt" horiz-adv-x="549" 
d="M538 0q-48 -2 -69 -28.5t-21 -50.5q0 -34 44 -34h64v-86h-89q-51 0 -79 25t-28 70q0 31 20.5 62t47.5 42h-78l-9 29q-58 -38 -136 -38q-181 0 -181 157v12q0 147 189 150q59 0 108 -7v21q0 22 -8.5 37.5t-19 23t-30 11.5t-31 4.5t-32.5 0.5h-7q-56 0 -121 -13v114
q102 19 163 19q41 0 89 -10q41 -10 70.5 -28.5t44 -37.5t22.5 -45.5t9.5 -43.5t1.5 -41v-207h66v-108zM321 119v91q-32 5 -62 5q-86 0 -86 -52v-13q0 -50 70 -50q46 0 78 19z" />
    <glyph glyph-name="aringacute.alt" horiz-adv-x="548" 
d="M415 835l-96 -95q33 -19 33 -83q0 -49 -18 -72t-72 -23h-24q-52 0 -70.5 23t-18.5 72q0 39 11.5 61t41.5 29l53 88h160zM261 700h-22q-34 0 -34 -43q0 -23 7 -33.5t27 -10.5h22q21 0 28 10.5t7 33.5q0 22 -7.5 32.5t-27.5 10.5zM320 119v91q-32 5 -62 5q-86 0 -86 -52
v-13q0 -50 70 -50q46 0 78 19zM537 0h-188l-9 29q-58 -38 -136 -38q-181 0 -181 157v12q0 147 189 150q59 0 108 -7v21q0 22 -8.5 37.5t-19 23t-30 11.5t-31 4.5t-32.5 0.5h-7q-56 0 -121 -13v114q102 19 163 19q41 0 89 -10q41 -10 70.5 -28.5t44 -37.5t22.5 -45.5
t9.5 -43.5t1.5 -41v-207h66v-108z" />
    <glyph glyph-name="yacute.alt" horiz-adv-x="606" 
d="M334 574h-112l86 153h160zM545 512v-445q0 -29 -0.5 -44.5t-3.5 -43t-9 -44t-18.5 -39t-30 -37t-44.5 -29t-62 -23.5q-80 -18 -231 -18h-43v117q192 0 241 18q47 16 49 83v11q-61 -27 -118 -27q-109 0 -150.5 47.5t-41.5 147.5v218h-75v108h224v-285q0 -40 3 -61t20 -38
t51 -17q48 0 90 15v278h-83v108h232z" />
    <glyph glyph-name="ydieresis.alt" horiz-adv-x="606" 
d="M284 641q0 -38 -15 -50.5t-50 -12.5t-50.5 12.5t-15.5 50.5v7q0 37 15.5 50t50.5 13t50 -13t15 -50v-7zM459 641q0 -38 -15 -50.5t-50 -12.5t-50.5 12.5t-15.5 50.5v7q0 37 15.5 50t50.5 13t50 -13t15 -50v-7zM545 512v-445q0 -29 -0.5 -44.5t-3.5 -43t-9 -44t-18.5 -39
t-30 -37t-44.5 -29t-62 -23.5q-80 -18 -231 -18h-43v117q192 0 241 18q47 16 49 83v11q-61 -27 -118 -27q-109 0 -150.5 47.5t-41.5 147.5v218h-75v108h224v-285q0 -40 3 -61t20 -38t51 -17q48 0 90 15v278h-83v108h232z" />
    <glyph glyph-name="ycircumflex.alt" horiz-adv-x="606" 
d="M466 571h-99l-55 78l-56 -78h-99l89 159h133zM545 512v-445q0 -29 -0.5 -44.5t-3.5 -43t-9 -44t-18.5 -39t-30 -37t-44.5 -29t-62 -23.5q-80 -18 -231 -18h-43v117q192 0 241 18q47 16 49 83v11q-61 -27 -118 -27q-109 0 -150.5 47.5t-41.5 147.5v218h-75v108h224v-285
q0 -40 3 -61t20 -38t51 -17q48 0 90 15v278h-83v108h232z" />
    <glyph glyph-name="Agrave.alt" horiz-adv-x="750" 
d="M445 765h-112l-148 159h160zM284 327h181l-62 230q-5 16 -10 24.5t-8.5 9.5t-10.5 1t-10 -1t-8.5 -9t-9.5 -24zM737 0h-289v115h70l-26 91h-235l-25 -91h70v-115h-289v115h65l130 484q8 32 22 55.5t28.5 36t35.5 19.5t38.5 8.5t42.5 1.5q35 0 53.5 -2.5t43.5 -13
t41.5 -36.5t27.5 -69l131 -484h65v-115z" />
    <glyph glyph-name="Aacute.alt" horiz-adv-x="750" 
d="M408 765h-112l100 159h160zM284 327h181l-62 230q-5 16 -10 24.5t-8.5 9.5t-10.5 1t-10 -1t-8.5 -9t-9.5 -24zM737 0h-289v115h70l-26 91h-235l-25 -91h70v-115h-289v115h65l130 484q8 32 22 55.5t28.5 36t35.5 19.5t38.5 8.5t42.5 1.5q35 0 53.5 -2.5t43.5 -13
t41.5 -36.5t27.5 -69l131 -484h65v-115z" />
    <glyph glyph-name="Acircumflex.alt" horiz-adv-x="750" 
d="M535 765h-99l-60 68l-61 -68h-99l94 134h133zM284 327h181l-62 230q-5 16 -10 24.5t-8.5 9.5t-10.5 1t-10 -1t-8.5 -9t-9.5 -24zM737 0h-289v115h70l-26 91h-235l-25 -91h70v-115h-289v115h65l130 484q8 32 22 55.5t28.5 36t35.5 19.5t38.5 8.5t42.5 1.5q35 0 53.5 -2.5
t43.5 -13t41.5 -36.5t27.5 -69l131 -484h65v-115z" />
    <glyph glyph-name="Atilde.alt" horiz-adv-x="750" 
d="M339 812q-22 19 -29 19q-12 0 -21 -33l-9 -36h-82l13 49q8 31 13 44.5t16 30t28.5 22.5t44.5 6q24 0 40.5 -9.5t56.5 -44.5q19 -19 28 -19t14.5 11t12.5 41l3 16h84l-13 -48q-9 -31 -13.5 -44.5t-16 -30.5t-28.5 -23t-44 -6q-28 0 -43.5 9.5t-54.5 45.5zM284 327h181
l-62 230q-5 16 -10 24.5t-8.5 9.5t-10.5 1t-10 -1t-8.5 -9t-9.5 -24zM737 0h-289v115h70l-26 91h-235l-25 -91h70v-115h-289v115h65l130 484q8 32 22 55.5t28.5 36t35.5 19.5t38.5 8.5t42.5 1.5q35 0 53.5 -2.5t43.5 -13t41.5 -36.5t27.5 -69l131 -484h65v-115z" />
    <glyph glyph-name="Adieresis.alt" horiz-adv-x="750" 
d="M345 826q0 -38 -15 -50.5t-50 -12.5t-50.5 12.5t-15.5 50.5v7q0 37 15.5 50t50.5 13t50 -13t15 -50v-7zM536 826q0 -38 -15 -50.5t-50 -12.5t-50.5 12.5t-15.5 50.5v7q0 37 15.5 50t50.5 13t50 -13t15 -50v-7zM284 327h181l-62 230q-5 16 -10 24.5t-8.5 9.5t-10.5 1
t-10 -1t-8.5 -9t-9.5 -24zM737 0h-289v115h70l-26 91h-235l-25 -91h70v-115h-289v115h65l130 484q8 32 22 55.5t28.5 36t35.5 19.5t38.5 8.5t42.5 1.5q35 0 53.5 -2.5t43.5 -13t41.5 -36.5t27.5 -69l131 -484h65v-115z" />
    <glyph glyph-name="Aring.alt" horiz-adv-x="750" 
d="M387 946q54 0 72 -22.5t18 -71.5t-18.5 -72t-71.5 -23h-24q-52 0 -70.5 23t-18.5 72t18.5 71.5t70.5 22.5h24zM386 895h-22q-34 0 -34 -43q0 -23 7 -33.5t27 -10.5h22q21 0 28 10.5t7 33.5q0 22 -7.5 32.5t-27.5 10.5zM284 327h181l-62 230q-5 16 -10 24.5t-8.5 9.5
t-10.5 1t-10 -1t-8.5 -9t-9.5 -24zM737 0h-289v115h70l-26 91h-235l-25 -91h70v-115h-289v115h65l130 484q8 32 22 55.5t28.5 36t35.5 19.5t38.5 8.5t42.5 1.5q35 0 53.5 -2.5t43.5 -13t41.5 -36.5t27.5 -69l131 -484h65v-115z" />
    <glyph glyph-name="AE.alt" horiz-adv-x="975" 
d="M458 325v261h-62q-37 0 -46 -35l-62 -226h170zM927 711v-199h-135v74h-181v-172h218v-124h-218v-164h189v74h135v-200h-474v198h-207l-22 -83h81v-115h-300v115h65l121 453q11 41 28.5 69.5t33.5 42.5t42 21.5t41 8.5t44 1h70h469z" />
    <glyph glyph-name="Amacron.alt" horiz-adv-x="750" 
d="M495 769h-246v93h246v-93zM284 327h181l-62 230q-5 16 -10 24.5t-8.5 9.5t-10.5 1t-10 -1t-8.5 -9t-9.5 -24zM737 0h-289v115h70l-26 91h-235l-25 -91h70v-115h-289v115h65l130 484q8 32 22 55.5t28.5 36t35.5 19.5t38.5 8.5t42.5 1.5q35 0 53.5 -2.5t43.5 -13
t41.5 -36.5t27.5 -69l131 -484h65v-115z" />
    <glyph glyph-name="Abreve.alt" horiz-adv-x="750" 
d="M376 761q-135 0 -143 144l84 4q2 -28 17.5 -44t41.5 -16t41.5 16t17.5 44l84 -4q-8 -144 -143 -144zM284 327h181l-62 230q-5 16 -10 24.5t-8.5 9.5t-10.5 1t-10 -1t-8.5 -9t-9.5 -24zM737 0h-289v115h70l-26 91h-235l-25 -91h70v-115h-289v115h65l130 484q8 32 22 55.5
t28.5 36t35.5 19.5t38.5 8.5t42.5 1.5q35 0 53.5 -2.5t43.5 -13t41.5 -36.5t27.5 -69l131 -484h65v-115z" />
    <glyph glyph-name="Aogonek.alt" horiz-adv-x="750" 
d="M737 0q-74 -27 -74 -87q0 -26 44 -26h64v-86h-89q-51 0 -79 25t-28 70q0 28 19.5 57.5t54.5 46.5h-201v115h70l-26 91h-235l-25 -91h70v-115h-289v115h65l130 484q8 32 22 55.5t28.5 36t35.5 19.5t38.5 8.5t42.5 1.5q35 0 53.5 -2.5t43.5 -13t41.5 -36.5t27.5 -69
l131 -484h65v-115zM284 327h181l-62 230q-5 16 -10 24.5t-8.5 9.5t-10.5 1t-10 -1t-8.5 -9t-9.5 -24z" />
    <glyph glyph-name="Aringacute.alt" horiz-adv-x="750" 
d="M290 708q-14 20 -14 70q0 39 11.5 61t41.5 29l76 121h160l-119 -128q33 -19 33 -83q0 -46 -16 -69q56 -24 78 -110l131 -484h65v-115h-289v115h70l-26 91h-235l-25 -91h70v-115h-289v115h65l130 484q22 86 82 109zM284 327h181l-62 230q-5 16 -10 24.5t-8.5 9.5t-10.5 1
t-10 -1t-8.5 -9t-9.5 -24zM388 821h-22q-34 0 -34 -43q0 -23 7 -33.5t27 -10.5h22q21 0 28 10.5t7 33.5q0 22 -7.5 32.5t-27.5 10.5z" />
    <glyph glyph-name="AEacute.alt" horiz-adv-x="975" 
d="M531 765h-112l100 159h160zM458 325v261h-62q-37 0 -46 -35l-62 -226h170zM927 711v-199h-135v74h-181v-172h218v-124h-218v-164h189v74h135v-200h-474v198h-207l-22 -83h81v-115h-300v115h65l121 453q11 41 28.5 69.5t33.5 42.5t42 21.5t41 8.5t44 1h70h469z" />
    <glyph glyph-name="ygrave.alt" horiz-adv-x="606" 
d="M393 574h-112l-134 153h160zM545 512v-445q0 -29 -0.5 -44.5t-3.5 -43t-9 -44t-18.5 -39t-30 -37t-44.5 -29t-62 -23.5q-80 -18 -231 -18h-43v117q192 0 241 18q47 16 49 83v11q-61 -27 -118 -27q-109 0 -150.5 47.5t-41.5 147.5v218h-75v108h224v-285q0 -40 3 -61
t20 -38t51 -17q48 0 90 15v278h-83v108h232z" />
    <glyph glyph-name="parenleft.numr" horiz-adv-x="214" 
d="M30 496q0 135 83 264h85q-84 -135 -84 -264t84 -264h-85q-83 129 -83 264z" />
    <glyph glyph-name="parenright.numr" horiz-adv-x="215" 
d="M185 496q0 -135 -83 -264h-85q84 135 84 264t-84 264h85q83 -129 83 -264z" />
    <glyph glyph-name="period.numr" horiz-adv-x="178" 
d="M142 335q0 -29 -12.5 -38.5t-41.5 -9.5q-27 0 -39.5 10t-12.5 38v5q0 28 12.5 38t39.5 10q29 0 41.5 -9.5t12.5 -38.5v-5z" />
    <glyph glyph-name="hyphen.numr" horiz-adv-x="307" 
d="M261 442h-215v78h215v-78z" />
    <glyph glyph-name="comma.numr" horiz-adv-x="200" 
d="M74 216h-81l70 165h101z" />
    <glyph glyph-name="dollar.numr" horiz-adv-x="346" 
d="M226 593v43q-30 2 -33 2q-33 0 -46.5 -6.5t-13.5 -22.5q0 -15 37 -40l75 -52q39 -27 56 -53t17 -62q0 -54 -28 -79t-84 -30v-66h-63v64q-62 4 -112 21v120h82v-59q31 -4 51 -4q58 0 58 29q0 19 -33 43l-72 50q-42 29 -60 52.5t-18 63.5q0 53 24 77t80 30v58h63v-56
q55 -2 102 -16v-107h-82z" />
    <glyph glyph-name="cent.numr" horiz-adv-x="318" 
d="M201 711v-52q32 -3 79 -12v-71q-40 6 -88 6q-36 0 -49.5 -13t-13.5 -40v-50q0 -27 13.5 -39.5t49.5 -12.5q61 0 88 5v-72q-38 -9 -79 -11v-53h-63v54l-15 4q-30 7 -49.5 20.5t-27 32.5t-9.5 32t-2 32v66q0 19 2 32t9.5 31.5t27 32.5t49.5 21l15 2v55h63z" />
    <glyph glyph-name="parenleft.dnom" horiz-adv-x="214" 
d="M30 200q0 135 83 264h85q-84 -135 -84 -264t84 -264h-85q-83 129 -83 264z" />
    <glyph glyph-name="parenright.dnom" horiz-adv-x="215" 
d="M185 200q0 -135 -83 -264h-85q84 135 84 264t-84 264h85q83 -129 83 -264z" />
    <glyph glyph-name="period.dnom" horiz-adv-x="180" 
d="M143 39q0 -29 -12.5 -38.5t-41.5 -9.5q-27 0 -39.5 10t-12.5 38v5q0 28 12.5 38t39.5 10q29 0 41.5 -9.5t12.5 -38.5v-5z" />
    <glyph glyph-name="hyphen.dnom" horiz-adv-x="307" 
d="M261 146h-215v78h215v-78z" />
    <glyph glyph-name="comma.dnom" horiz-adv-x="198" 
d="M75 -80h-81l70 165h101z" />
    <glyph glyph-name="dollar.dnom" horiz-adv-x="346" 
d="M226 297v43q-30 2 -33 2q-33 0 -46.5 -6.5t-13.5 -22.5q0 -15 37 -40l75 -52q39 -27 56 -53t17 -62q0 -54 -28 -79t-84 -30v-66h-63v64q-62 4 -112 21v120h82v-59q31 -4 51 -4q58 0 58 29q0 19 -33 43l-72 50q-42 29 -60 52.5t-18 63.5q0 53 24 77t80 30v58h63v-56
q55 -2 102 -16v-107h-82z" />
    <glyph glyph-name="cent.dnom" horiz-adv-x="318" 
d="M201 415v-52q32 -3 79 -12v-71q-41 6 -88 6q-36 0 -49.5 -13t-13.5 -40v-50q0 -27 13.5 -39.5t49.5 -12.5q61 0 88 5v-72q-38 -9 -79 -11v-53h-63v54l-15 4q-30 7 -49.5 20.5t-27 32.5t-9.5 32t-2 32v66q0 19 2 32t9.5 31.5t27 32.5t49.5 21l15 2v55h63z" />
    <glyph glyph-name="c_t" horiz-adv-x="899" 
d="M466 342h-139q-7 21 -13 59h-16q-59 0 -82.5 -28t-23.5 -81v-72q0 -53 23.5 -81t82.5 -28q79 0 158 15v-116q-102 -19 -176 -19q-41 0 -89 10q-41 10 -70.5 28.5t-44 37.5t-22.5 45.5t-9.5 43.5t-1.5 41v118q0 24 1.5 41t9.5 43.5t22.5 45.5t44 37.5t70.5 28.5
q48 10 89 10h27q0 99 56.5 149t151.5 50q106 0 159 -50.5t53 -157.5h134v-109h-134v-232q0 -59 51 -59q48 0 84 5v-116q-65 -10 -104 -10q-79 0 -128 40.5t-51 120.5v251h-72v109h73q6 79 -11.5 115.5t-65.5 36.5q-44 0 -66.5 -27t-24 -65.5t8 -86t21.5 -82t24 -61.5z" />
    <glyph glyph-name="g.alt" horiz-adv-x="584" 
d="M78 189q-35 39 -35 121v10q0 23 1.5 39.5t9 43t22 44.5t42.5 36t68 27q49 11 91 11q41 0 93 -11q42 -10 69 -27l9 29h131v-108h-79q11 -33 11 -84v-10q0 -23 -1 -38t-9 -39.5t-22 -41t-42 -33t-67 -25.5q-52 -11 -93 -11q-57 0 -122 21q-7 -28 10.5 -42.5t62.5 -14.5h103
q26 0 50.5 -3.5t52 -13t47.5 -25t33.5 -42.5t13.5 -62q0 -81 -68.5 -116t-199.5 -35q-104 0 -211 34v105q110 -35 216 -35q64 0 88.5 7.5t24.5 23.5q0 26 -67 26h-82q-43 0 -76 10t-51 23t-30 32t-16 30.5t-6 24.5q-6 32 2 64.5t26 54.5zM362 314v4q0 51 -17.5 67t-67.5 16
q-46 0 -65 -15t-20 -68v-4q0 -44 19 -59.5t66 -15.5q44 0 64 15.5t21 59.5z" />
    <glyph glyph-name="gbreve.alt" horiz-adv-x="584" 
d="M289 565q-135 0 -143 144l84 4q2 -28 17.5 -44t41.5 -16t41.5 16t17.5 44l84 -4q-8 -144 -143 -144zM78 189q-18 -22 -26 -54.5t-2 -64.5q2 -13 6 -24.5t16 -30.5t30 -32t51 -23t76 -10h82q67 0 67 -26q0 -16 -24.5 -23.5t-88.5 -7.5q-106 0 -216 35v-105
q107 -34 211 -34q131 0 199.5 35t68.5 116q0 35 -13.5 62t-33.5 42.5t-47.5 25t-52 13t-50.5 3.5h-103q-45 0 -62.5 14.5t-10.5 42.5q65 -21 122 -21q41 0 93 11q39 9 67 25.5t42 33t22 41t9 39.5t1 38v10q0 51 -11 84h79v108h-131l-9 -29q-27 17 -69 27q-52 11 -93 11
t-91 -11q-40 -9 -68 -27t-42.5 -36t-22 -44.5t-9 -43t-1.5 -39.5v-10q0 -82 35 -121zM362 318v-4q-1 -44 -21 -59.5t-64 -15.5q-47 0 -66 15.5t-19 59.5v4q1 53 20 68t65 15q50 0 67.5 -16t17.5 -67z" />
    <glyph glyph-name="gcircumflex.alt" horiz-adv-x="584" 
d="M447 571h-99l-55 78l-56 -78h-99l89 159h133zM78 189q-18 -22 -26 -54.5t-2 -64.5q2 -13 6 -24.5t16 -30.5t30 -32t51 -23t76 -10h82q67 0 67 -26q0 -16 -24.5 -23.5t-88.5 -7.5q-106 0 -216 35v-105q107 -34 211 -34q131 0 199.5 35t68.5 116q0 35 -13.5 62t-33.5 42.5
t-47.5 25t-52 13t-50.5 3.5h-103q-45 0 -62.5 14.5t-10.5 42.5q65 -21 122 -21q41 0 93 11q39 9 67 25.5t42 33t22 41t9 39.5t1 38v10q0 51 -11 84h79v108h-131l-9 -29q-27 17 -69 27q-52 11 -93 11t-91 -11q-40 -9 -68 -27t-42.5 -36t-22 -44.5t-9 -43t-1.5 -39.5v-10
q0 -82 35 -121zM362 318v-4q-1 -44 -21 -59.5t-64 -15.5q-47 0 -66 15.5t-19 59.5v4q1 53 20 68t65 15q50 0 67.5 -16t17.5 -67z" />
    <glyph glyph-name="gdotaccent.alt" horiz-adv-x="584" 
d="M364 639q0 -38 -15 -50.5t-50 -12.5t-50.5 12.5t-15.5 50.5v7q0 37 15.5 50t50.5 13t50 -13t15 -50v-7zM78 189q-18 -22 -26 -54.5t-2 -64.5q2 -13 6 -24.5t16 -30.5t30 -32t51 -23t76 -10h82q67 0 67 -26q0 -16 -24.5 -23.5t-88.5 -7.5q-106 0 -216 35v-105
q107 -34 211 -34q131 0 199.5 35t68.5 116q0 35 -13.5 62t-33.5 42.5t-47.5 25t-52 13t-50.5 3.5h-103q-45 0 -62.5 14.5t-10.5 42.5q65 -21 122 -21q41 0 93 11q39 9 67 25.5t42 33t22 41t9 39.5t1 38v10q0 51 -11 84h79v108h-131l-9 -29q-27 17 -69 27q-52 11 -93 11
t-91 -11q-40 -9 -68 -27t-42.5 -36t-22 -44.5t-9 -43t-1.5 -39.5v-10q0 -82 35 -121zM362 318v-4q-1 -44 -21 -59.5t-64 -15.5q-47 0 -66 15.5t-19 59.5v4q1 53 20 68t65 15q50 0 67.5 -16t17.5 -67z" />
    <glyph glyph-name="uni0123.alt" horiz-adv-x="584" 
d="M395 757v-67l-17 -5q-70 -17 -70 -42q0 -26 31 -79h-110q-18 40 -18 81q0 36 26 59t62.5 33.5t95.5 19.5zM78 189q-18 -22 -26 -54.5t-2 -64.5q2 -13 6 -24.5t16 -30.5t30 -32t51 -23t76 -10h82q67 0 67 -26q0 -16 -24.5 -23.5t-88.5 -7.5q-106 0 -216 35v-105
q107 -34 211 -34q131 0 199.5 35t68.5 116q0 35 -13.5 62t-33.5 42.5t-47.5 25t-52 13t-50.5 3.5h-103q-45 0 -62.5 14.5t-10.5 42.5q65 -21 122 -21q41 0 93 11q39 9 67 25.5t42 33t22 41t9 39.5t1 38v10q0 51 -11 84h79v108h-131l-9 -29q-27 17 -69 27q-52 11 -93 11
t-91 -11q-40 -9 -68 -27t-42.5 -36t-22 -44.5t-9 -43t-1.5 -39.5v-10q0 -82 35 -121zM362 318v-4q-1 -44 -21 -59.5t-64 -15.5q-47 0 -66 15.5t-19 59.5v4q1 53 20 68t65 15q50 0 67.5 -16t17.5 -67z" />
    </font>
</defs>
</svg>
