<svg xmlns="http://www.w3.org/2000/svg" width="34" height="34" viewBox="0 0 34 34"><defs><style>.a,.d{fill:none;}.a{stroke:#ed8606;stroke-width:3px;}.b{fill:#ef8700;}.c{stroke:none;}</style></defs><g transform="translate(-851 -517)"><g class="a" transform="translate(851 517)"><circle class="c" cx="17" cy="17" r="17"/><circle class="d" cx="17" cy="17" r="15.5"/></g><path class="b" d="M20.688,12.656a2.344,2.344,0,1,1-2.344-2.344A2.346,2.346,0,0,1,20.688,12.656ZM16.271.738l.4,7.969a.7.7,0,0,0,.7.668h1.944a.7.7,0,0,0,.7-.668l.4-7.969a.7.7,0,0,0-.7-.738h-2.74A.7.7,0,0,0,16.271.738Z" transform="translate(850 527)"/></g></svg>