<svg xmlns="http://www.w3.org/2000/svg" width="19.42" height="18.284" viewBox="0 0 19.42 18.284"><defs><style>.a{fill:#fff;}</style></defs><path class="a" d="M23.624,11.646,10.7,10.709l-.216-1.275A2.157,2.157,0,0,0,8.356,7.64H5.863a.863.863,0,1,0,0,1.726h2.5a.432.432,0,0,1,.431.358l1.564,9.17v.035a.863.863,0,0,0,.065.328l.319,1.877a2.552,2.552,0,1,0,3.637,1.409h4.907A2.548,2.548,0,1,0,21.7,20.815H12.422L12.248,19.8h7.082a4.1,4.1,0,0,0,3.952-3.02l1.111-4.047a.863.863,0,0,0-.77-1.079ZM12.776,23.365a.822.822,0,1,1-.822-.822h0A.824.824,0,0,1,12.776,23.365Zm8.922.822a.822.822,0,1,1,.822-.822h0a.824.824,0,0,1-.822.824Zm-.088-7.865a2.373,2.373,0,0,1-2.28,1.749H11.954L11,12.463l11.454.828Z" transform="translate(-5 -7.64)"/></svg>