<svg width="15" height="12" viewBox="0 0 15 12" fill="none" xmlns="http://www.w3.org/2000/svg">
<path d="M5.09018 11.2095L0.217081 6.2264C0.0777347 6.08022 0 5.88602 0 5.68407C0 5.48212 0.0777347 5.28791 0.217081 5.14174L1.27816 4.05709C1.34704 3.98602 1.42949 3.92951 1.52063 3.89093C1.61177 3.85234 1.70973 3.83245 1.8087 3.83245C1.90767 3.83245 2.00563 3.85234 2.09676 3.89093C2.1879 3.92951 2.27036 3.98602 2.33924 4.05709L5.62464 7.41324L12.6608 0.224632C12.7296 0.153563 12.8121 0.097055 12.9032 0.0584666C12.9944 0.0198782 13.0923 0 13.1913 0C13.2903 0 13.3882 0.0198782 13.4794 0.0584666C13.5705 0.097055 13.653 0.153563 13.7218 0.224632L14.7829 1.30929C14.9223 1.45547 15 1.64967 15 1.85162C15 2.05357 14.9223 2.24778 14.7829 2.39395L6.15125 11.2095C6.08237 11.2806 5.99992 11.3371 5.90878 11.3757C5.81765 11.4143 5.71968 11.4342 5.62071 11.4342C5.52174 11.4342 5.42378 11.4143 5.33265 11.3757C5.24151 11.3371 5.15905 11.2806 5.09018 11.2095Z" fill="#77A12E"/>
</svg>
