<svg width="29" height="21" viewBox="0 0 29 21" fill="none" xmlns="http://www.w3.org/2000/svg">
<path d="M11.4951 3.99825C11.3414 4.07376 11.2113 4.19457 11.12 4.34639C11.0288 4.49821 10.9803 4.6747 10.9802 4.85496V16.1096C10.9803 16.29 11.029 16.4665 11.1204 16.6184C11.2118 16.7702 11.3422 16.8909 11.4961 16.9663L19.6215 20.8923C19.8614 20.994 20.1287 20.994 20.3686 20.8923L28.4852 16.9705C28.6388 16.895 28.769 16.7742 28.8602 16.6223C28.9514 16.4705 29 16.2941 29 16.1138V4.86021C28.9999 4.67983 28.9512 4.50326 28.8598 4.35143C28.7684 4.19959 28.638 4.07886 28.4842 4.0035L20.3588 0.0775345C20.2383 0.0272781 20.1101 0.00132293 19.9808 0.000988681C19.8563 0.000327578 19.7331 0.0267213 19.6185 0.0785745L11.4951 3.99825ZM19.1066 18.5528L12.7788 15.5119V6.33453L19.1066 9.37548V18.5528ZM27.2015 15.5119L20.8746 18.5528V9.37548L27.2015 6.33453V15.5119ZM19.9906 2.00592L25.9444 4.89376L19.9906 7.78161L14.0368 4.89376L19.9906 2.00592Z" fill="black"/>
<path d="M7.64599 4.90851H4.63761C4.52268 4.90851 4.40888 4.93261 4.3027 4.97944C4.19652 5.02626 4.10007 5.0949 4.0188 5.18143C3.93754 5.26795 3.87306 5.37066 3.82908 5.48371C3.7851 5.59675 3.76245 5.71792 3.76245 5.84028C3.76245 5.96264 3.7851 6.08381 3.82908 6.19686C3.87306 6.30991 3.93754 6.41262 4.0188 6.49914C4.10007 6.58566 4.19652 6.6543 4.3027 6.70113C4.40888 6.74795 4.52268 6.77204 4.63761 6.77204H7.64599C7.76201 6.77428 7.87729 6.7518 7.98502 6.70591C8.09275 6.66002 8.19075 6.59167 8.2733 6.50485C8.35585 6.41803 8.42127 6.3145 8.46569 6.20038C8.51011 6.08625 8.53264 5.96382 8.53196 5.84028C8.53672 5.72426 8.51878 5.60846 8.4793 5.50021C8.43982 5.39196 8.37964 5.29361 8.30259 5.21141C8.21793 5.11647 8.11614 5.04071 8.00331 4.98866C7.89049 4.93662 7.76895 4.90935 7.64599 4.90851Z" fill="black"/>
<path d="M7.64599 9.55489H2.77605C2.66112 9.55489 2.54735 9.57899 2.44117 9.62581C2.33499 9.67264 2.23851 9.74128 2.15724 9.8278C2.07598 9.91433 2.01151 10.017 1.96753 10.1301C1.92355 10.2431 1.90092 10.3643 1.90092 10.4867C1.90092 10.609 1.92355 10.7302 1.96753 10.8432C2.01151 10.9563 2.07598 11.059 2.15724 11.1455C2.23851 11.232 2.33499 11.3007 2.44117 11.3475C2.54735 11.3943 2.66112 11.4184 2.77605 11.4184H7.67649C7.7925 11.4207 7.90778 11.3982 8.01551 11.3523C8.12324 11.3064 8.22127 11.238 8.30382 11.1512C8.38637 11.0644 8.45176 10.9609 8.49618 10.8468C8.54061 10.7326 8.56316 10.6102 8.56249 10.4867C8.5598 10.3614 8.53397 10.2379 8.48645 10.1233C8.43893 10.0087 8.37067 9.90514 8.28556 9.81861C8.20045 9.73208 8.10013 9.66425 7.9904 9.619C7.88066 9.57375 7.76364 9.55196 7.64599 9.55489Z" fill="black"/>
<path d="M7.646 14.1666H0.88599C0.771064 14.1666 0.657258 14.1907 0.551081 14.2375C0.444903 14.2844 0.348418 14.353 0.267153 14.4395C0.185888 14.526 0.121417 14.6287 0.077437 14.7418C0.0334567 14.8548 0.0108337 14.976 0.0108337 15.0984C0.0108337 15.2207 0.0334567 15.3419 0.077437 15.4549C0.121417 15.568 0.185888 15.6707 0.267153 15.7572C0.348418 15.8438 0.444903 15.9124 0.551081 15.9592C0.657258 16.006 0.771064 16.0301 0.88599 16.0301H7.64795C7.76397 16.0324 7.87925 16.0099 7.98698 15.964C8.09471 15.9181 8.19271 15.8498 8.27526 15.7629C8.35781 15.6761 8.42323 15.5726 8.46765 15.4585C8.51207 15.3443 8.5346 15.2219 8.53392 15.0984C8.54013 14.9815 8.52348 14.8645 8.48501 14.7548C8.44655 14.6451 8.38712 14.5451 8.31047 14.4611C8.22404 14.3669 8.12063 14.2923 8.00644 14.2417C7.89226 14.1911 7.76968 14.1655 7.646 14.1666Z" fill="black"/>
</svg>
