<?xml version="1.0" encoding="utf-8"?>
<!-- Generator: Adobe Illustrator 21.1.0, SVG Export Plug-In . SVG Version: 6.00 Build 0)  -->
<svg xmlns="http://www.w3.org/2000/svg" id="Group_11573" data-name="Group 11573"  width="${width}" height="${height}" viewBox="0 0 49 49">
            <g id="Ellipse_23" data-name="Ellipse 23" fill="#ef8700" stroke="#ed8606" stroke-width="4">
              <circle cx="24.5" cy="24.5" r="24.5" stroke="none"/>
              <circle cx="24.5" cy="24.5" r="22.5" fill="none"/>
            </g>
            <path id="exclamation" d="M22.887,18.595a3.444,3.444,0,1,1-3.444-3.444A3.447,3.447,0,0,1,22.887,18.595ZM16.4,1.085l.585,11.708a1.033,1.033,0,0,0,1.032.981h2.856a1.033,1.033,0,0,0,1.032-.981l.585-11.708A1.033,1.033,0,0,0,21.457,0H17.43A1.033,1.033,0,0,0,16.4,1.085Z" transform="translate(5.056 13.481)" fill="#fff"/>
          </svg>
