<svg id="Layer_1" data-name="Layer 1" xmlns="http://www.w3.org/2000/svg" xmlns:xlink="http://www.w3.org/1999/xlink" viewBox="0 0 170.08 113.39"><defs><style>.cls-1{fill:url(#GradientFill_10);}.cls-2{fill:url(#GradientFill_11);}.cls-3{fill:url(#GradientFill_11-2);}.cls-4{fill-rule:evenodd;fill:url(#GradientFill_11-3);}</style><linearGradient id="GradientFill_10" x1="1.58" y1="-1.74" x2="168.51" y2="115.14" gradientUnits="userSpaceOnUse"><stop offset="0" stop-color="#dadbdc"/><stop offset="0.24" stop-color="#f1f2f2"/><stop offset="0.53" stop-color="#fbfdff"/><stop offset="0.76" stop-color="#f1f2f2"/><stop offset="1" stop-color="#dadbdc"/></linearGradient><linearGradient id="GradientFill_11" x1="-32.62" y1="-26.23" x2="75.07" y2="139.61" gradientUnits="userSpaceOnUse"><stop offset="0" stop-color="#ed1c24"/><stop offset="0.24" stop-color="#ed1c24"/><stop offset="0.64" stop-color="#dd1e25"/><stop offset="0.84" stop-color="#ed1c24"/><stop offset="1" stop-color="#ed1c24"/></linearGradient><linearGradient id="GradientFill_11-2" x1="59.1" y1="-27" x2="238.6" y2="140.39" xlink:href="#GradientFill_11"/><linearGradient id="GradientFill_11-3" x1="57.4" y1="199.94" x2="224.46" y2="267.44" xlink:href="#GradientFill_11"/></defs><title>Flag_CANADA</title><rect class="cls-1" x="42.45" width="85.17" height="113.39"/><rect class="cls-2" width="42.45" height="113.39"/><rect class="cls-3" x="127.63" width="42.45" height="113.39"/><path class="cls-4" d="M109.63,234.71l15.12,13.11c2.77,2.41.62,4.86-.71,7.19l17.36-2.14-.53,17.36h3.74l-.8-17.36L161.16,255c-1.25-2.49-2.75-5.52-.13-7.73l14.82-12.56c-1.42-.57-3.09-.77-3.42-2.37C171.85,229.61,174,224,175,221c-3,1.21-6.93,2.15-9.48,1.89-1.39-.14-2.19-3.73-2.77-5l-7.8,8.26c-2.08,2.2-2.87,1.18-2.28-1.64l3.66-17.57-5.23,3c-1.54.87-2,1-2.91-.82l-5.48-11.21-5.63,11.26c-.87,1.74-1,1.78-2.6.88l-5.12-2.79,3.14,17.38c.5,2.75,0,3.75-2.2,1.36L123,217.89c-.71,1.89-1.6,4.27-2.94,5.07-1.6.53-6.14-1-9.34-1.87,1,3,3.47,8.12,3,10.92C113.45,233.83,111.27,234.08,109.63,234.71Z" transform="translate(-57.83 -177.22)"/></svg>