<svg id="Layer_1" data-name="Layer 1" xmlns="http://www.w3.org/2000/svg" xmlns:xlink="http://www.w3.org/1999/xlink" viewBox="0 0 170.08 113.39"><defs><style>.cls-1{fill:url(#GradientFill_4);}.cls-2{fill:url(#GradientFill_5);}.cls-3{fill:url(#GradientFill_6);}.cls-4{fill:url(#GradientFill_4-2);}</style><linearGradient id="GradientFill_4" x1="-50.22" y1="56.69" x2="220.3" y2="56.69" gradientUnits="userSpaceOnUse"><stop offset="0" stop-color="#d1d3d4"/><stop offset="0.24" stop-color="#ededee"/><stop offset="0.53" stop-color="#fbfdff"/><stop offset="0.76" stop-color="#ededee"/><stop offset="1" stop-color="#d1d3d4"/></linearGradient><linearGradient id="GradientFill_5" x1="28.15" y1="81.83" x2="255.32" y2="134.27" gradientUnits="userSpaceOnUse"><stop offset="0" stop-color="#d32027"/><stop offset="0.47" stop-color="#ed1c24"/><stop offset="0.6" stop-color="#ed1c24"/><stop offset="1" stop-color="#d32027"/></linearGradient><linearGradient id="GradientFill_6" x1="86.37" y1="52.58" x2="-0.2" y2="8.47" gradientUnits="userSpaceOnUse"><stop offset="0" stop-color="#194691"/><stop offset="0.34" stop-color="#194691"/><stop offset="0.69" stop-color="#1f60ad"/><stop offset="1" stop-color="#2d7ec2"/></linearGradient><linearGradient id="GradientFill_4-2" x1="37.57" y1="81.4" x2="162.37" y2="81.4" xlink:href="#GradientFill_4"/></defs><title>Flag_US</title><rect class="cls-1" width="170.08" height="113.39"/><path class="cls-2" d="M56.69,156H226.77v8.72H56.69V156Zm0-104.66H226.77v8.72H56.69V51.36Zm0,17.44H226.77v8.72H56.69V68.8Zm0,17.44H226.77V95H56.69V86.25Zm0,17.44H226.77v8.72H56.69v-8.72Zm0,17.44H226.77v8.72H56.69v-8.72Zm0,17.44H226.77v8.72H56.69Z" transform="translate(-56.69 -51.36)"/><rect class="cls-3" width="86.17" height="61.05"/><path class="cls-4" d="M136.28,68.56l-.78-2.42-.78,2.42h-2.54l2.05,1.49-.78,2.41L135.5,71l2.05,1.49-.78-2.41,2.05-1.49ZM65.33,57.81l2.05-1.49H64.85l-.78-2.41-.79,2.41H60.74l2.05,1.49L62,60.22l2.05-1.49,2.05,1.49-.78-2.41Zm14.29,0,2.05-1.49H79.13l-.78-2.41-.78,2.41H75l2.05,1.49-.78,2.41,2.05-1.49,2.05,1.49-.78-2.41Zm14.29,0L96,56.31H93.42l-.78-2.41-.78,2.41H89.31l2.05,1.49-.78,2.41,2.05-1.49,2.05,1.49-.78-2.41Zm14.29,0,2.05-1.49h-2.54l-.78-2.41-.78,2.41H103.6l2.05,1.49-.78,2.41,2.05-1.49L109,60.22l-.78-2.41ZM72.86,100.37l2.05-1.49H72.37l-.79-2.41-.78,2.41H68.27l2.05,1.49-.78,2.41,2.05-1.49,2.05,1.49-.78-2.41ZM71.59,100h0Zm1-11.48L74.63,87H72.09l-.78-2.41L70.52,87H68L70,88.48l-.78,2.41,2.05-1.49,2.05,1.49-.78-2.41Zm.07-11.83,2.05-1.49H72.16l-.78-2.41-.78,2.41H68.06l2.05,1.49-.78,2.41,2.05-1.49,2.05,1.49-.78-2.41Zm49.83-18.84,2.05-1.49H122l-.79-2.41-.78,2.41h-2.54l2.05,1.49-.78,2.41,2.05-1.49,2.05,1.49-.78-2.41Zm14.29,0,2.05-1.49h-2.54l-.78-2.41-.78,2.41h-2.54l2.05,1.49-.78,2.41,2.05-1.49,2.05,1.49-.78-2.41ZM86.94,76.65,89,75.15H86.45l-.78-2.41-.78,2.41H82.35l2.05,1.49-.78,2.41,2.05-1.49,2.05,1.49-.78-2.41Zm-.07,11.83L88.91,87H86.38l-.79-2.41L84.81,87H82.27l2.05,1.49-.79,2.41,2.05-1.49,2.05,1.49-.78-2.41Zm.28,11.9,2.05-1.49H86.66l-.78-2.41-.78,2.41H82.55l2.05,1.49-.78,2.41,2.05-1.49,2.05,1.49-.78-2.41ZM85.88,100h0Zm15.56.41,2.05-1.49h-2.54l-.78-2.41-.79,2.41H96.84l2.05,1.49-.78,2.41,2.05-1.49,2.05,1.49-.78-2.41Zm-.28-11.9L103.2,87h-2.54l-.78-2.41L99.09,87H96.56l2.05,1.49-.78,2.41,2.05-1.49,2.05,1.49-.79-2.41Zm.07-11.83,2.05-1.49h-2.54L100,72.74l-.78,2.41H96.63l2.05,1.49-.78,2.41L100,77.57,102,79.06l-.78-2.41ZM72.48,63.93l2.05-1.49H72L71.21,60l-.78,2.41H67.88l2.05,1.49-.78,2.41,2.05-1.49,2.05,1.49-.78-2.41Zm14.29,0,2.05-1.49H86.28L85.49,60l-.78,2.41H82.17l2.05,1.49-.78,2.41,2.05-1.49,2.05,1.49-.78-2.41Zm28.75,12.72,2.05-1.49H115l-.78-2.41-.78,2.41h-2.54L113,76.65l-.78,2.41,2.05-1.49,2.05,1.49-.78-2.41Zm-.07,11.83L117.49,87h-2.54l-.78-2.41L113.38,87h-2.54l2.05,1.49-.78,2.42,2.05-1.49,2.05,1.49-.78-2.41Zm.28,11.9,2.05-1.49h-2.54l-.78-2.41-.78,2.41h-2.54l2.05,1.49-.78,2.41,2.05-1.49,2.05,1.49-.78-2.41Zm14.29,0,2.05-1.49h-2.54l-.79-2.41L128,98.88h-2.54l2.05,1.49-.78,2.41,2.05-1.49,2.05,1.49-.78-2.41Zm-1.27-.41h0Zm1-11.48L131.77,87h-2.54l-.78-2.41L127.67,87h-2.54l2.05,1.49-.78,2.41,2.05-1.49,2.05,1.49-.78-2.41Zm.07-11.83,2.05-1.49h-2.54l-.78-2.41-.78,2.41H125.2l2.05,1.49-.78,2.41,2.05-1.49,2.05,1.49-.78-2.41ZM101,63.93l2.05-1.49h-2.54L99.78,60,99,62.44H96.46l2.05,1.49-.78,2.41,2.05-1.49,2.05,1.49L101,63.93Zm14.29,0,2.05-1.49h-2.54L114.07,60l-.78,2.41h-2.54l2.05,1.49L112,66.34l2.05-1.49,2.05,1.49-.78-2.41Zm14.29,0,2.05-1.49h-2.54L128.35,60l-.78,2.41H125l2.05,1.49-.79,2.41,2.05-1.49,2.05,1.49-.78-2.41ZM65.71,106.5,67.77,105H65.23l-.78-2.41L63.66,105H61.13l2.05,1.49-.78,2.41,2.05-1.49,2.05,1.49-.78-2.41ZM65.43,94.6l2.05-1.49H64.95l-.78-2.41-.78,2.41H60.84l2.05,1.49L62.11,97l2.05-1.49L66.21,97l-.78-2.41Zm.07-11.83,2.05-1.49H65l-.78-2.41-.79,2.41H60.92L63,82.77l-.78,2.41,2.05-1.49,2.05,1.49-.78-2.41Zm14.29,0,2.05-1.49H79.31l-.78-2.41-.78,2.41H75.2l2.05,1.49-.78,2.41,2.05-1.49,2.05,1.49-.78-2.41ZM79.72,94.6l2.05-1.49H79.23l-.78-2.41-.78,2.41H75.13l2.05,1.49L76.4,97l2.05-1.49L80.5,97l-.79-2.41ZM80,106.5,82.05,105H79.52l-.78-2.41L77.95,105H75.41l2.05,1.49-.78,2.41,2.05-1.49,2.05,1.49L80,106.5Zm14.29,0L96.34,105H93.8L93,102.59,92.23,105H89.7l2.05,1.49L91,108.91,93,107.42l2.05,1.49-.78-2.41ZM94,94.6l2.05-1.49H93.52l-.78-2.41L92,93.11H89.41l2.05,1.49L90.68,97l2.05-1.49L94.79,97,94,94.6Zm.07-11.83,2.05-1.49H93.59l-.79-2.41L92,81.28H89.49l2.05,1.49-.78,2.41,2.05-1.49,2.05,1.49-.78-2.41ZM65.33,70.05l2.05-1.49H64.85l-.78-2.42-.79,2.42H60.74l2.05,1.49L62,72.46,64.06,71l2.05,1.49-.78-2.41Zm14.29,0,2.05-1.49H79.14l-.78-2.42-.78,2.42H75l2.05,1.49-.78,2.41L78.35,71l2.05,1.49-.78-2.41Zm28.75,12.72,2.05-1.49h-2.54l-.78-2.41-.78,2.41h-2.54l2.05,1.49L105,85.18l2.05-1.49,2.05,1.49-.78-2.41Zm-.07,11.83,2.05-1.49h-2.54L107,90.7l-.78,2.41H103.7l2.05,1.49L105,97,107,95.52,109.07,97l-.78-2.41Zm.28,11.9,2.05-1.49h-2.54l-.78-2.41-.78,2.41H104L106,106.5l-.78,2.41,2.05-1.49,2.05,1.49-.78-2.41Zm14.29,0,2.05-1.49h-2.54l-.78-2.41-.78,2.41h-2.54l2.05,1.49-.78,2.41,2.05-1.49,2.05,1.49-.78-2.41Zm14.29,0L139.2,105h-2.54l-.78-2.41L135.1,105h-2.54l2.05,1.49-.78,2.41,2.05-1.49,2.05,1.49-.78-2.41ZM122.58,94.6l2.05-1.49h-2.54l-.78-2.41-.78,2.41H118L120,94.6,119.26,97l2.05-1.49L123.36,97l-.78-2.41Zm14.29,0,2.05-1.49h-2.54l-.78-2.41-.79,2.41h-2.54l2.05,1.49L133.54,97l2.05-1.49L137.65,97l-.78-2.41ZM122.65,82.77l2.05-1.49h-2.54l-.79-2.41-.79,2.41h-2.54l2.05,1.49-.78,2.41,2.05-1.49,2.05,1.49-.78-2.41Zm14.29,0L139,81.28h-2.54l-.78-2.41-.79,2.41h-2.54l2.05,1.49-.78,2.41,2.05-1.49,2.05,1.49-.78-2.41Zm-43-12.72L96,68.56H93.42l-.78-2.42-.78,2.42H89.31l2.05,1.49-.78,2.41L92.64,71l2.05,1.49-.78-2.41Zm14.29,0,2.05-1.49h-2.54l-.78-2.42-.79,2.42H103.6l2.05,1.49-.78,2.41L106.92,71,109,72.46l-.78-2.41Zm14.29,0,2.05-1.49H122l-.79-2.42-.78,2.42h-2.54l2.05,1.49-.78,2.41L121.21,71l2.05,1.49Z" transform="translate(-56.69 -51.36)"/></svg>