<?xml version="1.0" encoding="utf-8"?>
<!-- Generator: Adobe Illustrator 21.1.0, SVG Export Plug-In . SVG Version: 6.00 Build 0)  -->
<svg version="1.1" id="Layer_1" xmlns="http://www.w3.org/2000/svg" xmlns:xlink="http://www.w3.org/1999/xlink" x="0px" y="0px"
	 viewBox="0 0 89 89" style="enable-background:new 0 0 89 89;" xml:space="preserve">
<style type="text/css">
	.st0{fill:none;enable-background:new    ;}
	.st1{fill:#77A22F;}
</style>
<path class="st0" d="z"/>
<g>
	<path class="st1" d="M44.5,32C37.6,32,32,37.6,32,44.5C32,51.4,37.6,57,44.5,57C51.4,57,57,51.4,57,44.5S51.4,32,44.5,32z"/>
	<path class="st1" d="M73.6,0H15.4C6.9,0,0,6.9,0,15.4v58.2C0,82.1,6.9,89,15.4,89h58.2C82.1,89,89,82.1,89,73.6V15.4
		C89,6.9,82.1,0,73.6,0z M44.5,70.2c-14.2,0-25.7-11.5-25.7-25.7s11.5-25.7,25.7-25.7s25.7,11.5,25.7,25.7S58.6,70.2,44.5,70.2z
		 M79.6,15.7c0,3.5-2.9,6.4-6.4,6.4l0,0c-3.5,0-6.4-2.9-6.4-6.4l0,0c0-3.5,2.9-6.4,6.4-6.4l0,0C76.7,9.4,79.6,12.2,79.6,15.7
		L79.6,15.7z"/>
</g>
</svg>
