<?xml version="1.0" encoding="utf-8"?>
<!-- Generator: Adobe Illustrator 21.1.0, SVG Export Plug-In . SVG Version: 6.00 Build 0)  -->
<svg version="1.1" id="Android" xmlns="http://www.w3.org/2000/svg" xmlns:xlink="http://www.w3.org/1999/xlink" x="0px" y="0px"
	 viewBox="0 0 273 74" style="enable-background:new 0 0 273 74;" xml:space="preserve">
<style type="text/css">
	.st0{fill:#78A22F;}
	.st1{opacity:0.94;enable-background:new    ;}
	.st2{fill:#FFFFFF;}
	.st3{opacity:0.5;fill:#FAFAFA;enable-background:new    ;}
</style>
<path id="Rounded_Rectangle_4_copy_2" class="st0" d="M5,0h263c2.8,0,5,2.2,5,5v64c0,2.8-2.2,5-5,5H5c-2.8,0-5-2.2-5-5V5
	C0,2.2,2.2,0,5,0z"/>
<g id="App_Store" class="st1">
	<path class="st2" d="M94.9,41.8l4.9-12.9h1.8l5.3,12.9H105l-1.5-3.9h-5.4l-1.4,3.9H94.9z M98.6,36.5h4.4l-1.3-3.6
		c-0.4-1.1-0.7-2-0.9-2.7c-0.2,0.8-0.4,1.6-0.7,2.5L98.6,36.5z"/>
	<path class="st2" d="M108.1,41.8V28.9h1.7l6.8,10.1V28.9h1.6v12.9h-1.7l-6.8-10.1v10.1H108.1z"/>
	<path class="st2" d="M120.9,41.8V28.9h4.4c1,0,1.8,0.1,2.3,0.2c0.7,0.2,1.4,0.5,1.9,0.9c0.7,0.6,1.2,1.3,1.5,2.2s0.5,1.9,0.5,3.1
		c0,1-0.1,1.8-0.3,2.6c-0.2,0.8-0.5,1.4-0.9,1.9s-0.7,0.9-1.2,1.2s-0.9,0.5-1.5,0.6s-1.3,0.2-2.1,0.2H120.9z M122.6,40.3h2.8
		c0.8,0,1.5-0.1,2-0.2s0.9-0.4,1.2-0.7c0.4-0.4,0.7-0.9,0.9-1.6s0.3-1.5,0.3-2.5c0-1.3-0.2-2.4-0.7-3.1s-1-1.2-1.6-1.5
		c-0.5-0.2-1.2-0.3-2.2-0.3h-2.7V40.3z"/>
	<path class="st2" d="M133.8,41.8V28.9h5.7c1.1,0,2,0.1,2.6,0.3s1.1,0.6,1.4,1.2s0.5,1.2,0.5,1.9c0,0.9-0.3,1.7-0.9,2.3
		s-1.5,1-2.7,1.2c0.5,0.2,0.8,0.4,1,0.6c0.5,0.5,1,1,1.4,1.7l2.2,3.5H143l-1.7-2.7c-0.5-0.8-0.9-1.4-1.2-1.8s-0.6-0.7-0.9-0.9
		s-0.5-0.3-0.8-0.3c-0.2,0-0.5-0.1-0.9-0.1h-2v5.7H133.8z M135.5,34.6h3.7c0.8,0,1.4-0.1,1.8-0.2s0.8-0.4,1-0.8s0.3-0.7,0.3-1.2
		c0-0.6-0.2-1.1-0.7-1.5s-1.1-0.6-2.1-0.6h-4.1V34.6z"/>
	<path class="st2" d="M146.1,35.5c0-2.1,0.6-3.8,1.7-5s2.6-1.8,4.4-1.8c1.2,0,2.3,0.3,3.2,0.9s1.7,1.4,2.2,2.4s0.8,2.2,0.8,3.5
		c0,1.3-0.3,2.5-0.8,3.5c-0.5,1-1.3,1.8-2.2,2.3s-2,0.8-3.1,0.8c-1.2,0-2.3-0.3-3.3-0.9s-1.7-1.4-2.2-2.4
		C146.3,37.7,146.1,36.7,146.1,35.5z M147.8,35.6c0,1.6,0.4,2.8,1.3,3.7s1.9,1.3,3.1,1.3c1.3,0,2.3-0.5,3.2-1.4s1.2-2.2,1.2-3.8
		c0-1-0.2-2-0.5-2.7s-0.9-1.4-1.6-1.8s-1.4-0.6-2.3-0.6c-1.2,0-2.2,0.4-3.1,1.2S147.8,33.6,147.8,35.6z"/>
	<path class="st2" d="M160.7,41.8V28.9h1.7v12.9H160.7z"/>
	<path class="st2" d="M165.2,41.8V28.9h4.4c1,0,1.8,0.1,2.3,0.2c0.7,0.2,1.4,0.5,1.9,0.9c0.7,0.6,1.2,1.3,1.5,2.2s0.5,1.9,0.5,3.1
		c0,1-0.1,1.8-0.3,2.6c-0.2,0.8-0.5,1.4-0.9,1.9s-0.7,0.9-1.2,1.2s-0.9,0.5-1.5,0.6s-1.3,0.2-2.1,0.2H165.2z M166.9,40.3h2.8
		c0.8,0,1.5-0.1,2-0.2s0.9-0.4,1.2-0.7c0.4-0.4,0.7-0.9,0.9-1.6s0.3-1.5,0.3-2.5c0-1.3-0.2-2.4-0.7-3.1s-1-1.2-1.6-1.5
		c-0.5-0.2-1.2-0.3-2.2-0.3h-2.7V40.3z"/>
	<path class="st2" d="M182.8,41.8V28.9h2.6l3,9.1c0.3,0.8,0.5,1.5,0.6,1.9c0.1-0.5,0.4-1.2,0.7-2.1l3.1-9h2.3v12.9h-1.6V31
		l-3.7,10.8h-1.5l-3.7-11v11H182.8z"/>
	<path class="st2" d="M196.3,41.8l4.9-12.9h1.8l5.3,12.9h-1.9l-1.5-3.9h-5.4l-1.4,3.9H196.3z M200,36.5h4.4l-1.3-3.6
		c-0.4-1.1-0.7-2-0.9-2.7c-0.2,0.8-0.4,1.6-0.7,2.5L200,36.5z"/>
	<path class="st2" d="M209.5,41.8V28.9h5.7c1.1,0,2,0.1,2.6,0.3s1.1,0.6,1.4,1.2s0.5,1.2,0.5,1.9c0,0.9-0.3,1.7-0.9,2.3
		s-1.5,1-2.7,1.2c0.5,0.2,0.8,0.4,1,0.6c0.5,0.5,1,1,1.4,1.7l2.2,3.5h-2.1l-1.7-2.7c-0.5-0.8-0.9-1.4-1.2-1.8s-0.6-0.7-0.9-0.9
		s-0.5-0.3-0.8-0.3c-0.2,0-0.5-0.1-0.9-0.1h-2v5.7H209.5z M211.2,34.6h3.7c0.8,0,1.4-0.1,1.8-0.2s0.8-0.4,1-0.8s0.3-0.7,0.3-1.2
		c0-0.6-0.2-1.1-0.7-1.5s-1.1-0.6-2.1-0.6h-4.1V34.6z"/>
	<path class="st2" d="M222.2,41.8V28.9h1.7v6.4l6.4-6.4h2.3l-5.4,5.2l5.6,7.7h-2.2l-4.6-6.5l-2.1,2.1v4.5H222.2z"/>
	<path class="st2" d="M234.2,41.8V28.9h9.3v1.5h-7.6v3.9h7.1v1.5h-7.1v4.4h7.9v1.5H234.2z"/>
	<path class="st2" d="M249.2,41.8V30.4H245v-1.5h10.2v1.5H251v11.4H249.2z"/>
</g>
<rect id="Divider" x="76" class="st3" width="1" height="74"/>
<path id="Android_Logo" class="st2" d="M52.4,45.1c-1.3,0-2.4-1.1-2.4-2.4v-10c0-1.3,1.1-2.4,2.4-2.4c1.3,0,2.4,1.1,2.4,2.4l0,0v10
	C54.8,44,53.7,45.1,52.4,45.1C52.4,45.1,52.4,45.1,52.4,45.1z M46.3,48.7h-1.1v5.1c0,1.3-1.1,2.4-2.4,2.4c-1.3,0-2.4-1.1-2.4-2.4
	v-5.1h-3.2v5.1c0,1.3-1.1,2.4-2.4,2.4c-1.3,0-2.4-1.1-2.4-2.4v-5.1h-1.1c-1.2,0-2.3-0.7-2.8-1.7h-0.3v-0.7c-0.1-0.2-0.1-0.5-0.1-0.8
	V31.4h0.1v0h20.5V47h-0.3C48.3,48,47.3,48.8,46.3,48.7L46.3,48.7z M48.7,30.1H28.2c0.2-3.5,2.2-6.6,5.2-8.3l-2-3.4l1-0.6l2.2,3.3
	c1.3-0.6,2.8-0.9,4.2-0.9c1.5,0,2.9,0.3,4.2,0.9l2-3.2l1.1,0.5l-1.9,3.4C46.9,23.8,48.6,26.8,48.7,30.1L48.7,30.1z M34.1,24.4
	c-0.6,0-1.1,0.5-1.1,1.1c0,0.6,0.5,1.1,1.1,1.1c0.6,0,1.1-0.5,1.1-1.1C35.2,24.9,34.7,24.4,34.1,24.4C34.1,24.4,34.1,24.4,34.1,24.4
	z M43.6,24.5c-0.6,0-1.1,0.5-1,1.1c0,0.6,0.5,1.1,1.1,1c0.6,0,1-0.5,1-1.1C44.7,24.9,44.2,24.5,43.6,24.5
	C43.6,24.5,43.6,24.5,43.6,24.5L43.6,24.5z M24.4,45.1c-1.5,0-2.1-1.2-2.1-2.6V33c0-1.5,0.6-2.6,2.1-2.6c1.5,0,2.7,1.2,2.7,2.6v9.5
	C27.1,43.9,25.9,45.1,24.4,45.1z"/>
</svg>
