<?xml version="1.0" encoding="utf-8"?>
<!-- Generator: Adobe Illustrator 21.1.0, SVG Export Plug-In . SVG Version: 6.00 Build 0)  -->
<svg version="1.1" id="Layer_1" xmlns="http://www.w3.org/2000/svg" xmlns:xlink="http://www.w3.org/1999/xlink" x="0px" y="0px"
	 viewBox="0 0 89 89" style="enable-background:new 0 0 89 89;" xml:space="preserve">
<style type="text/css">
	.st0{fill:none;enable-background:new    ;}
	.st1{fill:#77A22F;}
</style>
<path class="st0" d="z"/>
<path class="st1" d="M89,15.9c0,19,0,38.1,0,57.1c-1.9,8.7-7.3,14-15.9,15.9c-19,0-38.1,0-57.1,0C7.3,87.1,1.9,81.7,0,73.1
	C0,54,0,35,0,15.9C1.9,7.3,7.3,1.9,15.9,0C35,0,54,0,73.1,0C81.7,1.9,87.1,7.3,89,15.9z M74.1,70.4c0-9.1,0.2-18-0.1-26.9
	c-0.2-6.9-4.1-12-9.8-13.3c-5.9-1.4-11.1,0.1-15.2,4.8c-0.2,0.2-0.4,0.4-0.9,0.8c0-2.2,0-4.1,0-6c-3.8,0-7.4,0-10.9,0
	c0,13.6,0,27,0,40.5c3.7,0,7.3,0,11,0c0-6.7-0.1-13.3,0.1-19.9c0-1.9,0.4-3.9,1.1-5.5c1.3-2.9,3.8-4.3,7-4.1c3.1,0.2,5,2.1,5.9,4.9
	c0.5,1.5,0.7,3.1,0.7,4.7c0.1,5.5,0,11,0,16.5c0,1.2,0,2.3,0,3.5C66.8,70.4,70.4,70.4,74.1,70.4z M18.7,29.7c0,13.6,0,27.1,0,40.6
	c3.7,0,7.2,0,10.9,0c0-13.6,0-27.1,0-40.6C25.9,29.7,22.4,29.7,18.7,29.7z M30.5,18.5c0-3.6-2.8-6.5-6.4-6.6c-3.5,0-6.5,2.9-6.5,6.5
	c0,3.6,2.8,6.5,6.4,6.5C27.7,24.9,30.5,22.1,30.5,18.5z"/>
</svg>
