<?xml version="1.0" encoding="utf-8"?>
<!-- Generator: Adobe Illustrator 21.1.0, SVG Export Plug-In . SVG Version: 6.00 Build 0)  -->
<svg version="1.1" id="Layer_1" xmlns="http://www.w3.org/2000/svg" xmlns:xlink="http://www.w3.org/1999/xlink" x="0px" y="0px"
	 viewBox="0 0 89 89" style="enable-background:new 0 0 89 89;" xml:space="preserve">
<style type="text/css">
	.st0{fill:none;enable-background:new    ;}
	.st1{fill:#77A22F;}
</style>
<path class="st0" d="z"/>
<path class="st1" d="M73.6,0H15.4C6.9,0,0,6.9,0,15.4v58.2C0,82.1,6.9,89,15.4,89h31.9c0-0.1,0-0.2,0-0.3c0-11,0-21.9,0-32.9
	c0-0.4,0.1-0.4-0.4-0.4c-3.5,0-7,0-10.6,0c-0.1,0-0.2,0-0.4,0c0-4.4,0-8.7,0-13.1c0.1,0,0.2,0,0.3,0c3.5,0,7,0,10.6,0
	c0.4,0,0.4,0,0.4-0.4c0-3.1,0-6.1,0-9.2c0-2.1,0.2-4.2,0.8-6.3c0.8-2.9,2.3-5.3,4.6-7.3c1.8-1.6,4-2.6,6.3-3.2
	c1.7-0.4,3.4-0.6,5.1-0.6c1.2,0,2.5,0,3.7,0.1c1.4,0.1,2.9,0.2,4.3,0.3c0.7,0,1.4,0.1,2,0.2c0,3.9,0,7.8,0,11.8c-0.1,0-0.2,0-0.3,0
	c-2.2,0-4.4,0-6.6,0c-1,0-2,0.1-3,0.3c-1.9,0.5-3,1.7-3.3,3.7c-0.1,0.7-0.2,1.4-0.2,2.1c0,2.8,0,5.6,0,8.4c0,0.2,0.1,0.2,0.3,0.2
	c4.1,0,8.2,0,12.3,0c0.1,0,0.2,0,0.3,0c0,0.3-0.1,0.6-0.1,0.9c-0.1,1.1-0.3,2.3-0.4,3.4c-0.2,1.2-0.3,2.4-0.5,3.7
	c-0.2,1.2-0.3,2.4-0.5,3.7c-0.1,0.5-0.1,0.9-0.2,1.4c0,0.1-0.1,0.1-0.2,0.2c-0.1,0-0.2,0-0.2,0c-3.5,0-7,0-10.5,0
	c-0.3,0-0.3,0-0.3,0.3c0,11,0,22.1,0,33.1c0,0,0,0,0,0.1h12.8C82.1,89,89,82.1,89,73.6V15.4C89,6.9,82.1,0,73.6,0z"/>
</svg>
