<?xml version="1.0" encoding="utf-8"?>
<!-- Generator: Adobe Illustrator 21.1.0, SVG Export Plug-In . SVG Version: 6.00 Build 0)  -->
<svg version="1.1" id="Layer_1" xmlns="http://www.w3.org/2000/svg" xmlns:xlink="http://www.w3.org/1999/xlink" x="0px" y="0px"
	 viewBox="0 0 106 74" style="enable-background:new 0 0 106 74;" xml:space="preserve">
<style type="text/css">
	.st0{fill:none;enable-background:new    ;}
	.st1{fill:#77A22F;}
</style>
<path class="st0" d="z"/>
<g>
	<path class="st1" d="M101.3,14.5c-1.2-5.3-5.6-9.2-10.8-9.8C78.1,3.2,65.5,3.2,53,3.2c-12.5,0-25,0-37.4,1.4
		C10.3,5.2,6,9.1,4.8,14.5C3,22,3,30.3,3,38.1s0,16.1,1.7,23.6C6,67,10.3,71,15.5,71.6c12.4,1.4,25,1.4,37.4,1.4
		c12.5,0,25,0,37.4-1.4c5.2-0.6,9.6-4.5,10.8-9.8c1.7-7.6,1.7-15.8,1.7-23.6C103,30.3,103,22,101.3,14.5z M40.1,53.6
		c0-11.1,0-22,0-33.1c10.6,5.5,21.1,11,31.8,16.6C61.3,42.6,50.7,48.1,40.1,53.6z"/>
</g>
</svg>
