<svg width="15" height="15" viewBox="0 0 15 15" fill="none" xmlns="http://www.w3.org/2000/svg">
<circle cx="7.5" cy="7.5" r="7.5" fill="#78A22F"/>
<g clip-path="url(#clip0_768_154)">
<path d="M6.35788 9.90169L4.03645 7.72253C3.9695 7.65966 3.93188 7.57441 3.93188 7.48551C3.93188 7.39661 3.9695 7.31136 4.03645 7.24849L4.54145 6.77444C4.60843 6.71158 4.69925 6.67628 4.79395 6.67628C4.88865 6.67628 4.97948 6.71158 5.04645 6.77444L6.60788 8.24218L9.95788 5.09816C10.0249 5.03531 10.1157 5 10.2104 5C10.3051 5 10.3959 5.03531 10.4629 5.09816L10.9679 5.57221C11.0348 5.63508 11.0724 5.72033 11.0724 5.80923C11.0724 5.89813 11.0348 5.98339 10.9679 6.04626L6.85788 9.90169C6.79091 9.96455 6.70008 9.99986 6.60538 9.99986C6.51068 9.99986 6.41985 9.96455 6.35288 9.90169H6.35788Z" fill="white"/>
</g>
<defs>
<clipPath id="clip0_768_154">
<rect width="7.14286" height="5" fill="white" transform="translate(3.92908 5)"/>
</clipPath>
</defs>
</svg>