<svg xmlns="http://www.w3.org/2000/svg" viewBox="0 0 34 33" width="34" height="33">
	<style>
		tspan { white-space:pre }
		.shp0 { fill: #000000 } 
	</style>
	<g id="Layer_2">
		<g id="Layer_1-2">
			<path id="Layer" fill-rule="evenodd" class="shp0" d="M33.69 30.72C33.74 30.83 33.77 30.95 33.77 31.07C33.77 31.19 33.76 31.31 33.71 31.42C33.67 31.54 33.61 31.64 33.53 31.73L32.53 32.73C32.44 32.82 32.34 32.89 32.22 32.93C32.11 32.98 31.99 33.01 31.87 33.01C31.74 33.01 31.62 32.98 31.51 32.93C31.39 32.89 31.29 32.82 31.2 32.73L22.94 24.47C17.36 29.26 9.01 28.87 3.9 23.58C-1.21 18.29 -1.31 9.94 3.67 4.53C8.65 -0.89 16.99 -1.48 22.68 3.18C28.38 7.84 29.45 16.12 25.14 22.08L33.49 30.43C33.58 30.51 33.64 30.61 33.69 30.72ZM13.91 24C15.23 23.99 16.54 23.73 17.77 23.22C18.99 22.71 20.1 21.97 21.03 21.03C21.97 20.1 22.71 18.99 23.22 17.77C23.73 16.54 23.99 15.23 24 13.91C24.02 9.81 21.55 6.1 17.77 4.52C13.98 2.94 9.61 3.8 6.71 6.71C3.8 9.61 2.94 13.98 4.52 17.77C6.1 21.55 9.81 24.02 13.91 24Z" />
		</g>
	</g>
</svg>