<svg xmlns="http://www.w3.org/2000/svg" viewBox="0 0 110.99 111"><defs><style>.cls-1{fill:#fff;}</style></defs><title>Asset 1</title><g id="Layer_2" data-name="Layer 2"><g id="Layer_1-2" data-name="Layer 1"><path class="cls-1" d="M90.19,79.78h-52a6.94,6.94,0,0,1-6.61-4.84L12.26,13.88H6.94A6.94,6.94,0,0,1,0,6.94H0A6.94,6.94,0,0,1,6.94,0H17.34A6.94,6.94,0,0,1,24,4.84l5,16h75.06a6.94,6.94,0,0,1,6.63,9L96.81,74.88A6.94,6.94,0,0,1,90.19,79.78Z"/><circle class="cls-1" cx="45.09" cy="100.59" r="10.41"/><circle class="cls-1" cx="83.25" cy="100.59" r="10.41"/></g></g></svg>