<svg xmlns="http://www.w3.org/2000/svg" viewBox="0 0 34 33" width="34" height="33">
	<style>
		tspan { white-space:pre }
		.shp0 { fill: #ffffff } 
	</style>
	<g id="Layer_2">
		<g id="Layer_1-2">
			<path id="Layer" class="shp0" d="M33.69,30.72c0.05,0.11 0.07,0.23 0.08,0.35c0,0.12 -0.02,0.24 -0.06,0.35c-0.04,0.11 -0.1,0.22 -0.18,0.31l-1,1c-0.09,0.09 -0.19,0.16 -0.31,0.2c-0.11,0.05 -0.24,0.07 -0.36,0.07c-0.12,0 -0.25,-0.02 -0.36,-0.07c-0.11,-0.05 -0.22,-0.12 -0.31,-0.2l-8.26,-8.26c-5.58,4.79 -13.93,4.4 -19.04,-0.89c-5.11,-5.29 -5.21,-13.65 -0.23,-19.06c4.98,-5.41 13.32,-6 19.01,-1.35c5.69,4.66 6.77,12.94 2.46,18.9l8.35,8.35c0.09,0.08 0.15,0.18 0.2,0.29zM13.91,24c1.32,-0.01 2.63,-0.27 3.86,-0.78c1.22,-0.51 2.33,-1.25 3.27,-2.19c0.94,-0.94 1.68,-2.05 2.19,-3.27c0.51,-1.22 0.77,-2.53 0.78,-3.86c0.02,-4.1 -2.45,-7.81 -6.23,-9.39c-3.79,-1.58 -8.16,-0.71 -11.06,2.19c-2.9,2.9 -3.77,7.27 -2.19,11.06c1.58,3.79 5.29,6.25 9.39,6.23z" />
		</g>
	</g>
</svg>