<svg xmlns="http://www.w3.org/2000/svg" width="21.142" height="14.737" viewBox="0 0 21.142 14.737"><defs><style>.a{fill:#fff;}</style></defs><path class="a" d="M11.939,23.88V37.795a.411.411,0,0,0,.411.411H32.669a.411.411,0,0,0,.411-.411V23.88a.411.411,0,0,0-.411-.411H12.35A.411.411,0,0,0,11.939,23.88Zm19.03,12.625H14.051a.411.411,0,0,1-.411-.411V28.48a.411.411,0,0,1,.613-.359l8.056,4.53a.412.412,0,0,0,.4,0l8.056-4.53a.411.411,0,0,1,.613.359v7.614A.411.411,0,0,1,30.969,36.506Zm.2-10.566L22.711,30.7a.412.412,0,0,1-.4,0l-8.459-4.757a.411.411,0,0,1-.21-.358h0a.411.411,0,0,1,.411-.411H30.969a.411.411,0,0,1,.411.411h0A.411.411,0,0,1,31.171,25.939Z" transform="translate(-11.939 -23.469)"/></svg>