<svg xmlns="http://www.w3.org/2000/svg" width="34" height="34" viewBox="0 0 34 34"><defs><style>.a{fill:#78a22f;}.b,.d{fill:none;}.b{stroke:#7aa530;stroke-width:3px;}.c{stroke:none;}</style></defs><g transform="translate(-851 -517)"><path class="a" d="M5.349,76.863.231,71.633a.817.817,0,0,1,0-1.138l1.114-1.138a.776.776,0,0,1,1.114,0L5.906,72.88l7.385-7.546a.776.776,0,0,1,1.114,0l1.114,1.138a.817.817,0,0,1,0,1.138L6.463,76.863a.776.776,0,0,1-1.114,0Z" transform="translate(860 462.902)"/><g class="b" transform="translate(851 517)"><circle class="c" cx="17" cy="17" r="17"/><circle class="d" cx="17" cy="17" r="15.5"/></g></g></svg>