<svg width="22" height="25" viewBox="0 0 22 25" fill="none" xmlns="http://www.w3.org/2000/svg">
<path fill-rule="evenodd" clip-rule="evenodd" d="M12.3418 0.791139C12.3418 0.354205 11.9876 0 11.5506 0H3.16456C1.41682 0 0 1.41682 0 3.16456V21.8354C0 23.5832 1.41682 25 3.16456 25H11.5506C11.9876 25 12.3418 24.6458 12.3418 24.2089C12.3418 23.7719 11.9876 23.4177 11.5506 23.4177H3.16456C2.29069 23.4177 1.58228 22.7093 1.58228 21.8354V3.16456C1.58228 2.29069 2.29069 1.58228 3.16456 1.58228H11.5506C11.9876 1.58228 12.3418 1.22807 12.3418 0.791139Z" fill="#78A22F"/>
<path d="M21.2409 13.3295C21.6117 12.9588 21.6117 12.3577 21.2409 11.9869L15.1992 5.94519C14.8284 5.57444 14.2273 5.57444 13.8566 5.94519C13.4858 6.31595 13.4858 6.91705 13.8566 7.2878L19.227 12.6582L13.8566 18.0287C13.4858 18.3994 13.4858 19.0005 13.8566 19.3713C14.2273 19.742 14.8284 19.742 15.1992 19.3713L21.2409 13.3295ZM6.01266 13.6076H20.5696V11.7089H6.01266V13.6076Z" fill="#78A22F"/>
</svg>
