<svg width="24" height="20" viewBox="0 0 24 20" fill="none" xmlns="http://www.w3.org/2000/svg">
<path d="M23.7758 18.503C23.6905 18.4137 23.5883 18.3427 23.4751 18.2942C23.3619 18.2457 23.2401 18.2209 23.1172 18.221H22.0965V6.231H23.2055C23.3255 6.23033 23.4433 6.19802 23.5471 6.1373C23.6509 6.07657 23.7372 5.98954 23.7973 5.88483C23.8575 5.78011 23.8895 5.66137 23.89 5.54036C23.8906 5.41935 23.8598 5.3003 23.8006 5.19501L21.0827 0.352005C21.0231 0.245654 20.9366 0.157077 20.8321 0.0952606C20.7276 0.0334446 20.6087 0.000582088 20.4875 0H3.51248C3.39126 0.000376941 3.2723 0.0331643 3.16774 0.0950012C3.06319 0.156838 2.97678 0.245518 2.91731 0.352005L0.199399 5.19501C0.140246 5.3003 0.109429 5.41935 0.110007 5.54036C0.110585 5.66137 0.142513 5.78011 0.202669 5.88483C0.262824 5.98954 0.349101 6.07657 0.452924 6.1373C0.556747 6.19802 0.67451 6.23033 0.794539 6.231H1.90354V18.222H0.881843C0.647965 18.222 0.423654 18.3157 0.258277 18.4824C0.0929013 18.6491 0 18.8752 0 19.111C0 19.3468 0.0929013 19.5729 0.258277 19.7396C0.423654 19.9063 0.647965 20 0.881843 20H23.1172C23.2333 20.0012 23.3485 19.979 23.4561 19.9348C23.5636 19.8905 23.6613 19.8251 23.7434 19.7423C23.8255 19.6595 23.8904 19.561 23.9343 19.4526C23.9782 19.3442 24.0002 19.2281 23.999 19.111C24.0052 18.9996 23.9886 18.8882 23.9502 18.7836C23.9118 18.679 23.8524 18.5835 23.7758 18.503ZM4.19592 1.784H19.8071L21.2037 4.451H2.79728L4.19592 1.784ZM3.65926 18.222C3.65926 16.589 3.65926 10.07 3.65926 6.231H11.3726L5.19579 14.759C5.17965 14.7809 5.17036 14.8072 5.16912 14.8344C5.16788 14.8617 5.17477 14.8887 5.18886 14.912L7.21339 18.222H3.65926ZM14.4923 18.169C14.4813 18.1839 14.4673 18.1963 14.4512 18.2055C14.4352 18.2146 14.4174 18.2202 14.399 18.222H13.0143C12.9875 18.2172 12.963 18.2041 12.944 18.1846C12.9249 18.165 12.9124 18.14 12.9081 18.113L12.3983 11.991C12.3941 11.9576 12.3781 11.9269 12.353 11.9046C12.328 11.8823 12.2958 11.87 12.2624 11.87H11.8091C11.7872 11.8699 11.7657 11.875 11.7462 11.8849C11.7267 11.8948 11.7098 11.9092 11.697 11.927L9.55932 14.986C9.54408 15.0078 9.53541 15.0335 9.53435 15.0601C9.53329 15.0867 9.53992 15.1131 9.55339 15.136L9.86189 15.653C9.88098 15.6844 9.91164 15.7069 9.94716 15.7155C9.98269 15.7242 10.0201 15.7182 10.0513 15.699L10.9361 15.122C10.9577 15.1078 10.9829 15.1001 11.0086 15.0998C11.0344 15.0994 11.0597 15.1065 11.0817 15.1201C11.1036 15.1337 11.1213 15.1534 11.1326 15.1767C11.1439 15.2001 11.1483 15.2262 11.1454 15.252L11.0334 18.112C11.0294 18.1392 11.0171 18.1645 10.9983 18.1843C10.9795 18.2042 10.955 18.2177 10.9282 18.223H9.59901C9.58063 18.2214 9.56281 18.2158 9.54673 18.2066C9.53065 18.1975 9.51669 18.185 9.50577 18.17L7.62109 15.021C7.60726 14.9976 7.60054 14.9707 7.60178 14.9435C7.60301 14.9163 7.61213 14.89 7.62803 14.868L11.8934 8.991C11.9038 8.97627 11.917 8.96379 11.9323 8.95428C11.9476 8.94478 11.9646 8.93845 11.9824 8.93565C12.0001 8.93286 12.0182 8.93367 12.0356 8.93802C12.0531 8.94237 12.0694 8.95018 12.0838 8.961C12.0953 8.96926 12.1054 8.9794 12.1136 8.991L16.374 14.868C16.3901 14.8899 16.3994 14.9162 16.4006 14.9434C16.4019 14.9707 16.395 14.9977 16.3809 15.021L14.4923 18.169ZM16.8422 18.222L18.8171 14.911C18.8309 14.8878 18.8375 14.861 18.8363 14.834C18.8351 14.8069 18.826 14.7809 18.8102 14.759L12.6324 6.231H20.3467V18.222H16.8422Z" fill="#78A22F"/>
</svg>
