<svg width="25" height="23" viewBox="0 0 25 23" fill="none" xmlns="http://www.w3.org/2000/svg">
<rect x="0.862071" y="5.52613" width="23.2759" height="16.5949" rx="1.29311" stroke="#78A22F" stroke-width="1.72414"/>
<line x1="25" y1="13.0694" x2="7.62939e-06" y2="13.0694" stroke="#78A22F" stroke-width="1.29311"/>
<mask id="path-3-outside-1_169_140" maskUnits="userSpaceOnUse" x="6.32764" y="0" width="12" height="5" fill="black">
<rect fill="white" x="6.32764" width="12" height="5"/>
<path fill-rule="evenodd" clip-rule="evenodd" d="M9.69833 2.07759H15.3847C16.0988 2.07759 16.6778 2.65653 16.6778 3.37069V4.66381H17.7554V3.37069C17.7554 2.0614 16.694 1 15.3847 1H9.69833C8.38903 1 7.32764 2.0614 7.32764 3.37069V4.66381H8.40522V3.37069C8.40522 2.65653 8.98417 2.07759 9.69833 2.07759Z"/>
</mask>
<path fill-rule="evenodd" clip-rule="evenodd" d="M9.69833 2.07759H15.3847C16.0988 2.07759 16.6778 2.65653 16.6778 3.37069V4.66381H17.7554V3.37069C17.7554 2.0614 16.694 1 15.3847 1H9.69833C8.38903 1 7.32764 2.0614 7.32764 3.37069V4.66381H8.40522V3.37069C8.40522 2.65653 8.98417 2.07759 9.69833 2.07759Z" fill="#78A22F"/>
<path d="M16.6778 4.66381H16.4622V4.87933H16.6778V4.66381ZM17.7554 4.66381V4.87933H17.9709V4.66381H17.7554ZM7.32764 4.66381H7.11212V4.87933H7.32764V4.66381ZM8.40522 4.66381V4.87933H8.62074V4.66381H8.40522ZM15.3847 1.86207H9.69833V2.29311H15.3847V1.86207ZM16.8933 3.37069C16.8933 2.53751 16.2178 1.86207 15.3847 1.86207V2.29311C15.9798 2.29311 16.4622 2.77556 16.4622 3.37069H16.8933ZM16.8933 4.66381V3.37069H16.4622V4.66381H16.8933ZM16.6778 4.87933H17.7554V4.44829H16.6778V4.87933ZM17.9709 4.66381V3.37069H17.5398V4.66381H17.9709ZM17.9709 3.37069C17.9709 1.94237 16.813 0.784482 15.3847 0.784482V1.21552C16.5749 1.21552 17.5398 2.18042 17.5398 3.37069H17.9709ZM15.3847 0.784482H9.69833V1.21552H15.3847V0.784482ZM9.69833 0.784482C8.27001 0.784482 7.11212 1.94237 7.11212 3.37069H7.54315C7.54315 2.18042 8.50806 1.21552 9.69833 1.21552V0.784482ZM7.11212 3.37069V4.66381H7.54315V3.37069H7.11212ZM7.32764 4.87933H8.40522V4.44829H7.32764V4.87933ZM8.18971 3.37069V4.66381H8.62074V3.37069H8.18971ZM9.69833 1.86207C8.86514 1.86207 8.18971 2.5375 8.18971 3.37069H8.62074C8.62074 2.77556 9.1032 2.29311 9.69833 2.29311V1.86207Z" fill="#78A22F" mask="url(#path-3-outside-1_169_140)"/>
<path d="M9.91382 13.2847H15.0862V14.5778C15.0862 15.1729 14.6038 15.6554 14.0086 15.6554H10.9914C10.3963 15.6554 9.91382 15.1729 9.91382 14.5778V13.2847Z" fill="#78A22F"/>
</svg>
