<svg width="25" height="22" viewBox="0 0 25 22" fill="none" xmlns="http://www.w3.org/2000/svg">
<path d="M22.7686 8.85099L25 6.63128L23.7863 5.4301L21.1752 8.0275L20.755 10.4608L17.8731 7.59409C18.1968 7.50431 18.5111 7.39595 18.8161 7.26593L19.1025 7.14519L18.4333 5.5787L18.147 5.69943C16.2393 6.50126 14.1603 6.27216 12.7225 5.10194L12.1219 4.61589L10.2452 6.48268C10.0212 6.70558 9.61347 6.85108 9.18088 6.85728C8.71405 6.86037 8.29702 6.71796 8.02938 6.45172C7.97958 6.40219 7.94846 6.36194 7.92979 6.33718L11.2878 2.99677C11.7111 2.57883 12.3148 2.37141 12.9092 2.44881L17.3503 3.02463L19.1834 1.20118L17.9696 0L16.7341 1.22905L13.1302 0.761576C12.0161 0.619167 10.8739 1.00305 10.0772 1.79558L9.70683 2.16399L8.31259 2.17018L6.74717 0.612975L5.53654 1.81726L7.35404 3.62522C7.51276 3.78311 7.73372 3.87599 7.96402 3.87599H7.98892L6.7285 5.1298C6.38305 5.46105 6.19632 5.86351 6.1932 6.30003C6.19009 6.63438 6.2959 7.139 6.81875 7.66219C7.40072 8.24111 8.21922 8.55999 9.13108 8.55999C10.0429 8.55999 10.9112 8.23802 11.4559 7.69625L12.2713 6.88204C13.2858 7.51669 14.4716 7.86033 15.7258 7.8789L20.9137 13.0397C21.0476 13.1883 21.4428 13.7146 20.8515 14.3028C20.5652 14.5876 20.3847 14.7052 20.3131 14.7486C20.1295 14.7888 19.8992 14.9034 19.7529 15.2098C19.6315 15.4637 19.6658 15.764 19.8431 16.0302C19.8712 16.0767 20.0983 16.5039 19.5195 17.0797C18.9282 17.6679 18.4458 17.4079 18.3182 17.3181C18.119 17.1695 17.8669 17.1169 17.6273 17.1664C17.4063 17.2128 17.2165 17.3429 17.1044 17.5131C17.092 17.5286 16.9613 17.6927 16.4478 18.2035C16.2268 18.4233 16.0152 18.5379 15.8222 18.5379C15.5795 18.5379 15.3461 18.3614 15.2776 18.2933L15.2154 18.2314C15.0131 18.0301 14.7485 17.9404 14.484 17.9806C14.2101 18.0209 13.9829 18.1818 13.874 18.3955C13.874 18.3955 13.7246 18.6245 13.1084 19.2344C12.7287 19.6121 12.3708 19.4326 12.1437 19.2189L11.4901 18.5719C12.0721 17.5162 11.8916 16.185 11.0233 15.3182L10.8552 15.151C10.8303 15.1263 10.8054 15.1015 10.7805 15.0798C10.961 14.7083 11.0575 14.2966 11.0575 13.8786C11.0575 13.1449 10.7712 12.4576 10.2515 11.9406L10.0834 11.7735C9.53255 11.2255 8.77941 10.9407 8.00137 10.9747C7.88622 10.7828 7.74617 10.6063 7.58434 10.4454L7.41628 10.2782C6.89655 9.76117 6.20254 9.47635 5.46807 9.47635C4.9888 9.47635 4.5282 9.59709 4.11739 9.82928L3.46072 8.3278C3.41715 8.22873 3.35802 8.13895 3.28022 8.06465L1.42848 6.22263L1.20129 6.01211L0 7.20711L1.95444 9.15129L2.77294 11.0212L2.01357 11.7766C1.49384 12.2936 1.20752 12.9839 1.20752 13.7146C1.20752 14.4452 1.49384 15.1355 2.01357 15.6525L2.18163 15.8197C2.40259 16.0395 2.65156 16.216 2.92543 16.3491C2.97212 17.0085 3.25221 17.6246 3.72526 18.0983L3.8902 18.2654C4.36014 18.7329 4.97324 19.0115 5.64858 19.0611C5.7824 19.3366 5.95979 19.5843 6.18075 19.8041L6.34881 19.9712C6.86854 20.4882 7.56255 20.7731 8.29702 20.7731C9.0315 20.7731 9.72551 20.4882 10.2452 19.9712L10.3573 19.8598L10.9392 20.4356C11.403 20.8876 12.0534 21.1538 12.6789 21.1538C13.3045 21.1538 13.846 20.9062 14.3159 20.4387C14.4778 20.2777 14.6272 20.1229 14.7579 19.9836C15.0878 20.1446 15.4457 20.2313 15.8191 20.2375C16.482 20.2375 17.0982 19.9589 17.6522 19.4047C17.7985 19.2592 17.9167 19.1385 18.0163 19.0363C18.5889 19.2066 19.6751 19.3242 20.7239 18.2809C21.6202 17.3893 21.67 16.4884 21.5828 15.9312C21.7353 15.8104 21.8941 15.668 22.059 15.5039C23.4159 14.1542 22.8028 12.6465 22.2271 11.9499L22.7624 8.85409L22.7686 8.85099ZM6.62579 12.0242L3.79373 14.86C3.77816 14.8538 3.75949 14.8476 3.74393 14.8414C3.61322 14.7888 3.49807 14.7114 3.39848 14.6123L3.23042 14.4452C2.98456 14.2006 2.87875 13.8508 2.94411 13.5133C2.98456 13.309 3.08415 13.1263 3.23042 12.9777L4.73671 11.4794C4.93278 11.2843 5.19731 11.176 5.47429 11.176C5.75128 11.176 6.01581 11.2843 6.21188 11.4794L6.37993 11.6465C6.48886 11.7549 6.56978 11.8818 6.62268 12.0242H6.62579ZM4.64023 16.1572C4.64023 15.9157 4.73049 15.6773 4.87987 15.5039L7.40383 12.9777C7.5999 12.7827 7.86443 12.6744 8.14142 12.6744C8.4184 12.6744 8.68293 12.7827 8.879 12.9777L9.04706 13.1418C9.45475 13.5474 9.45475 14.2068 9.04706 14.6123L7.91734 15.7361L6.23677 17.2841C5.83219 17.4481 5.3996 17.346 5.11017 17.0581L4.94211 16.8909C4.74605 16.6958 4.63712 16.4327 4.63712 16.1572H4.64023ZM9.29914 16.1231H9.30848C9.43919 16.1788 9.55434 16.2562 9.65393 16.3553L9.82199 16.5225C10.2297 16.928 10.2297 17.5874 9.82199 17.993L9.04706 18.7639C8.94747 18.8629 8.83232 18.9403 8.70161 18.993C8.31881 19.1477 7.86443 19.0549 7.56878 18.7639L7.40072 18.5967C7.27001 18.4667 7.17976 18.3026 7.13308 18.1199L9.29914 16.1231Z" fill="#78A23F"/>
</svg>
