<svg width="43" height="41" viewBox="0 0 43 41" fill="none" xmlns="http://www.w3.org/2000/svg">
<path d="M0 -2H43V41H10C4.47715 41 0 36.5228 0 31V-2Z" fill="#78A22F"/>
<g clip-path="url(#clip0_298_3157)">
<path d="M24.654 20.0001L28.634 16.0201C28.8686 15.7855 29.0003 15.4673 29.0003 15.1356C29.0003 14.8038 28.8686 14.4857 28.634 14.2511L27.749 13.3661C27.5144 13.1315 27.1963 12.9998 26.8645 12.9998C26.5328 12.9998 26.2146 13.1315 25.98 13.3661L22 17.3461L18.02 13.3661C17.7854 13.1315 17.4673 12.9998 17.1355 12.9998C16.8038 12.9998 16.4856 13.1315 16.251 13.3661L15.366 14.2511C15.1315 14.4857 14.9997 14.8038 14.9997 15.1356C14.9997 15.4673 15.1315 15.7855 15.366 16.0201L19.346 20.0001L15.366 23.9801C15.1315 24.2147 14.9997 24.5328 14.9997 24.8646C14.9997 25.1963 15.1315 25.5145 15.366 25.7491L16.251 26.6341C16.4856 26.8686 16.8038 27.0004 17.1355 27.0004C17.4673 27.0004 17.7854 26.8686 18.02 26.6341L22 22.6541L25.98 26.6341C26.2146 26.8686 26.5328 27.0004 26.8645 27.0004C27.1963 27.0004 27.5144 26.8686 27.749 26.6341L28.634 25.7491C28.8686 25.5145 29.0003 25.1963 29.0003 24.8646C29.0003 24.5328 28.8686 24.2147 28.634 23.9801L24.654 20.0001Z" fill="white"/>
</g>
<defs>
<clipPath id="clip0_298_3157">
<rect width="14" height="14" fill="white" transform="translate(15 13)"/>
</clipPath>
</defs>
</svg>
