<svg width="25" height="25" viewBox="0 0 25 25" fill="none" xmlns="http://www.w3.org/2000/svg">
<path d="M24.0164 20.3192C23.3757 19.1023 22.4565 18.0154 21.2843 17.0887C20.1193 16.1633 18.7599 15.4406 17.2449 14.9412C15.7328 14.4427 14.1375 14.1897 12.5027 14.1893H12.5003C10.8664 14.1893 9.27161 14.4418 7.75993 14.9398C6.24443 15.4392 4.88506 16.161 3.71907 17.0863C2.54926 18.0144 1.63108 19.1023 0.989839 20.3197C0.34716 21.5404 0.0138844 22.8318 3.76487e-05 24.1581C-0.00234972 24.3889 0.108901 24.6123 0.30562 24.771C0.488492 24.9185 0.728661 25 0.981722 25H24.0188C24.2714 25 24.5116 24.9185 24.6945 24.771C24.8912 24.6127 25.0024 24.3894 25 24.1595C24.9905 22.8328 24.6591 21.5404 24.0164 20.3192ZM5.22407 18.176C7.19412 16.6797 9.7782 15.8552 12.5003 15.8552C15.2223 15.8552 17.8064 16.6792 19.776 18.176C21.5852 19.5508 22.7077 21.3666 22.9756 23.3312H2.02452C2.29191 21.3666 3.41492 19.5508 5.22407 18.176Z" fill="#78A22F"/>
<path d="M12.4993 12.7645H12.4998C14.2273 12.7645 15.8516 12.1007 17.073 10.8955C18.2948 9.69037 18.9676 8.08803 18.9676 6.38298C18.9676 4.6784 18.2953 3.07559 17.0739 1.86995C15.853 0.664305 14.2287 0 12.5012 0H12.4998C10.7727 0 9.14885 0.663362 7.92748 1.86806C6.70562 3.07323 6.03239 4.67557 6.03143 6.38062C6.03287 8.08473 6.70658 9.68707 7.92748 10.8922C9.14838 12.0974 10.7718 12.7622 12.4993 12.7645ZM12.5002 1.93449H12.516C13.714 1.93873 14.8389 2.40092 15.6859 3.23672C16.5373 4.07629 17.0061 5.19335 17.0061 6.38109C17.0061 7.56883 16.5373 8.6859 15.6859 9.52547C14.8346 10.365 13.7035 10.8277 12.4998 10.8277H12.4988C11.2951 10.8277 10.1635 10.365 9.31215 9.525C8.46129 8.68496 7.99241 7.56836 7.99289 6.38109C7.9948 5.19383 8.46416 4.0777 9.31454 3.2386C10.1654 2.39903 11.296 1.93638 12.4993 1.93496L12.5002 1.93449Z" fill="#78A22F"/>
</svg>
