<svg width="22" height="25" viewBox="0 0 22 25" fill="none" xmlns="http://www.w3.org/2000/svg">
<path d="M6.28571 0.78125C6.28571 0.351562 5.93214 0 5.5 0C5.06786 0 4.71429 0.351562 4.71429 0.78125V3.125H3.14286C1.40937 3.125 0 4.52637 0 6.25V7.8125V9.375V21.875C0 23.5986 1.40937 25 3.14286 25H18.8571C20.5906 25 22 23.5986 22 21.875V9.375V7.8125V6.25C22 4.52637 20.5906 3.125 18.8571 3.125H17.2857V0.78125C17.2857 0.351562 16.9321 0 16.5 0C16.0679 0 15.7143 0.351562 15.7143 0.78125V3.125H6.28571V0.78125ZM1.57143 9.375H20.4286V21.875C20.4286 22.7393 19.7263 23.4375 18.8571 23.4375H3.14286C2.27366 23.4375 1.57143 22.7393 1.57143 21.875V9.375ZM3.14286 4.6875H18.8571C19.7263 4.6875 20.4286 5.38574 20.4286 6.25V7.8125H1.57143V6.25C1.57143 5.38574 2.27366 4.6875 3.14286 4.6875ZM16.2692 13.833C16.5737 13.5303 16.5737 13.0322 16.2692 12.7295C15.9647 12.4268 15.4638 12.4268 15.1594 12.7295L10.2143 17.6465L7.62634 15.0732C7.32188 14.7705 6.82098 14.7705 6.51652 15.0732C6.21205 15.376 6.21205 15.874 6.51652 16.1768L9.65937 19.3018C9.96384 19.6045 10.4647 19.6045 10.7692 19.3018L16.2692 13.833Z" fill="#78A22F"/>
</svg>
