<svg width="25" height="25" viewBox="0 0 25 25" fill="none" xmlns="http://www.w3.org/2000/svg">
<path d="M20.4736 0H3.57894C1.60526 0 0 1.60526 0 3.57894V15.3684C0 17.3421 1.60526 18.9473 3.57894 18.9473H7.57897C7.57897 19.9736 7.39468 21.3421 6.84213 22.7895C6.5789 23.421 6.7632 24.1316 7.28948 24.6053C7.60521 24.8686 7.97364 25 8.36847 25C8.6317 25 8.9212 24.9211 9.18421 24.7894C11.8947 23.2369 14.1842 20.5788 15.421 18.9474H20.5C22.4736 18.9474 24.0789 17.3421 24.0789 15.3684L24.0791 3.57898C24.0528 1.6053 22.4476 4.23057e-05 20.4739 4.23057e-05L20.4736 0ZM22.7631 15.3684C22.7631 16.6315 21.7367 17.6578 20.4736 17.6578L15.0789 17.658C14.8684 17.658 14.6842 17.7632 14.5526 17.9212C13.4474 19.4213 11.1842 22.158 8.52634 23.658C8.34204 23.7632 8.18418 23.658 8.13168 23.6054C8.079 23.5527 7.94738 23.4211 8.0265 23.2369C8.78956 21.2633 8.89492 19.4474 8.84224 18.2633C8.81599 17.9211 8.55275 17.6581 8.18434 17.6581H3.57872C2.31561 17.6581 1.2893 16.6318 1.2893 15.3686V3.5792C1.2893 2.31609 2.31561 1.28978 3.57872 1.28978H20.4734C21.7365 1.28978 22.7628 2.31609 22.7628 3.5792L22.7631 15.3684Z" fill="#78A22F"/>
<path d="M12.0263 2.71051C8.18408 2.71051 5.07892 5.84213 5.07892 9.65786C5.07892 13.5 8.21054 16.6052 12.0263 16.6052C15.8685 16.6052 18.9736 13.4736 18.9736 9.65786C18.9736 5.84213 15.8685 2.71051 12.0263 2.71051ZM9.55254 4.28955C9.21038 4.78959 8.92092 5.39481 8.71035 6.07892C8.34194 5.97374 7.97351 5.86837 7.63136 5.73676C8.15781 5.10528 8.8157 4.63151 9.55254 4.28955ZM6.99992 6.5527C7.44726 6.737 7.94728 6.92111 8.44733 7.05274C8.31571 7.71064 8.21053 8.42121 8.1841 9.15805H6.13147C6.2104 8.2105 6.49988 7.31581 6.99989 6.55275L6.99992 6.5527ZM6.99992 12.7895C6.52633 12.0265 6.2104 11.1316 6.1315 10.1842H8.18413C8.21038 10.9211 8.31574 11.6316 8.44736 12.2895C7.94731 12.4211 7.44731 12.579 6.99995 12.7896L6.99992 12.7895ZM7.63154 13.6315C7.9737 13.4999 8.34212 13.3683 8.71054 13.2631C8.94733 13.9473 9.21058 14.5526 9.55273 15.0525C8.8157 14.7105 8.15781 14.2369 7.63154 13.6315ZM11.5 15.4738C10.8158 15.1843 10.1315 14.3158 9.71058 13.0527C10.2895 12.9475 10.8947 12.8949 11.5 12.8684V15.4738ZM11.5 11.8422C10.7894 11.8684 10.1052 11.9473 9.42111 12.079C9.28949 11.5 9.21056 10.8683 9.18431 10.2104L11.4999 10.2106L11.5 11.8422ZM11.5 9.15791H9.21053C9.23678 8.47375 9.31572 7.84212 9.44733 7.2894C10.1052 7.42101 10.8158 7.49995 11.5262 7.5262V9.15791L11.5 9.15791ZM11.5 6.47385C10.8683 6.4476 10.2893 6.39491 9.71058 6.28955C10.1579 5.02644 10.8158 4.15802 11.5 3.8685V6.47385ZM16.421 5.7106C16.0788 5.84221 15.7104 5.97383 15.342 6.07901C15.1052 5.39485 14.842 4.78949 14.4998 4.28963C15.2368 4.63161 15.8947 5.10538 16.421 5.7106ZM12.5526 3.84227C13.2367 4.13176 13.921 5.00021 14.342 6.26332C13.763 6.3685 13.1578 6.42119 12.5526 6.44762V3.84227ZM12.5526 7.50016C13.2632 7.47391 13.9473 7.39498 14.6314 7.26336C14.763 7.84231 14.842 8.47398 14.8682 9.13187L12.5526 9.13169L12.5526 7.50016ZM12.5526 10.1842H14.842C14.8158 10.8684 14.7368 11.5 14.6052 12.0527C13.9473 11.9211 13.2367 11.8422 12.5264 11.8159V10.1842L12.5526 10.1842ZM12.5526 15.4737V12.8421C13.1842 12.8684 13.7632 12.921 14.342 13.0264C13.8948 14.3158 13.2369 15.1842 12.5526 15.4737ZM14.5 15.0526C14.8422 14.5525 15.1316 13.9473 15.3422 13.2632C15.7106 13.3684 16.079 13.4738 16.4212 13.6316C15.8947 14.2368 15.2368 14.7104 14.5 15.0526ZM17.0526 12.7894C16.579 12.6051 16.1053 12.421 15.6052 12.2894C15.7368 11.6315 15.842 10.9209 15.8684 10.1841H17.9211C17.8421 11.1315 17.5527 12.0263 17.0526 12.7894L17.0526 12.7894ZM17.921 9.15782H15.8684C15.8422 8.42098 15.7368 7.71041 15.6052 7.05251C16.1052 6.9209 16.6052 6.73678 17.0526 6.55247C17.5526 7.31572 17.8421 8.21041 17.921 9.15777L17.921 9.15782Z" fill="#78A22F"/>
</svg>
