<svg width="21" height="25" viewBox="0 0 21 25" fill="none" xmlns="http://www.w3.org/2000/svg">
<mask id="path-1-inside-1_298_1670" fill="white">
<rect width="16.8605" height="22.4322" rx="0.484496"/>
</mask>
<rect width="16.8605" height="22.4322" rx="0.484496" stroke="#78A22F" stroke-width="1.93798" stroke-linejoin="round" mask="url(#path-1-inside-1_298_1670)"/>
<path d="M2 16C2 15.7239 2.22386 15.5 2.5 15.5H13.5C13.7761 15.5 14 15.7239 14 16C14 16.2761 13.7761 16.5 13.5 16.5H2.5C2.22386 16.5 2 16.2761 2 16Z" fill="#78A22F"/>
<path d="M2 18.5C2 18.2239 2.22386 18 2.5 18H13.5C13.7761 18 14 18.2239 14 18.5C14 18.7761 13.7761 19 13.5 19H2.5C2.22386 19 2 18.7761 2 18.5Z" fill="#78A22F"/>
<path d="M9.53092 6.672C9.53092 6.798 9.58692 6.854 9.71292 6.854H10.2309C10.3709 6.854 10.4269 6.798 10.4269 6.672V6.266C10.4269 5.524 9.89492 4.838 8.53692 4.698V3.69C8.53692 3.55 8.48092 3.48 8.34092 3.48H7.76692C7.61292 3.48 7.55692 3.55 7.55692 3.69V4.684C6.08692 4.796 5.56892 5.496 5.56892 6.266V6.812C5.56892 7.512 6.15692 8.002 6.64692 8.17L8.80292 8.884C9.27892 9.038 9.62892 9.248 9.62892 9.668V10.186C9.62892 10.746 9.04092 11.068 7.97692 11.068C6.89892 11.068 6.33892 10.746 6.33892 10.186V9.85C6.33892 9.724 6.29692 9.654 6.15692 9.654H5.63892C5.49892 9.654 5.44292 9.724 5.44292 9.85V10.228C5.44292 10.998 6.05892 11.698 7.55692 11.796V12.79C7.55692 12.93 7.61292 13 7.76692 13H8.34092C8.48092 13 8.53692 12.93 8.53692 12.79V11.782C9.92292 11.642 10.5249 10.984 10.5249 10.228V9.43C10.5249 8.772 10.0209 8.324 9.32092 8.1L7.16492 7.4C6.85692 7.302 6.45092 7.064 6.45092 6.63V6.266C6.45092 5.72 6.94092 5.398 7.97692 5.398C9.02692 5.398 9.53092 5.72 9.53092 6.266V6.672Z" fill="#78A22F"/>
<path d="M19.755 19.1376C19.755 22.1544 17.3094 24.6 14.2926 24.6C11.2758 24.6 8.83024 22.1544 8.83024 19.1376C8.83024 16.1208 11.2758 13.6752 14.2926 13.6752C17.3094 13.6752 19.755 16.1208 19.755 19.1376Z" fill="#78A22F" stroke="white" stroke-width="0.8"/>
<path d="M11.4538 19.3939L13.4848 21.1687L17.4085 17.1065" stroke="white" stroke-width="0.775194" stroke-linecap="round"/>
</svg>
