<svg xmlns="http://www.w3.org/2000/svg" width="16.007" height="13.281" viewBox="0 0 16.007 13.281"><defs><style>.a{fill:#78a22f;fill-rule:evenodd;}</style></defs><g transform="translate(-955 -510)"><path class="a" d="M29.5,20.351H39a.7.7,0,0,1,.593.776V21.9a.7.7,0,0,1-.593.777H29.5a.7.7,0,0,1-.594-.777v-.776A.7.7,0,0,1,29.5,20.351Z" transform="translate(931.411 489.649)"/><path class="a" d="M1.84,20.351H3.57c.318,0,.577.348.577.776V21.9c0,.429-.259.777-.577.777H1.84c-.318,0-.576-.348-.576-.777v-.776C1.264,20.7,1.522,20.351,1.84,20.351Z" transform="translate(953.736 489.649)"/><path class="a" d="M29.5,43.611H39a.7.7,0,0,1,.593.777v.776a.7.7,0,0,1-.593.777H29.5a.7.7,0,0,1-.594-.777v-.776A.7.7,0,0,1,29.5,43.611Z" transform="translate(931.411 471.865)"/><path class="a" d="M29.5,66.871H39a.7.7,0,0,1,.593.776v.776A.7.7,0,0,1,39,69.2H29.5a.7.7,0,0,1-.594-.776v-.776A.7.7,0,0,1,29.5,66.871Z" transform="translate(931.411 454.081)"/><path class="a" d="M1.84,43.611H3.57c.318,0,.577.348.577.777v.776c0,.429-.259.777-.577.777H1.84c-.318,0-.576-.348-.576-.777v-.776C1.264,43.959,1.522,43.611,1.84,43.611Z" transform="translate(953.736 471.865)"/><path class="a" d="M1.84,66.871H3.57c.318,0,.577.347.577.776v.776c0,.429-.259.776-.577.776H1.84c-.318,0-.576-.347-.576-.776v-.776C1.264,67.218,1.522,66.871,1.84,66.871Z" transform="translate(953.736 454.081)"/></g></svg>