<svg xmlns="http://www.w3.org/2000/svg" width="19" height="19" viewBox="0 0 19 19"><defs><style>.a{fill:#78a22f;}</style></defs><path class="a" d="M43.5,34A9.5,9.5,0,1,0,53,43.5,9.528,9.528,0,0,0,43.5,34ZM38.631,49.853a4.883,4.883,0,0,1,9.737,0A7.791,7.791,0,0,1,43.5,51.516,8.029,8.029,0,0,1,38.631,49.853Zm2.494-8.431A2.375,2.375,0,1,1,43.5,43.8,2.382,2.382,0,0,1,41.125,41.422Zm8.55,7.184a6.289,6.289,0,0,0-3.622-4.216,3.735,3.735,0,0,0,1.306-2.909,3.859,3.859,0,0,0-7.719,0,4.04,4.04,0,0,0,1.306,2.909,6.289,6.289,0,0,0-3.622,4.216A8.014,8.014,0,1,1,51.516,43.5,8.263,8.263,0,0,1,49.675,48.606Z" transform="translate(-34 -34)"/></svg>