<svg xmlns="http://www.w3.org/2000/svg" width="19" height="20.48" viewBox="0 0 19 20.48"><defs><style>.a{fill:#78a22f;}</style></defs><g transform="translate(-4.526 -1.009)"><path class="a" d="M17.829,3.914,15.207,5.794a.566.566,0,0,1-.894-.46V4.2a.909.909,0,0,1-.23.033,7.706,7.706,0,1,0,7.55,9.259.921.921,0,1,1,1.8.37A9.549,9.549,0,1,1,14.081,2.388a.909.909,0,0,1,.23.033V1.573a.566.566,0,0,1,.894-.46l2.622,1.881a.564.564,0,0,1,0,.919Zm3.862,6.808a.924.924,0,0,0,.9.775.775.775,0,0,0,.144-.01.922.922,0,1,0-1.047-.776l0,.012ZM20.3,5.876a.919.919,0,1,0-.708.334A.92.92,0,0,0,20.3,5.876Zm.836.98a.921.921,0,1,0,1.256.347l0,0a.921.921,0,0,0-1.256-.349l-.015.009ZM13.945,16.8a.686.686,0,0,0,.685-.685v-.539a2.38,2.38,0,0,0,2.115-2.28c0-1.137-.627-1.805-2.054-2.313-1.009-.38-1.352-.612-1.352-.919,0-.355.332-.558.915-.558a3.525,3.525,0,0,1,1.02.146.769.769,0,0,0,.209.031.79.79,0,0,0,.209-1.555,5.116,5.116,0,0,0-1-.155V7.608a.685.685,0,1,0-1.371,0v.46a2.286,2.286,0,0,0-2.006,2.194c0,1.352,1.179,1.922,2.2,2.267.853.288,1.185.55,1.185.932s-.387.627-1.032.627a3.867,3.867,0,0,1-1.254-.209.811.811,0,0,0-.261-.044.778.778,0,0,0-.754.581l-.015.056a.794.794,0,0,0,.533.953,5.58,5.58,0,0,0,1.344.251v.439A.685.685,0,0,0,13.945,16.8Z" transform="translate(0)"/></g></svg>