<svg xmlns="http://www.w3.org/2000/svg" width="14.929" height="19" viewBox="0 0 14.929 19"><defs><style>.a{fill:#78a22f;}</style></defs><g transform="translate(-15.625 -6.25)"><path class="a" d="M28.518,6.25H17.661a2.036,2.036,0,0,0-2.036,2.036V22.712a2.036,2.036,0,0,0,2.945,1.819l1.357-.679a.678.678,0,0,1,.679.061l1.262.93a2.036,2.036,0,0,0,2.443,0l1.228-.95a.678.678,0,0,1,.679-.061l1.357.679a2.036,2.036,0,0,0,2.979-1.8V8.286A2.036,2.036,0,0,0,28.518,6.25ZM29.2,22.712a.679.679,0,0,1-.984.6l-1.357-.679a2.036,2.036,0,0,0-2.131.19l-1.228.93a.679.679,0,0,1-.814,0l-1.228-.923a2.036,2.036,0,0,0-2.131-.19l-1.357.679a.678.678,0,0,1-.984-.611V8.286a.679.679,0,0,1,.679-.679H28.518a.679.679,0,0,1,.679.679Z" transform="translate(0)"/><path class="a" d="M42.994,23.206h.923c.183,0,.339.122.339.258s-.156.258-.339.258H42.559a.421.421,0,0,0,0,.841h.489v.353a.424.424,0,1,0,.848,0v-.353h.041a1.1,1.1,0,1,0-.02-2.2h-.923c-.183,0-.339-.122-.339-.258s.156-.258.339-.258h1.357a.421.421,0,1,0,0-.841h-.5v-.143a.421.421,0,0,0-.414-.427h-.007a.428.428,0,0,0-.428.428h0v.143h0a1.14,1.14,0,0,0-1.194,1.084v.016a1.14,1.14,0,0,0,1.179,1.1Z" transform="translate(-20.501 -11.106)"/><path class="a" d="M36.946,53.656H28.8a.679.679,0,1,0,0,1.357h8.143a.679.679,0,0,0,0-1.357Z" transform="translate(-9.786 -37.112)"/><path class="a" d="M36.946,66.156H28.8a.679.679,0,1,0,0,1.357h8.143a.679.679,0,0,0,0-1.357Z" transform="translate(-9.786 -46.898)"/></g></svg>