<svg xmlns="http://www.w3.org/2000/svg" width="34" height="34" viewBox="0 0 34 34"><defs><style>.a,.d{fill:none;}.a{stroke:#5a5b5d;stroke-width:3px;}.b{fill:#5a5b5d;}.c{stroke:none;}</style></defs><g transform="translate(-851 -517)"><g class="a" transform="translate(851 517)"><circle class="c" cx="17" cy="17" r="17"/><circle class="d" cx="17" cy="17" r="15.5"/></g><path class="b" d="M6.9,85l2.843-2.843a.894.894,0,0,0,0-1.264l-.632-.632a.894.894,0,0,0-1.264,0L5,83.1,2.157,80.262a.894.894,0,0,0-1.264,0l-.632.632a.894.894,0,0,0,0,1.264L3.1,85,.262,87.843a.894.894,0,0,0,0,1.264l.632.632a.894.894,0,0,0,1.264,0L5,86.9l2.843,2.843a.894.894,0,0,0,1.264,0l.632-.632a.894.894,0,0,0,0-1.264Z" transform="translate(863 449)"/></g></svg>