<svg xmlns="http://www.w3.org/2000/svg" width="53" height="53" viewBox="0 0 53 53">
  <g id="Group_10510" data-name="Group 10510" transform="translate(-171 -7)">
    <path id="Polygon_2" data-name="Polygon 2" d="M33.6,0l3.5,8.14L45.9,7.1l-1.04,8.8L53,19.4l-5.3,7.1L53,33.6l-8.14,3.5,1.04,8.8-8.8-1.04L33.6,53l-7.1-5.3L19.4,53l-3.5-8.14L7.1,45.9l1.04-8.8L0,33.6l5.3-7.1L0,19.4l8.14-3.5L7.1,7.1l8.8,1.04L19.4,0l7.1,5.3Z" transform="translate(171 7)" fill="#78a22f"/>
    <line id="Line_423" data-name="Line 423" y1="1.979" x2="1.702" transform="translate(208.022 22.871)" fill="none" stroke="#fff" stroke-linecap="round" stroke-width="1"/>
    <line id="Line_424" data-name="Line 424" x2="3.51" transform="translate(208.849 27.25) rotate(-19)" fill="none" stroke="#fff" stroke-linecap="round" stroke-width="1"/>
    <line id="Line_425" data-name="Line 425" x2="2.588" y2="0.836" transform="translate(209.676 29.653)" fill="none" stroke="#fff" stroke-linecap="round" stroke-width="1"/>
    <g id="Group_10506" data-name="Group 10506" transform="translate(188.199 17.686)">
      <g id="Group_10508" data-name="Group 10508">
        <path id="Path_1563" data-name="Path 1563" d="M424.227,12.482h.708q5.2,0,10.391,0a2.358,2.358,0,0,1,2.356,1.68,1.851,1.851,0,0,1,.087.52c.005,3.222.02,6.444,0,9.666a2.381,2.381,0,0,1-2.464,2.38c-2.038.007-4.076,0-6.114,0q-3.9,0-7.805,0a2.414,2.414,0,0,1-2.428-1.76,3.176,3.176,0,0,1-.1-.834q-.01-4.543,0-9.086a2.41,2.41,0,0,1,2.064-2.544c.039-.008.077-.022.146-.042,0-.089,0-.183,0-.277.009-.974-.028-6.428.036-7.4a6.935,6.935,0,0,1,3.174-5.553,7.25,7.25,0,0,1,11.152,4.64,7.976,7.976,0,0,1,.131,1.367,1.543,1.543,0,0,1-1.532,1.594,1.574,1.574,0,0,1-1.566-1.571,3.979,3.979,0,0,0-1.623-3.248,3.9,3.9,0,0,0-4.033-.542,3.89,3.89,0,0,0-2.517,3.2,15.133,15.133,0,0,0-.057,1.952c-.007.45,0,5.376,0,5.858m3.45,9.744a1.072,1.072,0,0,0,.132.452.63.63,0,0,0,.718.264.693.693,0,0,0,.484-.679c.009-.5.01-1,0-1.5a.342.342,0,0,1,.234-.377,2.084,2.084,0,0,0,1.222-2.309,2.161,2.161,0,0,0-4.235-.05,2.093,2.093,0,0,0,1.28,2.4.218.218,0,0,1,.163.247c-.009.257,0,.515,0,.772" transform="translate(-418.853 2)" fill="#fff"/>
      </g>
    </g>
  </g>
</svg>
