<svg id="Group_2047" data-name="Group 2047" xmlns="http://www.w3.org/2000/svg" xmlns:xlink="http://www.w3.org/1999/xlink" width="690" height="217.58" viewBox="0 0 690 217.58">
  <defs>
    <clipPath id="clip-path">
      <rect id="Rectangle_1462" data-name="Rectangle 1462" width="690" height="217.58" fill="#fff"/>
    </clipPath>
  </defs>
  <path id="Path_280" data-name="Path 280" d="M29.184.318V8.9h5.222L26.2,25.907h-.3L17.546,8.9h5.222V.318H.312V8.9H5.16L20.306,36.28v8.5h-5.97v8.58H37.69v-8.58H31.72V36.428l15-27.53h4.848V.318Z" transform="translate(0.348 0.355)" fill="#fff"/>
  <g id="Group_2046" data-name="Group 2046">
    <g id="Group_2045" data-name="Group 2045" clip-path="url(#clip-path)">
      <path id="Path_281" data-name="Path 281" d="M72.625,33.2c0,6.118-.3,16.861-13.205,20.07A46.241,46.241,0,0,1,49.348,54.39a45.766,45.766,0,0,1-10.072-1.118c-12.907-3.209-13.205-13.878-13.205-20V21.114c0-6.116.3-16.785,13.205-19.994A45.649,45.649,0,0,1,49.348,0,46.122,46.122,0,0,1,59.42,1.12C72.327,4.329,72.625,15.072,72.625,21.19Zm-35.141.074c0,10.223,4.551,11.789,11.863,11.789,8.355,0,11.863-2.686,11.863-11.863V21.19c0-9.177-3.508-11.863-11.863-11.863-7.312,0-11.863,1.567-11.863,11.787Z" transform="translate(29.118)" fill="#fff"/>
      <path id="Path_282" data-name="Path 282" d="M80.669,8.9V.318H104.02V8.9H98.053V33.443c0,14.772-4.924,20.593-20.517,20.593h-.6c-16.19,0-20.517-6.567-20.517-20.593V8.9H50.454V.318H73.806V8.9h-5.97V33.443c0,7.61,1.941,11.266,9.1,11.266h.6c6.863,0,9.1-3.133,9.1-11.266V8.9Z" transform="translate(56.352 0.355)" fill="#fff"/>
      <path id="Path_283" data-name="Path 283" d="M100.957,44.784v8.58H77.9v-8.58h5.97V8.9H77.9V.318H104.09c11.116,0,18.129,2.013,18.129,17.083,0,11.491-4.253,15-11.937,16.19l-.521.076v.222l8.5,10.894h5.671v8.58H111.1L98.195,34.04H95.36V44.784Zm3.133-19.846c4.028,0,6.639-.671,6.639-7.536s-2.61-7.758-6.639-7.758H95.36V24.938Z" transform="translate(87.009 0.355)" fill="#fff"/>
      <path id="Path_284" data-name="Path 284" d="M126.505,30.833v13.95h5.97v8.58H109.121v-8.58h5.97V8.9h-5.97V.318h23.354V8.9h-5.97V21.506h18.951V8.9h-5.968V.318H162.84V8.9h-5.97V44.783h5.97v8.58H139.488v-8.58h5.968V30.833Z" transform="translate(121.878 0.355)" fill="#fff"/>
      <path id="Path_285" data-name="Path 285" d="M168.5,53.363v-8.58h5.222l-2.163-6.342H154.4l-2.163,6.342h5.222v8.58H136.042v-8.58h4.774L156.783.318h12.386l15.966,44.466h4.774v8.58Zm-.074-24.173-5.373-17.458H162.9l-5.373,17.458Z" transform="translate(151.946 0.355)" fill="#fff"/>
      <path id="Path_286" data-name="Path 286" d="M186.088,44.784v8.58H163.033v-8.58H169V8.9h-5.97V.318h26.188c11.116,0,18.129,2.013,18.129,17.083,0,11.491-4.253,15-11.937,16.19l-.523.076v.222L203.4,44.784h5.669v8.58H196.235L183.328,34.04h-2.835V44.784Zm3.133-19.846c4.028,0,6.641-.671,6.641-7.536s-2.612-7.758-6.641-7.758h-8.728V24.938Z" transform="translate(182.093 0.355)" fill="#fff"/>
      <path id="Path_287" data-name="Path 287" d="M187.03,53.365v-8.58H193V8.9h-5.97V.317h24.62c16.118.224,23.874,5.893,23.874,21.489v10.07c0,16.042-8.728,21.489-23.874,21.489H187.03Zm24.62-9.327c9.177,0,12.46-3.432,12.46-12.162V21.806c0-9.327-4.177-12.164-12.46-12.164h-7.236v34.4Z" transform="translate(208.895 0.354)" fill="#fff"/>
      <path id="Path_288" data-name="Path 288" d="M235,8.9l5.671,25.143h.373l7.534-31.707h11.044l7.534,31.707h.3L273.123,8.9H267.9V.318h21.861V8.9h-4.85L273.2,53.363h-11.34l-7.534-33.051h-.373l-7.612,33.051H234.923L223.134,8.9h-4.85V.318H240.22V8.9Z" transform="translate(243.803 0.355)" fill="#fff"/>
      <path id="Path_289" data-name="Path 289" d="M300.253,33.2c0,6.118-.3,16.861-13.205,20.07a46.241,46.241,0,0,1-10.072,1.118A45.765,45.765,0,0,1,266.9,53.272C254,50.063,253.7,39.394,253.7,33.276V21.114C253.7,15,254,4.329,266.9,1.12A45.648,45.648,0,0,1,276.976,0a46.122,46.122,0,0,1,10.072,1.12c12.907,3.209,13.205,13.953,13.205,20.07Zm-35.141.074c0,10.223,4.551,11.789,11.863,11.789,8.355,0,11.861-2.686,11.861-11.863V21.19c0-9.177-3.506-11.863-11.861-11.863-7.312,0-11.863,1.567-11.863,11.787Z" transform="translate(283.357)" fill="#fff"/>
      <path id="Path_290" data-name="Path 290" d="M301.7,44.784v8.58H278.645v-8.58h5.97V8.9h-5.97V.318h26.188c11.118,0,18.131,2.013,18.131,17.083,0,11.491-4.253,15-11.937,16.19l-.523.076v.222l8.506,10.894h5.669v8.58H311.849L298.94,34.04h-2.835V44.784Zm3.133-19.846c4.031,0,6.641-.671,6.641-7.536s-2.61-7.758-6.641-7.758h-8.728V24.938Z" transform="translate(311.221 0.355)" fill="#fff"/>
      <path id="Path_291" data-name="Path 291" d="M351.362,53.363H339.647L324.876,32.622l-4.85,5.745v6.416H326v8.58H302.642v-8.58h5.97V8.9h-5.97V.318h22.606V8.9h-5.222v17.16l7.534-10L333.083,8.9h-3.656V.318h21.711V8.9h-5.072L333.157,25.461l13.878,19.323h4.327Z" transform="translate(338.023 0.355)" fill="#fff"/>
      <path id="Path_292" data-name="Path 292" d="M114.821,41.44a15.161,15.161,0,0,0-2.936-.241c-3.512,0-5.678.722-5.678,3.609,0,1.78,1.348,2.6,3.851,3.849l5.919,2.983c4.088,2.119,6.4,4.716,6.4,9.721,0,7.409-5,9-13.375,9a56.041,56.041,0,0,1-10.826-1.588v-9h6.495V64.1a21,21,0,0,0,4.331.531c3.7,0,6.014-.914,6.014-3.273,0-2.214-.866-2.983-2.551-3.851l-6.255-3.175c-4.858-2.549-7.409-4.57-7.409-9.67,0-7.507,4.619-9.382,13.087-9.382a39.625,39.625,0,0,1,9.431,1.4v8.612h-6.495Z" transform="translate(109.651 39.407)" fill="#fff"/>
      <path id="Path_293" data-name="Path 293" d="M122.474,55.165v9h3.849V69.7h-15.06V64.162h3.849V41.018h-3.849V35.487h15.06v5.531h-3.849v8.133h12.221V41.018h-3.849V35.487h15.06v5.531h-3.849V64.162h3.849V69.7h-15.06V64.162h3.849v-9Z" transform="translate(124.27 39.635)" fill="#fff"/>
      <path id="Path_294" data-name="Path 294" d="M159.556,56.692c0,3.946-.191,10.875-8.514,12.945a29.921,29.921,0,0,1-6.5.722,29.575,29.575,0,0,1-6.495-.722c-8.324-2.07-8.518-8.95-8.518-12.9V48.9c0-3.944.195-10.826,8.518-12.894a29.446,29.446,0,0,1,6.495-.722,29.789,29.789,0,0,1,6.5.722c8.324,2.068,8.514,9,8.514,12.943Zm-22.662.049c0,6.592,2.936,7.6,7.651,7.6,5.39,0,7.651-1.734,7.651-7.653V48.947c0-5.919-2.261-7.65-7.651-7.65-4.714,0-7.651,1.012-7.651,7.6Z" transform="translate(144.675 39.407)" fill="#fff"/>
      <path id="Path_295" data-name="Path 295" d="M164.744,41.02V35.486H179.8V41.02h-3.849V56.85c0,9.528-3.175,13.279-13.231,13.279h-.385c-10.443,0-13.233-4.234-13.233-13.279V41.02h-3.849V35.486h15.06V41.02h-3.849V56.85c0,4.907,1.251,7.265,5.87,7.265h.385c4.426,0,5.868-2.02,5.868-7.265V41.02Z" transform="translate(162.24 39.635)" fill="#fff"/>
      <path id="Path_296" data-name="Path 296" d="M174.172,63.635h7.265V58.582h6.495V69.7H162.96V64.164h3.849V41.02H162.96V35.486h15.06V41.02h-3.849Z" transform="translate(182.012 39.635)" fill="#fff"/>
      <path id="Path_297" data-name="Path 297" d="M176.1,69.7V64.163h3.851V41.018H176.1V35.487h15.879c10.392.144,15.4,3.8,15.4,13.857v6.495c0,10.345-5.629,13.857-15.4,13.857H176.1Zm15.879-6.014c5.917,0,8.036-2.214,8.036-7.843V49.344c0-6.016-2.7-7.845-8.036-7.845h-4.668V63.682Z" transform="translate(196.682 39.636)" fill="#fff"/>
      <path id="Path_298" data-name="Path 298" d="M197.386,69.7V64.164h3.851V41.02h-3.851V35.486H214.95c5.485,0,10.536.771,10.536,9.192v.866a6.112,6.112,0,0,1-3.9,6.063v.1a7.1,7.1,0,0,1,5.294,7.073v1.492c-.193,8.612-6.207,9.431-11.26,9.431H197.386ZM208.6,49.343h6.353c1.539,0,3.127-.576,3.127-3.609v-.72c0-2.839-1.492-3.514-3.127-3.514H208.6Zm7.026,14.291c1.732,0,3.7-.675,3.849-3.9v-.915c0-3.561-2.261-3.851-4.041-3.851H208.6v8.662Z" transform="translate(220.462 39.635)" fill="#fff"/>
      <path id="Path_299" data-name="Path 299" d="M213,69.7V64.162h3.849V41.018H213V35.487h26.417v9.575h-6.5V41.5H224.21v8.275H234.7v5.965H224.21v7.892H233.3V60.073h6.5V69.7Z" transform="translate(237.9 39.635)" fill="#fff"/>
      <path id="Path_300" data-name="Path 300" d="M37.656,134.482V148.5H0V134.482H9.748V75.865H0V61.851H42.774c18.157,0,29.613,3.292,29.613,27.907,0,18.769-6.948,24.495-19.5,26.444l-.853.123v.366l13.891,17.79H75.19V148.5H54.229L33.147,116.933H28.515v17.549Zm5.119-32.414c6.579,0,10.847-1.1,10.847-12.31S49.354,77.084,42.774,77.084H28.515v24.984Z" transform="translate(0 69.082)" fill="#fff"/>
      <path id="Path_301" data-name="Path 301" d="M39.2,148.5V134.482h9.748V75.865H39.2V61.851h66.9V86.1H89.648V77.084H67.59V98.046H94.157v15.11H67.59v19.988H90.622v-9.02h16.453V148.5Z" transform="translate(43.778 69.082)" fill="#fff"/>
      <path id="Path_302" data-name="Path 302" d="M101.659,75.864l9.264,41.07h.608l12.31-51.79h18.036l12.308,51.79h.489l9.261-41.07H155.4V61.852h35.706V75.864h-7.921L164.055,148.5H145.53L133.224,94.509h-.61L120.182,148.5H101.538L82.283,75.864H74.361V61.852H110.19V75.864Z" transform="translate(83.055 69.083)" fill="#fff"/>
      <path id="Path_303" data-name="Path 303" d="M179.866,148.5V134.482h8.529l-3.533-10.358h-28.03L153.3,134.482h8.531V148.5H126.852V134.482h7.8l26.078-72.631h20.231l26.078,72.631h7.8V148.5Zm-.123-39.487L170.968,80.5h-.243l-8.775,28.515Z" transform="translate(141.682 69.082)" fill="#fff"/>
      <path id="Path_304" data-name="Path 304" d="M208.6,134.482V148.5H170.941V134.482h9.748V75.865h-9.748V61.851h42.774c18.157,0,29.616,3.292,29.616,27.907,0,18.769-6.948,24.495-19.5,26.444l-.853.123v.366l13.891,17.79h9.261V148.5H225.17l-21.082-31.565h-4.632v17.549Zm5.119-32.414c6.579,0,10.847-1.1,10.847-12.31s-4.268-12.674-10.847-12.674H199.456v24.984Z" transform="translate(190.925 69.082)" fill="#fff"/>
      <path id="Path_305" data-name="Path 305" d="M210.137,148.5V134.483h9.75V75.864h-9.75V61.852h40.217c26.32.364,39,9.628,39,35.1V113.4c0,26.2-14.262,35.1-39,35.1H210.137Zm40.217-15.231c14.988,0,20.352-5.608,20.352-19.865V96.948c0-15.235-6.825-19.865-20.352-19.865H238.529v56.183Z" transform="translate(234.704 69.083)" fill="#fff"/>
      <path id="Path_306" data-name="Path 306" d="M251.979,148.5V134.482h9.748V75.865h-9.748V61.851h66.907V86.1H302.434V77.084h-22.06V98.046h26.569v15.11H280.373v19.988h23.032v-9.02H319.86V148.5Z" transform="translate(281.438 69.082)" fill="#fff"/>
      <path id="Path_307" data-name="Path 307" d="M288.527,148.5V134.483h9.75V75.864h-9.75V61.852h40.217c26.324.364,39,9.628,39,35.1V113.4c0,26.2-14.257,35.1-39,35.1H288.527Zm40.217-15.231c14.99,0,20.352-5.608,20.352-19.865V96.948c0-15.235-6.825-19.865-20.352-19.865H316.923v56.183Z" transform="translate(322.258 69.083)" fill="#fff"/>
      <rect id="Rectangle_1460" data-name="Rectangle 1460" width="182.734" height="34.643" transform="translate(0 75.121)" fill="#fff"/>
      <rect id="Rectangle_1461" data-name="Rectangle 1461" width="182.734" height="34.643" transform="translate(505.408 75.121)" fill="#fff"/>
    </g>
  </g>
</svg>
