<svg xmlns="http://www.w3.org/2000/svg" width="25" height="25" viewBox="0 0 25 25">
  <g id="Group_10768" data-name="Group 10768" transform="translate(-1096 403) rotate(-90)">
    <g id="Ellipse_2" data-name="Ellipse 2" transform="translate(378 1096)" fill="#fff" stroke="#e0e0e0" stroke-width="1">
      <circle cx="12.5" cy="12.5" r="12.5" stroke="none"/>
      <circle cx="12.5" cy="12.5" r="12" fill="none"/>
    </g>
    <path id="plus" d="M6.708,66.917H4.083V64.292A.292.292,0,0,0,3.792,64H3.208a.292.292,0,0,0-.292.292v2.625H.292A.292.292,0,0,0,0,67.208v.583a.292.292,0,0,0,.292.292H2.917v2.625A.292.292,0,0,0,3.208,71h.583a.292.292,0,0,0,.292-.292V68.083H6.708A.292.292,0,0,0,7,67.792v-.583A.292.292,0,0,0,6.708,66.917Z" transform="translate(387 1041)" fill="#78a22f"/>
  </g>
</svg>
