<svg id="Group_10576" data-name="Group 10576" xmlns="http://www.w3.org/2000/svg" xmlns:xlink="http://www.w3.org/1999/xlink" width="114.836" height="75.379" viewBox="0 0 114.836 75.379">
  <defs>
    <clipPath id="clip-path">
      <rect id="Rectangle_2116" data-name="Rectangle 2116" width="114.836" height="75.379" fill="none"/>
    </clipPath>
  </defs>
  <g id="Group_10575" data-name="Group 10575" clip-path="url(#clip-path)">
    <path id="Path_1569" data-name="Path 1569" d="M169.808,151.975a1.947,1.947,0,0,0-1.947,1.947V165.6a1.947,1.947,0,0,0,3.894,0V153.922a1.947,1.947,0,0,0-1.947-1.947" transform="translate(-121.171 -109.704)" fill="#fff"/>
    <path id="Path_1570" data-name="Path 1570" d="M112.889,44.226a1.952,1.952,0,0,0,1.947-1.947V26.7a1.94,1.94,0,0,0-1.947-1.947H88.551a5.7,5.7,0,0,1,.954-3.135,5.771,5.771,0,0,1,3.68-2.532,1.938,1.938,0,0,0,1.5-2.3L91.452,1.547A1.919,1.919,0,0,0,90.6.32a1.846,1.846,0,0,0-1.46-.273L1.54,18.681a1.938,1.938,0,0,0-1.5,2.3L3.273,36.2a1.919,1.919,0,0,0,.856,1.227,1.846,1.846,0,0,0,1.46.273,5.708,5.708,0,0,1,4.381.818A5.862,5.862,0,0,1,8,49.153a1.939,1.939,0,0,0-1.227.837A2.02,2.02,0,0,0,6.5,51.45L9.756,66.676a1.954,1.954,0,0,0,1.908,1.539,1.444,1.444,0,0,0,.408-.039l9.307-1.966v7.223a1.952,1.952,0,0,0,1.947,1.947h89.562a1.952,1.952,0,0,0,1.947-1.947V57.856a1.94,1.94,0,0,0-1.947-1.947,5.842,5.842,0,0,1,0-11.683Zm-1.947,15.362v11.9H50.585v-7.8a1.947,1.947,0,1,0-3.894,0v7.8H25.274v-11.9a9.726,9.726,0,0,0,0-19.061V28.65H46.691v7.779a1.947,1.947,0,0,0,3.894,0V28.65h60.357V40.526a9.726,9.726,0,0,0,0,19.061" transform="translate(0 0)" fill="#fff"/>
  </g>
</svg>
