<svg xmlns="http://www.w3.org/2000/svg" width="103.637" height="78.435" viewBox="0 0 103.637 78.435">
  <g id="Group_10574" data-name="Group 10574" transform="translate(-111.937 -102.976)">
    <path id="Path_1562" data-name="Path 1562" d="M243.6,165.6a5.442,5.442,0,0,1,2.455-.123C245.2,165.473,244.459,165.6,243.6,165.6Z" transform="translate(-103.735 -48.734)" fill="#fff"/>
    <path id="Path_1563" data-name="Path 1563" d="M274.3,312.547l-.246,1.719-.122.491-.122.982a5.211,5.211,0,0,1-6.015,4.419l-22.955-3.437-18.413-2.7a3.115,3.115,0,0,1-.86-.246A5.06,5.06,0,0,1,222,308l.491-3.069a3.572,3.572,0,0,1,.246-1.1,5.284,5.284,0,0,1,5.647-3.315l13.748,2.087,27.619,4.051a5.271,5.271,0,0,1,4.3,3.928,3.642,3.642,0,0,1,.245,1.964Zm-5.892,3.437a1.013,1.013,0,0,0,1.228-.86l.491-3.069a1.073,1.073,0,0,0-.614-1.1.431.431,0,0,1-.246-.122L227.9,304.69h-.246a1.042,1.042,0,0,0-.982.86l-.491,3.069a1.013,1.013,0,0,0,.86,1.228l18.045,2.7,19.641,2.946Z" transform="translate(-87.363 -156.003)" fill="#fff"/>
    <path id="Path_1564" data-name="Path 1564" d="M201.822,177.17a3.258,3.258,0,0,0,3.567-2.615l1.664-11.65.475-3.329,1.664-11.293c-.119,0-5.469-.713-13.2-1.9-1.308-.238-2.734-.357-4.161-.595-2.139-.356-4.4-.595-6.776-.951-2.734-.357-5.587-.833-8.441-1.189-1.308-.238-2.615-.356-3.923-.595-1.07-.118-2.139-.356-3.21-.475-1.426-.238-2.734-.357-4.161-.595-8.557-1.426-16.641-2.615-21.99-3.447-4.161-.595-6.776-1.07-6.895-1.07l-.238,1.546-.832,5.111-.595,4.161-.119.833-.475,2.972-.951,6.063-.476,4.16-.238,1.426a3.07,3.07,0,0,0,2.615,3.447Zm-6.538-42.677c9.035,1.308,15.573,2.377,15.692,2.377l.475-3.21a3.188,3.188,0,0,0-2.615-3.567l-14.027-2.021-17.475-2.5-35.307-5.23a3.258,3.258,0,0,0-3.567,2.615l-.475,3.21c.119,0,4.042.594,9.867,1.426,7.965,1.189,19.614,2.853,30.789,4.518,1.783.238,3.447.475,5.231.833a25.8,25.8,0,0,1,2.972.475c1.426.238,2.734.356,4.042.594,1.664.119,2.972.237,4.4.475Zm14.147-8.322a7.233,7.233,0,0,1,6.063,8.2l-6.063,40.894a7.182,7.182,0,0,1-8.083,6.063l-66.69-9.867a7.182,7.182,0,0,1-6.063-8.083l.119-.595-6.182.357a7.171,7.171,0,0,1-7.608-6.657l-2.5-34.356-.475-7.014a7.171,7.171,0,0,1,6.657-7.608l67.285-4.518a7.171,7.171,0,0,1,7.608,6.657l1.07,14.266ZM189.7,113.213l-.238-3.21a3.085,3.085,0,0,0-3.329-2.853l-67.285,4.518A3.086,3.086,0,0,0,115.992,115l.238,3.21c.119,0,10.7-.833,23.657-1.664.833,0,1.546-.118,2.377-.118,21.042-1.546,47.195-3.329,47.432-3.21Zm-56.229,16.049.119-.713c-9.51.594-16.405,1.07-16.642,1.07l.832,11.769.238,3.091.832,11.769a3.086,3.086,0,0,0,3.329,2.853l7.133-.475,1.426-9.986-6.063.475a5.083,5.083,0,0,1-5.469-4.755l-.238-3.091a5.083,5.083,0,0,1,4.755-5.469l9.035-.595Zm-2.259,15.216.713-5.111-8.083.595a.971.971,0,0,0-.951,1.07l.238,3.091a1.041,1.041,0,0,0,1.07.951Z" transform="translate(0 0)" fill="#fff"/>
    <path id="Path_1565" data-name="Path 1565" d="M481.221,347.579a1.1,1.1,0,0,0,1.228-.86l.491-3.069a1.1,1.1,0,0,0-.86-1.228l-6.26-.982h-.368a1.012,1.012,0,0,0-1.228.86v.246l-.368,2.946a1.1,1.1,0,0,0,.86,1.228Zm-7.488-10.066a4.916,4.916,0,0,1,2.333-.123l2.087.368,4.542.491a5.382,5.382,0,0,1,4.542,5.647v.368l-.491,3.069a5.211,5.211,0,0,1-6.015,4.419l-6.628-.983a5.3,5.3,0,0,1-4.419-6.015l.246-1.473.246-1.719a5.445,5.445,0,0,1,1.228-2.7,7.273,7.273,0,0,1,2.332-1.35Z" transform="translate(-282.671 -184.943)" fill="#fff"/>
  </g>
</svg>
