<svg xmlns="http://www.w3.org/2000/svg" xmlns:xlink="http://www.w3.org/1999/xlink" width="85.638" height="79.51" viewBox="0 0 85.638 79.51">
  <defs>
    <clipPath id="clip-path">
      <rect id="Rectangle_2117" data-name="Rectangle 2117" width="85.638" height="79.51" fill="none"/>
    </clipPath>
  </defs>
  <g id="Group_10577" data-name="Group 10577" transform="translate(0 15)">
    <g id="Group_10577-2" data-name="Group 10577" transform="translate(0 -15)" clip-path="url(#clip-path)">
      <path id="Path_1571" data-name="Path 1571" d="M2.177,5.028h8.236A1.763,1.763,0,0,1,12.12,6.352L15.7,20.24l8.654,33.61a7.955,7.955,0,0,0,7.7,5.972H72.653a7.937,7.937,0,0,0,7.838-6.6l5.078-29.377v-.023a5.448,5.448,0,0,0-5.38-6.314H76.5c-2.1-2.5-4.329-5.127-6.552-7.74-2.378-2.8-4.735-5.568-6.869-8.129h0A3.661,3.661,0,0,0,59.861,0a4.012,4.012,0,0,0-2.883,1.208l-11.1,9.325c-2.053-1.451-4.111-2.923-6.222-4.448a3.983,3.983,0,0,0-2.439-.926A3.935,3.935,0,0,0,33.9,6.7c-2.36,3.174-4.726,6.4-7.069,9.615l-.871,1.2H19.494L16.338,5.267A6.114,6.114,0,0,0,10.413.674H2.177a2.177,2.177,0,1,0,0,4.355ZM25.953,42.6,23.921,34.74l-1.115-4.354-2.192-8.506H80.186a1.074,1.074,0,0,1,.839.369h0a1.069,1.069,0,0,1,.247.871L76.205,52.482a3.588,3.588,0,0,1-3.545,2.985h-40.6a3.6,3.6,0,0,1-3.484-2.7l-1.5-5.806ZM59.814,4.54c2.131,2.54,4.462,5.287,6.816,8.053,1.4,1.649,2.8,3.3,4.178,4.935H55.616L53.43,15.943c-1.3-.926-2.6-1.864-3.9-2.8ZM37.14,9.649l.052.035c2.5,1.805,5.031,3.609,7.513,5.371,1.141.827,2.288,1.643,3.431,2.465H31.354c1.928-2.642,3.861-5.29,5.786-7.876Z" transform="translate(0 0)" fill="#fff"/>
      <path id="Path_1572" data-name="Path 1572" d="M182,418.354a7.838,7.838,0,1,0,2.3-5.542,7.818,7.818,0,0,0-2.3,5.542Z" transform="translate(-153.693 -346.671)" fill="#fff"/>
      <path id="Path_1573" data-name="Path 1573" d="M399.278,418.449a7.837,7.837,0,1,0,2.3-5.531,7.824,7.824,0,0,0-2.3,5.531Z" transform="translate(-337.181 -346.767)" fill="#fff"/>
    </g>
  </g>
</svg>
