<svg id="Group_10584" data-name="Group 10584" xmlns="http://www.w3.org/2000/svg" xmlns:xlink="http://www.w3.org/1999/xlink" width="70.477" height="81.588" viewBox="0 0 70.477 81.588">
  <defs>
    <clipPath id="clip-path">
      <rect id="Rectangle_2121" data-name="Rectangle 2121" width="70.477" height="81.588" fill="none"/>
    </clipPath>
  </defs>
  <g id="Group_10583" data-name="Group 10583" clip-path="url(#clip-path)">
    <path id="Path_1578" data-name="Path 1578" d="M57.485,155.51H13.2a1.313,1.313,0,0,0-1.134.651L.179,176.5a1.313,1.313,0,0,0,.182,1.568l34.042,35.8a1.313,1.313,0,0,0,1.907,0l33.808-35.793a1.313,1.313,0,0,0,.184-1.556L58.624,156.17a1.313,1.313,0,0,0-1.139-.66M44.929,181.2l-8.361,20.776a1.313,1.313,0,0,1-2.437,0L25.777,181.2A1.313,1.313,0,0,1,27,179.4H43.711a1.313,1.313,0,0,1,1.219,1.8m-17.368-8.689,6.613-9.1a1.314,1.314,0,0,1,2.122,0l6.661,9.1A1.313,1.313,0,0,1,41.9,174.6H28.624a1.313,1.313,0,0,1-1.062-2.086m14.972-12.223h8.841a1.313,1.313,0,0,1,1.22,1.8l-3.132,7.836a1.314,1.314,0,0,1-2.281.286l-5.709-7.836a1.313,1.313,0,0,1,1.062-2.087m-21.342,9.474-3.1-7.668a1.313,1.313,0,0,1,1.217-1.806h8.634a1.313,1.313,0,0,1,1.065,2.082l-5.532,7.668a1.314,1.314,0,0,1-2.283-.276M16.025,174.6H9.106a1.313,1.313,0,0,1-1.135-1.974l4.079-7.011a1.313,1.313,0,0,1,2.353.167l2.84,7.011a1.313,1.313,0,0,1-1.217,1.807m4.2,5.608L25.893,194.3a1.313,1.313,0,0,1-2.17,1.395l-13.39-14.081a1.313,1.313,0,0,1,.95-2.219l7.726-.011a1.314,1.314,0,0,1,1.22.824m31.473-.825h7.568a1.313,1.313,0,0,1,.954,2.216L47.05,195.532a1.313,1.313,0,0,1-2.173-1.393l5.606-13.932a1.314,1.314,0,0,1,1.219-.823m1.76-6.586,2.785-6.932a1.313,1.313,0,0,1,2.359-.163l3.969,6.932a1.313,1.313,0,0,1-1.14,1.966H54.681a1.313,1.313,0,0,1-1.219-1.8" transform="translate(0 -132.688)" fill="#fff"/>
    <path id="Path_1579" data-name="Path 1579" d="M339.9,31.971l8.984-8.919a1.314,1.314,0,0,1,1.857.007l1.519,1.53a1.313,1.313,0,0,1-.007,1.857l-8.984,8.919a1.314,1.314,0,0,1-1.858-.007l-1.519-1.53a1.313,1.313,0,0,1,.007-1.858" transform="translate(-289.689 -19.344)" fill="#fff"/>
    <path id="Path_1580" data-name="Path 1580" d="M53.233,24.42l1.53-1.519a1.313,1.313,0,0,1,1.858.007l8.917,8.986a1.314,1.314,0,0,1-.007,1.858L64,35.27a1.313,1.313,0,0,1-1.857-.007l-8.917-8.986a1.313,1.313,0,0,1,.007-1.857" transform="translate(-45.089 -19.215)" fill="#fff"/>
    <path id="Path_1581" data-name="Path 1581" d="M225.156,0h2.167a1.308,1.308,0,0,1,1.308,1.308V13.814a1.308,1.308,0,0,1-1.308,1.308h-2.167a1.308,1.308,0,0,1-1.308-1.308V1.308A1.308,1.308,0,0,1,225.156,0" transform="translate(-190.997)" fill="#fff"/>
  </g>
</svg>
