<svg id="Group_10578" data-name="Group 10578" xmlns="http://www.w3.org/2000/svg" xmlns:xlink="http://www.w3.org/1999/xlink" width="81.503" height="81.535" viewBox="0 0 81.503 81.535">
  <defs>
    <clipPath id="clip-path">
      <rect id="Rectangle_2119" data-name="Rectangle 2119" width="81.503" height="81.535" fill="#fff"/>
    </clipPath>
  </defs>
  <g id="Group_10579" data-name="Group 10579" clip-path="url(#clip-path)">
    <path id="Path_1575" data-name="Path 1575" d="M79.985,1.811l-.18-.18a4.228,4.228,0,0,0-.719-.581A6.626,6.626,0,0,0,75.293,0h-.024c-3.626,0-8.4,2-13.094,5.495C58.835,8,55.68,11.3,51.314,15.872l-.875.915-.483.521a2.2,2.2,0,0,1-2.251.6L14.157,7.5a.622.622,0,0,0-.627.155L4.551,16.631a.624.624,0,0,0,.093.959l25.1,16.918a2.185,2.185,0,0,1,.415,3.261C27.755,40.485,25.968,42.7,23.7,45.6a2.181,2.181,0,0,1-1.9.832L5.29,45.093a.623.623,0,0,0-.6.335l-4.614,8.9a.624.624,0,0,0,.315.864l12.339,5.128a1.176,1.176,0,0,1,.632,1.542l-1,2.369a.622.622,0,0,0,.134.684l4.127,4.127a.622.622,0,0,0,.684.134l2.369-1a1.175,1.175,0,0,1,1.542.632L26.341,81.15a.624.624,0,0,0,.865.314l8.874-4.629a.623.623,0,0,0,.334-.6L35.076,59.671a2.179,2.179,0,0,1,.841-1.9c2.69-2.083,4.975-3.877,7.832-6.406a2.185,2.185,0,0,1,3.262.418L63.885,76.9a.625.625,0,0,0,.96.094l8.978-8.978a.624.624,0,0,0,.155-.627L64.187,35.806l-.6-1.99a2.176,2.176,0,0,1,.584-2.208l.59-.564c4.777-4.527,8.548-8.1,11.257-11.705C79.5,14.663,81.5,9.886,81.5,6.237V5.809a6.73,6.73,0,0,0-1.028-3.365,4.356,4.356,0,0,0-.49-.634M72.324,15.963l0,.006-.3.407c-2.339,3.115-5.6,6.244-10.7,11.027l-3.5,3.346a.622.622,0,0,0-.168.631l1.753,5.862,8.8,28.469a1.173,1.173,0,0,1-.291,1.178L66.075,68.73a1.175,1.175,0,0,1-1.807-.176L46.875,42.606a.625.625,0,0,0-.942-.111l-1.646,1.52A144.912,144.912,0,0,1,31.871,54.6l-1.838,1.411a.622.622,0,0,0-.242.545l1.327,16.46a1.173,1.173,0,0,1-.63,1.138l-.27.14a1.175,1.175,0,0,1-1.627-.6L23.656,61.732a.624.624,0,0,0-.819-.337l-2.031.856a1.175,1.175,0,0,1-1.539-1.54l.859-2.038a.624.624,0,0,0-.334-.818l-11.933-5a1.175,1.175,0,0,1-.589-1.625l.141-.272a1.171,1.171,0,0,1,1.138-.63l16.412,1.327a.625.625,0,0,0,.542-.238l1.4-1.791a145.753,145.753,0,0,1,10.608-12.4l1.521-1.609a.625.625,0,0,0-.106-.948L12.99,17.277a1.175,1.175,0,0,1-.188-1.8l1.818-1.869a1.17,1.17,0,0,1,1.19-.3l28.178,8.724,6.119,1.837a.622.622,0,0,0,.63-.166l3.317-3.465c4.372-4.624,7.828-8.28,11.1-10.727C67.938,7.429,72.244,5,75.231,4.986h.018A1.165,1.165,0,0,1,76.475,6.2c.023,1.93-1.062,5.473-4.15,9.766" transform="translate(0 0)" fill="#fff"/>
  </g>
</svg>
