<svg id="Group_10582" data-name="Group 10582" xmlns="http://www.w3.org/2000/svg" xmlns:xlink="http://www.w3.org/1999/xlink" width="86.025" height="81.535" viewBox="0 0 86.025 81.535">
  <defs>
    <clipPath id="clip-path">
      <rect id="Rectangle_2120" data-name="Rectangle 2120" width="86.025" height="81.535" fill="none"/>
    </clipPath>
  </defs>
  <g id="Group_10581" data-name="Group 10581" clip-path="url(#clip-path)">
    <path id="Path_1576" data-name="Path 1576" d="M26.474.713,80.255,23.06a9.4,9.4,0,0,1,5.059,12.251q-6.749,16.238-13.5,32.478a9.4,9.4,0,0,1-12.251,5.06L5.773,50.5A9.4,9.4,0,0,1,.713,38.244Q7.47,21.993,14.223,5.735A9.429,9.429,0,0,1,26.475.711ZM18.967,81.535c-4.05,0-4.05-6.157,0-6.157H47.822c4.05,0,4.05,6.157,0,6.157Zm-15.71,0c-4.05,0-4.05-6.157,0-6.157H9.99c4.05,0,4.05,6.157,0,6.157Zm7.057-50.389L70.072,55.98l9.567-23.024A3.234,3.234,0,0,0,77.9,28.734L24.1,6.381a3.236,3.236,0,0,0-4.22,1.739Zm57.4,30.506L7.955,36.818,6.384,40.6a3.236,3.236,0,0,0,1.742,4.221L61.92,67.173a3.234,3.234,0,0,0,4.221-1.742l1.571-3.78Z" transform="translate(0 0)" fill="#fff"/>
    <path id="Path_1577" data-name="Path 1577" d="M179.058,116.044a1.971,1.971,0,0,1-.922-2.808l-.948-.391a1.924,1.924,0,0,1,1.469-3.556l2.726,1.126a1.027,1.027,0,0,0,.776-1.9,4.91,4.91,0,0,1,1.805-9.388,1.981,1.981,0,1,1,3.7,1.118l.948.392a1.924,1.924,0,0,1-1.469,3.556l-2.726-1.126a1.027,1.027,0,0,0-.776,1.9,4.91,4.91,0,0,1-1.8,9.388,2.106,2.106,0,0,1-2.779,1.69Z" transform="translate(-137.332 -75.902)" fill="#fff"/>
  </g>
</svg>
