<svg id="ICON_-_Shipping" data-name="ICON - Shipping" xmlns="http://www.w3.org/2000/svg" width="61.864" height="42" viewBox="0 0 61.864 42">
  <path id="Path_95" data-name="Path 95" d="M439.054,149.2a1.89,1.89,0,0,0-1.1,1.717v22.54a1.886,1.886,0,0,0,1.1,1.715l17.333,7.863a2.154,2.154,0,0,0,1.594-.009l17.314-7.854a1.891,1.891,0,0,0,1.1-1.715v-22.54a1.894,1.894,0,0,0-1.1-1.717l-17.333-7.863a2.225,2.225,0,0,0-.806-.154,1.951,1.951,0,0,0-.772.156Zm16.236,29.148-13.5-6.083V153.89l13.5,6.083Zm17.268-6.083-13.5,6.083V159.973l13.5-6.083ZM457.176,145.2l12.7,5.784-12.7,5.784-12.7-5.784Z" transform="translate(-414.533 -141.187)" fill="#78a22f"/>
  <g id="Group_541" data-name="Group 541" transform="translate(0 9.83)">
    <path id="Path_96" data-name="Path 96" d="M437.535,146.805h-6.418a1.867,1.867,0,1,0,0,3.734h6.418a1.857,1.857,0,0,0,1.886-1.867,1.681,1.681,0,0,0-.49-1.264A1.948,1.948,0,0,0,437.535,146.805Z" transform="translate(-421.224 -146.805)" fill="#78a22f"/>
    <path id="Path_97" data-name="Path 97" d="M439.258,152.122H428.87a1.867,1.867,0,1,0,0,3.734h10.454a1.856,1.856,0,0,0,1.885-1.867A1.912,1.912,0,0,0,439.258,152.122Z" transform="translate(-422.948 -142.817)" fill="#78a22f"/>
    <path id="Path_98" data-name="Path 98" d="M441.01,157.4H426.585a1.867,1.867,0,1,0,0,3.735H441.01a1.857,1.857,0,0,0,1.885-1.867,1.7,1.7,0,0,0-.477-1.276A1.959,1.959,0,0,0,441.01,157.4Z" transform="translate(-424.7 -138.858)" fill="#78a22f"/>
  </g>
</svg>
