<?xml version="1.0" encoding="utf-8"?>
<!-- Generator: Adobe Illustrator 21.1.0, SVG Export Plug-In . SVG Version: 6.00 Build 0)  -->
<svg version="1.1" id="Isolation_Mode" xmlns="http://www.w3.org/2000/svg" xmlns:xlink="http://www.w3.org/1999/xlink" x="0px"
	 y="0px" viewBox="0 0 612 792" style="enable-background:new 0 0 612 792;" xml:space="preserve">
<style type="text/css">
	.st0{clip-path:url(#SVGID_2_);fill:#FFFFFF;}
	.st1{clip-path:url(#SVGID_2_);fill:#78A22F;}
</style>
<g>
	<defs>
		<rect id="SVGID_1_" x="387.4" y="71.5" width="194.4" height="74.7"/>
	</defs>
	<clipPath id="SVGID_2_">
		<use xlink:href="#SVGID_1_"  style="overflow:visible;"/>
	</clipPath>
	<path class="st0" d="M481.5,85.1h-7.3v5.5h-3v5.6h3v10.1v2.5c0,2,1.6,3.6,3.6,3.6h8v-5.6h-4.4v-0.5V96.2h4.4v-5.6h-4.4V85.1z"/>
	<path class="st0" d="M451.3,95.7c-7.7-1.8-7.6-2.3-7.6-2.3v-3.1h6.2v3.1h7.6v-4.2c0-3-2.4-5.4-5.4-5.4h-10.6c-3,0-5.4,2.4-5.4,5.4
		v5.5c0,0-0.6,3.7,3.8,5.1c5.5,1.7,10.5,3.2,10.5,3.2v3.3h-6.6v-3.2h-7.8v3.9c0,3,2.4,5.4,5.4,5.4h11c3,0,5.4-2.4,5.4-5.4v-6.7
		C457.9,100.4,458,97.3,451.3,95.7"/>
	<rect x="461.3" y="90.6" class="st0" width="7.9" height="21.9"/>
	<rect x="461.3" y="84.4" class="st0" width="7.9" height="4.2"/>
	<path class="st0" d="M502.1,90.6h-9.4c-2.7,0-4.8,2.2-4.8,4.8v12.3c0,2.7,2.2,4.8,4.8,4.8h9.4c2.7,0,4.8-2.2,4.8-4.8v-2.4h-6.8v1.5
		c0,0.5-1.3,0.5-1.3,0.5H496c-1,0-0.8-1-0.8-1v-3h11.8v-7.9C506.9,92.8,504.8,90.6,502.1,90.6 M500,99.5h-4.9v-2.9
		c0-0.7,0.5-0.8,1.1-0.8h2.8c0.9,0,1,0.9,1,0.9V99.5z"/>
	<path class="st0" d="M549.1,90.6c-2.9,0-7.4,1.7-7.4,1.7l0-1.7h-7.2v4.8v12.3v4.8h4.8h2.4V97.5l3-1c2.1-0.8,2,1.6,2,1.6v14.4h2.4
		h4.8v-4.8V99v-3.5C554,92.8,551.8,90.6,549.1,90.6"/>
	<path class="st0" d="M564,103.4h11.8v-7.9c0-2.7-2.2-4.8-4.8-4.8h-9.4c-2.7,0-4.8,2.2-4.8,4.8v12.3c0,2.7,2.2,4.8,4.8,4.8h9.4
		c2.7,0,4.8-2.2,4.8-4.8v-2.4H569v1.5c0,0.5-1.3,0.5-1.3,0.5h-2.9c-1,0-0.8-1-0.8-1V103.4z M564,99.5v-2.9c0-0.7,0.5-0.8,1.1-0.8
		h2.8c0.9,0,1,0.9,1,0.9v2.9H564z"/>
	<path class="st0" d="M526.6,83.9H515c-2.8,0-5.1,2.3-5.1,5.1v18.4c0,2.8,2.3,5.1,5.1,5.1h11.6c2.8,0,5.1-2.3,5.1-5.1V89
		C531.7,86.2,529.4,83.9,526.6,83.9 M524.5,106.3h-7.1V90.6h7.1V106.3z"/>
	<path class="st0" d="M440,123.1h2.5c0.2,0,0.3,0.1,0.3,0.2v0.6c0,0.2-0.1,0.3-0.3,0.3h-3.9c-0.2,0-0.2-0.1-0.2-0.3v-6.4
		c0-0.2,0.1-0.3,0.3-0.3h1c0.2,0,0.3,0.1,0.3,0.3V123.1z"/>
	<path class="st0" d="M449.4,117.3c0.2,0,0.3,0.1,0.4,0.3l2.1,6.5c0.1,0.2,0,0.3-0.2,0.3h-1c-0.2,0-0.3-0.1-0.3-0.3l-0.4-1.3h-2.1
		l-0.4,1.3c-0.1,0.2-0.1,0.3-0.3,0.3h-0.9c-0.2,0-0.3-0.1-0.2-0.3l2.1-6.5c0.1-0.2,0.1-0.3,0.4-0.3H449.4z M449.2,120.5
		c-0.1-0.4-0.3-1.7-0.3-1.9c0,0.1-0.2,1.4-0.4,1.9l-0.4,1.1h1.5L449.2,120.5z"/>
	<path class="st0" d="M461.1,124c0,0.2-0.1,0.3-0.3,0.3h-0.9c-0.1,0-0.2,0-0.3-0.1l-2.2-3.4c-0.3-0.5-0.4-0.8-0.5-0.8v4.1
		c0,0.2-0.1,0.3-0.3,0.3h-0.9c-0.2,0-0.3-0.1-0.3-0.3v-6.5c0-0.2,0.1-0.3,0.3-0.3h0.9c0.1,0,0.2,0,0.2,0.1l2.3,3.5
		c0.2,0.3,0.4,0.7,0.4,0.7v-4.1c0-0.2,0.1-0.3,0.3-0.3h0.9c0.2,0,0.3,0.1,0.3,0.3V124z"/>
	<path class="st0" d="M465.5,124.2c-0.2,0-0.2-0.1-0.2-0.3v-6.4c0-0.2,0.1-0.3,0.3-0.3h2.5c2.1,0,2.8,0.8,2.8,1.7v3.6
		c0,0.9-0.7,1.7-2.8,1.7H465.5z M466.8,118.4v4.7h1.2c0.8,0,1.2-0.3,1.2-0.8v-3.1c0-0.5-0.5-0.8-1.2-0.8H466.8z"/>
	<path class="st0" d="M478.6,119c0-0.5-0.4-0.7-1.1-0.7c-0.7,0-1.1,0.2-1.1,0.7v0.2c0,0.4,0.3,0.5,0.5,0.6l2,0.6
		c0.8,0.2,1.3,0.7,1.3,1.5v0.8c0,0.9-0.7,1.7-2.7,1.7c-2,0-2.7-0.8-2.7-1.7V122c0-0.2,0.1-0.3,0.3-0.3h1c0.2,0,0.3,0.1,0.3,0.3v0.5
		c0,0.5,0.4,0.7,1.2,0.7c0.8,0,1.2-0.2,1.2-0.7v-0.3c0-0.4-0.5-0.6-1-0.8l-1.8-0.6c-0.5-0.2-1-0.7-1-1.3v-0.6c0-0.9,0.6-1.7,2.6-1.7
		c2,0,2.6,0.8,2.6,1.7v0.4c0,0.2-0.1,0.3-0.3,0.3h-1c-0.2,0-0.3-0.1-0.3-0.3V119z"/>
	<path class="st0" d="M489.3,122.7c0,0.9-0.6,1.7-2.7,1.7c-2.1,0-2.7-0.8-2.7-1.7v-3.8c0-0.9,0.6-1.7,2.7-1.7c2.1,0,2.7,0.8,2.7,1.7
		v0.5c0,0.2-0.1,0.3-0.3,0.3h-0.9c-0.2,0-0.3-0.1-0.3-0.3v-0.2c0-0.5-0.4-0.8-1.2-0.8c-0.8,0-1.2,0.3-1.2,0.8v3.3
		c0,0.5,0.4,0.8,1.2,0.8c0.8,0,1.2-0.3,1.2-0.8V122c0-0.2,0.1-0.3,0.3-0.3h0.9c0.2,0,0.3,0.1,0.3,0.3V122.7z"/>
	<path class="st0" d="M496.1,117.3c0.2,0,0.3,0.1,0.4,0.3l2.1,6.5c0.1,0.2,0,0.3-0.2,0.3h-1c-0.2,0-0.3-0.1-0.3-0.3l-0.4-1.3h-2.1
		l-0.4,1.3c-0.1,0.2-0.1,0.3-0.3,0.3h-0.9c-0.2,0-0.3-0.1-0.2-0.3l2.1-6.5c0.1-0.2,0.1-0.3,0.4-0.3H496.1z M495.9,120.5
		c-0.1-0.4-0.3-1.7-0.3-1.9c0,0.1-0.2,1.4-0.4,1.9l-0.4,1.1h1.5L495.9,120.5z"/>
	<path class="st0" d="M503.7,121.8v2.2c0,0.2-0.1,0.3-0.3,0.3h-1c-0.2,0-0.3-0.1-0.3-0.3v-6.4c0-0.2,0.1-0.3,0.3-0.3h2.4
		c2.1,0,2.8,0.8,2.8,1.7v1.2c0,0.9-0.7,1.7-2.8,1.7H503.7z M503.7,118.4v2.2h1.1c0.8,0,1.2-0.3,1.2-0.8v-0.7c0-0.5-0.5-0.8-1.2-0.8
		H503.7z"/>
	<path class="st0" d="M511.7,124.2c-0.2,0-0.3-0.1-0.3-0.3v-6.4c0-0.2,0.1-0.3,0.3-0.3h3.9c0.2,0,0.3,0.1,0.3,0.2v0.6
		c0,0.2-0.1,0.3-0.3,0.3H513v1.7h2.4c0.2,0,0.3,0.1,0.3,0.2v0.6c0,0.2-0.1,0.2-0.3,0.2H513v1.9h2.8c0.2,0,0.3,0.1,0.3,0.2v0.6
		c0,0.2-0.1,0.3-0.3,0.3H511.7z"/>
	<path class="st0" d="M528.4,119c0-0.5-0.4-0.7-1.1-0.7c-0.7,0-1.1,0.2-1.1,0.7v0.2c0,0.4,0.3,0.5,0.5,0.6l2,0.6
		c0.8,0.2,1.4,0.7,1.4,1.5v0.8c0,0.9-0.7,1.7-2.7,1.7c-2,0-2.7-0.8-2.7-1.7V122c0-0.2,0.1-0.3,0.3-0.3h1c0.2,0,0.3,0.1,0.3,0.3v0.5
		c0,0.5,0.4,0.7,1.2,0.7c0.8,0,1.2-0.2,1.2-0.7v-0.3c0-0.4-0.5-0.6-1-0.8l-1.8-0.6c-0.5-0.2-1-0.7-1-1.3v-0.6c0-0.9,0.6-1.7,2.6-1.7
		c2,0,2.6,0.8,2.6,1.7v0.4c0,0.2-0.1,0.3-0.3,0.3h-1c-0.2,0-0.3-0.1-0.3-0.3V119z"/>
	<path class="st0" d="M535.4,122.4c0,0.5,0.5,0.8,1.2,0.8c0.8,0,1.2-0.3,1.2-0.8v-4.9c0-0.2,0.1-0.3,0.3-0.3h1
		c0.2,0,0.3,0.1,0.3,0.3v5.1c0,0.9-0.7,1.7-2.8,1.7c-2.1,0-2.8-0.8-2.8-1.7v-5.1c0-0.2,0.1-0.3,0.3-0.3h1c0.2,0,0.3,0.1,0.3,0.3
		V122.4z"/>
	<path class="st0" d="M545.1,121.8v2.2c0,0.2-0.1,0.3-0.3,0.3h-1c-0.2,0-0.3-0.1-0.3-0.3v-6.4c0-0.2,0.1-0.3,0.3-0.3h2.4
		c2.1,0,2.8,0.8,2.8,1.7v1.2c0,0.9-0.7,1.7-2.8,1.7H545.1z M545.1,118.4v2.2h1.1c0.8,0,1.2-0.3,1.2-0.8v-0.7c0-0.5-0.5-0.8-1.2-0.8
		H545.1z"/>
	<path class="st0" d="M554.4,121.8v2.2c0,0.2-0.1,0.3-0.3,0.3h-1c-0.2,0-0.3-0.1-0.3-0.3v-6.4c0-0.2,0.1-0.3,0.3-0.3h2.4
		c2.1,0,2.8,0.8,2.8,1.7v1.2c0,0.9-0.7,1.7-2.8,1.7H554.4z M554.4,118.4v2.2h1.1c0.8,0,1.2-0.3,1.2-0.8v-0.7c0-0.5-0.5-0.8-1.2-0.8
		H554.4z"/>
	<path class="st0" d="M563.6,123.1h2.5c0.2,0,0.3,0.1,0.3,0.2v0.6c0,0.2-0.1,0.3-0.3,0.3h-3.9c-0.2,0-0.2-0.1-0.2-0.3v-6.4
		c0-0.2,0.1-0.3,0.3-0.3h1c0.2,0,0.3,0.1,0.3,0.3V123.1z"/>
	<path class="st0" d="M571.3,119.9c0.1,0.2,0.2,0.5,0.2,0.5c0,0,0.1-0.4,0.2-0.5l1.2-2.3c0.1-0.1,0.1-0.3,0.3-0.3h1
		c0.2,0,0.3,0.1,0.2,0.3l-2.2,4.1v2.4c0,0.2-0.1,0.3-0.3,0.3h-1c-0.2,0-0.3-0.1-0.3-0.3v-2.2l-2.2-4.2c-0.1-0.2,0-0.3,0.2-0.3h1.1
		c0.2,0,0.3,0.1,0.3,0.3L571.3,119.9z"/>
	<path class="st1" d="M415.3,109.9h-4c-0.2,0-0.4-0.2-0.4-0.4l-1.5-18.4c0-0.2-0.2-0.4-0.4-0.4l-1.4,0c-0.1,0-0.3,0.1-0.3,0.2
		l-6.5,9.2c-0.1,0.1-0.1,0.3,0,0.4l0.9,1.6c0.1,0.2,0.4,0.3,0.6,0.1l2.7-1.7c0.3-0.2,0.7,0,0.6,0.4l-0.3,8.6c0,0.2-0.2,0.4-0.4,0.4
		h-3.9c-0.1,0-0.3-0.1-0.4-0.2l-5.7-9.5c-0.1-0.1-0.1-0.3,0-0.5l12.9-17.6c0.2-0.2,0.5-0.2,0.7,0l12.9,17.6c0.1,0.1,0.1,0.3,0,0.5
		l-5.7,9.5C415.6,109.8,415.4,109.9,415.3,109.9 M407.8,71.7l-20.3,27.8c-0.1,0.1-0.1,0.3,0,0.5l9.7,15.8c0.1,0.1,0.2,0.2,0.4,0.2
		h21.3c0.1,0,0.3-0.1,0.4-0.2l9.5-15.8c0.1-0.1,0.1-0.3,0-0.5l-20.3-27.8C408.3,71.5,407.9,71.5,407.8,71.7"/>
	<path class="st0" d="M578.8,90.7v0.4H578v2h-0.5v-2h-0.7v-0.4H578.8z M581.3,93.1l-0.1-1.4c0-0.2,0-0.4,0-0.7h0
		c-0.1,0.2-0.1,0.5-0.2,0.7l-0.4,1.3h-0.5l-0.4-1.3c0-0.2-0.1-0.5-0.2-0.7h0c0,0.2,0,0.5,0,0.7l-0.1,1.4h-0.5l0.2-2.4h0.7l0.4,1.2
		c0.1,0.2,0.1,0.4,0.2,0.6h0c0.1-0.2,0.1-0.4,0.2-0.6l0.4-1.2h0.7l0.2,2.4H581.3z"/>
</g>
</svg>
