<svg id="_ÎÓÈ_2" data-name="—ÎÓÈ_2" xmlns="http://www.w3.org/2000/svg" viewBox="0 0 298.94 298.94"><defs><style>.cls-1{fill:#77a22f;}</style></defs><title>StoreLocator_Star_Green</title><path class="cls-1" d="M209.09,1137.79l40.38-91.35A8.78,8.78,0,0,1,254,1042l91.35-40.38a8.78,8.78,0,0,0,0-16.06L254,945.13a8.78,8.78,0,0,1-4.48-4.48l-40.38-91.35a8.78,8.78,0,0,0-16.06,0l-40.38,91.35a8.78,8.78,0,0,1-4.48,4.48L56.82,985.52a8.78,8.78,0,0,0,0,16.06L148.17,1042a8.78,8.78,0,0,1,4.48,4.48L193,1137.79A8.78,8.78,0,0,0,209.09,1137.79Z" transform="translate(-51.59 -844.08)"/></svg>