<?xml version="1.0" encoding="utf-8"?>
<!-- Generator: Adobe Illustrator 19.2.1, SVG Export Plug-In . SVG Version: 6.00 Build 0)  -->
<svg version="1.1" id="Android" xmlns="http://www.w3.org/2000/svg" xmlns:xlink="http://www.w3.org/1999/xlink" x="0px" y="0px"
	 viewBox="0 0 273 74" style="enable-background:new 0 0 273 74;" xml:space="preserve">
<style type="text/css">
	.st0{fill:#78A22F;}
	.st1{opacity:0.5;fill:#FAFAFA;enable-background:new    ;}
	.st2{fill:#FFFFFF;}
	.st3{opacity:0.94;enable-background:new    ;}
</style>
<path id="Rounded_Rectangle_4_copy_2" class="st0" d="M5,11h263c2.8,0,5,2.2,5,5v42c0,2.8-2.2,5-5,5H5c-2.8,0-5-2.2-5-5V16
	C0,13.2,2.2,11,5,11z"/>
<rect id="Divider" x="59" y="11" class="st1" width="1" height="52"/>
<path id="Android_Logo" class="st2" d="M42.7,44.7c-1.2,0-2.3-1-2.3-2.3v-9.5c0-1.2,1-2.3,2.3-2.3s2.3,1,2.3,2.3l0,0v9.5
	C45,43.7,43.9,44.7,42.7,44.7L42.7,44.7z M36.9,48.1h-1V53c0,1.2-1,2.3-2.3,2.3c-1.2,0-2.3-1-2.3-2.3v-4.8h-3V53
	c0,1.2-1,2.3-2.3,2.3c-1.2,0-2.3-1-2.3-2.3v-4.8h-1c-1.1,0-2.2-0.7-2.7-1.6h-0.3v-0.7c-0.1-0.2-0.1-0.5-0.1-0.8V31.7h0.1l0,0h19.5
	v14.8h-0.3C38.8,47.5,37.9,48.2,36.9,48.1L36.9,48.1z M39.2,30.4H19.7c0.2-3.3,2.1-6.3,4.9-7.9l-1.9-3.2l1-0.6l2.1,3.1
	c1.2-0.6,2.7-0.9,4-0.9c1.4,0,2.8,0.3,4,0.9l1.9-3l1,0.5l-1.8,3.2C37.5,24.5,39.1,27.3,39.2,30.4L39.2,30.4z M25.3,25
	c-0.6,0-1,0.5-1,1c0,0.6,0.5,1,1,1c0.6,0,1-0.5,1-1C26.4,25.5,25.9,25,25.3,25L25.3,25z M34.3,25.1c-0.6,0-1,0.5-1,1
	c0,0.6,0.5,1,1,1c0.6,0,1-0.5,1-1C35.4,25.5,34.9,25.1,34.3,25.1L34.3,25.1L34.3,25.1z M16.1,44.7c-1.4,0-2-1.1-2-2.5v-9
	c0-1.4,0.6-2.5,2-2.5s2.6,1.1,2.6,2.5v9C18.7,43.6,17.5,44.7,16.1,44.7z"/>
<g id="App_Store_2_" class="st3">
	<path class="st2" d="M85.9,44.8l4.9-12.9h1.8l5.3,12.9H96l-1.5-3.9h-5.4l-1.4,3.9H85.9z M89.6,39.5H94l-1.3-3.6
		c-0.4-1.1-0.7-2-0.9-2.7c-0.2,0.8-0.4,1.6-0.7,2.5L89.6,39.5z"/>
	<path class="st2" d="M99.1,44.8V31.9h1.7l6.8,10.1V31.9h1.6v12.9h-1.7l-6.8-10.1v10.1C100.7,44.8,99.1,44.8,99.1,44.8z"/>
	<path class="st2" d="M111.9,44.8V31.9h4.4c1,0,1.8,0.1,2.3,0.2c0.7,0.2,1.4,0.5,1.9,0.9c0.7,0.6,1.2,1.3,1.5,2.2s0.5,1.9,0.5,3.1
		c0,1-0.1,1.8-0.3,2.6s-0.5,1.4-0.9,1.9s-0.7,0.9-1.2,1.2s-0.9,0.5-1.5,0.6s-1.3,0.2-2.1,0.2H111.9z M113.6,43.3h2.8
		c0.8,0,1.5-0.1,2-0.2s0.9-0.4,1.2-0.7c0.4-0.4,0.7-0.9,0.9-1.6s0.3-1.5,0.3-2.5c0-1.3-0.2-2.4-0.7-3.1s-1-1.2-1.6-1.5
		c-0.5-0.2-1.2-0.3-2.2-0.3h-2.7L113.6,43.3L113.6,43.3z"/>
	<path class="st2" d="M124.8,44.8V31.9h5.7c1.1,0,2,0.1,2.6,0.3s1.1,0.6,1.4,1.2c0.3,0.6,0.5,1.2,0.5,1.9c0,0.9-0.3,1.7-0.9,2.3
		s-1.5,1-2.7,1.2c0.5,0.2,0.8,0.4,1,0.6c0.5,0.5,1,1,1.4,1.7l2.2,3.5h-2l-1.7-2.7c-0.5-0.8-0.9-1.4-1.2-1.8s-0.6-0.7-0.9-0.9
		s-0.5-0.3-0.8-0.3c-0.2,0-0.5-0.1-0.9-0.1h-2v5.7h-1.7L124.8,44.8L124.8,44.8z M126.5,37.6h3.7c0.8,0,1.4-0.1,1.8-0.2
		s0.8-0.4,1-0.8s0.3-0.7,0.3-1.2c0-0.6-0.2-1.1-0.7-1.5s-1.1-0.6-2.1-0.6h-4.1v4.3H126.5z"/>
	<path class="st2" d="M137.1,38.5c0-2.1,0.6-3.8,1.7-5s2.6-1.8,4.4-1.8c1.2,0,2.3,0.3,3.2,0.9c0.9,0.6,1.7,1.4,2.2,2.4
		s0.8,2.2,0.8,3.5s-0.3,2.5-0.8,3.5s-1.3,1.8-2.2,2.3s-2,0.8-3.1,0.8c-1.2,0-2.3-0.3-3.3-0.9s-1.7-1.4-2.2-2.4
		C137.3,40.7,137.1,39.7,137.1,38.5z M138.8,38.6c0,1.6,0.4,2.8,1.3,3.7s1.9,1.3,3.1,1.3c1.3,0,2.3-0.5,3.2-1.4s1.2-2.2,1.2-3.8
		c0-1-0.2-2-0.5-2.7s-0.9-1.4-1.6-1.8s-1.4-0.6-2.3-0.6c-1.2,0-2.2,0.4-3.1,1.2C139.2,35.3,138.8,36.6,138.8,38.6z"/>
	<path class="st2" d="M151.7,44.8V31.9h1.7v12.9H151.7z"/>
	<path class="st2" d="M156.2,44.8V31.9h4.4c1,0,1.8,0.1,2.3,0.2c0.7,0.2,1.4,0.5,1.9,0.9c0.7,0.6,1.2,1.3,1.5,2.2s0.5,1.9,0.5,3.1
		c0,1-0.1,1.8-0.3,2.6s-0.5,1.4-0.9,1.9s-0.7,0.9-1.2,1.2s-0.9,0.5-1.5,0.6s-1.3,0.2-2.1,0.2H156.2z M157.9,43.3h2.8
		c0.8,0,1.5-0.1,2-0.2s0.9-0.4,1.2-0.7c0.4-0.4,0.7-0.9,0.9-1.6s0.3-1.5,0.3-2.5c0-1.3-0.2-2.4-0.7-3.1s-1-1.2-1.6-1.5
		c-0.5-0.2-1.2-0.3-2.2-0.3h-2.7V43.3z"/>
	<path class="st2" d="M173.8,44.8V31.9h2.6l3,9.1c0.3,0.8,0.5,1.5,0.6,1.9c0.1-0.5,0.4-1.2,0.7-2.1l3.1-9h2.3v12.9h-1.6V34
		l-3.7,10.8h-1.5l-3.7-11v11H173.8z"/>
	<path class="st2" d="M187.3,44.8l4.9-12.9h1.8l5.3,12.9h-1.9l-1.5-3.9h-5.4l-1.4,3.9H187.3z M191,39.5h4.4l-1.3-3.6
		c-0.4-1.1-0.7-2-0.9-2.7c-0.2,0.8-0.4,1.6-0.7,2.5L191,39.5z"/>
	<path class="st2" d="M200.5,44.8V31.9h5.7c1.1,0,2,0.1,2.6,0.3s1.1,0.6,1.4,1.2c0.3,0.6,0.5,1.2,0.5,1.9c0,0.9-0.3,1.7-0.9,2.3
		s-1.5,1-2.7,1.2c0.5,0.2,0.8,0.4,1,0.6c0.5,0.5,1,1,1.4,1.7l2.2,3.5h-2.1l-1.7-2.7c-0.5-0.8-0.9-1.4-1.2-1.8s-0.6-0.7-0.9-0.9
		s-0.5-0.3-0.8-0.3c-0.2,0-0.5-0.1-0.9-0.1h-2v5.7h-1.6V44.8z M202.2,37.6h3.7c0.8,0,1.4-0.1,1.8-0.2s0.8-0.4,1-0.8s0.3-0.7,0.3-1.2
		c0-0.6-0.2-1.1-0.7-1.5s-1.1-0.6-2.1-0.6h-4.1v4.3H202.2z"/>
	<path class="st2" d="M213.2,44.8V31.9h1.7v6.4l6.4-6.4h2.3l-5.4,5.2l5.6,7.7h-2.2l-4.6-6.5l-2.1,2.1v4.5L213.2,44.8L213.2,44.8z"/>
	<path class="st2" d="M225.2,44.8V31.9h9.3v1.5h-7.6v3.9h7.1v1.5h-7.1v4.4h7.9v1.5L225.2,44.8L225.2,44.8z"/>
	<path class="st2" d="M240.2,44.8V33.4H236v-1.5h10.2v1.5H242v11.4C242,44.8,240.2,44.8,240.2,44.8z"/>
</g>
</svg>
