<?xml version="1.0" encoding="utf-8"?>
<!-- Generator: Adobe Illustrator 19.2.1, SVG Export Plug-In . SVG Version: 6.00 Build 0)  -->
<svg version="1.1" id="App_Store" xmlns="http://www.w3.org/2000/svg" xmlns:xlink="http://www.w3.org/1999/xlink" x="0px" y="0px"
	 viewBox="0 0 273 74" style="enable-background:new 0 0 273 74;" xml:space="preserve">
<style type="text/css">
	.st0{fill:#78A22F;}
	.st1{fill:#FFFFFF;}
	.st2{opacity:0.5;fill:#FAFAFA;enable-background:new    ;}
	.st3{opacity:0.94;enable-background:new    ;}
</style>
<path id="Rounded_Rectangle_4_copy_2_1_" class="st0" d="M5,11.7h263c2.8,0,5,2.2,5,5v41c0,2.8-2.2,5-5,5H5c-2.8,0-5-2.2-5-5v-41
	C0,14,2.2,11.7,5,11.7z"/>
<path id="Apple_Logo" class="st1" d="M44.1,44.5c-0.6,1.4-1.3,2.8-2.2,4c-1.4,2.1-3.4,4.8-5.8,4.8c-2.2,0-2.8-1.4-5.7-1.4
	s-3.6,1.4-5.7,1.4c-2.5,0-4.3-2.4-5.7-4.6c-3.9-6-4.4-12.9-1.9-16.7c1.5-2.5,4.1-4.1,6.9-4.2c2.6,0,4.2,1.4,6.4,1.4
	c2.1,0,3.3-1.4,6.4-1.4c2.6,0.1,4.8,1.3,6.4,3.3c-3.5,2-4.8,6.4-2.9,9.9C41.2,42.7,42.5,43.8,44.1,44.5L44.1,44.5L44.1,44.5z
	 M34.6,25.5c1.2-1.5,1.8-3.4,1.6-5.4c-2,0.2-3.8,1.2-5,2.8c-1.2,1.4-1.9,3.3-1.6,5.2C31.4,28.1,33.3,27.1,34.6,25.5L34.6,25.5
	L34.6,25.5z"/>
<rect id="Divider_1_" x="59" y="11.7" class="st2" width="1" height="51"/>
<g id="App_Store_1_" class="st3">
	<path class="st1" d="M116.1,45l4.9-12.9h1.8l5.3,12.9h-1.9l-1.5-3.9h-5.4l-1.4,3.9H116.1z M119.8,39.7h4.4l-1.3-3.6
		c-0.4-1.1-0.7-2-0.9-2.7c-0.2,0.8-0.4,1.6-0.7,2.5L119.8,39.7z"/>
	<path class="st1" d="M129.4,45V32.1h4.9c0.9,0,1.5,0,2,0.1c0.6,0.1,1.2,0.3,1.6,0.6s0.8,0.7,1,1.2s0.4,1.1,0.4,1.8
		c0,1.1-0.3,2-1,2.8s-2,1.1-3.8,1.1h-3.3V45H129.4z M131.1,38.3h3.3c1.1,0,1.9-0.2,2.3-0.6c0.5-0.4,0.7-1,0.7-1.7
		c0-0.5-0.1-1-0.4-1.4s-0.6-0.6-1.1-0.8c-0.3-0.1-0.8-0.1-1.6-0.1H131v4.6H131.1z"/>
	<path class="st1" d="M141.2,45V32.1h4.9c0.9,0,1.5,0,2,0.1c0.6,0.1,1.2,0.3,1.6,0.6s0.8,0.7,1,1.2s0.4,1.1,0.4,1.8
		c0,1.1-0.3,2-1,2.8s-2,1.1-3.8,1.1H143V45H141.2z M142.9,38.3h3.3c1.1,0,1.9-0.2,2.3-0.6c0.5-0.4,0.7-1,0.7-1.7
		c0-0.5-0.1-1-0.4-1.4s-0.6-0.6-1.1-0.8c-0.3-0.1-0.8-0.1-1.6-0.1h-3.3v4.6H142.9z"/>
	<path class="st1" d="M156.9,40.9l1.6-0.1c0.1,0.6,0.3,1.2,0.5,1.6s0.7,0.7,1.3,1s1.2,0.4,2,0.4c0.7,0,1.2-0.1,1.7-0.3
		s0.9-0.5,1.1-0.8s0.4-0.7,0.4-1.1c0-0.4-0.1-0.8-0.4-1.1s-0.6-0.6-1.2-0.8c-0.3-0.1-1.1-0.3-2.3-0.6s-2-0.6-2.5-0.8
		c-0.6-0.3-1.1-0.7-1.4-1.2s-0.5-1-0.5-1.6c0-0.7,0.2-1.3,0.6-1.8s0.9-1,1.6-1.3s1.5-0.4,2.4-0.4c1,0,1.8,0.2,2.5,0.5
		s1.3,0.8,1.7,1.4s0.6,1.3,0.6,2L165,36c-0.1-0.8-0.4-1.4-0.9-1.8s-1.3-0.6-2.2-0.6c-1,0-1.8,0.2-2.3,0.6s-0.7,0.8-0.7,1.4
		c0,0.5,0.2,0.8,0.5,1.1s1.2,0.6,2.6,0.9s2.3,0.6,2.9,0.8c0.8,0.3,1.3,0.8,1.7,1.3s0.5,1.1,0.5,1.8s-0.2,1.3-0.6,1.9s-1,1.1-1.7,1.4
		s-1.6,0.5-2.5,0.5c-1.2,0-2.1-0.2-2.9-0.5s-1.4-0.9-1.9-1.5S156.9,41.7,156.9,40.9z"/>
	<path class="st1" d="M172.6,45V33.7h-4.2v-1.5h10.2v1.5h-4.3V45H172.6z"/>
	<path class="st1" d="M179.3,38.7c0-2.1,0.6-3.8,1.7-5s2.6-1.8,4.4-1.8c1.2,0,2.3,0.3,3.2,0.9s1.7,1.4,2.2,2.4s0.8,2.2,0.8,3.5
		s-0.3,2.5-0.8,3.5s-1.3,1.8-2.2,2.3s-2,0.8-3.1,0.8c-1.2,0-2.3-0.3-3.3-0.9S180.5,43,180,42S179.3,39.9,179.3,38.7z M181.1,38.8
		c0,1.6,0.4,2.8,1.3,3.7s1.9,1.3,3.1,1.3c1.3,0,2.3-0.5,3.2-1.4s1.2-2.2,1.2-3.8c0-1-0.2-2-0.5-2.7s-0.9-1.4-1.6-1.8
		s-1.4-0.6-2.3-0.6c-1.2,0-2.2,0.4-3.1,1.2S181.1,36.8,181.1,38.8z"/>
	<path class="st1" d="M193.7,45V32.1h5.7c1.1,0,2,0.1,2.6,0.3s1.1,0.6,1.4,1.2s0.5,1.2,0.5,1.9c0,0.9-0.3,1.7-0.9,2.3
		c-0.6,0.6-1.5,1-2.7,1.2c0.5,0.2,0.8,0.4,1,0.6c0.5,0.5,1,1,1.4,1.7L205,45h-2.1l-1.7-2.7c-0.5-0.8-0.9-1.4-1.2-1.8
		s-0.6-0.7-0.9-0.9s-0.5-0.3-0.8-0.3c-0.2,0-0.5-0.1-0.9-0.1h-2V45H193.7z M195.4,37.8h3.7c0.8,0,1.4-0.1,1.8-0.2s0.8-0.4,1-0.8
		s0.3-0.7,0.3-1.2c0-0.6-0.2-1.1-0.7-1.5s-1.1-0.6-2.1-0.6h-4.1v4.3H195.4z"/>
	<path class="st1" d="M206.5,45V32.1h9.3v1.5h-7.6v3.9h7.1V39h-7.1v4.4h7.9V45H206.5z"/>
</g>
</svg>
