<svg xmlns="http://www.w3.org/2000/svg" id="Layer_1" viewBox="0 0 434 119" data-name="Layer 1"><defs><style>.cls-1{fill:none;}.cls-2{clip-path:url(#clip-path);}.cls-3{fill:#fff;}.cls-4{clip-path:url(#clip-path-2);}.cls-5{fill:#799a3d;}</style><clipPath id="clip-path"><rect class="cls-1" width="434" height="167" /></clipPath><clipPath id="clip-path-2"><rect class="cls-1" x="0.06" y="0.45" width="433.43" height="166.49" /></clipPath></defs><title>Artboard 1</title><g class="cls-2"><path class="cls-3" d="M 209.69 30.76 h -16.2 V 43 h -6.76 V 55.58 h 6.76 V 83.65 a 8.1 8.1 0 0 0 8.1 8.1 h 17.93 V 79.15 h -9.83 V 55.58 h 9.83 V 43 h -9.83 V 30.76" /><path class="cls-3" d="M 142.51 54.42 c -17.27 -4.09 -17 -5.14 -17 -5.14 v -7 h 13.72 v 7 h 17 V 40 a 12 12 0 0 0 -12 -12 H 120.66 a 12 12 0 0 0 -12 12 V 52.31 s -1.35 8.29 8.53 11.3 c 12.36 3.76 23.43 7.1 23.43 7.1 v 7.38 H 126 V 71 h -17.3 v 8.75 a 12 12 0 0 0 12 12 h 24.53 a 12 12 0 0 0 12 -12 V 64.83 s 0.13 -6.91 -14.65 -10.41" /><rect class="cls-3" x="164.65" y="42.99" width="17.62" height="48.76" /><rect class="cls-3" x="164.65" y="29.11" width="17.62" height="9.33" /><path class="cls-3" d="M 255.74 43 h -21 a 10.81 10.81 0 0 0 -10.81 10.81 V 81.18 A 10.81 10.81 0 0 0 234.69 92 h 21 a 10.81 10.81 0 0 0 10.81 -10.81 V 75.85 H 251.32 v 3.31 c 0 1.13 -2.81 1.06 -2.81 1.06 h -6.39 a 1.79 1.79 0 0 1 -1.87 -2.13 v -6.6 h 26.29 V 53.79 A 10.81 10.81 0 0 0 255.74 43 M 251 62.75 H 240.1 V 56.21 c 0 -1.56 1.09 -1.78 2.49 -1.78 h 6.24 A 2.12 2.12 0 0 1 251 56.36 Z" /><path class="cls-3" d="M 360.55 43 c -6.38 0 -16.41 3.68 -16.41 3.68 V 43 H 328 V 92 h 16.09 V 58.39 l 6.6 -2.12 c 4.76 -1.86 4.54 3.62 4.54 3.62 V 92 h 16.09 V 53.79 A 10.81 10.81 0 0 0 360.55 43" /><path class="cls-3" d="M 393.86 71.48 h 26.29 V 53.79 A 10.8 10.8 0 0 0 409.35 43 h -21 a 10.8 10.8 0 0 0 -10.81 10.81 V 81.18 A 10.81 10.81 0 0 0 388.3 92 h 21 a 10.81 10.81 0 0 0 10.8 -10.81 V 75.85 H 404.93 v 3.31 c 0 1.13 -2.81 1.06 -2.81 1.06 h -6.39 a 1.78 1.78 0 0 1 -1.87 -2.13 v -6.6 m -0.16 -8.73 V 56.21 c 0 -1.56 1.09 -1.78 2.49 -1.78 h 6.24 a 2.12 2.12 0 0 1 2.18 1.94 v 6.39 Z" /><path class="cls-3" d="M 310.39 28 H 284.5 a 11.3 11.3 0 0 0 -11.3 11.3 V 80.45 a 11.3 11.3 0 0 0 11.3 11.3 h 25.89 a 11.3 11.3 0 0 0 11.3 -11.3 V 39.32 A 11.3 11.3 0 0 0 310.39 28 m -20.5 15 h 15.74 v 35.1 H 289.89 Z" /><path class="cls-3" d="M 117.28 115.45 H 123 c 0.43 0 0.64 0.14 0.64 0.55 v 1.44 c 0 0.41 -0.2 0.57 -0.64 0.57 h -8.59 c -0.38 0 -0.54 -0.2 -0.54 -0.59 V 103 c 0 -0.41 0.15 -0.6 0.61 -0.6 h 2.22 c 0.46 0 0.61 0.18 0.61 0.6 v 12.41" /><path class="cls-3" d="M 138.23 102.45 a 0.74 0.74 0 0 1 0.82 0.57 l 4.74 14.42 c 0.13 0.37 0 0.57 -0.46 0.57 H 141 a 0.7 0.7 0 0 1 -0.74 -0.57 l -0.89 -2.79 h -4.74 l -0.89 2.79 a 0.71 0.71 0 0 1 -0.77 0.57 h -2.06 c -0.46 0 -0.61 -0.2 -0.49 -0.57 L 135.22 103 a 0.72 0.72 0 0 1 0.79 -0.57 h 2.22 m -0.43 7.21 a 31.1 31.1 0 0 1 -0.74 -4.16 c -0.05 0.3 -0.49 3.18 -0.79 4.14 l -0.87 2.56 h 3.24 Z" /><path class="cls-3" d="M 164.2 117.44 c 0 0.39 -0.15 0.57 -0.61 0.57 h -2 c -0.33 0 -0.46 -0.07 -0.59 -0.27 l -4.92 -7.57 a 10.49 10.49 0 0 1 -1 -1.85 v 9.13 c 0 0.39 -0.15 0.57 -0.61 0.57 h -2 c -0.46 0 -0.61 -0.18 -0.61 -0.57 V 103 c 0 -0.39 0.15 -0.57 0.61 -0.57 h 2 a 0.55 0.55 0 0 1 0.54 0.23 l 5.12 7.89 a 15.22 15.22 0 0 1 0.87 1.6 V 103 c 0 -0.39 0.15 -0.57 0.61 -0.57 h 2 c 0.46 0 0.61 0.18 0.61 0.57 v 14.42" /><path class="cls-3" d="M 174.13 118 c -0.41 0 -0.54 -0.2 -0.54 -0.59 V 103 c 0 -0.41 0.15 -0.6 0.61 -0.6 h 5.56 c 4.61 0 6.22 1.81 6.22 3.73 v 8.1 c 0 1.92 -1.61 3.73 -6.22 3.73 h -5.63 m 2.9 -13 v 10.44 h 2.73 c 1.73 0 2.78 -0.57 2.78 -1.72 v -7 c 0 -1.14 -1 -1.72 -2.78 -1.72 Z" /><path class="cls-3" d="M 203.26 106.4 c 0 -1.12 -0.84 -1.65 -2.47 -1.65 s -2.5 0.53 -2.5 1.65 v 0.34 a 1.3 1.3 0 0 0 1 1.24 l 4.44 1.42 c 1.73 0.55 3 1.6 3 3.3 v 1.76 c 0 1.92 -1.5 3.73 -6.07 3.73 s -6.09 -1.81 -6.09 -3.73 V 113 c 0 -0.41 0.18 -0.6 0.61 -0.6 h 2.14 c 0.46 0 0.61 0.18 0.61 0.6 v 1 c 0 1.12 1 1.65 2.7 1.65 s 2.7 -0.53 2.7 -1.65 v -0.73 c 0 -0.94 -1 -1.3 -2.17 -1.69 l -4 -1.33 a 3.31 3.31 0 0 1 -2.32 -3 V 106 c 0 -1.92 1.33 -3.73 5.79 -3.73 s 5.89 1.81 5.89 3.73 v 0.94 c 0 0.39 -0.18 0.57 -0.64 0.57 h -2.14 c -0.43 0 -0.59 -0.18 -0.59 -0.57 v -0.53" /><path class="cls-3" d="M 227.27 114.46 c 0 1.92 -1.37 3.73 -6 3.73 s -6 -1.81 -6 -3.73 V 106 c 0 -1.92 1.38 -3.73 6 -3.73 s 6 1.81 6 3.73 v 1.1 c 0 0.41 -0.15 0.57 -0.59 0.57 h -2.11 c -0.46 0 -0.64 -0.16 -0.64 -0.57 v -0.55 c 0 -1.15 -0.89 -1.72 -2.6 -1.72 s -2.57 0.57 -2.57 1.72 v 7.37 c 0 1.14 0.86 1.72 2.57 1.72 s 2.6 -0.57 2.6 -1.72 V 113 c 0 -0.41 0.18 -0.57 0.64 -0.57 h 2.11 c 0.44 0 0.59 0.16 0.59 0.57 v 1.42" /><path class="cls-3" d="M 242.3 102.45 a 0.74 0.74 0 0 1 0.82 0.57 l 4.74 14.42 c 0.13 0.37 0 0.57 -0.46 0.57 h -2.29 a 0.7 0.7 0 0 1 -0.74 -0.57 l -0.89 -2.79 h -4.74 l -0.89 2.79 a 0.71 0.71 0 0 1 -0.77 0.57 H 235 c -0.46 0 -0.61 -0.2 -0.49 -0.57 L 239.29 103 a 0.72 0.72 0 0 1 0.79 -0.57 h 2.21 m -0.43 7.21 a 31.14 31.14 0 0 1 -0.74 -4.16 c -0.05 0.3 -0.49 3.18 -0.79 4.14 l -0.86 2.56 h 3.23 Z" /><path class="cls-3" d="M 259.33 112.49 v 4.92 c 0 0.41 -0.15 0.59 -0.61 0.59 h -2.22 c -0.46 0 -0.61 -0.18 -0.61 -0.59 V 103 c 0 -0.41 0.15 -0.6 0.61 -0.6 h 5.35 c 4.62 0 6.17 1.81 6.17 3.73 v 2.59 c 0 1.92 -1.55 3.73 -6.17 3.73 h -2.52 m 0 -7.48 v 4.92 h 2.52 c 1.71 0 2.75 -0.57 2.75 -1.69 v -1.51 c 0 -1.14 -1 -1.72 -2.75 -1.72 Z" /><path class="cls-3" d="M 277.13 118 c -0.46 0 -0.61 -0.18 -0.61 -0.59 V 103 c 0 -0.41 0.15 -0.6 0.61 -0.6 h 8.72 c 0.43 0 0.64 0.14 0.64 0.55 v 1.44 c 0 0.41 -0.2 0.57 -0.64 0.57 H 280 v 3.71 h 5.46 c 0.46 0 0.66 0.14 0.66 0.55 v 1.37 c 0 0.39 -0.2 0.55 -0.66 0.55 H 280 v 4.26 h 6.14 c 0.46 0 0.64 0.14 0.64 0.55 v 1.44 c 0 0.41 -0.18 0.57 -0.64 0.57 h -9" /><path class="cls-3" d="M 314.37 106.4 c 0 -1.12 -0.84 -1.65 -2.47 -1.65 s -2.5 0.53 -2.5 1.65 v 0.34 a 1.31 1.31 0 0 0 1 1.24 l 4.43 1.42 c 1.73 0.55 3 1.6 3 3.3 v 1.76 c 0 1.92 -1.51 3.73 -6.07 3.73 s -6.09 -1.81 -6.09 -3.73 V 113 c 0 -0.41 0.18 -0.6 0.61 -0.6 h 2.14 c 0.46 0 0.61 0.18 0.61 0.6 v 1 c 0 1.12 1 1.65 2.7 1.65 s 2.7 -0.53 2.7 -1.65 v -0.73 c 0 -0.94 -1 -1.3 -2.17 -1.69 l -4 -1.33 a 3.31 3.31 0 0 1 -2.32 -3 V 106 c 0 -1.92 1.33 -3.73 5.79 -3.73 s 5.89 1.81 5.89 3.73 v 0.94 c 0 0.39 -0.18 0.57 -0.64 0.57 H 315 c -0.43 0 -0.59 -0.18 -0.59 -0.57 v -0.53" /><path class="cls-3" d="M 330 113.92 c 0 1.14 1 1.72 2.73 1.72 s 2.78 -0.57 2.78 -1.72 V 103 c 0 -0.41 0.15 -0.6 0.61 -0.6 h 2.22 c 0.46 0 0.59 0.18 0.59 0.6 v 11.42 c 0 1.92 -1.58 3.73 -6.2 3.73 s -6.2 -1.81 -6.2 -3.73 V 103 c 0 -0.41 0.18 -0.6 0.64 -0.6 h 2.22 c 0.44 0 0.61 0.18 0.61 0.6 v 10.87" /><path class="cls-3" d="M 351.65 112.49 v 4.92 c 0 0.41 -0.15 0.59 -0.61 0.59 h -2.22 c -0.46 0 -0.61 -0.18 -0.61 -0.59 V 103 c 0 -0.41 0.15 -0.6 0.61 -0.6 h 5.36 c 4.61 0 6.17 1.81 6.17 3.73 v 2.59 c 0 1.92 -1.55 3.73 -6.17 3.73 h -2.52 m 0 -7.48 v 4.92 h 2.52 c 1.71 0 2.75 -0.57 2.75 -1.69 v -1.51 c 0 -1.14 -1 -1.72 -2.75 -1.72 Z" /><path class="cls-3" d="M 372.29 112.49 v 4.92 c 0 0.41 -0.15 0.59 -0.61 0.59 h -2.22 c -0.46 0 -0.61 -0.18 -0.61 -0.59 V 103 c 0 -0.41 0.15 -0.6 0.61 -0.6 h 5.35 c 4.62 0 6.17 1.81 6.17 3.73 v 2.59 c 0 1.92 -1.55 3.73 -6.17 3.73 h -2.52 m 0 -7.48 v 4.92 h 2.52 c 1.71 0 2.75 -0.57 2.75 -1.69 v -1.51 c 0 -1.14 -1 -1.72 -2.75 -1.72 Z" /><path class="cls-3" d="M 392.93 115.45 h 5.69 c 0.43 0 0.64 0.14 0.64 0.55 v 1.44 c 0 0.41 -0.2 0.57 -0.64 0.57 H 390 c -0.38 0 -0.54 -0.2 -0.54 -0.59 V 103 c 0 -0.41 0.15 -0.6 0.61 -0.6 h 2.22 c 0.46 0 0.61 0.18 0.61 0.6 v 12.41" /></g><g class="cls-4"><g class="cls-2"><path class="cls-3" d="M 410 108.24 c 0.15 0.37 0.41 1.12 0.43 1.21 a 7.91 7.91 0 0 1 0.46 -1.21 l 2.7 -5.22 c 0.15 -0.32 0.31 -0.57 0.74 -0.57 h 2.19 c 0.43 0 0.66 0.21 0.46 0.57 l -4.82 9 v 5.38 c 0 0.39 -0.15 0.57 -0.61 0.57 h -2.22 c -0.46 0 -0.64 -0.18 -0.64 -0.57 v -5 L 403.81 103 c -0.18 -0.34 0 -0.57 0.43 -0.57 h 2.52 a 0.77 0.77 0 0 1 0.76 0.57 l 2.42 5.22" /><path class="cls-5" d="M 62.13 86 h -9 a 0.92 0.92 0 0 1 -0.91 -0.81 l -3.44 -41 a 0.92 0.92 0 0 0 -0.91 -0.81 H 44.84 a 0.92 0.92 0 0 0 -0.75 0.39 L 29.66 64.25 a 0.92 0.92 0 0 0 0 1 l 2.08 3.46 A 0.92 0.92 0 0 0 33 69 l 6 -3.86 a 0.92 0.92 0 0 1 1.41 0.87 l -0.76 19.15 a 0.92 0.92 0 0 1 -0.92 0.82 h -8.6 a 0.92 0.92 0 0 1 -0.79 -0.44 L 16.58 64.47 a 0.92 0.92 0 0 1 0 -1 L 45.37 24.12 a 0.92 0.92 0 0 1 1.49 0 L 75.61 63.45 a 0.92 0.92 0 0 1 0 1 L 62.92 85.54 a 0.92 0.92 0 0 1 -0.79 0.44 M 45.37 0.82 L 0.18 62.72 a 0.92 0.92 0 0 0 0 1 l 21.7 35.19 a 0.92 0.92 0 0 0 0.78 0.44 H 70.15 a 0.92 0.92 0 0 0 0.79 -0.45 L 92.1 63.74 a 0.92 0.92 0 0 0 0 -1 L 46.85 0.82 a 0.92 0.92 0 0 0 -1.49 0" /></g></g><g class="cls-2"><path class="cls-3" d="M 426.76 43.24 v 0.87 h -1.68 v 4.4 h -1 v -4.4 h -1.67 v -0.87 h 4.4 m 5.69 5.27 l -0.19 -3.1 c 0 -0.41 0 -0.89 0 -1.47 h -0.06 c -0.14 0.46 -0.29 1.08 -0.45 1.57 l -0.95 2.92 h -1.08 l -0.93 -3 c -0.1 -0.39 -0.27 -1 -0.39 -1.49 h -0.06 c 0 0.49 0 1 0 1.47 l -0.19 3.1 h -1 l 0.39 -5.27 H 429 l 0.89 2.58 a 11.78 11.78 0 0 1 0.35 1.34 h 0 c 0.12 -0.46 0.25 -0.93 0.35 -1.3 l 0.91 -2.61 h 1.53 l 0.39 5.27 Z" /></g></svg>