<svg xmlns="http://www.w3.org/2000/svg" width="36.398" height="18" viewBox="0 0 36.398 18"><defs><style>.a{fill:#999;}</style></defs><g transform="translate(-362.938 -141.335)"><g transform="translate(362.938 145.424)"><path class="a" d="M370.982,146.8h-2.715a.8.8,0,0,0,0,1.6h2.715a.789.789,0,0,0,.8-.8.72.72,0,0,0-.206-.54A.823.823,0,0,0,370.982,146.8Z" transform="translate(-364.082 -146.805)"/><path class="a" d="M370.414,152.122H366.02a.8.8,0,1,0,0,1.6h4.423a.789.789,0,0,0,.8-.8A.812.812,0,0,0,370.414,152.122Z" transform="translate(-363.515 -148.147)"/><path class="a" d="M369.837,157.4h-6.1a.8.8,0,1,0,0,1.6h6.1a.789.789,0,0,0,.8-.8.723.723,0,0,0-.2-.545A.824.824,0,0,0,369.837,157.4Z" transform="translate(-362.938 -149.48)"/></g><path class="a" d="M402.25,149.428l-2.919-4.864a1.933,1.933,0,0,0-1.562-.884h-4.489v-.968a1.38,1.38,0,0,0-1.378-1.378H377.49a1.379,1.379,0,0,0-1.377,1.378v12.9a1.381,1.381,0,0,0,1.383,1.377h1.064a3.137,3.137,0,0,0,6.071,0h9.516a3.137,3.137,0,0,0,6.071,0h1.064a1.363,1.363,0,0,0,1.382-1.374v-4.7A3.208,3.208,0,0,0,402.25,149.428Zm-5.455,1.289c0-.552,0-2.17,0-3.125.2.007.505.009.958.01l1.557,0,1.581,2.634a1.683,1.683,0,0,1,.164.475Zm-.206-4.691a1.371,1.371,0,0,0-1.372,1.366v3.54a1.373,1.373,0,0,0,1.375,1.366h4.49v3.113c-.183,0-.486,0-.864,0a3.137,3.137,0,0,0-6.071,0h-.865V145.262h4.489a.416.416,0,0,1,.206.117l.389.648Zm.592,8.618a1.555,1.555,0,1,1-1.555,1.555A1.556,1.556,0,0,1,397.181,154.644ZM391.7,142.916v12.492H384.63a3.137,3.137,0,0,0-6.071,0h-.86c0-1.015,0-5.644,0-9.021v-3.471Zm-10.1,11.728a1.555,1.555,0,1,1-1.555,1.555A1.556,1.556,0,0,1,381.595,154.644Z" transform="translate(-3.327)"/></g></svg>