<svg xmlns="http://www.w3.org/2000/svg" width="21.776" height="18" viewBox="0 0 21.776 18"><g transform="translate(-472.37 -141.187)"><path d="M493.942,157.84a.828.828,0,0,0-.6-.254h-.926V146.795h1.007a.625.625,0,0,0,.543-.932L491.5,141.5a.623.623,0,0,0-.544-.317h-15.4a.622.622,0,0,0-.543.317l-2.466,4.358a.625.625,0,0,0,.543.932H474.1v10.792h-.927a.8.8,0,1,0,0,1.6h20.174a.792.792,0,0,0,.8-.8A.731.731,0,0,0,493.942,157.84Zm-17.767-15.047H490.34l1.267,2.4h-16.7Zm-.487,14.794c0-1.47,0-7.337,0-10.792h7l-5.6,7.675a.124.124,0,0,0-.006.138l1.837,2.979Zm9.829-.048a.12.12,0,0,1-.085.048h-1.255a.119.119,0,0,1-.1-.1l-.463-5.509a.124.124,0,0,0-.123-.109h-.412a.125.125,0,0,0-.1.052l-1.94,2.753a.124.124,0,0,0-.005.135l.28.466a.125.125,0,0,0,.172.041l0,0,.8-.52a.123.123,0,0,1,.19.117l-.1,2.574a.12.12,0,0,1-.1.1h-1.206a.118.118,0,0,1-.085-.048l-1.711-2.834a.125.125,0,0,1,.006-.137l3.866-5.289a.123.123,0,0,1,.172-.027.116.116,0,0,1,.027.027l3.866,5.289a.124.124,0,0,1,.006.137Zm2.132.048,1.792-2.98a.124.124,0,0,0-.006-.137l-5.6-7.675h7v10.792Z"/></g></svg>